<svg width="79" height="85" viewBox="0 0 79 85" fill="none" xmlns="http://www.w3.org/2000/svg">
<path d="M28.7944 21.0648C28.8182 21.0576 28.8587 21.0193 28.8826 21.0121C29.0923 20.8445 29.2087 20.6273 29.2392 20.3842C29.2696 20.1411 29.1902 19.8794 29.0536 19.687C28.292 18.723 27.6852 17.582 27.2836 16.4307C27.2475 16.3118 27.2186 16.2166 27.1898 16.1214L27.1825 16.0976C27.1031 15.8359 27.0309 15.598 26.8655 15.3105C26.6545 14.9588 26.4746 14.6236 26.0706 14.4085C24.2008 13.313 21.5071 14.0527 20.3086 16.0274C19.2504 17.7776 19.4592 20.1826 20.8148 21.9018C21.5309 22.8017 22.4083 23.2889 23.2917 23.2806C23.5519 23.2796 23.7977 23.231 24.0363 23.1585C24.7282 22.9486 25.3811 22.4386 25.9619 21.6907C26.3473 21.158 26.6707 20.5922 26.908 20.0005C27.1045 20.3046 27.3249 20.6015 27.538 20.8745C27.8517 21.2211 28.3772 21.3214 28.7944 21.0648ZM22.3159 20.6667C21.4633 19.5744 21.3019 18.0124 21.9463 16.9594C22.1366 16.6418 22.3962 16.3811 22.749 16.1701C22.9493 16.0573 23.1734 15.9374 23.3881 15.8722C23.746 15.7636 24.1017 15.7336 24.4552 15.7822C24.7848 15.838 24.933 15.897 25.084 16.137C25.9062 17.4724 25.3424 19.3064 24.4333 20.5177C24.2453 20.7566 23.7716 21.3421 23.2988 21.3297C23.0147 21.338 22.6512 21.0846 22.3159 20.6667Z" fill="#CEC7DA"/>
<path d="M30.9892 18.424C31.1996 18.516 31.436 18.5222 31.6507 18.4571C31.6745 18.4498 31.6984 18.4426 31.7222 18.4353C31.77 18.4209 31.8105 18.3826 31.882 18.3609C32.2754 18.1116 32.4389 17.6202 32.2612 17.2065C31.8264 16.1172 31.315 14.9473 30.6598 13.5612C30.7128 12.7916 30.9234 12.0262 31.2656 11.3507C31.3654 11.1645 31.4985 10.9162 31.6511 10.818C31.6749 10.8107 31.6749 10.8107 31.6988 10.8035C31.706 10.8273 31.7515 10.8914 31.797 10.9555C32.6597 12.2527 33.3533 13.6791 33.8248 15.1469C33.9764 15.6466 34.5286 15.9207 35.0058 15.7758C35.1012 15.7469 35.1728 15.7252 35.2372 15.6796C35.6066 15.4376 35.7846 14.9938 35.6546 14.5656C35.2264 13.2405 34.6478 11.9351 33.9094 10.7042L34.5583 9.49389C35.0574 8.56292 35.3531 8.4212 35.4868 8.43258C35.5656 8.43464 35.8237 8.51222 36.2789 9.15354C37.1127 10.3555 37.7462 11.6702 38.1484 13.0812C38.3 13.5808 38.8117 13.8932 39.3366 13.7339C39.432 13.7049 39.5036 13.6832 39.5918 13.6304C39.9447 13.4194 40.1226 12.9756 39.9999 12.5712C39.5399 10.9699 38.8176 9.44833 37.8544 8.07774C37.3992 7.43642 36.6665 6.56752 35.5157 6.55305C33.9708 6.52824 33.1628 8.07262 32.8706 8.655L32.621 9.12049C31.9995 8.78948 31.2093 8.84742 30.5897 9.29532C30.0676 9.63565 29.7776 10.1394 29.5851 10.5356C29.452 10.7839 29.35 11.0487 29.2314 11.3445C28.9972 11.2597 28.7442 11.2845 28.52 11.4045C28.0479 11.6517 27.8583 12.2289 28.0981 12.6758C28.9643 14.4136 29.7661 16.1969 30.4819 17.9544C30.5635 18.1375 30.755 18.3392 30.9892 18.424Z" fill="#CEC7DA"/>
<path d="M30.5425 29.0567C30.5902 29.0422 30.6141 29.035 30.6618 29.0205C32.0456 28.6005 33.4193 27.9757 34.8401 27.0768C35.0403 26.964 35.2334 26.8275 35.4098 26.722C40.7279 23.2111 44.2198 17.8901 44.7175 12.4905C45.0106 9.33551 43.9859 6.21677 41.8816 3.91937C39.7773 1.62197 36.8327 0.333136 33.5999 0.326967C27.8124 0.316689 22.2146 3.67859 18.9013 6.84081C17.5078 8.17315 16.3963 9.57582 15.6165 10.9557C13.1015 15.4606 13.5384 21.2781 16.6491 25.0888C19.7838 28.8923 25.463 30.5204 30.4709 29.0784L30.5425 29.0567ZM18.1575 23.8775C15.5113 20.6533 15.1602 15.7192 17.302 11.8732C17.9986 10.6485 18.9792 9.41545 20.2273 8.20518C21.4017 7.09525 22.6837 6.08255 24.064 5.2219C25.6851 4.21023 27.3784 3.43647 29.0723 2.92235C30.6469 2.44444 32.1434 2.22409 33.5711 2.20649C36.2595 2.22197 38.6902 3.27704 40.4426 5.18758C42.1639 7.08156 43.0298 9.67689 42.7831 12.2981C42.3507 17.0543 39.1228 21.9574 34.3434 25.0969C32.8655 26.0651 31.4346 26.7592 30.0031 27.1937C29.9793 27.201 29.9554 27.2082 29.9554 27.2082C25.6776 28.4806 20.8036 27.1018 18.1575 23.8775Z" fill="#CEC7DA"/>
<path d="M39.5976 39.4038C39.2021 39.7317 39.1224 40.3275 39.4576 40.7454C40.6239 42.1842 41.5328 43.8052 42.1148 45.5512C42.187 45.7891 42.3785 45.9909 42.5961 46.1067C42.8136 46.2226 43.0811 46.2453 43.2958 46.1801L43.3197 46.1729C43.3913 46.1512 43.4556 46.1057 43.5272 46.0839C43.8967 45.8419 44.0746 45.3981 43.9208 44.9771C43.2665 42.9931 42.245 41.1726 40.9255 39.5724C40.7651 39.3872 40.5165 39.2548 40.2728 39.2248C40.0459 39.1638 39.8073 39.2362 39.5976 39.4038Z" fill="#CEC7DA"/>
<path d="M38.5532 38.9672C38.6081 38.9766 38.6797 38.9548 38.7513 38.9331C38.7751 38.9259 38.7751 38.9259 38.799 38.9186C38.9421 38.8752 39.0708 38.7842 39.2234 38.6859C39.5618 38.4273 39.7687 38.0787 39.7941 37.7332C39.8173 37.4663 39.7212 37.2356 39.5297 37.0339C39.1467 36.6305 38.6646 36.6729 38.0926 37.1064C37.6898 37.4105 37.5834 37.8325 37.7517 38.3011C37.8095 38.4914 37.9077 38.6435 38.0226 38.7645C38.1686 38.9021 38.3717 38.9704 38.5532 38.9672Z" fill="#CEC7DA"/>
<path d="M47.3845 41.7952C47.2747 41.7766 47.2219 41.6887 47.1237 41.5366C47.0254 41.3846 46.9199 41.2087 46.7096 41.1167C46.234 40.9232 45.6758 41.1446 45.4574 41.6266C45.3054 41.9845 45.3017 42.4014 45.4722 42.7914C45.6426 43.1814 45.9418 43.4803 46.2764 43.6386C46.8381 43.8578 47.54 43.8527 48.3034 43.6209C48.6852 43.5051 49.0286 43.3489 49.3337 43.1524C50.056 42.6993 50.6107 42.0372 50.8763 41.2811C51.1939 40.3532 51.0671 39.2485 50.5086 38.3527C49.9884 37.4972 49.1609 36.9169 48.2414 36.8063C47.7542 36.7463 47.3197 36.7742 46.8686 36.8332L46.8447 36.8404C46.6944 36.8601 46.544 36.8797 46.4103 36.8683C46.0546 36.8983 45.7727 36.828 45.6578 36.707C45.5812 36.6263 45.6044 36.3594 45.7425 36.2136C45.9617 35.9912 46.3173 35.9612 46.5848 35.9839C46.6636 35.986 46.7496 36.0119 46.8356 36.0377C47.0626 36.0987 47.3373 36.1453 47.633 36.0036C47.8643 35.9074 48.0119 35.7067 48.059 35.4326C48.1227 35.1274 48.0144 34.7705 47.7846 34.5285C47.5165 34.2461 47.0553 34.1003 46.4011 34.091C45.6131 34.0703 44.8952 34.3661 44.3688 34.8637C43.5256 35.6912 43.4384 37.1208 44.195 37.9824C44.7073 38.5545 45.4959 38.8348 46.4675 38.7737C46.6728 38.7634 46.8781 38.753 47.0523 38.7261C47.3769 38.6796 47.661 38.6713 47.9285 38.6941C48.2819 38.7427 48.6144 38.9796 48.8326 39.355C49.0891 39.7709 49.1619 40.2684 49.0244 40.6739C48.892 41.1818 48.051 41.9307 47.3845 41.7952Z" fill="#CEC7DA"/>
<path d="M46.1385 51.6832C47.8086 51.1763 49.5257 50.3953 51.1063 49.4219C53.6261 47.8516 55.7796 45.8469 56.9853 43.896C59.8582 39.2825 58.3496 32.5951 53.6858 29.3336C48.814 25.9015 41.9291 28.199 37.5949 31.775C34.495 34.3528 31.4667 38.8835 32.3289 43.8704C32.8642 47.0078 34.7067 49.6445 37.4922 51.2674C40.3637 52.9162 43.7766 52.4 46.1385 51.6832ZM34.2237 43.5032C33.5044 39.3304 36.1283 35.442 38.8161 33.2232C40.5031 31.8277 42.5369 30.7168 44.5649 30.1013C47.6902 29.1527 50.5369 29.4319 52.5865 30.8625C56.461 33.584 57.7351 39.0694 55.3664 42.8544C52.4363 47.5372 43.5453 52.4962 38.486 49.5627C36.1645 48.2666 34.6717 46.0954 34.2237 43.5032Z" fill="#CEC7DA"/>
<path d="M49.971 74.2684C51.1526 75.1569 52.4921 75.1921 53.8319 74.3697C54.8832 73.7129 55.6874 72.5854 56.0877 71.2427C56.6411 72.0361 57.2301 72.6888 57.895 73.1625C58.1342 73.3497 58.4327 73.3891 58.7429 73.2949C58.8144 73.2732 58.9099 73.2442 58.9742 73.1987C59.0863 73.1387 59.1673 73.0622 59.2411 72.9618C59.5528 72.5294 59.4511 71.9367 59.042 71.6192C57.6284 70.5672 56.6228 68.456 56.1795 66.8237C56.0589 66.3406 55.5472 66.0282 55.0629 66.1493C54.9436 66.1855 54.8243 66.2217 54.7194 66.3055C54.8265 66.1431 54.8786 65.9714 54.8685 65.7665C54.8679 65.5069 54.7718 65.2762 54.5876 65.0983C53.5513 64.0877 52.0281 64.1343 50.9429 64.5936C50.1606 64.9349 49.3529 65.6218 48.8604 66.3169C48.6962 66.5486 48.5703 66.8207 48.4351 67.1475C47.543 69.445 47.6699 72.5244 49.971 74.2684ZM54.323 67.2313C54.5387 68.5429 54.534 69.5576 54.3284 70.4255C54.0946 71.4579 53.5261 72.332 52.8132 72.7302C52.1552 73.1378 51.6586 73.1326 51.1419 72.7178C49.6516 71.5852 49.601 69.4439 50.2298 67.824C50.3224 67.614 50.3817 67.4661 50.4555 67.3658C50.7267 66.9717 51.2437 66.5289 51.7064 66.3365C51.778 66.3148 51.8423 66.2693 51.9139 66.2476C52.3672 66.11 52.9188 66.1245 53.249 66.44C53.4333 66.6179 53.6747 66.7265 53.9277 66.7017C54.1092 66.6986 54.3001 66.6406 54.4526 66.5423C54.3362 66.7596 54.2819 67.0099 54.323 67.2313Z" fill="#CEC7DA"/>
<path d="M60.3664 69.3724C60.4624 69.6031 60.6301 69.8121 60.8643 69.8969C61.0746 69.9889 61.311 69.9951 61.5257 69.93C61.5496 69.9227 61.5734 69.9155 61.5973 69.9082C61.6689 69.8865 61.7094 69.8482 61.7571 69.8338C62.1504 69.5845 62.3212 69.1169 62.1363 68.6793C61.6076 67.2808 60.9213 65.8782 60.0846 64.4952C60.0017 63.7928 60.0275 62.5898 60.1404 61.9319C60.2086 61.4695 60.5962 60.8582 61.1089 60.5727C61.3973 60.4072 61.8462 60.4268 62.0139 60.6358C62.3253 61.0609 62.9224 61.1395 63.349 60.8282C63.5659 60.6844 63.6752 60.4434 63.7295 60.193C63.7599 59.95 63.7043 59.681 63.5439 59.4959C62.7989 58.5008 61.2679 58.2639 60.1378 58.9187C59.1437 59.5062 58.4132 60.5334 58.2487 61.6227C58.2321 61.6537 58.2465 61.7013 58.2299 61.7323C58.1844 61.6682 58.1389 61.604 58.0933 61.5399C57.9257 61.331 57.7082 61.2151 57.4407 61.1924C57.1732 61.1696 56.9346 61.242 56.7488 61.4024C56.5391 61.5699 56.4227 61.7872 56.3922 62.0302C56.3618 62.2733 56.4412 62.535 56.5778 62.7274C58.2086 64.7528 59.4556 66.9726 60.3664 69.3724Z" fill="#CEC7DA"/>
<path d="M70.5405 64.7774C70.8506 64.6833 71.1463 64.5416 71.411 64.3833L71.4587 64.3688C72.3741 63.7792 73.7402 62.0135 73.7226 60.6677C73.7213 60.1484 73.3 59.7047 72.7557 59.714C72.2352 59.7161 71.7897 60.1371 71.7982 60.6801C71.7923 61.1756 70.9931 62.4055 70.3756 62.7748C69.8702 63.0841 69.2066 63.1297 68.6854 62.8721C68.2026 62.6549 67.8052 62.2039 67.4765 61.5501C69.0772 60.9864 71.0012 59.8568 71.58 58.33C72.0141 57.1849 71.8737 55.4347 70.8808 54.5668C70.1342 53.91 68.9473 53.7765 67.831 54.2193C66.2043 54.8689 65.0168 56.4505 64.8658 58.1852C64.8034 59.0097 64.939 59.7999 65.1101 60.4495C65.6335 62.6032 66.5417 63.9645 67.9041 64.5903C68.7288 64.9895 69.6577 65.0454 70.5405 64.7774ZM66.7858 58.33C66.8692 57.3173 67.5903 56.345 68.5468 55.9767C68.5945 55.9622 68.6422 55.9478 68.6899 55.9333C69.0001 55.8391 69.4273 55.7874 69.6427 55.9819C69.8964 56.2167 70.0464 57.0546 69.833 57.639C69.5175 58.4883 68.0989 59.3086 66.9277 59.742C66.8288 59.3303 66.7321 58.84 66.7858 58.33Z" fill="#CEC7DA"/>
<path d="M76.2356 53.4092C74.3539 51.3301 71.5452 49.974 68.3306 49.5986C62.6634 48.9542 56.2296 51.1927 50.6466 55.7194C46.491 59.1112 42.5354 65.2226 43.0539 71.2232C43.5356 76.8452 48.0264 80.6528 54.2079 80.6734C56.0057 80.6734 57.8745 80.392 59.7592 79.82C62.0257 79.132 64.3271 78.0438 66.8064 76.5118C68.0341 75.7495 69.3284 74.863 70.6176 73.874C74.3878 71.0149 76.9132 67.832 78.089 64.4091C79.5044 60.316 78.8284 56.2859 76.2356 53.4092ZM55.0045 54.9683C56.9379 53.7839 58.903 52.8757 60.9071 52.2674C63.4121 51.5071 65.8397 51.264 68.1037 51.5122C70.8549 51.8204 73.2358 52.9686 74.8039 54.7012C76.9609 57.0866 77.4774 60.3336 76.2755 63.8423C75.2205 66.8907 72.9402 69.7653 69.468 72.4042C63.7485 76.7384 58.754 78.8259 54.2128 78.8011C48.9935 78.7743 45.3642 75.7446 44.966 71.0845C44.5066 65.7936 48.2198 60.1715 51.8584 57.2223C52.8758 56.3679 53.9293 55.6324 55.0045 54.9683Z" fill="#CEC7DA"/>
<path d="M36.7183 26.7406C36.4674 26.6868 36.2144 26.7116 35.9903 26.8316C35.7423 26.9588 35.5947 27.1595 35.5332 27.386C35.4717 27.6126 35.5034 27.8888 35.6544 28.1288L36.8508 30.182C37.069 30.5575 37.5446 30.751 37.9741 30.6206C38.0456 30.5989 38.1172 30.5772 38.2054 30.5244C38.6465 30.2606 38.7883 29.6979 38.5413 29.2273L37.3449 27.174C37.1772 26.965 36.9452 26.8016 36.7183 26.7406Z" fill="#CEC7DA"/>
<path d="M50.5632 49.9505C50.3196 49.9205 50.0977 49.9619 49.888 50.1294C49.4542 50.417 49.3434 50.9963 49.6309 51.4287L49.9185 51.861C49.9257 51.8848 49.9785 51.9727 50.0334 51.9821C50.3882 52.5499 50.7335 53.1727 51 53.7933C51.1922 54.2546 51.6988 54.4646 52.1521 54.327C52.176 54.3198 52.2237 54.3053 52.2476 54.2981C52.2953 54.2836 52.3358 54.2453 52.3835 54.2308C52.7768 53.9815 52.9404 53.4902 52.7555 53.0526C52.3568 52.0824 51.8221 51.1793 51.2231 50.3218C51.0316 50.1201 50.8068 49.9805 50.5632 49.9505Z" fill="#CEC7DA"/>
<path d="M6.52512 65.7329C13.4993 66.7341 20.5509 67.2181 27.6013 67.1829C22.6038 71.9216 17.6229 76.6292 12.6254 81.3679C12.1633 81.82 12.4283 82.7789 13.0803 82.8668C21.318 84.0821 29.647 84.5682 37.9647 84.3302C39.125 84.2898 39.0967 82.4796 37.9125 82.5272C30.3445 82.7456 22.7774 82.366 15.2589 81.3741C20.3613 76.5516 25.4564 71.7054 30.5588 66.8829C31.1495 66.3398 30.6099 65.3344 29.8602 65.354C22.6956 65.5279 15.5152 65.1349 8.40516 64.2009C12.9512 58.404 17.7748 52.8347 22.8903 47.5406C23.45 46.9809 22.9725 46.0086 22.1918 46.0117C15.8794 46.1607 9.60348 45.5712 3.44993 44.269L9.47546 37.1656C10.2254 36.2884 8.90437 35.0265 8.13779 35.9347L1.11716 44.2235C0.676745 44.7469 0.874543 45.5703 1.57208 45.7223C7.65186 47.1249 13.8613 47.8386 20.0977 47.8685C15.1491 53.112 10.4781 58.583 6.06078 64.2889C5.69413 64.712 5.78709 65.6191 6.52512 65.7329Z" fill="#CEC7DA"/>
</svg>
