<svg width="33" height="37" viewBox="0 0 33 37" fill="none" xmlns="http://www.w3.org/2000/svg">
<path d="M14.266 8.18787C12.4517 6.32754 9.97957 5.39177 7.62979 5.67509C5.28775 5.97668 3.08662 7.48953 1.76941 9.7485C0.452197 12.0075 0.188746 14.6391 1.09312 16.7767C1.17042 16.9594 1.32186 17.1108 1.51346 17.202C1.69733 17.275 1.92136 17.2879 2.12526 17.2017C2.31063 17.1232 2.46507 16.9717 2.55926 16.7811C2.63491 16.5983 2.63176 16.3842 2.54673 16.1833C1.82787 14.4842 2.04669 12.3668 3.12764 10.5309C4.20859 8.69498 5.95865 7.45913 7.80942 7.23615C9.6602 7.01316 11.6596 7.76125 13.1292 9.27195C14.5989 10.7827 15.2962 12.7924 14.9908 14.6018C14.8396 15.4843 14.5201 16.3303 14.1681 17.2547C13.7512 18.3357 13.3128 19.469 13.1926 20.683C12.9723 22.9518 13.8535 25.0346 14.7223 27.0364C15.4798 28.8269 16.2172 30.5181 16.176 32.2803C16.1561 32.9565 16.0295 33.4839 15.7593 33.8783C15.4597 34.3066 14.919 34.5784 14.2887 34.5866C13.6584 34.5948 13.099 34.3576 12.7946 33.9479C12.6725 33.7626 12.4731 33.6531 12.2677 33.6323C12.0622 33.6116 11.8613 33.6535 11.6992 33.7867C11.5293 33.9017 11.4088 34.0819 11.3857 34.2855C11.344 34.497 11.4028 34.6875 11.5249 34.8728C12.1153 35.7 13.1706 36.1798 14.3231 36.1661C14.8005 36.1579 15.2578 36.0506 15.6841 35.8703C15.8324 35.8075 15.9545 35.7344 16.095 35.6533C16.4982 35.4181 16.8256 35.1073 17.0774 34.7208C17.5082 34.0861 17.7274 33.261 17.758 32.3003C17.8053 30.1909 16.9674 28.2621 16.1713 26.3803C15.3674 24.4802 14.5836 22.6793 14.7685 20.7917C14.8655 19.7814 15.2391 18.8048 15.6452 17.7498C15.9971 16.8255 16.3708 15.8489 16.5497 14.8254C16.9415 12.5487 16.0803 10.0482 14.266 8.18787Z" fill="#D9D1E7"/>
<path d="M5.66148 16.6749C5.69855 16.6592 5.73562 16.6435 5.75416 16.6356C6.05383 16.4658 6.20514 16.1002 6.11081 15.7739C5.84636 14.7873 6.04998 13.6672 6.66614 12.6957C7.26377 11.732 8.19362 11.037 9.19004 10.8093C9.39087 10.7674 9.57933 10.6446 9.68125 10.4722C9.8017 10.292 9.82482 10.0884 9.78459 9.89001C9.74437 9.69163 9.62227 9.50634 9.44921 9.40724C9.26842 9.28986 9.06294 9.2691 8.86211 9.31099C7.44549 9.63031 6.16498 10.5813 5.32645 11.9054C4.48791 13.2295 4.23498 14.8013 4.57988 16.1847C4.63864 16.3752 4.76074 16.5605 4.9338 16.6596C5.10686 16.7587 5.32009 16.7978 5.53173 16.7298C5.58734 16.7062 5.6244 16.6905 5.66148 16.6749Z" fill="#D9D1E7"/>
<path d="M9.43127 28.478C9.46835 28.4623 9.50542 28.4466 9.52396 28.4388C9.5425 28.4309 9.56104 28.4231 9.59038 28.3891C10.7828 27.54 11.3 25.9211 10.9256 24.3131C10.5436 22.6869 9.34748 21.5128 7.89672 21.2866C7.47803 21.2268 7.05324 21.5142 6.9962 21.9476C6.95455 22.1591 7.01331 22.3496 7.13541 22.5349C7.24978 22.7019 7.44909 22.8114 7.65457 22.8322C8.65264 22.97 9.20754 23.9199 9.39778 24.6795C9.58801 25.4391 9.50334 26.5304 8.68778 27.1339C8.33715 27.39 8.25849 27.8756 8.5135 28.2201C8.70051 28.5071 9.09761 28.6191 9.43127 28.478Z" fill="#D9D1E7"/>
<path d="M19.4132 17.5127C19.1953 17.1525 18.7163 17.0536 18.3317 17.281C18.1618 17.3959 18.0336 17.5579 17.9919 17.7694C17.9503 17.9808 17.9905 18.1792 18.0863 18.3541C19.4573 20.5097 20.008 23.2061 19.5715 25.7387C19.5298 25.9502 19.5886 26.1407 19.7107 26.326C19.8251 26.493 20.0059 26.6104 20.2191 26.6494C20.3612 26.6755 20.5064 26.6571 20.6547 26.5944C20.6918 26.5787 20.7103 26.5708 20.7474 26.5552C20.9544 26.4245 21.0934 26.2365 21.1273 26.0067C21.6101 23.0668 20.9866 19.9919 19.4132 17.5127Z" fill="#D9D1E7"/>
<path d="M21.708 8.42109C21.4824 8.04268 21.0142 7.91765 20.6296 8.14499C20.2635 8.3645 20.1323 8.82927 20.3394 9.21553C24.1789 15.8626 25.5484 24.007 24.1152 31.5708C24.0736 31.7823 24.1138 31.9807 24.2282 32.1477C24.3425 32.3147 24.5233 32.4321 24.7365 32.4711C24.8787 32.4972 25.0424 32.471 25.1722 32.4161C25.2093 32.4004 25.2278 32.3925 25.2649 32.3768C25.4533 32.254 25.5923 32.066 25.634 31.8545C27.1736 23.9225 25.7422 15.3735 21.708 8.42109Z" fill="#D9D1E7"/>
<path d="M25.1435 1.04404C24.8962 0.717852 24.3801 0.634619 24.048 0.882824C23.8781 0.997791 23.7654 1.19626 23.7423 1.3999C23.7192 1.60354 23.7594 1.80193 23.9 1.97937C30.6075 10.8595 32.7861 23.0342 29.605 33.7501C29.537 33.9512 29.5587 34.1574 29.6623 34.3506C29.7581 34.5254 29.9281 34.6689 30.1228 34.7158C30.2989 34.7705 30.489 34.7547 30.6558 34.6841C30.6929 34.6684 30.7299 34.6528 30.7485 34.6449C30.9261 34.5482 31.0543 34.3863 31.1037 34.1931C34.416 23.0124 32.1477 10.3155 25.1435 1.04404Z" fill="#D9D1E7"/>
</svg>
