<svg width="70" height="60" viewBox="0 0 70 60" fill="none" xmlns="http://www.w3.org/2000/svg">
<path d="M36.9888 43.7542C34.4218 45.2392 31.5228 46.1257 28.5574 46.3474C28.3361 46.3695 28.137 46.4582 27.982 46.6355C27.8271 46.8128 27.7607 47.0123 27.7829 47.2339C27.805 47.6772 28.1812 48.0096 28.6017 48.0096C28.6238 48.0096 28.6459 48.0096 28.6681 48.0096C31.8769 47.788 35.0193 46.8128 37.8077 45.1949C38.206 44.9732 38.3388 44.4635 38.1175 44.0645C37.8962 43.6656 37.3872 43.5104 36.9888 43.7542Z" fill="#C5BBD0"/>
<path d="M43.6942 39.654C43.6057 39.2108 43.1409 38.9226 42.6983 39.0335C42.477 39.0778 42.3 39.2108 42.1672 39.4102C42.0566 39.5875 42.0123 39.8313 42.0566 40.0308L44.0261 48.8962C44.1146 49.2729 44.4466 49.5389 44.8449 49.5389C44.9113 49.5389 44.9777 49.5389 45.022 49.5167C45.2433 49.4724 45.4203 49.3394 45.5531 49.14C45.6637 48.9626 45.708 48.7188 45.6637 48.5194L43.6942 39.654Z" fill="#C5BBD0"/>
<path d="M42.3885 35.7311V35.044C42.3885 34.5786 42.0123 34.2018 41.5476 34.2018C41.0829 34.2018 40.7067 34.5786 40.7067 35.044V35.7311C40.7067 36.1965 41.0829 36.5733 41.5476 36.5733C42.0123 36.5733 42.3885 36.1965 42.3885 35.7311Z" fill="#C5BBD0"/>
<path d="M55.9319 40.6514C55.3344 39.0334 54.7148 37.3712 53.4755 36.0414C52.7895 35.31 52.0371 34.9332 51.2625 34.9332C51.2183 34.9332 51.174 34.9332 51.1298 34.9332C50.3995 34.9776 49.7135 35.3987 49.116 36.1301C48.607 36.7506 48.2529 37.482 47.9431 38.435C47.8767 38.2356 47.7882 38.0361 47.6996 37.8366C47.6111 37.6372 47.4562 37.482 47.257 37.3934C47.0579 37.3047 46.8144 37.3047 46.6153 37.3934C46.4161 37.482 46.2612 37.6372 46.1727 37.8366C46.0842 38.0361 46.0842 38.2577 46.1727 38.4794C47.3677 41.3384 48.3193 44.3083 49.0496 47.3004C49.1381 47.6772 49.47 47.9431 49.8684 47.9431C49.9348 47.9431 50.0012 47.9431 50.0675 47.921C50.5101 47.8101 50.7978 47.3669 50.6872 46.9236C50.2446 45.1062 49.6913 43.2002 49.0274 41.2719C49.0496 41.2276 49.0717 41.1833 49.0717 41.139C49.3151 39.787 49.5807 38.2799 50.4437 37.216C50.5986 37.0166 50.9306 36.662 51.2625 36.6398C51.2847 36.6398 51.2847 36.6398 51.3068 36.6398C51.5945 36.6398 51.9043 36.8393 52.2805 37.2382C53.2985 38.3021 53.8075 39.7427 54.3828 41.2498C54.8918 42.6461 55.4229 44.0867 56.3745 45.3279C56.5073 45.5052 56.7065 45.616 56.9278 45.6381C57.1491 45.6603 57.3703 45.616 57.5474 45.483C57.7244 45.35 57.8351 45.1505 57.8572 44.9289C57.8793 44.7073 57.8351 44.4856 57.6802 44.3083C56.9056 43.2445 56.4409 41.9812 55.9319 40.6514Z" fill="#C5BBD0"/>
<path d="M69.9843 50.0486C69.8737 47.5885 69.2098 45.217 68.568 42.9342L67.5279 39.1664C67.3066 38.3685 67.1517 37.5263 67.0189 36.795C66.7976 35.6203 66.5764 34.4235 66.1116 33.271C65.5805 31.919 64.7174 31.1654 63.5224 30.9881C62.1504 30.8108 60.6898 31.4979 59.9153 32.7169C59.185 33.8472 59.008 35.1992 58.9416 36.1079C58.8309 37.6371 58.9416 38.967 59.2957 40.1638C59.6719 41.4271 60.2915 42.3801 61.1103 43.0007C61.5529 43.311 61.9955 43.4883 62.4159 43.5104C62.4381 43.5104 62.4602 43.5104 62.4823 43.5104C62.9913 43.5104 63.5224 43.311 64.0536 42.8899C64.983 42.1585 65.6912 41.0725 66.001 39.92L66.9747 43.4218C67.5943 45.616 68.214 47.8988 68.3246 50.1595C68.4131 51.8882 68.2139 54.3483 66.7534 56.3652C66.0673 57.3182 64.8723 58.3156 63.5446 58.3156C63.4782 58.3156 63.3896 58.3156 63.3233 58.3156C62.0619 58.2048 60.8669 57.0966 60.4907 55.6781C60.1366 54.3705 60.38 52.8191 61.1767 51.312C61.907 49.8713 63.0356 48.608 64.1199 47.3669C64.4298 47.0123 64.3855 46.5025 64.0536 46.1922C63.8765 46.0371 63.6552 45.9706 63.4561 45.9928C63.2348 46.0149 63.0356 46.1036 62.8807 46.2809C61.7299 47.5885 60.5571 48.9405 59.7161 50.5584C58.7424 52.4423 58.4547 54.437 58.9195 56.1214C59.4727 58.2269 61.2431 59.8227 63.2126 59.9778C63.3454 59.9778 63.4561 60 63.5667 60C65.5363 60 67.2181 58.6259 68.1254 57.3626C69.8294 54.9024 70.0729 52.0212 69.9843 50.0486ZM60.5792 36.2187C60.6677 35.044 60.889 34.224 61.2873 33.6034C61.6635 33.005 62.3717 32.6282 63.0577 32.6282C63.1462 32.6282 63.2126 32.6282 63.279 32.6504C64.2085 32.7834 64.4076 33.9802 64.5625 34.8446C64.5847 34.9554 64.6068 35.0662 64.6068 35.1549C64.7396 35.7976 64.7838 36.4847 64.7396 37.1717C64.7174 37.7258 64.6068 38.302 64.474 38.8783C64.2085 39.9643 63.9208 40.8509 63.0135 41.5601C62.7258 41.8039 62.5487 41.826 62.4602 41.826C62.3717 41.826 62.2168 41.7595 62.0619 41.6487C61.398 41.1611 61.0218 40.3189 60.8447 39.6984C60.5792 38.6788 60.4685 37.5485 60.5792 36.2187Z" fill="#C5BBD0"/>
<path d="M17.736 51.2455C17.0057 50.6027 16.0762 50.4476 15.2574 50.3146H15.2132C14.8812 50.2703 14.5714 50.2038 14.2395 50.1373C14.3723 49.6497 14.4386 49.14 14.4829 48.6745C14.5272 48.2756 14.5714 47.921 14.6599 47.5664C14.8148 46.9236 15.014 46.2809 15.1911 45.6603C15.3017 45.2614 15.4345 44.8403 15.5451 44.4413L15.7222 43.8208C17.3376 44.4857 19.2851 44.3527 20.812 43.4883C22.0291 42.8012 23.0692 41.6044 23.7774 40.053C24.397 38.7232 24.729 37.3269 25.0388 35.9749C25.1052 35.6646 25.1937 35.3543 25.2601 35.0662C26.3002 30.6114 27.3624 26.1566 28.4025 21.7239C29.0885 18.8426 29.3984 15.1857 25.7027 12.6147C23.9766 11.4179 21.8078 10.6865 19.0195 10.3762H18.9531C17.1163 10.1767 14.6157 9.91079 12.7789 10.9081C10.5659 12.105 9.72501 14.4986 8.99472 16.6263C8.86195 17.0252 8.72917 17.3799 8.59639 17.7566C8.02102 19.2637 7.46777 20.8152 6.93666 22.3001C6.44981 23.6742 5.94081 25.0927 5.43183 26.4668C4.50238 28.9491 3.44015 31.786 3.52867 34.7116C3.59506 37.1939 4.72368 40.0973 7.06943 41.5823C7.29073 41.7374 7.53415 41.8482 7.79971 41.9812C7.42351 43.1558 7.02518 44.3527 6.60471 45.5273C6.56045 45.6825 6.4498 45.8598 6.36128 46.0592C6.13998 46.5025 5.87442 47.0344 5.80803 47.5885C5.69739 47.5442 5.58674 47.4999 5.47609 47.4555C4.32534 46.9458 2.59922 46.1701 1.3157 46.7906C0.895232 46.9901 0.364121 47.4334 0.142823 48.3864C-0.255512 50.0487 0.231345 50.8465 0.961627 51.312C1.35996 51.5558 1.84681 51.7109 2.26727 51.8439C2.5107 51.9104 2.75413 51.999 3.01969 52.0877C4.36961 52.5975 5.49822 52.9964 6.58258 53.351C9.65861 54.3927 12.2478 55.1019 14.7485 55.5895C15.3902 55.7225 17.3376 56.0993 18.2228 54.6143C18.7982 53.5283 18.5769 51.9769 17.736 51.2455ZM5.14414 34.6008C5.07775 31.9855 6.02934 29.4367 6.93666 26.9766C7.24648 26.1565 7.55629 25.3143 7.84397 24.4943C8.81768 24.583 9.79139 24.7603 10.7208 25.0705C11.1413 25.2035 11.606 24.9597 11.7388 24.5386C11.8716 24.1175 11.6282 23.6521 11.2077 23.5191C10.3004 23.231 9.3488 23.0315 8.39722 22.9207C8.41935 22.8764 8.44148 22.832 8.44148 22.7877C8.57426 22.3888 8.72916 22.012 8.86194 21.6131C10.0791 21.7239 11.2962 21.9898 12.447 22.4109C12.8674 22.5661 13.3322 22.3444 13.4871 21.9233C13.642 21.5022 13.4207 21.0368 13.0002 20.8817C11.8495 20.4606 10.6545 20.1724 9.43732 20.0394C9.59223 19.5962 9.74714 19.1751 9.92418 18.7318C11.0749 18.7983 12.2257 19.1529 13.2215 19.7292C13.6198 19.9508 14.1067 19.8178 14.328 19.4189C14.5493 19.0199 14.4165 18.5323 14.0182 18.3107C12.9338 17.6901 11.7167 17.2912 10.4774 17.1582C10.4774 17.136 10.4995 17.1139 10.4995 17.1139C11.1634 15.1857 11.8495 13.191 13.5092 12.3044C14.9034 11.5509 17.1385 11.7947 18.7539 11.972H18.8203C21.321 12.238 23.2463 12.8807 24.7511 13.9224C27.0747 15.5403 27.6722 17.6901 26.8092 21.3471L26.6985 21.8125C25.7691 21.5022 24.7954 21.2584 23.8217 21.1255C23.3791 21.059 22.9586 21.3692 22.8922 21.8125C22.8479 22.145 23.0029 22.4553 23.2684 22.6104C23.3569 22.6769 23.4676 22.6991 23.5782 22.7212C24.5077 22.8542 25.4371 23.098 26.3223 23.4083L26.0346 24.6716C25.3707 24.4278 24.6626 24.2726 23.9544 24.2283C23.5118 24.2062 23.1135 24.5386 23.0914 24.9819C23.0693 25.2922 23.2241 25.5803 23.4676 25.7354C23.5782 25.8019 23.711 25.8463 23.8438 25.8463C24.4634 25.8906 25.0831 26.0457 25.6584 26.2674L25.3265 27.6636L23.534 27.4199C23.4676 27.3977 23.3791 27.3755 23.3127 27.3534C23.025 27.309 22.7152 27.3977 22.516 27.5972C22.2947 27.8188 22.2062 28.1291 22.3168 28.4394C22.3832 28.6167 22.4939 28.7718 22.6488 28.8826C22.7373 28.9491 22.848 28.9935 22.9807 28.9935H23.0471C23.1135 29.0156 23.202 29.0156 23.2684 29.0156L24.9503 29.2372L23.4454 35.5981C23.1356 36.8836 22.8258 38.1913 22.2947 39.3659C21.8964 40.2303 21.1661 41.4049 19.9932 42.0698C18.8867 42.6904 17.4704 42.7791 16.2975 42.3136C16.2533 42.2915 16.1869 42.2693 16.1426 42.2693L17.9573 35.6868C18.2228 34.7116 18.5326 33.6256 18.4663 32.4953C18.3999 31.099 17.736 29.9243 16.7401 29.3037C15.1025 28.3286 13.0445 29.1043 11.938 30.3233C10.8536 31.5201 10.3889 33.138 10.0348 34.4456C9.50371 36.3074 8.92833 38.3242 8.30869 40.3854C6.20637 39.2994 5.1884 36.7506 5.14414 34.6008ZM11.5839 34.8667C11.9159 33.6699 12.3142 32.318 13.133 31.3871C13.819 30.6336 15.0362 30.1459 15.8992 30.6557C16.541 31.0546 16.8065 31.8747 16.8508 32.5396C16.895 33.404 16.6516 34.3348 16.4082 35.2214L13.996 43.9759C13.8854 44.3748 13.7748 44.7738 13.642 45.1727C13.4428 45.8155 13.2436 46.5025 13.0887 47.1674C12.9781 47.6107 12.9338 48.0318 12.8896 48.4529C12.8453 48.7854 12.801 49.1178 12.7346 49.4281C11.252 49.2065 9.68075 48.6524 8.26445 48.1869L7.77759 48.0318C7.53416 47.9431 7.4235 47.8545 7.4235 47.8323C7.35711 47.6107 7.6448 47.0344 7.79971 46.702C7.93249 46.4582 8.04314 46.2144 8.10953 45.9928C9.48158 42.2028 10.6102 38.2577 11.5839 34.8667ZM15.0583 53.9494C12.624 53.4618 10.1012 52.7748 7.1137 51.7553C6.05147 51.4006 4.94497 51.0017 3.59506 50.4919C3.30737 50.3811 3.01968 50.2925 2.77626 50.226C2.31153 50.0708 1.84681 49.9379 1.71403 49.7605C1.58125 49.6276 1.60339 49.2286 1.73617 48.6967C1.82469 48.2978 2.00172 48.2091 2.04598 48.1869C2.64348 47.8988 4.12618 48.5637 4.83433 48.874C8.06528 50.3368 11.4733 51.3563 14.9698 51.9325H15.014C15.5894 52.0212 16.1426 52.1099 16.5188 52.3536C16.5852 52.398 16.6295 52.4423 16.6959 52.4866C16.9614 52.7304 17.05 53.4175 16.8508 53.7721C16.6295 54.0602 16.0541 54.1267 15.0583 53.9494Z" fill="#C5BBD0"/>
<path d="M14.4829 33.138C14.2173 33.0494 13.9075 33.1158 13.7084 33.3153C13.3985 33.6034 13.3543 34.0467 13.5756 34.3792C13.642 34.49 13.7305 34.5564 13.819 34.6229C14.0624 34.7781 14.3723 34.8002 14.6378 34.6673C15.014 34.49 15.1911 34.0689 15.0804 33.6921C14.9698 33.404 14.7485 33.2045 14.4829 33.138Z" fill="#C5BBD0"/>
<path d="M6.75961 14.6981C5.52035 14.0775 4.12618 13.6785 2.73201 13.5677C2.28941 13.5234 1.89107 13.8559 1.86894 14.2991C1.84681 14.6094 2.00172 14.8975 2.24515 15.0527C2.3558 15.1191 2.46644 15.1635 2.59922 15.1635C3.7721 15.2521 4.96711 15.5846 6.02933 16.1387C6.42767 16.3381 6.91453 16.183 7.1137 15.7841C7.31287 15.3851 7.15795 14.8975 6.75961 14.6981Z" fill="#C5BBD0"/>
<path d="M8.19804 10.4649C8.2423 10.5092 8.28657 10.5314 8.33083 10.5757C8.64065 10.7751 9.06111 10.7308 9.34879 10.4427C9.65861 10.1324 9.65862 9.60048 9.32667 9.29019C8.24231 8.22635 6.93665 7.38415 5.52035 6.8079C5.09988 6.6306 4.63516 6.85223 4.45812 7.25117C4.28108 7.67228 4.50238 8.13772 4.90072 8.31503C6.13998 8.82478 7.26859 9.55616 8.19804 10.4649Z" fill="#C5BBD0"/>
<path d="M12.6019 1.44438C12.2478 1.17841 11.7388 1.26705 11.4733 1.64382C11.2077 1.99844 11.2962 2.50822 11.6724 2.77418C12.5355 3.37259 13.133 4.32561 13.3543 5.34512C13.3986 5.56676 13.5313 5.74405 13.7084 5.85487C13.8854 5.96568 14.0846 6.01001 14.3059 5.96568C14.7485 5.87703 15.014 5.43378 14.9255 5.01267C14.6378 3.57205 13.7969 2.28658 12.6019 1.44438Z" fill="#C5BBD0"/>
<path d="M19.1301 4.70237C19.108 5.01266 19.2629 5.27863 19.5064 5.43378C19.617 5.50027 19.7498 5.54459 19.8826 5.56675C20.3252 5.58891 20.7014 5.25646 20.7235 4.79103C20.7899 3.43907 20.7899 2.08708 20.7014 0.757282C20.6792 0.314015 20.303 -0.0405776 19.8383 0.0037491C19.3957 0.0259125 19.0416 0.424832 19.0859 0.868099C19.1965 2.13141 19.1965 3.4169 19.1301 4.70237Z" fill="#C5BBD0"/>
<path d="M24.3749 6.83005C24.397 6.85222 24.4413 6.8744 24.4856 6.8744C24.8839 7.0517 25.3707 6.87438 25.5478 6.47544C26.101 5.21213 26.8977 4.08181 27.8714 3.10662C28.1812 2.79633 28.1812 2.28656 27.8714 1.95411C27.5616 1.64382 27.0526 1.64382 26.7207 1.95411C25.592 3.06228 24.7068 4.36992 24.0651 5.81054C23.888 6.18732 24.0208 6.63058 24.3749 6.83005Z" fill="#C5BBD0"/>
<path d="M29.3098 9.46751C29.3762 9.55617 29.4426 9.62266 29.5311 9.68915C29.7967 9.86646 30.1508 9.86646 30.4384 9.66699C31.39 8.97993 32.408 8.35935 33.4481 7.80526C33.8464 7.60579 34.0013 7.11819 33.8022 6.71925C33.603 6.32031 33.1162 6.16517 32.7178 6.36464C31.5892 6.94089 30.527 7.6058 29.4869 8.33719C29.1328 8.60315 29.0664 9.1129 29.3098 9.46751Z" fill="#C5BBD0"/>
<path d="M31.3679 15.6068C31.4343 15.7619 31.5449 15.8727 31.6777 15.9614C31.899 16.0944 32.1867 16.1387 32.4523 16.0057C33.5809 15.4959 34.8423 15.2522 36.0815 15.3408C36.5241 15.363 36.9225 15.0305 36.9446 14.5872C36.9667 14.144 36.6348 13.745 36.1922 13.7229C34.6874 13.612 33.1604 13.9002 31.7662 14.5208C31.3679 14.6981 31.1909 15.1856 31.3679 15.6068Z" fill="#C5BBD0"/>
<path d="M30.704 21.3027C30.6819 21.613 30.8368 21.9233 31.0802 22.0785C31.1909 22.145 31.3015 22.1893 31.4343 22.1893C32.917 22.3444 34.3997 22.5882 35.8381 22.9207C36.2807 23.0315 36.7012 22.7434 36.8118 22.3223C36.9225 21.879 36.6348 21.4579 36.2143 21.3471C34.7095 20.9924 33.1604 20.7265 31.6113 20.5713C31.1466 20.527 30.7483 20.8595 30.704 21.3027Z" fill="#C5BBD0"/>
</svg>
