<svg width="384" height="205" viewBox="0 0 384 205" fill="none" xmlns="http://www.w3.org/2000/svg">
<rect x="179" y="157" width="205" height="48" rx="8" fill="white"/>
<path d="M250 139.5V157.5H281.5L250 139.5Z" fill="white"/>
<path d="M200.69 180.406V179.202C200.69 178.446 200.868 177.83 201.222 177.354C201.586 176.869 202.123 176.551 202.832 176.402V177.312C202.515 177.387 202.263 177.527 202.076 177.732C201.89 177.928 201.768 178.166 201.712 178.446H202.552V180.406H200.69ZM197.862 180.406V179.202C197.862 178.446 198.04 177.83 198.394 177.354C198.758 176.869 199.29 176.551 199.99 176.402V177.312C199.673 177.387 199.421 177.527 199.234 177.732C199.048 177.928 198.926 178.166 198.87 178.446H199.71V180.406H197.862ZM210.022 187.168C209.276 187.168 208.585 187.033 207.95 186.762C207.325 186.491 206.774 186.113 206.298 185.628C205.832 185.143 205.468 184.573 205.206 183.92C204.945 183.267 204.814 182.553 204.814 181.778C204.814 181.003 204.94 180.289 205.192 179.636C205.454 178.973 205.818 178.404 206.284 177.928C206.76 177.443 207.316 177.069 207.95 176.808C208.585 176.537 209.276 176.402 210.022 176.402C210.769 176.402 211.436 176.528 212.024 176.78C212.622 177.032 213.126 177.368 213.536 177.788C213.947 178.199 214.241 178.651 214.418 179.146L212.71 179.944C212.514 179.421 212.183 178.992 211.716 178.656C211.25 178.311 210.685 178.138 210.022 178.138C209.369 178.138 208.79 178.292 208.286 178.6C207.792 178.908 207.404 179.333 207.124 179.874C206.854 180.415 206.718 181.05 206.718 181.778C206.718 182.506 206.854 183.145 207.124 183.696C207.404 184.237 207.792 184.662 208.286 184.97C208.79 185.278 209.369 185.432 210.022 185.432C210.685 185.432 211.25 185.264 211.716 184.928C212.183 184.583 212.514 184.149 212.71 183.626L214.418 184.424C214.241 184.919 213.947 185.376 213.536 185.796C213.126 186.207 212.622 186.538 212.024 186.79C211.436 187.042 210.769 187.168 210.022 187.168ZM219.257 187.168C218.511 187.168 217.829 186.995 217.213 186.65C216.607 186.305 216.121 185.833 215.757 185.236C215.403 184.639 215.225 183.957 215.225 183.192C215.225 182.427 215.403 181.745 215.757 181.148C216.121 180.551 216.607 180.079 217.213 179.734C217.82 179.389 218.501 179.216 219.257 179.216C220.004 179.216 220.681 179.389 221.287 179.734C221.894 180.079 222.375 180.551 222.729 181.148C223.093 181.736 223.275 182.417 223.275 183.192C223.275 183.957 223.093 184.639 222.729 185.236C222.365 185.833 221.88 186.305 221.273 186.65C220.667 186.995 219.995 187.168 219.257 187.168ZM219.257 185.488C219.668 185.488 220.027 185.39 220.335 185.194C220.653 184.998 220.9 184.727 221.077 184.382C221.264 184.027 221.357 183.631 221.357 183.192C221.357 182.744 221.264 182.352 221.077 182.016C220.9 181.671 220.653 181.4 220.335 181.204C220.027 180.999 219.668 180.896 219.257 180.896C218.837 180.896 218.469 180.999 218.151 181.204C217.834 181.4 217.582 181.671 217.395 182.016C217.218 182.352 217.129 182.744 217.129 183.192C217.129 183.631 217.218 184.027 217.395 184.382C217.582 184.727 217.834 184.998 218.151 185.194C218.469 185.39 218.837 185.488 219.257 185.488ZM224.526 187V179.384H226.248V181.148L226.052 180.854C226.192 180.303 226.472 179.893 226.892 179.622C227.312 179.351 227.807 179.216 228.376 179.216C229.001 179.216 229.552 179.379 230.028 179.706C230.504 180.033 230.812 180.462 230.952 180.994L230.434 181.036C230.667 180.429 231.017 179.977 231.484 179.678C231.951 179.37 232.487 179.216 233.094 179.216C233.635 179.216 234.116 179.337 234.536 179.58C234.965 179.823 235.301 180.163 235.544 180.602C235.787 181.031 235.908 181.531 235.908 182.1V187H234.074V182.534C234.074 182.198 234.013 181.909 233.892 181.666C233.771 181.423 233.603 181.237 233.388 181.106C233.173 180.966 232.912 180.896 232.604 180.896C232.315 180.896 232.058 180.966 231.834 181.106C231.61 181.237 231.437 181.423 231.316 181.666C231.195 181.909 231.134 182.198 231.134 182.534V187H229.3V182.534C229.3 182.198 229.239 181.909 229.118 181.666C228.997 181.423 228.824 181.237 228.6 181.106C228.385 180.966 228.129 180.896 227.83 180.896C227.541 180.896 227.284 180.966 227.06 181.106C226.836 181.237 226.663 181.423 226.542 181.666C226.421 181.909 226.36 182.198 226.36 182.534V187H224.526ZM240.932 187.168C240.148 187.168 239.462 186.991 238.874 186.636C238.286 186.281 237.828 185.801 237.502 185.194C237.175 184.587 237.012 183.915 237.012 183.178C237.012 182.413 237.175 181.736 237.502 181.148C237.838 180.551 238.29 180.079 238.86 179.734C239.438 179.389 240.082 179.216 240.792 179.216C241.389 179.216 241.912 179.314 242.36 179.51C242.817 179.706 243.204 179.977 243.522 180.322C243.839 180.667 244.082 181.064 244.25 181.512C244.418 181.951 244.502 182.427 244.502 182.94C244.502 183.071 244.492 183.206 244.474 183.346C244.464 183.486 244.441 183.607 244.404 183.71H238.524V182.31H243.368L242.5 182.968C242.584 182.539 242.56 182.156 242.43 181.82C242.308 181.484 242.103 181.218 241.814 181.022C241.534 180.826 241.193 180.728 240.792 180.728C240.409 180.728 240.068 180.826 239.77 181.022C239.471 181.209 239.242 181.489 239.084 181.862C238.934 182.226 238.878 182.669 238.916 183.192C238.878 183.659 238.939 184.074 239.098 184.438C239.266 184.793 239.508 185.068 239.826 185.264C240.152 185.46 240.526 185.558 240.946 185.558C241.366 185.558 241.72 185.469 242.01 185.292C242.308 185.115 242.542 184.877 242.71 184.578L244.194 185.306C244.044 185.67 243.811 185.992 243.494 186.272C243.176 186.552 242.798 186.771 242.36 186.93C241.93 187.089 241.454 187.168 240.932 187.168ZM251.824 187.168C251.078 187.168 250.396 186.995 249.78 186.65C249.174 186.305 248.688 185.833 248.324 185.236C247.97 184.639 247.792 183.957 247.792 183.192C247.792 182.427 247.97 181.745 248.324 181.148C248.688 180.551 249.174 180.079 249.78 179.734C250.387 179.389 251.068 179.216 251.824 179.216C252.571 179.216 253.248 179.389 253.854 179.734C254.461 180.079 254.942 180.551 255.296 181.148C255.66 181.736 255.842 182.417 255.842 183.192C255.842 183.957 255.66 184.639 255.296 185.236C254.932 185.833 254.447 186.305 253.84 186.65C253.234 186.995 252.562 187.168 251.824 187.168ZM251.824 185.488C252.235 185.488 252.594 185.39 252.902 185.194C253.22 184.998 253.467 184.727 253.644 184.382C253.831 184.027 253.924 183.631 253.924 183.192C253.924 182.744 253.831 182.352 253.644 182.016C253.467 181.671 253.22 181.4 252.902 181.204C252.594 180.999 252.235 180.896 251.824 180.896C251.404 180.896 251.036 180.999 250.718 181.204C250.401 181.4 250.149 181.671 249.962 182.016C249.785 182.352 249.696 182.744 249.696 183.192C249.696 183.631 249.785 184.027 249.962 184.382C250.149 184.727 250.401 184.998 250.718 185.194C251.036 185.39 251.404 185.488 251.824 185.488ZM257.093 187V179.384H258.815V180.882L258.675 180.616C258.852 180.159 259.142 179.813 259.543 179.58C259.954 179.337 260.43 179.216 260.971 179.216C261.531 179.216 262.026 179.337 262.455 179.58C262.894 179.823 263.234 180.163 263.477 180.602C263.72 181.031 263.841 181.531 263.841 182.1V187H262.007V182.534C262.007 182.198 261.942 181.909 261.811 181.666C261.68 181.423 261.498 181.237 261.265 181.106C261.041 180.966 260.775 180.896 260.467 180.896C260.168 180.896 259.902 180.966 259.669 181.106C259.436 181.237 259.254 181.423 259.123 181.666C258.992 181.909 258.927 182.198 258.927 182.534V187H257.093ZM266.19 183.836L266.064 176.57H267.926L267.8 183.836H266.19ZM266.064 187V185.04H267.926V187H266.064ZM275.469 187V182.38L271.955 176.57H274.125L276.813 181.106H276.043L278.717 176.57H280.887L277.387 182.366V187H275.469ZM284.197 187.168C283.45 187.168 282.769 186.995 282.153 186.65C281.546 186.305 281.061 185.833 280.697 185.236C280.342 184.639 280.165 183.957 280.165 183.192C280.165 182.427 280.342 181.745 280.697 181.148C281.061 180.551 281.546 180.079 282.153 179.734C282.759 179.389 283.441 179.216 284.197 179.216C284.943 179.216 285.62 179.389 286.227 179.734C286.833 180.079 287.314 180.551 287.669 181.148C288.033 181.736 288.215 182.417 288.215 183.192C288.215 183.957 288.033 184.639 287.669 185.236C287.305 185.833 286.819 186.305 286.213 186.65C285.606 186.995 284.934 187.168 284.197 187.168ZM284.197 185.488C284.607 185.488 284.967 185.39 285.275 185.194C285.592 184.998 285.839 184.727 286.017 184.382C286.203 184.027 286.297 183.631 286.297 183.192C286.297 182.744 286.203 182.352 286.017 182.016C285.839 181.671 285.592 181.4 285.275 181.204C284.967 180.999 284.607 180.896 284.197 180.896C283.777 180.896 283.408 180.999 283.091 181.204C282.773 181.4 282.521 181.671 282.335 182.016C282.157 182.352 282.069 182.744 282.069 183.192C282.069 183.631 282.157 184.027 282.335 184.382C282.521 184.727 282.773 184.998 283.091 185.194C283.408 185.39 283.777 185.488 284.197 185.488ZM292.181 187.168C291.593 187.168 291.08 187.037 290.641 186.776C290.212 186.515 289.881 186.151 289.647 185.684C289.423 185.217 289.311 184.671 289.311 184.046V179.384H291.145V183.892C291.145 184.209 291.206 184.489 291.327 184.732C291.458 184.965 291.64 185.152 291.873 185.292C292.116 185.423 292.387 185.488 292.685 185.488C292.984 185.488 293.25 185.423 293.483 185.292C293.717 185.152 293.899 184.961 294.029 184.718C294.16 184.475 294.225 184.186 294.225 183.85V179.384H296.059V187H294.323V185.502L294.477 185.768C294.3 186.235 294.006 186.585 293.595 186.818C293.194 187.051 292.723 187.168 292.181 187.168ZM303.64 187.168C302.884 187.168 302.203 186.995 301.596 186.65C300.999 186.295 300.528 185.819 300.182 185.222C299.837 184.615 299.664 183.934 299.664 183.178C299.664 182.422 299.837 181.745 300.182 181.148C300.528 180.551 300.999 180.079 301.596 179.734C302.203 179.389 302.884 179.216 303.64 179.216C304.182 179.216 304.686 179.314 305.152 179.51C305.619 179.697 306.02 179.958 306.356 180.294C306.702 180.621 306.949 181.013 307.098 181.47L305.488 182.17C305.348 181.787 305.11 181.479 304.774 181.246C304.448 181.013 304.07 180.896 303.64 180.896C303.239 180.896 302.88 180.994 302.562 181.19C302.254 181.386 302.012 181.657 301.834 182.002C301.657 182.347 301.568 182.744 301.568 183.192C301.568 183.64 301.657 184.037 301.834 184.382C302.012 184.727 302.254 184.998 302.562 185.194C302.88 185.39 303.239 185.488 303.64 185.488C304.079 185.488 304.462 185.371 304.788 185.138C305.115 184.905 305.348 184.592 305.488 184.2L307.098 184.928C306.949 185.357 306.706 185.745 306.37 186.09C306.034 186.426 305.633 186.692 305.166 186.888C304.7 187.075 304.191 187.168 303.64 187.168ZM310.633 187.168C310.101 187.168 309.639 187.079 309.247 186.902C308.855 186.725 308.551 186.473 308.337 186.146C308.122 185.81 308.015 185.423 308.015 184.984C308.015 184.564 308.108 184.191 308.295 183.864C308.481 183.528 308.771 183.248 309.163 183.024C309.555 182.8 310.049 182.641 310.647 182.548L313.139 182.142V183.542L310.997 183.906C310.633 183.971 310.362 184.088 310.185 184.256C310.007 184.424 309.919 184.643 309.919 184.914C309.919 185.175 310.017 185.385 310.213 185.544C310.418 185.693 310.67 185.768 310.969 185.768C311.351 185.768 311.687 185.689 311.977 185.53C312.275 185.362 312.504 185.133 312.663 184.844C312.831 184.555 312.915 184.237 312.915 183.892V181.932C312.915 181.605 312.784 181.335 312.523 181.12C312.271 180.896 311.935 180.784 311.515 180.784C311.123 180.784 310.773 180.891 310.465 181.106C310.166 181.311 309.947 181.587 309.807 181.932L308.309 181.204C308.458 180.803 308.691 180.457 309.009 180.168C309.335 179.869 309.718 179.636 310.157 179.468C310.595 179.3 311.071 179.216 311.585 179.216C312.21 179.216 312.761 179.333 313.237 179.566C313.713 179.79 314.081 180.107 314.343 180.518C314.613 180.919 314.749 181.391 314.749 181.932V187H313.013V185.698L313.405 185.67C313.209 185.997 312.975 186.272 312.705 186.496C312.434 186.711 312.126 186.879 311.781 187C311.435 187.112 311.053 187.168 310.633 187.168ZM316.304 187V179.384H318.026V180.882L317.886 180.616C318.063 180.159 318.352 179.813 318.754 179.58C319.164 179.337 319.64 179.216 320.182 179.216C320.742 179.216 321.236 179.337 321.666 179.58C322.104 179.823 322.445 180.163 322.688 180.602C322.93 181.031 323.052 181.531 323.052 182.1V187H321.218V182.534C321.218 182.198 321.152 181.909 321.022 181.666C320.891 181.423 320.709 181.237 320.476 181.106C320.252 180.966 319.986 180.896 319.678 180.896C319.379 180.896 319.113 180.966 318.88 181.106C318.646 181.237 318.464 181.423 318.334 181.666C318.203 181.909 318.138 182.198 318.138 182.534V187H316.304ZM330.353 187.168C329.616 187.168 328.958 186.995 328.379 186.65C327.8 186.295 327.343 185.815 327.007 185.208C326.671 184.601 326.503 183.929 326.503 183.192C326.503 182.445 326.671 181.773 327.007 181.176C327.343 180.579 327.8 180.103 328.379 179.748C328.967 179.393 329.62 179.216 330.339 179.216C330.918 179.216 331.431 179.333 331.879 179.566C332.336 179.79 332.696 180.107 332.957 180.518L332.677 180.896V176.402H334.511V187H332.775V185.53L332.971 185.894C332.71 186.305 332.346 186.622 331.879 186.846C331.412 187.061 330.904 187.168 330.353 187.168ZM330.549 185.488C330.969 185.488 331.338 185.39 331.655 185.194C331.972 184.998 332.22 184.727 332.397 184.382C332.584 184.037 332.677 183.64 332.677 183.192C332.677 182.753 332.584 182.361 332.397 182.016C332.22 181.661 331.972 181.386 331.655 181.19C331.338 180.994 330.969 180.896 330.549 180.896C330.138 180.896 329.77 180.999 329.443 181.204C329.116 181.4 328.86 181.671 328.673 182.016C328.496 182.352 328.407 182.744 328.407 183.192C328.407 183.64 328.496 184.037 328.673 184.382C328.86 184.727 329.116 184.998 329.443 185.194C329.77 185.39 330.138 185.488 330.549 185.488ZM339.801 187.168C339.054 187.168 338.373 186.995 337.757 186.65C337.15 186.305 336.665 185.833 336.301 185.236C335.946 184.639 335.769 183.957 335.769 183.192C335.769 182.427 335.946 181.745 336.301 181.148C336.665 180.551 337.15 180.079 337.757 179.734C338.364 179.389 339.045 179.216 339.801 179.216C340.548 179.216 341.224 179.389 341.831 179.734C342.438 180.079 342.918 180.551 343.273 181.148C343.637 181.736 343.819 182.417 343.819 183.192C343.819 183.957 343.637 184.639 343.273 185.236C342.909 185.833 342.424 186.305 341.817 186.65C341.21 186.995 340.538 187.168 339.801 187.168ZM339.801 185.488C340.212 185.488 340.571 185.39 340.879 185.194C341.196 184.998 341.444 184.727 341.621 184.382C341.808 184.027 341.901 183.631 341.901 183.192C341.901 182.744 341.808 182.352 341.621 182.016C341.444 181.671 341.196 181.4 340.879 181.204C340.571 180.999 340.212 180.896 339.801 180.896C339.381 180.896 339.012 180.999 338.695 181.204C338.378 181.4 338.126 181.671 337.939 182.016C337.762 182.352 337.673 182.744 337.673 183.192C337.673 183.631 337.762 184.027 337.939 184.382C338.126 184.727 338.378 184.998 338.695 185.194C339.012 185.39 339.381 185.488 339.801 185.488ZM347.418 187V179.384H349.252V187H347.418ZM347.418 178.53V176.57H349.252V178.53H347.418ZM354.278 187.084C353.419 187.084 352.752 186.851 352.276 186.384C351.809 185.908 351.576 185.241 351.576 184.382V181.022H350.26V179.384H350.4C350.773 179.384 351.062 179.286 351.268 179.09C351.473 178.894 351.576 178.609 351.576 178.236V177.648H353.41V179.384H355.16V181.022H353.41V184.284C353.41 184.536 353.452 184.751 353.536 184.928C353.629 185.105 353.769 185.241 353.956 185.334C354.152 185.427 354.399 185.474 354.698 185.474C354.763 185.474 354.838 185.469 354.922 185.46C355.015 185.451 355.104 185.441 355.188 185.432V187C355.057 187.019 354.908 187.037 354.74 187.056C354.572 187.075 354.418 187.084 354.278 187.084ZM357.317 187V185.04H359.165V187H357.317ZM365.016 180.574V179.664C365.333 179.589 365.585 179.454 365.772 179.258C365.958 179.053 366.08 178.81 366.136 178.53H365.296V176.57H367.158V177.774C367.158 178.53 366.976 179.151 366.612 179.636C366.257 180.112 365.725 180.425 365.016 180.574ZM362.188 180.574V179.664C362.496 179.589 362.743 179.454 362.93 179.258C363.126 179.053 363.247 178.81 363.294 178.53H362.468V176.57H364.316V177.774C364.316 178.53 364.134 179.151 363.77 179.636C363.415 180.112 362.888 180.425 362.188 180.574Z" fill="black"/>
<path d="M98 40H68L107.5 53.5L98 40Z" fill="#9232FF"/>
<rect width="111" height="40" rx="8" fill="#9232FF"/>
<path d="M20.7424 26.18C19.9424 26.18 19.2024 26.035 18.5224 25.745C17.8424 25.455 17.2474 25.05 16.7374 24.53C16.2274 24.01 15.8274 23.4 15.5374 22.7C15.2574 22 15.1174 21.235 15.1174 20.405C15.1174 19.575 15.2524 18.81 15.5224 18.11C15.8024 17.4 16.1924 16.79 16.6924 16.28C17.2024 15.76 17.7974 15.36 18.4774 15.08C19.1574 14.79 19.8974 14.645 20.6974 14.645C21.4974 14.645 22.2124 14.78 22.8424 15.05C23.4824 15.32 24.0224 15.68 24.4624 16.13C24.9024 16.57 25.2174 17.055 25.4074 17.585L23.5924 18.455C23.3824 17.875 23.0274 17.405 22.5274 17.045C22.0274 16.685 21.4174 16.505 20.6974 16.505C19.9974 16.505 19.3774 16.67 18.8374 17C18.3074 17.33 17.8924 17.785 17.5924 18.365C17.3024 18.945 17.1574 19.625 17.1574 20.405C17.1574 21.185 17.3074 21.87 17.6074 22.46C17.9174 23.04 18.3424 23.495 18.8824 23.825C19.4224 24.155 20.0424 24.32 20.7424 24.32C21.3124 24.32 21.8374 24.21 22.3174 23.99C22.7974 23.76 23.1824 23.44 23.4724 23.03C23.7624 22.61 23.9074 22.115 23.9074 21.545V20.69L24.8374 21.5H20.6974V19.775H25.9474V20.9C25.9474 21.76 25.8024 22.52 25.5124 23.18C25.2224 23.84 24.8274 24.395 24.3274 24.845C23.8374 25.285 23.2824 25.62 22.6624 25.85C22.0424 26.07 21.4024 26.18 20.7424 26.18ZM27.2466 26V17.84H29.0916V19.655L28.9416 19.385C29.1316 18.775 29.4266 18.35 29.8266 18.11C30.2366 17.87 30.7266 17.75 31.2966 17.75H31.7766V19.49H31.0716C30.5116 19.49 30.0616 19.665 29.7216 20.015C29.3816 20.355 29.2116 20.835 29.2116 21.455V26H27.2466ZM36.577 26.18C35.737 26.18 35.002 25.99 34.372 25.61C33.742 25.23 33.252 24.715 32.902 24.065C32.552 23.415 32.377 22.695 32.377 21.905C32.377 21.085 32.552 20.36 32.902 19.73C33.262 19.09 33.747 18.585 34.357 18.215C34.977 17.845 35.667 17.66 36.427 17.66C37.067 17.66 37.627 17.765 38.107 17.975C38.597 18.185 39.012 18.475 39.352 18.845C39.692 19.215 39.952 19.64 40.132 20.12C40.312 20.59 40.402 21.1 40.402 21.65C40.402 21.79 40.392 21.935 40.372 22.085C40.362 22.235 40.337 22.365 40.297 22.475H33.997V20.975H39.187L38.257 21.68C38.347 21.22 38.322 20.81 38.182 20.45C38.052 20.09 37.832 19.805 37.522 19.595C37.222 19.385 36.857 19.28 36.427 19.28C36.017 19.28 35.652 19.385 35.332 19.595C35.012 19.795 34.767 20.095 34.597 20.495C34.437 20.885 34.377 21.36 34.417 21.92C34.377 22.42 34.442 22.865 34.612 23.255C34.792 23.635 35.052 23.93 35.392 24.14C35.742 24.35 36.142 24.455 36.592 24.455C37.042 24.455 37.422 24.36 37.732 24.17C38.052 23.98 38.302 23.725 38.482 23.405L40.072 24.185C39.912 24.575 39.662 24.92 39.322 25.22C38.982 25.52 38.577 25.755 38.107 25.925C37.647 26.095 37.137 26.18 36.577 26.18ZM44.1873 26.18C43.6173 26.18 43.1223 26.085 42.7023 25.895C42.2823 25.705 41.9573 25.435 41.7273 25.085C41.4973 24.725 41.3823 24.31 41.3823 23.84C41.3823 23.39 41.4823 22.99 41.6823 22.64C41.8823 22.28 42.1923 21.98 42.6123 21.74C43.0323 21.5 43.5623 21.33 44.2023 21.23L46.8723 20.795V22.295L44.5773 22.685C44.1873 22.755 43.8973 22.88 43.7073 23.06C43.5173 23.24 43.4223 23.475 43.4223 23.765C43.4223 24.045 43.5273 24.27 43.7373 24.44C43.9573 24.6 44.2273 24.68 44.5473 24.68C44.9573 24.68 45.3173 24.595 45.6273 24.425C45.9473 24.245 46.1923 24 46.3623 23.69C46.5423 23.38 46.6323 23.04 46.6323 22.67V20.57C46.6323 20.22 46.4923 19.93 46.2123 19.7C45.9423 19.46 45.5823 19.34 45.1323 19.34C44.7123 19.34 44.3373 19.455 44.0073 19.685C43.6873 19.905 43.4523 20.2 43.3023 20.57L41.6973 19.79C41.8573 19.36 42.1073 18.99 42.4473 18.68C42.7973 18.36 43.2073 18.11 43.6773 17.93C44.1473 17.75 44.6573 17.66 45.2073 17.66C45.8773 17.66 46.4673 17.785 46.9773 18.035C47.4873 18.275 47.8823 18.615 48.1623 19.055C48.4523 19.485 48.5973 19.99 48.5973 20.57V26H46.7373V24.605L47.1573 24.575C46.9473 24.925 46.6973 25.22 46.4073 25.46C46.1173 25.69 45.7873 25.87 45.4173 26C45.0473 26.12 44.6373 26.18 44.1873 26.18ZM53.837 26.09C52.917 26.09 52.202 25.84 51.692 25.34C51.192 24.83 50.942 24.115 50.942 23.195V19.595H49.532V17.84H49.682C50.082 17.84 50.392 17.735 50.612 17.525C50.832 17.315 50.942 17.01 50.942 16.61V15.98H52.907V17.84H54.782V19.595H52.907V23.09C52.907 23.36 52.952 23.59 53.042 23.78C53.142 23.97 53.292 24.115 53.492 24.215C53.702 24.315 53.967 24.365 54.287 24.365C54.357 24.365 54.437 24.36 54.527 24.35C54.627 24.34 54.722 24.33 54.812 24.32V26C54.672 26.02 54.512 26.04 54.332 26.06C54.152 26.08 53.987 26.09 53.837 26.09ZM58.3493 26V24.125H58.9943C59.4743 24.125 59.8543 23.99 60.1343 23.72C60.4243 23.44 60.5693 23.07 60.5693 22.61V14.825H62.6243V22.535C62.6243 23.225 62.4743 23.83 62.1743 24.35C61.8843 24.87 61.4643 25.275 60.9143 25.565C60.3743 25.855 59.7343 26 58.9943 26H58.3493ZM68.4079 26.18C67.6079 26.18 66.8779 25.995 66.2179 25.625C65.5679 25.255 65.0479 24.75 64.6579 24.11C64.2779 23.47 64.0879 22.74 64.0879 21.92C64.0879 21.1 64.2779 20.37 64.6579 19.73C65.0479 19.09 65.5679 18.585 66.2179 18.215C66.8679 17.845 67.5979 17.66 68.4079 17.66C69.2079 17.66 69.9329 17.845 70.5829 18.215C71.2329 18.585 71.7479 19.09 72.1279 19.73C72.5179 20.36 72.7129 21.09 72.7129 21.92C72.7129 22.74 72.5179 23.47 72.1279 24.11C71.7379 24.75 71.2179 25.255 70.5679 25.625C69.9179 25.995 69.1979 26.18 68.4079 26.18ZM68.4079 24.38C68.8479 24.38 69.2329 24.275 69.5629 24.065C69.9029 23.855 70.1679 23.565 70.3579 23.195C70.5579 22.815 70.6579 22.39 70.6579 21.92C70.6579 21.44 70.5579 21.02 70.3579 20.66C70.1679 20.29 69.9029 20 69.5629 19.79C69.2329 19.57 68.8479 19.46 68.4079 19.46C67.9579 19.46 67.5629 19.57 67.2229 19.79C66.8829 20 66.6129 20.29 66.4129 20.66C66.2229 21.02 66.1279 21.44 66.1279 21.92C66.1279 22.39 66.2229 22.815 66.4129 23.195C66.6129 23.565 66.8829 23.855 67.2229 24.065C67.5629 24.275 67.9579 24.38 68.4079 24.38ZM78.5081 26.18C77.9181 26.18 77.3731 26.065 76.8731 25.835C76.3831 25.595 75.9931 25.255 75.7031 24.815L75.8981 24.425V26H74.0531V14.645H76.0181V19.46L75.7181 19.055C75.9981 18.615 76.3781 18.275 76.8581 18.035C77.3381 17.785 77.8931 17.66 78.5231 17.66C79.2931 17.66 79.9881 17.85 80.6081 18.23C81.2281 18.61 81.7181 19.12 82.0781 19.76C82.4481 20.4 82.6331 21.12 82.6331 21.92C82.6331 22.71 82.4531 23.43 82.0931 24.08C81.7331 24.73 81.2431 25.245 80.6231 25.625C80.0031 25.995 79.2981 26.18 78.5081 26.18ZM78.2831 24.38C78.7331 24.38 79.1331 24.275 79.4831 24.065C79.8331 23.855 80.1031 23.565 80.2931 23.195C80.4931 22.825 80.5931 22.4 80.5931 21.92C80.5931 21.44 80.4931 21.02 80.2931 20.66C80.1031 20.29 79.8331 20 79.4831 19.79C79.1331 19.57 78.7331 19.46 78.2831 19.46C77.8531 19.46 77.4631 19.565 77.1131 19.775C76.7731 19.985 76.5031 20.28 76.3031 20.66C76.1131 21.03 76.0181 21.45 76.0181 21.92C76.0181 22.4 76.1131 22.825 76.3031 23.195C76.5031 23.565 76.7731 23.855 77.1131 24.065C77.4631 24.275 77.8531 24.38 78.2831 24.38ZM84.9862 22.61L84.8512 14.825H86.8462L86.7112 22.61H84.9862ZM84.8512 26V23.9H86.8462V26H84.8512Z" fill="white"/>
</svg>
