<svg width="126" height="67" viewBox="0 0 126 67" fill="none" xmlns="http://www.w3.org/2000/svg">
<path d="M33.6932 29.1677C33.4518 29.1146 33.2103 29.1677 32.9957 29.3006C32.7811 29.4334 32.647 29.6459 32.5933 29.885C31.7886 33.6045 30.7155 37.5099 29.8035 40.9372L29.7767 41.07C29.0524 43.7799 28.3012 46.5695 27.6306 49.3591L19.3683 31.24C19.261 31.0009 19.0732 30.8415 18.8318 30.7618C18.5904 30.6821 18.3489 30.6821 18.1343 30.7883C17.6783 31.0009 17.4637 31.5588 17.6783 32.0105L27.0673 52.6269C27.2282 52.9457 27.5501 53.1848 27.9257 53.1848C27.9525 53.1848 28.0062 53.1848 28.033 53.1848C28.4354 53.1317 28.7573 52.866 28.8378 52.4675C29.6425 48.7746 30.6619 45.0286 31.6276 41.4154L31.6544 41.3357C32.6202 37.7225 33.6395 33.9765 34.4443 30.2836C34.4979 30.0444 34.4443 29.8053 34.3102 29.5928C34.1492 29.3803 33.9346 29.2209 33.6932 29.1677Z" fill="#D2CCE0"/>
<path d="M42.5725 39.6088C45.0672 38.7055 47.4815 37.5365 49.7349 36.155C51.1298 35.3048 52.5247 34.3218 53.41 32.8075C54.4562 31.0275 54.4025 28.8489 53.249 27.4674C52.2297 26.2453 50.4324 25.714 48.6619 26.0859C47.3742 26.3516 46.1671 27.0423 44.799 28.2644C40.1313 32.4356 37.8512 39.0774 39.0047 45.188C39.4339 47.3931 40.2386 48.9075 41.5263 49.7842C42.3579 50.3687 43.4309 50.6875 44.5844 50.6875C45.711 50.6875 46.9719 50.3952 48.1522 49.8373C49.0106 49.4388 49.7885 48.9606 50.5665 48.5089C51.5054 47.951 52.3906 47.3931 53.3563 47.0212C53.5978 46.9415 53.7587 46.7555 53.866 46.5164C53.9733 46.2773 53.9733 46.0382 53.866 45.7991C53.7856 45.5599 53.5978 45.374 53.3563 45.2943C53.1149 45.188 52.8735 45.188 52.6589 45.2943C51.5322 45.7193 50.5397 46.3304 49.5739 46.9415L49.5203 46.968C48.796 47.4197 48.0985 47.8182 47.3742 48.1636C46.6768 48.4824 44.2625 49.4388 42.5993 48.2964C41.7409 47.6854 41.1507 46.5695 40.8288 44.8692C40.5337 43.2486 40.4801 41.5748 40.6947 39.9011C41.3653 40.0339 42.0091 39.8213 42.5725 39.6088ZM49.7885 27.8394C50.5397 27.8394 51.3176 28.0785 51.8005 28.663C52.5247 29.5397 52.337 30.9212 51.8005 31.8776C51.1298 33.02 49.9227 33.8437 48.7423 34.5875C46.5963 35.9159 44.3161 37.0052 41.9286 37.8819C41.3385 38.0944 41.1239 38.1476 41.0702 38.1476V38.121C41.9286 34.6141 43.4845 32.0105 46.0866 29.6725C47.1865 28.6895 48.1522 28.1316 49.0911 27.9456C49.3057 27.8659 49.5471 27.8394 49.7885 27.8394Z" fill="#D2CCE0"/>
<path d="M72.1342 23.9073C72.1074 23.9073 72.0806 23.9073 72.0538 23.9073C70.3906 23.9339 69.0761 25.0232 68.0299 26.0593C66.4472 27.6268 64.9986 29.4334 63.7378 31.3728C63.7647 29.2209 63.8451 27.4408 63.9524 25.7139C63.9793 25.2092 63.6037 24.7575 63.0672 24.7309C63.0672 24.7309 63.0672 24.7309 63.0404 24.7309C62.5039 24.7309 62.1015 25.1029 62.0746 25.5811C61.5918 32.595 61.7527 39.6885 62.5843 46.6758C62.638 47.154 63.0404 47.4994 63.5232 47.4994H63.6037C64.1134 47.4462 64.489 47.0211 64.4621 46.5164C64.4621 46.4367 63.8183 38.5992 63.7915 35.0392C64.1134 34.4281 67.3056 29.3803 69.3444 27.3611C70.1223 26.5907 71.0612 25.7671 72.0806 25.7671C72.5098 25.7671 72.9927 26.0593 73.2341 26.4047C73.3682 26.6172 73.3951 26.8032 73.3146 26.9626C73.0731 27.4143 73.2609 27.9722 73.7438 28.2113C73.9584 28.3176 74.2266 28.3441 74.4681 28.2644C74.7095 28.1847 74.8973 28.0253 75.0046 27.7862C75.3801 27.0423 75.3265 26.1656 74.8168 25.3951C74.2266 24.5184 73.1536 23.9073 72.1342 23.9073Z" fill="#D2CCE0"/>
<path d="M91.1804 24.0667C88.8198 23.1369 86.003 23.376 82.8376 24.8106C82.3816 19.6565 81.9524 14.5556 81.6573 8.97636C81.6305 8.73725 81.5232 8.49814 81.3354 8.33873C81.1744 8.17933 80.9599 8.09962 80.7184 8.09962C80.6916 8.09962 80.6916 8.09962 80.6648 8.09962C80.1551 8.12618 79.7527 8.57785 79.7795 9.08264C80.1014 15.2198 80.5843 20.6927 81.0671 26.0062C81.5232 31.2931 82.0061 36.7395 82.3548 42.8766C82.3816 43.1689 82.4084 43.7002 82.8108 44.1253C83.2937 44.6301 83.9911 44.6301 84.2862 44.6301C90.5902 44.6301 96.2773 39.1572 96.4382 32.9138C96.5455 29.0083 94.3995 25.342 91.1804 24.0667ZM94.5604 32.9138C94.3995 38.0944 89.5172 42.8235 84.2594 42.8235H84.2058V42.7969C83.9107 37.1646 83.4815 32.223 82.9986 26.8032C85.0373 25.7936 87.9881 24.8106 90.4561 25.7936C93.4069 26.936 94.6409 30.2836 94.5604 32.9138Z" fill="#D2CCE0"/>
<path d="M108.912 26.9892C108.617 27.0158 108.322 27.0689 108.054 27.122H108C107.356 27.2283 106.766 27.3611 106.256 27.2283C105.398 27.0158 104.888 26.0593 104.808 25.2357C104.727 24.359 105.022 23.3494 105.666 22.1805C106.498 20.6927 107.464 19.6831 108.59 19.1517C109.824 18.5673 111.3 18.6735 112.158 19.4174C112.346 19.5768 112.587 19.6565 112.829 19.63C113.07 19.6034 113.311 19.4972 113.472 19.3112C113.821 18.9127 113.768 18.3282 113.365 18.0094C111.917 16.7872 109.663 16.5747 107.759 17.478C106.283 18.1688 105.022 19.4706 104.003 21.3037C103.171 22.8181 102.823 24.1465 102.93 25.4217C103.091 27.1752 104.244 28.663 105.773 29.0615C106.659 29.3006 107.544 29.1412 108.322 28.9818C108.59 28.9286 108.858 28.8755 109.127 28.8489C111.461 28.5567 113.955 30.1507 114.706 32.3824C115.431 34.5875 114.358 37.3506 112.319 38.493C110.79 39.3431 108.832 39.4494 107.115 39.5291C106.069 39.5822 105.076 39.5823 104.459 39.104C104.003 38.7852 103.762 38.2007 103.842 37.6694C103.923 37.1646 103.547 36.6864 103.037 36.6332C103.01 36.6332 102.957 36.6332 102.93 36.6332C102.447 36.6332 102.045 36.9786 101.991 37.4303C101.803 38.6524 102.34 39.9011 103.332 40.6184C104.298 41.3357 105.505 41.4154 106.337 41.4154C106.659 41.4154 106.954 41.3888 107.195 41.3888C109.127 41.3091 111.326 41.2029 113.231 40.1136C116.075 38.5195 117.496 34.8798 116.477 31.8245C115.484 28.7427 112.158 26.6438 108.912 26.9892Z" fill="#D2CCE0"/>
<path d="M125.92 43.6471C125.92 43.6205 125.92 43.6205 125.92 43.6471C125.839 42.9829 125.812 42.425 125.785 41.8936C125.705 40.4855 125.624 39.0774 125.544 37.7225C125.356 34.9594 125.115 32.1433 124.82 29.4068C124.229 23.9073 123.398 18.3547 122.379 12.8818C121.601 8.7638 120.689 4.6724 119.696 0.740393C119.616 0.368447 119.294 0.102777 118.918 0.0496418C115.27 -0.455143 86.5396 2.97207 59.6872 6.58527C57.407 6.90408 55.1 7.19632 52.8198 7.51513C49.2252 8.01992 45.6037 8.49813 42.0896 9.00291C37.878 9.5874 34.1224 10.1453 30.5814 10.6767C26.3966 11.2877 22.9361 11.8191 19.6634 12.3504C16.9808 12.7755 13.8154 13.3069 10.7573 13.8648C9.46968 14.1039 8.42349 14.3164 7.51142 14.529C7.21634 14.5821 6.94808 14.6618 6.73347 14.7149C6.06283 14.8744 5.41901 15.0338 4.74837 15.0869C3.8363 15.1666 3.56805 16.0168 3.32662 16.7075C3.27297 16.9201 3.21932 17.0795 3.13884 17.2389C2.76328 18.1156 2.33408 18.9658 1.8244 19.7894C1.50249 20.3207 1.10011 20.8255 0.617245 21.3834C0.134385 21.9148 -0.0802233 22.6055 0.027079 23.2166C0.0539046 23.3494 0.0807269 23.4822 0.107553 23.6417L0.161207 23.8808C0.268509 24.4653 0.402634 25.0232 0.509936 25.6077L8.42348 65.1934C8.45031 65.2731 8.45031 65.3528 8.47714 65.4591C8.55761 65.8841 8.63809 66.3889 8.95999 66.7343C9.14777 66.9203 9.38921 67 9.73794 67C9.97937 67 10.2208 66.9468 10.3817 66.9203H10.4622C10.5159 66.9203 10.5695 66.8937 10.6232 66.8937L12.6619 66.628C13.8691 66.4686 15.1835 66.3092 16.7394 66.0967C19.3147 65.7513 21.9704 65.4059 24.8676 65.0074C30.3668 64.2635 35.8392 63.493 41.1507 62.7226C46.7572 61.899 52.2565 61.0754 57.4875 60.2784C62.7989 59.4548 68.325 58.578 73.9047 57.6747C79.3772 56.7714 84.9569 55.8416 90.4293 54.9117C96.0358 53.9553 101.669 52.9723 107.142 51.9627C111.487 51.1922 116.182 50.3155 121.064 49.4122C121.493 49.3325 121.869 48.8809 122.218 48.5089C122.325 48.3761 122.432 48.2698 122.539 48.1636L125.678 45.1348C125.893 44.9223 126 44.6301 126 44.205C125.946 43.9924 125.92 43.8065 125.92 43.6471ZM13.0107 59.7736C12.2596 61.7927 10.6768 63.6259 10.1403 64.2104L2.30725 25.0763C2.28043 24.8903 2.22678 24.6778 2.14631 24.4652C2.01218 23.987 1.87804 23.4557 1.90487 23.0572C1.9317 22.8446 2.11948 22.6321 2.28043 22.4195C2.36091 22.3398 2.41455 22.2601 2.4682 22.1804C2.76328 21.7819 3.05837 21.3303 3.32662 20.9052C3.78266 20.1879 4.18505 19.4174 4.56061 18.647C7.6992 29.3537 10.7573 47.0743 12.2327 55.6025V55.6556C12.6083 57.595 12.8229 58.9234 13.0107 59.7736ZM116.879 44.3644C114.68 44.7098 112.507 45.0286 110.307 45.374C107.705 45.7725 105.103 46.1444 102.528 46.5429C99.6305 46.968 96.7065 47.4196 93.8093 47.8447C90.6707 48.3229 87.5589 48.7746 84.4203 49.2263C81.1745 49.7045 77.9017 50.1827 74.629 50.6609C71.3295 51.1391 68.0299 51.6439 64.7304 52.1221L37.0464 56.2135L34.7662 56.5589C32.9689 56.8246 31.1984 57.0903 29.4011 57.3559L23.0166 58.2858C22.6679 58.3389 22.0777 58.4187 21.3802 58.5249L21.0047 58.578C18.9659 58.8969 15.5323 59.4282 14.9153 59.4282C14.8885 59.4282 14.8884 59.4282 14.8616 59.4282C14.6202 58.4452 14.4324 57.4091 14.2715 56.4261L14.2446 56.2135C14.191 55.9213 14.1373 55.6291 14.0837 55.3103C12.501 46.2241 9.22825 27.3611 5.92871 16.7341C10.5695 15.326 36.805 11.4737 60.787 8.2856C84.8496 5.09749 111.782 1.85622 117.765 1.85622C117.845 1.85622 117.926 1.85622 118.006 1.85622C121.359 15.4057 123.371 29.3271 123.934 43.2486C123.264 43.3548 122.593 43.4611 121.949 43.5674C120.34 43.833 118.677 44.0987 116.879 44.3644ZM122.727 45.3208L120.313 47.6588C83.1864 54.5929 47.7766 60.1987 12.0718 64.7949C12.9838 63.7056 13.7618 62.51 14.3251 61.3942C19.6902 60.7034 105.264 48.0307 122.727 45.3208Z" fill="#D2CCE0"/>
</svg>
