<svg width="64" height="64" viewBox="0 0 64 64" fill="none" xmlns="http://www.w3.org/2000/svg">
<path d="M36.1164 0C29.1832 0 22.8419 2.53125 17.9639 6.71887C19.788 7.2915 21.5891 7.9525 23.3637 8.70312C24.5261 9.19475 25.6689 9.7215 26.7919 10.2815C29.574 8.80462 32.7471 7.96688 36.1164 7.96688C47.1162 7.96688 56.0334 16.884 56.0334 27.8839C56.0334 31.2531 55.1955 34.4264 53.7187 37.2084C54.2787 38.3314 54.8055 39.474 55.2971 40.6365C56.0477 42.4111 56.7086 44.2122 57.2814 46.0364C61.469 41.1582 64.0002 34.817 64.0002 27.8839C64.0002 12.484 51.5162 0 36.1164 0Z" fill="#EDF2F7"/>
<path d="M36.1161 43.5839C31.9225 43.5839 27.9798 41.9508 25.0144 38.9854C22.049 36.0201 20.4159 32.0774 20.4159 27.8837C20.4159 24.1676 21.6991 20.6492 24.0545 17.8326C16.8598 14.0761 8.6785 11.9502 0 11.9502V63.9999H52.0498C52.0498 55.3214 49.9239 47.1402 46.1673 39.9454C43.3507 42.3007 39.8322 43.5839 36.1161 43.5839Z" fill="#EDF2F7"/>
<path d="M44.5584 36.3336C49.2246 31.6674 49.2246 24.1021 44.5584 19.4359C39.8922 14.7698 32.3269 14.7698 27.6607 19.4359C22.9946 24.1021 22.9946 31.6674 27.6607 36.3336C32.3269 40.9998 39.8922 40.9998 44.5584 36.3336Z" fill="#EDF2F7"/>
</svg>
