<svg width="65" height="64" viewBox="0 0 65 64" fill="none" xmlns="http://www.w3.org/2000/svg">
<g clip-path="url(#clip0_427_2713)">
<path d="M50.8115 13.521C53.7277 16.4371 56.0177 19.834 57.6179 23.6173C58.5244 25.7605 59.1848 27.9765 59.5987 30.2455C62.5384 27.0334 64.3327 22.7555 64.3327 18.058C64.3325 8.08488 56.2477 0 46.2744 0C41.5769 0 37.299 1.79425 34.0869 4.734C36.3559 5.14788 38.5719 5.80825 40.7152 6.71475C44.4984 8.31487 47.8953 10.6049 50.8115 13.521Z" fill="#111927"/>
<path d="M29.1133 23.6914C30.8985 29.1333 35.1997 33.4343 40.6414 35.2195C40.261 29.0355 35.2973 24.0718 29.1133 23.6914Z" fill="#111927"/>
<path d="M56.3663 35.9834C56.3663 20.5103 43.8228 7.9668 28.3496 7.9668C12.8765 7.9668 0.333008 20.5103 0.333008 35.9834C0.333008 51.4565 12.8765 64 28.3496 64C43.8228 64 56.3663 51.4565 56.3663 35.9834ZM28.3496 52.0498C19.4764 52.0498 12.2833 44.8567 12.2833 35.9834C12.2833 27.1102 19.4764 19.917 28.3496 19.917C37.2229 19.917 44.416 27.1102 44.416 35.9834C44.416 44.8567 37.2229 52.0498 28.3496 52.0498Z" fill="#111927"/>
</g>
<defs>
<clipPath id="clip0_427_2713">
<rect width="64" height="64" fill="white" transform="translate(0.333008)"/>
</clipPath>
</defs>
</svg>
