<svg width="24" height="14" viewBox="0 0 24 14" fill="none" xmlns="http://www.w3.org/2000/svg">
<path d="M13.7898 0.492981L23.0192 5.55771C23.2324 5.67468 23.4098 5.84498 23.5333 6.05102C23.6568 6.25713 23.7219 6.49154 23.7219 6.73031C23.7219 6.96907 23.6568 7.20348 23.5333 7.4096C23.4098 7.61564 23.2324 7.78594 23.0192 7.9029L13.7899 12.9679C13.2009 13.2911 12.5366 13.4609 11.861 13.4609C11.1853 13.4609 10.521 13.2911 9.93205 12.9679L0.702713 7.9029C0.489563 7.78594 0.312115 7.61564 0.188618 7.4096C0.0651226 7.20348 2.09808e-05 6.96907 2.09808e-05 6.73031C2.09808e-05 6.49154 0.0651226 6.25713 0.188618 6.05102C0.312115 5.84498 0.489563 5.67468 0.702713 5.55771L9.93205 0.492981C10.521 0.169739 11.1853 -5.72205e-06 11.861 -5.72205e-06C12.5366 -5.72205e-06 13.2009 0.169739 13.7898 0.492981Z" fill="#FFB800"/>
</svg>
