<svg width="32" height="33" viewBox="0 0 32 33" fill="none" xmlns="http://www.w3.org/2000/svg">
<g clip-path="url(#clip0_526_17999)">
<path d="M17.828 0.492981L27.0573 5.55771C27.2705 5.67468 27.4479 5.84498 27.5714 6.05102C27.6949 6.25713 27.76 6.49154 27.76 6.73031C27.76 6.96907 27.6949 7.20348 27.5714 7.4096C27.4479 7.61564 27.2705 7.78594 27.0573 7.9029L17.8281 12.9679C17.239 13.2911 16.5748 13.4609 15.8991 13.4609C15.2234 13.4609 14.5592 13.2911 13.9702 12.9679L4.74086 7.9029C4.52771 7.78594 4.35026 7.61564 4.22676 7.4096C4.10327 7.20348 4.03817 6.96907 4.03817 6.73031C4.03817 6.49154 4.10327 6.25713 4.22676 6.05102C4.35026 5.84498 4.52771 5.67468 4.74086 5.55771L13.9702 0.492981C14.5592 0.169739 15.2234 -5.72205e-06 15.8991 -5.72205e-06C16.5748 -5.72205e-06 17.239 0.169739 17.828 0.492981Z" fill="#FFB800"/>
<path opacity="0.7" d="M17.7782 5.24786L30.996 12.5014C31.2091 12.6183 31.3866 12.7886 31.5101 12.9947C31.6336 13.2008 31.6987 13.4352 31.6987 13.6739C31.6987 13.9127 31.6336 14.1472 31.5101 14.3532C31.3866 14.5594 31.2091 14.7296 30.996 14.8466L17.7782 22.1C17.1892 22.4232 16.525 22.593 15.8493 22.593C15.1737 22.593 14.5094 22.4232 13.9205 22.1L0.702673 14.8466C0.489523 14.7296 0.312073 14.5594 0.188576 14.3532C0.0650787 14.1472 -1.90735e-05 13.9127 -1.90735e-05 13.6739C-1.90735e-05 13.4352 0.0650787 13.2008 0.188576 12.9947C0.312073 12.7886 0.489523 12.6183 0.702673 12.5014L13.9205 5.24786C14.5094 4.9247 15.1737 4.75496 15.8493 4.75496C16.525 4.75496 17.1892 4.9247 17.7782 5.24786Z" fill="#FFB800"/>
</g>
<defs>
<clipPath id="clip0_526_17999">
<rect width="32" height="33" fill="white"/>
</clipPath>
</defs>
</svg>
