<svg width="42" height="33" viewBox="0 0 42 33" fill="none" xmlns="http://www.w3.org/2000/svg">
<path d="M22.6743 0.493225L31.9036 5.55796C32.1169 5.67492 32.2942 5.84522 32.4177 6.05126C32.5412 6.25738 32.6063 6.49179 32.6063 6.73055C32.6063 6.96932 32.5412 7.20373 32.4177 7.40984C32.2942 7.61588 32.1169 7.78618 31.9036 7.90315L22.6744 12.9681C22.0853 13.2914 21.4211 13.4612 20.7454 13.4612C20.0697 13.4612 19.4055 13.2914 18.8165 12.9681L9.58717 7.90315C9.37402 7.78618 9.19658 7.61588 9.07308 7.40984C8.94958 7.20373 8.88448 6.96932 8.88448 6.73055C8.88448 6.49179 8.94958 6.25738 9.07308 6.05126C9.19658 5.84522 9.37402 5.67492 9.58717 5.55796L18.8165 0.493225C19.4055 0.169983 20.0697 0.000238419 20.7454 0.000238419C21.4211 0.000238419 22.0853 0.169983 22.6743 0.493225Z" fill="#FFB800"/>
<path opacity="0.7" d="M22.6244 5.24798L35.8422 12.5015C36.0554 12.6184 36.2328 12.7887 36.3563 12.9948C36.4798 13.2009 36.5449 13.4353 36.5449 13.6741C36.5449 13.9128 36.4798 14.1473 36.3563 14.3534C36.2328 14.5595 36.0554 14.7297 35.8422 14.8467L22.6244 22.1002C22.0355 22.4233 21.3712 22.5931 20.6956 22.5931C20.0199 22.5931 19.3557 22.4233 18.7667 22.1002L5.54893 14.8467C5.33578 14.7297 5.15833 14.5595 5.03483 14.3534C4.91133 14.1473 4.84623 13.9128 4.84623 13.6741C4.84623 13.4353 4.91133 13.2009 5.03483 12.9948C5.15833 12.7887 5.33578 12.6184 5.54893 12.5015L18.7667 5.24798C19.3557 4.92482 20.0199 4.75508 20.6956 4.75508C21.3712 4.75508 22.0355 4.92482 22.6244 5.24798Z" fill="#FFB800"/>
<path opacity="0.4" d="M22.9257 10.0021L41.2984 20.0846C41.5113 20.2015 41.6884 20.3714 41.8117 20.5772C41.935 20.7829 42 21.017 42 21.2554C42 21.4937 41.935 21.7278 41.8117 21.9335C41.6884 22.1392 41.5113 22.3093 41.2984 22.426L22.9257 32.5083C22.3377 32.831 21.6745 33.0005 21 33.0005C20.3254 33.0005 19.6623 32.831 19.0743 32.5083L0.701542 22.426C0.488743 22.3093 0.311581 22.1392 0.188286 21.9335C0.0649948 21.7278 0 21.4937 0 21.2554C0 21.017 0.0649948 20.7829 0.188286 20.5772C0.311581 20.3714 0.488743 20.2015 0.701542 20.0846L19.0743 10.0021C19.6623 9.67948 20.3254 9.50994 21 9.50994C21.6745 9.50994 22.3377 9.67948 22.9257 10.0021Z" fill="#FFB800"/>
</svg>
