<svg width="532" height="460" viewBox="0 0 532 460" fill="none" xmlns="http://www.w3.org/2000/svg">
<g clip-path="url(#clip0_506_31828)">
<rect x="0.5" y="0.000244141" width="531.5" height="460" rx="20" fill="#9232FF" fill-opacity="0.5"/>
<g filter="url(#filter0_d_506_31828)">
<path d="M24.0676 43.0002C24.0676 36.3728 29.4402 31.0002 36.0676 31.0002H500.068C506.695 31.0002 512.068 36.3728 512.068 43.0002V210.131C512.068 216.758 506.695 222.131 500.068 222.131H36.0676C29.4402 222.131 24.0676 216.758 24.0676 210.131V43.0002Z" fill="white"/>
<g clip-path="url(#clip1_506_31828)">
<mask id="path-3-inside-1_506_31828" fill="white">
<path d="M39.4736 46.4063H496.662V207.601H39.4736V46.4063Z"/>
</mask>
<path d="M43.268 57.541C42.7366 57.541 42.2427 57.4437 41.7862 57.2491C41.3371 57.0545 40.948 56.7851 40.6187 56.4408C40.2969 56.0891 40.0611 55.6812 39.9114 55.2172L41.18 54.6671C41.382 55.1461 41.6739 55.524 42.0556 55.8009C42.4373 56.0704 42.8676 56.2051 43.3466 56.2051C43.616 56.2051 43.848 56.1639 44.0426 56.0816C44.2447 55.9918 44.3981 55.872 44.5029 55.7224C44.6151 55.5727 44.6713 55.3931 44.6713 55.1835C44.6713 54.9365 44.5964 54.7345 44.4467 54.5773C44.3045 54.4127 44.0875 54.2854 43.7956 54.1956L42.1903 53.6792C41.5392 53.4772 41.049 53.1741 40.7197 52.7699C40.3904 52.3658 40.2258 51.8906 40.2258 51.3442C40.2258 50.8653 40.3418 50.4424 40.5738 50.0757C40.8133 49.709 41.1426 49.4246 41.5617 49.2225C41.9882 49.013 42.4747 48.9082 43.021 48.9082C43.5225 48.9082 43.9827 48.998 44.4018 49.1776C44.8209 49.3498 45.1802 49.593 45.4795 49.9073C45.7864 50.2142 46.0146 50.5771 46.1643 50.9962L44.907 51.5575C44.7424 51.1384 44.4954 50.8166 44.1661 50.5921C43.8368 50.3601 43.4551 50.2441 43.021 50.2441C42.7666 50.2441 42.5421 50.289 42.3475 50.3788C42.1529 50.4611 41.9995 50.5809 41.8872 50.738C41.7824 50.8877 41.7301 51.0673 41.7301 51.2769C41.7301 51.5089 41.8049 51.7147 41.9546 51.8943C42.1043 52.0664 42.3325 52.2012 42.6394 52.2984L44.1773 52.7812C44.8434 52.9982 45.3411 53.2976 45.6704 53.6792C46.0071 54.0609 46.1755 54.5324 46.1755 55.0937C46.1755 55.5727 46.052 55.9955 45.8051 56.3622C45.5581 56.729 45.2176 57.0171 44.7835 57.2266C44.3494 57.4362 43.8443 57.541 43.268 57.541ZM47.4268 57.4063V48.9082H48.8974V54.4763L48.3361 54.3079L51.2099 51.2993H53.0398L50.7834 53.7578L53.0847 57.4063H51.4008L49.4026 54.2405L50.2782 54.0609L48.4371 56.0367L48.8974 55.1386V57.4063H47.4268ZM53.9058 57.4063V51.2993H55.3764V57.4063H53.9058ZM53.9058 50.6145V49.0429H55.3764V50.6145H53.9058ZM56.7343 57.4063V48.9082H58.2049V57.4063H56.7343ZM59.5627 57.4063V48.9082H61.0333V57.4063H59.5627ZM67.7204 57.541C67.2789 57.541 66.871 57.4549 66.4968 57.2828C66.1301 57.1032 65.8382 56.8487 65.6212 56.5194L65.7671 56.2275V57.4063H64.3863V48.9082H65.8569V52.5117L65.6324 52.2086C65.842 51.8793 66.1264 51.6249 66.4856 51.4453C66.8448 51.2582 67.2602 51.1646 67.7317 51.1646C68.3079 51.1646 68.8281 51.3068 69.2921 51.5912C69.7561 51.8756 70.1228 52.2573 70.3922 52.7363C70.6691 53.2152 70.8076 53.7541 70.8076 54.3528C70.8076 54.944 70.6729 55.4829 70.4034 55.9693C70.134 56.4558 69.7673 56.8412 69.3033 57.1256C68.8393 57.4025 68.3117 57.541 67.7204 57.541ZM67.552 56.1939C67.8888 56.1939 68.1882 56.1153 68.4501 55.9581C68.7121 55.8009 68.9141 55.5839 69.0563 55.307C69.206 55.0301 69.2808 54.712 69.2808 54.3528C69.2808 53.9936 69.206 53.6792 69.0563 53.4098C68.9141 53.1329 68.7121 52.9159 68.4501 52.7587C68.1882 52.5941 67.8888 52.5117 67.552 52.5117C67.2302 52.5117 66.9384 52.5903 66.6764 52.7475C66.422 52.9046 66.2199 53.1254 66.0702 53.4098C65.928 53.6867 65.8569 54.001 65.8569 54.3528C65.8569 54.712 65.928 55.0301 66.0702 55.307C66.2199 55.5839 66.422 55.8009 66.6764 55.9581C66.9384 56.1153 67.2302 56.1939 67.552 56.1939ZM71.9288 57.4063V51.2993H73.3096V52.6577L73.1973 52.4556C73.3395 51.9991 73.5603 51.681 73.8596 51.5014C74.1665 51.3218 74.5332 51.232 74.9598 51.232H75.319V52.5342H74.7914C74.3723 52.5342 74.0355 52.6652 73.7811 52.9271C73.5266 53.1816 73.3994 53.5408 73.3994 54.0048V57.4063H71.9288ZM79.0238 57.541C78.3952 57.541 77.8451 57.3988 77.3736 57.1144C76.9021 56.83 76.5354 56.4446 76.2735 55.9581C76.0115 55.4716 75.8806 54.9328 75.8806 54.3416C75.8806 53.7279 76.0115 53.1853 76.2735 52.7138C76.5429 52.2348 76.9059 51.8569 77.3624 51.58C77.8264 51.3031 78.3428 51.1646 78.9116 51.1646C79.3906 51.1646 79.8097 51.2432 80.1689 51.4004C80.5356 51.5575 80.8462 51.7746 81.1007 52.0515C81.3551 52.3284 81.5497 52.6464 81.6844 53.0057C81.8191 53.3574 81.8865 53.7391 81.8865 54.1507C81.8865 54.2555 81.879 54.364 81.864 54.4763C81.8565 54.5885 81.8378 54.6858 81.8079 54.7682H77.093V53.6456H80.9772L80.2812 54.1732C80.3485 53.8289 80.3298 53.5221 80.225 53.2527C80.1277 52.9832 79.9631 52.7699 79.7311 52.6128C79.5066 52.4556 79.2334 52.377 78.9116 52.377C78.6047 52.377 78.3316 52.4556 78.0921 52.6128C77.8526 52.7625 77.6692 52.987 77.542 53.2863C77.4223 53.5782 77.3774 53.9337 77.4073 54.3528C77.3774 54.727 77.426 55.06 77.5532 55.3519C77.688 55.6363 77.8825 55.8571 78.137 56.0142C78.3989 56.1714 78.6983 56.25 79.0351 56.25C79.3719 56.25 79.6562 56.1789 79.8882 56.0367C80.1277 55.8945 80.3148 55.7037 80.4495 55.4642L81.6395 56.0479C81.5198 56.3398 81.3327 56.598 81.0782 56.8225C80.8237 57.047 80.5206 57.2229 80.1689 57.3501C79.8246 57.4774 79.4429 57.541 79.0238 57.541ZM84.8316 57.541C84.405 57.541 84.0346 57.4699 83.7202 57.3277C83.4059 57.1855 83.1627 56.9834 82.9906 56.7215C82.8184 56.4521 82.7324 56.1415 82.7324 55.7897C82.7324 55.4529 82.8072 55.1536 82.9569 54.8916C83.1066 54.6222 83.3386 54.3977 83.6529 54.2181C83.9672 54.0385 84.3639 53.9112 84.8428 53.8364L86.8411 53.5108V54.6334L85.1235 54.9253C84.8316 54.9777 84.6146 55.0713 84.4724 55.206C84.3302 55.3407 84.2591 55.5166 84.2591 55.7336C84.2591 55.9431 84.3377 56.1115 84.4948 56.2388C84.6595 56.3585 84.8616 56.4184 85.101 56.4184C85.4079 56.4184 85.6773 56.3548 85.9093 56.2275C86.1488 56.0928 86.3322 55.9095 86.4594 55.6775C86.5941 55.4455 86.6614 55.191 86.6614 54.9141V53.3425C86.6614 53.0805 86.5567 52.8635 86.3471 52.6914C86.1451 52.5117 85.8756 52.4219 85.5389 52.4219C85.2245 52.4219 84.9439 52.508 84.6969 52.6801C84.4574 52.8448 84.2815 53.0656 84.1693 53.3425L82.9681 52.7587C83.0878 52.4369 83.2749 52.16 83.5294 51.928C83.7913 51.6885 84.0982 51.5014 84.4499 51.3667C84.8017 51.232 85.1834 51.1646 85.595 51.1646C86.0964 51.1646 86.538 51.2582 86.9196 51.4453C87.3013 51.6249 87.5969 51.8793 87.8065 52.2086C88.0235 52.5304 88.1321 52.9084 88.1321 53.3425V57.4063H86.74V56.3622L87.0544 56.3398C86.8972 56.6017 86.7101 56.8225 86.4931 57.0021C86.276 57.1743 86.0291 57.309 85.7521 57.4063C85.4752 57.4961 85.1684 57.541 84.8316 57.541ZM89.4913 57.4063V48.9082H90.9619V54.4763L90.4006 54.3079L93.2744 51.2993H95.1043L92.8478 53.7578L95.1492 57.4063H93.4653L91.467 54.2405L92.3427 54.0609L90.5016 56.0367L90.9619 55.1386V57.4063H89.4913ZM98.7009 57.541C98.1096 57.541 97.582 57.4025 97.118 57.1256C96.654 56.8412 96.2873 56.4558 96.0179 55.9693C95.7484 55.4829 95.6137 54.944 95.6137 54.3528C95.6137 53.7541 95.7484 53.2152 96.0179 52.7363C96.2873 52.2573 96.654 51.8756 97.118 51.5912C97.5895 51.3068 98.1134 51.1646 98.6896 51.1646C99.1536 51.1646 99.5653 51.2582 99.9245 51.4453C100.291 51.6249 100.579 51.8793 100.789 52.2086L100.564 52.5117V48.9082H102.035V57.4063H100.643V56.2275L100.8 56.5194C100.591 56.8487 100.299 57.1032 99.9245 57.2828C99.5503 57.4549 99.1424 57.541 98.7009 57.541ZM98.858 56.1939C99.1948 56.1939 99.4904 56.1153 99.7449 55.9581C99.9993 55.8009 100.198 55.5839 100.34 55.307C100.49 55.0301 100.564 54.712 100.564 54.3528C100.564 54.001 100.49 53.6867 100.34 53.4098C100.198 53.1254 99.9993 52.9046 99.7449 52.7475C99.4904 52.5903 99.1948 52.5117 98.858 52.5117C98.5287 52.5117 98.2331 52.5941 97.9712 52.7587C97.7092 52.9159 97.5034 53.1329 97.3537 53.4098C97.2115 53.6792 97.1404 53.9936 97.1404 54.3528C97.1404 54.712 97.2115 55.0301 97.3537 55.307C97.5034 55.5839 97.7092 55.8009 97.9712 55.9581C98.2331 56.1153 98.5287 56.1939 98.858 56.1939ZM106.389 57.541C105.791 57.541 105.244 57.4025 104.75 57.1256C104.264 56.8487 103.875 56.4708 103.583 55.9918C103.298 55.5128 103.156 54.9665 103.156 54.3528C103.156 53.7391 103.298 53.1928 103.583 52.7138C103.875 52.2348 104.264 51.8569 104.75 51.58C105.237 51.3031 105.783 51.1646 106.389 51.1646C106.988 51.1646 107.531 51.3031 108.017 51.58C108.503 51.8569 108.889 52.2348 109.173 52.7138C109.465 53.1853 109.611 53.7316 109.611 54.3528C109.611 54.9665 109.465 55.5128 109.173 55.9918C108.881 56.4708 108.492 56.8487 108.006 57.1256C107.519 57.4025 106.98 57.541 106.389 57.541ZM106.389 56.1939C106.719 56.1939 107.007 56.1153 107.254 55.9581C107.508 55.8009 107.706 55.5839 107.849 55.307C107.998 55.0226 108.073 54.7045 108.073 54.3528C108.073 53.9936 107.998 53.6792 107.849 53.4098C107.706 53.1329 107.508 52.9159 107.254 52.7587C107.007 52.5941 106.719 52.5117 106.389 52.5117C106.052 52.5117 105.757 52.5941 105.502 52.7587C105.248 52.9159 105.046 53.1329 104.896 53.4098C104.754 53.6792 104.683 53.9936 104.683 54.3528C104.683 54.7045 104.754 55.0226 104.896 55.307C105.046 55.5839 105.248 55.8009 105.502 55.9581C105.757 56.1153 106.052 56.1939 106.389 56.1939ZM112.155 57.4063L110.055 51.2993H111.605L113.143 55.9357L112.604 55.9244L114.243 51.2993H115.545L117.173 55.9244L116.634 55.9357L118.172 51.2993H119.721L117.622 57.4063H116.308L114.647 52.5679H115.141L113.457 57.4063H112.155ZM120.527 57.4063V51.2993H121.908V52.5005L121.796 52.2872C121.938 51.9205 122.17 51.6436 122.492 51.4565C122.821 51.2619 123.203 51.1646 123.637 51.1646C124.086 51.1646 124.482 51.2619 124.827 51.4565C125.178 51.6511 125.452 51.9242 125.646 52.276C125.841 52.6203 125.938 53.0206 125.938 53.4772V57.4063H124.467V53.8252C124.467 53.5558 124.415 53.3237 124.31 53.1292C124.205 52.9346 124.06 52.7849 123.872 52.6801C123.693 52.5679 123.48 52.5117 123.233 52.5117C122.993 52.5117 122.78 52.5679 122.593 52.6801C122.406 52.7849 122.26 52.9346 122.155 53.1292C122.05 53.3237 121.998 53.5558 121.998 53.8252V57.4063H120.527Z" fill="#111927"/>
<path d="M56.2895 101.342L54.2768 94.085H55.4285L56.8423 99.705H56.9097L58.3802 94.085H59.5213L60.9918 99.7086H61.0592L62.4695 94.085H63.6247L61.6084 101.342H60.5064L58.9791 95.9064H58.9224L57.3951 101.342H56.2895ZM64.197 101.342V95.8993H65.2211V96.7639H65.2778C65.377 96.471 65.5518 96.2406 65.8022 96.0729C66.055 95.9028 66.3408 95.8178 66.6597 95.8178C66.7259 95.8178 66.8038 95.8201 66.8936 95.8249C66.9857 95.8296 67.0578 95.8355 67.1098 95.8426V96.856C67.0672 96.8442 66.9917 96.8312 66.883 96.817C66.7743 96.8005 66.6656 96.7922 66.557 96.7922C66.3066 96.7922 66.0833 96.8454 65.8872 96.9517C65.6935 97.0556 65.54 97.2009 65.4266 97.3876C65.3132 97.5718 65.2565 97.7821 65.2565 98.0183V101.342H64.197ZM68.0267 101.342V95.8993H69.0862V101.342H68.0267ZM68.5617 95.0594C68.3775 95.0594 68.2192 94.998 68.0869 94.8752C67.957 94.75 67.892 94.6011 67.892 94.4287C67.892 94.2539 67.957 94.1051 68.0869 93.9822C68.2192 93.857 68.3775 93.7944 68.5617 93.7944C68.746 93.7944 68.9031 93.857 69.033 93.9822C69.1653 94.1051 69.2315 94.2539 69.2315 94.4287C69.2315 94.6011 69.1653 94.75 69.033 94.8752C68.9031 94.998 68.746 95.0594 68.5617 95.0594ZM73.0523 95.8993V96.7497H70.0793V95.8993H73.0523ZM70.8766 94.5952H71.9361V99.744C71.9361 99.9495 71.9668 100.104 72.0282 100.208C72.0896 100.31 72.1688 100.379 72.2656 100.417C72.3649 100.453 72.4723 100.47 72.5881 100.47C72.6731 100.47 72.7476 100.465 72.8113 100.453C72.8751 100.441 72.9247 100.431 72.9602 100.424L73.1515 101.3C73.0901 101.323 73.0027 101.347 72.8893 101.371C72.7759 101.396 72.6342 101.411 72.4641 101.413C72.1853 101.418 71.9255 101.368 71.6845 101.264C71.4435 101.16 71.2486 101 71.0998 100.782C70.951 100.565 70.8766 100.292 70.8766 99.9637V94.5952ZM74.2243 101.342V95.8993H75.2839V101.342H74.2243ZM74.7594 95.0594C74.5751 95.0594 74.4169 94.998 74.2846 94.8752C74.1546 94.75 74.0897 94.6011 74.0897 94.4287C74.0897 94.2539 74.1546 94.1051 74.2846 93.9822C74.4169 93.857 74.5751 93.7944 74.7594 93.7944C74.9437 93.7944 75.1008 93.857 75.2307 93.9822C75.363 94.1051 75.4291 94.2539 75.4291 94.4287C75.4291 94.6011 75.363 94.75 75.2307 94.8752C75.1008 94.998 74.9437 95.0594 74.7594 95.0594ZM77.7688 98.1104V101.342H76.7092V95.8993H77.7262V96.7852H77.7936C77.9188 96.4969 78.1149 96.2654 78.3818 96.0906C78.6511 95.9158 78.9901 95.8284 79.3988 95.8284C79.7697 95.8284 80.0945 95.9064 80.3733 96.0623C80.652 96.2158 80.8682 96.445 81.0217 96.7497C81.1753 97.0545 81.2521 97.4313 81.2521 97.8801V101.342H80.1926V98.0077C80.1926 97.6132 80.0898 97.3049 79.8843 97.0828C79.6787 96.8584 79.3964 96.7462 79.0374 96.7462C78.7917 96.7462 78.5732 96.7993 78.3818 96.9056C78.1928 97.0119 78.0428 97.1679 77.9318 97.3734C77.8231 97.5765 77.7688 97.8222 77.7688 98.1104ZM84.9551 103.497C84.5228 103.497 84.1507 103.44 83.8389 103.327C83.5294 103.213 83.2766 103.063 83.0805 102.877C82.8845 102.69 82.738 102.486 82.6411 102.263L83.5518 101.888C83.6156 101.992 83.7007 102.102 83.807 102.217C83.9156 102.336 84.0621 102.436 84.2464 102.519C84.433 102.601 84.6728 102.643 84.9657 102.643C85.3673 102.643 85.6992 102.545 85.9615 102.349C86.2237 102.155 86.3548 101.845 86.3548 101.42V100.35H86.2875C86.2237 100.466 86.1315 100.594 86.0111 100.736C85.8929 100.878 85.7299 101.001 85.5221 101.105C85.3142 101.209 85.0437 101.261 84.7106 101.261C84.2806 101.261 83.8932 101.16 83.5483 100.959C83.2058 100.756 82.9341 100.457 82.7333 100.063C82.5348 99.6661 82.4356 99.1782 82.4356 98.5995C82.4356 98.0207 82.5337 97.5246 82.7297 97.1112C82.9282 96.6977 83.1998 96.3812 83.5448 96.1615C83.8897 95.9394 84.2806 95.8284 84.7177 95.8284C85.0555 95.8284 85.3283 95.8851 85.5362 95.9985C85.7441 96.1095 85.9059 96.2394 86.0217 96.3883C86.1398 96.5371 86.2308 96.6682 86.2945 96.7816H86.3725V95.8993H87.4108V101.463C87.4108 101.93 87.3021 102.314 87.0848 102.614C86.8674 102.914 86.5733 103.136 86.2024 103.28C85.8339 103.425 85.4181 103.497 84.9551 103.497ZM84.9445 100.382C85.2492 100.382 85.5067 100.311 85.7169 100.169C85.9296 100.025 86.0902 99.8196 86.1989 99.5527C86.3099 99.2834 86.3654 98.9609 86.3654 98.5853C86.3654 98.2191 86.3111 97.8966 86.2024 97.6179C86.0937 97.3391 85.9343 97.1218 85.724 96.9659C85.5138 96.8076 85.2539 96.7285 84.9445 96.7285C84.6255 96.7285 84.3598 96.8111 84.1472 96.9765C83.9345 97.1395 83.7739 97.3616 83.6652 97.6427C83.5589 97.9238 83.5058 98.238 83.5058 98.5853C83.5058 98.942 83.5601 99.255 83.6688 99.5243C83.7774 99.7936 83.9381 100.004 84.1507 100.155C84.3657 100.306 84.6303 100.382 84.9445 100.382Z" fill="#111927"/>
<path d="M108.938 101.842L112.418 94.7698H108.478V93.4788H114.023V94.7698L110.622 101.842H108.938ZM117.975 101.842V100.001H114.136V98.7213L117.885 93.4788H119.479V98.7213H120.703V100.001H119.479V101.842H117.975ZM115.258 99.2714L114.989 98.7213H117.975V94.68L118.368 94.8035L115.258 99.2714Z" fill="#111927"/>
<path opacity="0.1" d="M496.662 102.331L496.662 92.3528C496.662 91.664 496.103 91.1055 495.414 91.1055L142.282 91.1055C141.593 91.1055 141.035 91.6639 141.035 92.3528L141.035 102.331C141.035 103.02 141.593 103.579 142.282 103.579L495.414 103.579C496.103 103.579 496.662 103.02 496.662 102.331Z" fill="#1780FF"/>
<path d="M427.229 102.331L427.229 92.3528C427.229 91.664 426.671 91.1055 425.982 91.1055L142.282 91.1055C141.593 91.1055 141.034 91.664 141.034 92.3528L141.034 102.331C141.034 103.02 141.593 103.579 142.282 103.579L425.982 103.579C426.671 103.579 427.229 103.02 427.229 102.331Z" fill="#1780FF"/>
<path d="M48.5947 125.088C48.5569 124.753 48.401 124.493 48.127 124.309C47.8529 124.122 47.508 124.029 47.0923 124.029C46.7946 124.029 46.5371 124.076 46.3198 124.171C46.1024 124.263 45.9335 124.39 45.813 124.553C45.6949 124.714 45.6359 124.897 45.6359 125.103C45.6359 125.275 45.676 125.424 45.7563 125.549C45.839 125.674 45.9465 125.779 46.0788 125.864C46.2135 125.947 46.3576 126.017 46.5111 126.073C46.6647 126.128 46.8123 126.173 46.9541 126.208L47.6628 126.392C47.8943 126.449 48.1317 126.526 48.375 126.623C48.6184 126.72 48.844 126.847 49.0518 127.005C49.2597 127.164 49.4275 127.36 49.555 127.594C49.685 127.828 49.7499 128.107 49.7499 128.433C49.7499 128.845 49.6436 129.21 49.431 129.528C49.2208 129.847 48.9148 130.099 48.5132 130.283C48.114 130.467 47.6309 130.56 47.0639 130.56C46.5206 130.56 46.0505 130.473 45.6536 130.301C45.2567 130.128 44.9461 129.884 44.7216 129.567C44.4972 129.248 44.3732 128.871 44.3496 128.433H45.4481C45.4693 128.696 45.5544 128.914 45.7032 129.089C45.8544 129.261 46.0469 129.39 46.2808 129.475C46.517 129.558 46.7757 129.599 47.0568 129.599C47.3663 129.599 47.6415 129.551 47.8825 129.454C48.1258 129.355 48.3171 129.218 48.4565 129.043C48.5959 128.866 48.6656 128.659 48.6656 128.423C48.6656 128.208 48.6042 128.032 48.4813 127.895C48.3609 127.758 48.1967 127.644 47.9888 127.555C47.7833 127.465 47.5506 127.386 47.2907 127.317L46.4332 127.083C45.852 126.925 45.3914 126.692 45.0512 126.385C44.7134 126.078 44.5444 125.672 44.5444 125.166C44.5444 124.748 44.6578 124.383 44.8846 124.071C45.1114 123.76 45.4185 123.517 45.806 123.345C46.1934 123.17 46.6304 123.083 47.1171 123.083C47.6084 123.083 48.0419 123.169 48.4175 123.341C48.7955 123.514 49.0932 123.751 49.3105 124.054C49.5279 124.354 49.6413 124.699 49.6507 125.088H48.5947ZM50.9733 132.48V124.996H52.008V125.879H52.0966C52.1581 125.765 52.2466 125.634 52.3624 125.485C52.4782 125.336 52.6388 125.206 52.8443 125.095C53.0499 124.982 53.3215 124.925 53.6593 124.925C54.0987 124.925 54.4909 125.036 54.8358 125.258C55.1807 125.481 55.4512 125.801 55.6473 126.219C55.8457 126.637 55.9449 127.14 55.9449 127.728C55.9449 128.317 55.8469 128.821 55.6508 129.241C55.4547 129.66 55.1854 129.982 54.8429 130.209C54.5003 130.433 54.1094 130.545 53.67 130.545C53.3392 130.545 53.0688 130.49 52.8585 130.379C52.6506 130.268 52.4876 130.138 52.3695 129.989C52.2514 129.84 52.1604 129.708 52.0966 129.592H52.0329V132.48H50.9733ZM52.0116 127.718C52.0116 128.1 52.0671 128.436 52.1781 128.724C52.2892 129.012 52.4498 129.238 52.6601 129.401C52.8703 129.561 53.1278 129.642 53.4326 129.642C53.7491 129.642 54.0137 129.558 54.2263 129.39C54.4389 129.22 54.5996 128.99 54.7082 128.699C54.8193 128.409 54.8748 128.081 54.8748 127.718C54.8748 127.359 54.8204 127.036 54.7118 126.75C54.6055 126.464 54.4448 126.239 54.2299 126.073C54.0172 125.908 53.7515 125.825 53.4326 125.825C53.1254 125.825 52.8656 125.905 52.653 126.063C52.4427 126.221 52.2833 126.442 52.1746 126.725C52.0659 127.009 52.0116 127.34 52.0116 127.718ZM59.4779 130.549C58.9416 130.549 58.4798 130.434 58.0923 130.205C57.7073 129.974 57.4096 129.649 57.1994 129.231C56.9915 128.81 56.8875 128.318 56.8875 127.753C56.8875 127.196 56.9915 126.704 57.1994 126.279C57.4096 125.854 57.7025 125.522 58.0782 125.283C58.4561 125.045 58.8979 124.925 59.4034 124.925C59.7105 124.925 60.0082 124.976 60.2964 125.078C60.5846 125.179 60.8433 125.339 61.0724 125.556C61.3016 125.773 61.4823 126.056 61.6146 126.403C61.7469 126.748 61.8131 127.167 61.8131 127.661V128.037H57.4864V127.243H60.7748C60.7748 126.964 60.7181 126.717 60.6047 126.502C60.4913 126.285 60.3318 126.114 60.1263 125.988C59.9232 125.863 59.6846 125.801 59.4105 125.801C59.1129 125.801 58.853 125.874 58.6309 126.02C58.4112 126.164 58.2412 126.353 58.1207 126.587C58.0026 126.819 57.9435 127.07 57.9435 127.342V127.962C57.9435 128.326 58.0073 128.635 58.1348 128.891C58.2648 129.146 58.4455 129.341 58.677 129.475C58.9085 129.608 59.179 129.674 59.4885 129.674C59.6893 129.674 59.8724 129.645 60.0377 129.589C60.2031 129.53 60.346 129.442 60.4665 129.326C60.587 129.211 60.6791 129.068 60.7429 128.898L61.7457 129.078C61.6654 129.374 61.5213 129.632 61.3134 129.854C61.1079 130.074 60.8492 130.245 60.5374 130.368C60.2279 130.489 59.8747 130.549 59.4779 130.549ZM64.5726 130.56C64.2277 130.56 63.9159 130.496 63.6371 130.368C63.3583 130.238 63.1375 130.051 62.9745 129.805C62.8138 129.559 62.7335 129.258 62.7335 128.901C62.7335 128.594 62.7925 128.341 62.9107 128.143C63.0288 127.944 63.1882 127.787 63.389 127.672C63.5898 127.556 63.8143 127.468 64.0623 127.409C64.3104 127.35 64.5631 127.305 64.8206 127.275C65.1466 127.237 65.4112 127.206 65.6144 127.183C65.8176 127.157 65.9652 127.115 66.0573 127.059C66.1495 127.002 66.1955 126.91 66.1955 126.782V126.757C66.1955 126.448 66.1081 126.208 65.9333 126.038C65.7609 125.868 65.5034 125.783 65.1608 125.783C64.8041 125.783 64.523 125.862 64.3175 126.02C64.1143 126.176 63.9737 126.35 63.8958 126.541L62.9 126.314C63.0182 125.984 63.1906 125.717 63.4174 125.514C63.6465 125.308 63.9099 125.159 64.2076 125.067C64.5053 124.973 64.8183 124.925 65.1466 124.925C65.364 124.925 65.5943 124.951 65.8376 125.003C66.0833 125.053 66.3125 125.145 66.5251 125.28C66.7401 125.414 66.9161 125.607 67.0531 125.857C67.1901 126.105 67.2586 126.428 67.2586 126.825V130.439H66.2239V129.695H66.1814C66.1129 129.832 66.0101 129.967 65.8731 130.099C65.7361 130.231 65.5601 130.341 65.3451 130.428C65.1301 130.516 64.8726 130.56 64.5726 130.56ZM64.8029 129.709C65.0959 129.709 65.3463 129.651 65.5542 129.536C65.7644 129.42 65.9239 129.269 66.0325 129.082C66.1436 128.893 66.1991 128.691 66.1991 128.476V127.774C66.1613 127.812 66.088 127.848 65.9794 127.881C65.8731 127.911 65.7514 127.939 65.6144 127.962C65.4774 127.983 65.3439 128.004 65.214 128.022C65.084 128.039 64.9754 128.053 64.888 128.065C64.6824 128.091 64.4946 128.135 64.3245 128.196C64.1568 128.257 64.0222 128.346 63.9206 128.462C63.8214 128.575 63.7717 128.726 63.7717 128.915C63.7717 129.178 63.8686 129.376 64.0623 129.511C64.256 129.643 64.5029 129.709 64.8029 129.709ZM69.6443 128.593L69.6372 127.3H69.8215L71.9901 124.996H73.2587L70.7853 127.618H70.6188L69.6443 128.593ZM68.6698 130.439V123.182H69.7293V130.439H68.6698ZM72.1071 130.439L70.1581 127.852L70.8881 127.112L73.4075 130.439H72.1071ZM74.2243 130.439V124.996H75.2839V130.439H74.2243ZM74.7594 124.156C74.5751 124.156 74.4169 124.095 74.2846 123.972C74.1546 123.847 74.0897 123.698 74.0897 123.526C74.0897 123.351 74.1546 123.202 74.2846 123.079C74.4169 122.954 74.5751 122.891 74.7594 122.891C74.9437 122.891 75.1008 122.954 75.2307 123.079C75.363 123.202 75.4291 123.351 75.4291 123.526C75.4291 123.698 75.363 123.847 75.2307 123.972C75.1008 124.095 74.9437 124.156 74.7594 124.156ZM77.7688 127.207V130.439H76.7092V124.996H77.7262V125.882H77.7936C77.9188 125.594 78.1149 125.362 78.3818 125.188C78.6511 125.013 78.9901 124.925 79.3988 124.925C79.7697 124.925 80.0945 125.003 80.3733 125.159C80.652 125.313 80.8682 125.542 81.0217 125.847C81.1753 126.151 81.2521 126.528 81.2521 126.977V130.439H80.1926V127.105C80.1926 126.71 80.0898 126.402 79.8843 126.18C79.6787 125.955 79.3964 125.843 79.0374 125.843C78.7917 125.843 78.5732 125.896 78.3818 126.003C78.1928 126.109 78.0428 126.265 77.9318 126.47C77.8231 126.674 77.7688 126.919 77.7688 127.207ZM84.9551 132.594C84.5228 132.594 84.1507 132.537 83.8389 132.424C83.5294 132.31 83.2766 132.16 83.0805 131.973C82.8845 131.787 82.738 131.583 82.6411 131.36L83.5518 130.985C83.6156 131.089 83.7007 131.199 83.807 131.314C83.9156 131.432 84.0621 131.533 84.2464 131.616C84.433 131.698 84.6728 131.74 84.9657 131.74C85.3673 131.74 85.6992 131.642 85.9615 131.445C86.2237 131.252 86.3548 130.942 86.3548 130.517V129.447H86.2875C86.2237 129.563 86.1315 129.691 86.0111 129.833C85.8929 129.975 85.7299 130.098 85.5221 130.202C85.3142 130.306 85.0437 130.358 84.7106 130.358C84.2806 130.358 83.8932 130.257 83.5483 130.056C83.2058 129.853 82.9341 129.554 82.7333 129.16C82.5348 128.763 82.4356 128.275 82.4356 127.696C82.4356 127.118 82.5337 126.622 82.7297 126.208C82.9282 125.795 83.1998 125.478 83.5448 125.258C83.8897 125.036 84.2806 124.925 84.7177 124.925C85.0555 124.925 85.3283 124.982 85.5362 125.095C85.7441 125.206 85.9059 125.336 86.0217 125.485C86.1398 125.634 86.2308 125.765 86.2945 125.879H86.3725V124.996H87.4108V130.56C87.4108 131.027 87.3021 131.411 87.0848 131.711C86.8674 132.011 86.5733 132.233 86.2024 132.377C85.8339 132.522 85.4181 132.594 84.9551 132.594ZM84.9445 129.479C85.2492 129.479 85.5067 129.408 85.7169 129.266C85.9296 129.122 86.0902 128.917 86.1989 128.65C86.3099 128.38 86.3654 128.058 86.3654 127.682C86.3654 127.316 86.3111 126.994 86.2024 126.715C86.0937 126.436 85.9343 126.219 85.724 126.063C85.5138 125.905 85.2539 125.825 84.9445 125.825C84.6255 125.825 84.3598 125.908 84.1472 126.073C83.9345 126.236 83.7739 126.459 83.6652 126.74C83.5589 127.021 83.5058 127.335 83.5058 127.682C83.5058 128.039 83.5601 128.352 83.6688 128.621C83.7774 128.891 83.9381 129.101 84.1507 129.252C84.3657 129.403 84.6303 129.479 84.9445 129.479Z" fill="#111927"/>
<path d="M112.583 131.074C111.977 131.074 111.449 130.962 111 130.737C110.559 130.505 110.214 130.194 109.967 129.805C109.728 129.416 109.608 128.99 109.608 128.526C109.608 127.979 109.754 127.519 110.046 127.145C110.338 126.763 110.761 126.482 111.315 126.303L111.225 126.673C110.828 126.546 110.514 126.299 110.282 125.932C110.057 125.566 109.945 125.161 109.945 124.72C109.945 124.278 110.057 123.885 110.282 123.541C110.506 123.197 110.817 122.928 111.214 122.733C111.61 122.538 112.067 122.441 112.583 122.441C113.092 122.441 113.541 122.538 113.93 122.733C114.327 122.928 114.638 123.197 114.862 123.541C115.094 123.885 115.21 124.278 115.21 124.72C115.21 125.169 115.094 125.577 114.862 125.944C114.638 126.303 114.327 126.55 113.93 126.684L113.852 126.292C114.405 126.486 114.828 126.774 115.12 127.156C115.412 127.53 115.558 127.99 115.558 128.537C115.558 129.001 115.435 129.427 115.188 129.817C114.948 130.198 114.604 130.505 114.155 130.737C113.713 130.962 113.189 131.074 112.583 131.074ZM112.583 129.783C112.875 129.783 113.129 129.73 113.347 129.626C113.564 129.513 113.732 129.36 113.852 129.165C113.971 128.963 114.031 128.735 114.031 128.481C114.031 128.219 113.971 127.994 113.852 127.807C113.732 127.612 113.564 127.463 113.347 127.358C113.129 127.246 112.875 127.19 112.583 127.19C112.291 127.19 112.037 127.246 111.82 127.358C111.61 127.463 111.446 127.612 111.326 127.807C111.206 127.994 111.146 128.219 111.146 128.481C111.146 128.735 111.206 128.963 111.326 129.165C111.446 129.36 111.61 129.513 111.82 129.626C112.037 129.73 112.291 129.783 112.583 129.783ZM112.583 125.899C112.8 125.899 112.991 125.85 113.156 125.753C113.32 125.655 113.448 125.528 113.537 125.371C113.635 125.206 113.683 125.019 113.683 124.81C113.683 124.6 113.635 124.417 113.537 124.26C113.448 124.095 113.32 123.968 113.156 123.878C112.991 123.781 112.8 123.732 112.583 123.732C112.366 123.732 112.172 123.781 111.999 123.878C111.835 123.968 111.704 124.095 111.606 124.26C111.517 124.417 111.472 124.6 111.472 124.81C111.472 125.019 111.517 125.206 111.606 125.371C111.704 125.528 111.835 125.655 111.999 125.753C112.172 125.85 112.366 125.899 112.583 125.899ZM120.103 131.074C119.437 131.074 118.853 130.894 118.351 130.535C117.85 130.176 117.457 129.671 117.173 129.019C116.896 128.368 116.757 127.612 116.757 126.752C116.757 125.884 116.896 125.128 117.173 124.484C117.45 123.841 117.839 123.339 118.34 122.98C118.842 122.621 119.425 122.441 120.091 122.441C120.773 122.441 121.36 122.621 121.854 122.98C122.355 123.339 122.748 123.844 123.033 124.495C123.317 125.139 123.459 125.891 123.459 126.752C123.459 127.612 123.317 128.368 123.033 129.019C122.756 129.663 122.367 130.168 121.865 130.535C121.364 130.894 120.776 131.074 120.103 131.074ZM120.114 129.682C120.496 129.682 120.821 129.566 121.091 129.334C121.36 129.094 121.566 128.758 121.708 128.323C121.858 127.882 121.933 127.358 121.933 126.752C121.933 126.146 121.858 125.625 121.708 125.191C121.566 124.75 121.356 124.413 121.079 124.181C120.81 123.949 120.481 123.833 120.091 123.833C119.717 123.833 119.395 123.949 119.126 124.181C118.857 124.413 118.647 124.75 118.497 125.191C118.355 125.625 118.284 126.146 118.284 126.752C118.284 127.351 118.355 127.871 118.497 128.312C118.647 128.746 118.857 129.083 119.126 129.323C119.403 129.562 119.732 129.682 120.114 129.682Z" fill="#111927"/>
<path opacity="0.1" d="M496.662 131.428L496.662 121.45C496.662 120.761 496.103 120.202 495.415 120.202L145.282 120.202C144.593 120.202 144.034 120.761 144.034 121.45L144.034 131.428C144.034 132.117 144.593 132.676 145.282 132.676L495.415 132.676C496.103 132.676 496.662 132.117 496.662 131.428Z" fill="#E23793"/>
<path d="M460.801 131.428L460.801 121.45C460.801 120.761 460.242 120.202 459.554 120.202L145.281 120.202C144.592 120.202 144.034 120.761 144.034 121.45L144.034 131.428C144.034 132.117 144.592 132.676 145.281 132.676L459.554 132.676C460.242 132.676 460.801 132.117 460.801 131.428Z" fill="#E23793"/>
<path d="M50.1619 159.536V152.279H52.7487C53.3109 152.279 53.7775 152.376 54.1484 152.569C54.5216 152.763 54.8004 153.031 54.9846 153.374C55.1689 153.714 55.261 154.107 55.261 154.554C55.261 154.998 55.1677 155.389 54.9811 155.727C54.7968 156.062 54.5181 156.323 54.1448 156.51C53.7739 156.697 53.3074 156.79 52.7451 156.79H50.7855V155.847H52.6459C53.0002 155.847 53.2885 155.796 53.5105 155.695C53.7349 155.593 53.8991 155.446 54.0031 155.252C54.107 155.058 54.159 154.826 54.159 154.554C54.159 154.28 54.1058 154.042 53.9995 153.842C53.8956 153.641 53.7314 153.487 53.507 153.381C53.2849 153.272 52.9932 153.218 52.6317 153.218H51.2568V159.536H50.1619ZM53.7444 156.262L55.5374 159.536H54.2901L52.5325 156.262H53.7444ZM58.786 159.646C58.2497 159.646 57.7879 159.531 57.4004 159.302C57.0154 159.071 56.7177 158.746 56.5075 158.328C56.2996 157.907 56.1956 157.415 56.1956 156.85C56.1956 156.293 56.2996 155.801 56.5075 155.376C56.7177 154.951 57.0107 154.619 57.3863 154.38C57.7643 154.142 58.206 154.022 58.7116 154.022C59.0187 154.022 59.3163 154.073 59.6045 154.175C59.8927 154.276 60.1514 154.436 60.3806 154.653C60.6097 154.87 60.7904 155.153 60.9227 155.5C61.055 155.845 61.1212 156.264 61.1212 156.758V157.134H56.7945V156.34H60.0829C60.0829 156.061 60.0262 155.814 59.9128 155.599C59.7994 155.382 59.64 155.211 59.4344 155.085C59.2313 154.96 58.9927 154.898 58.7186 154.898C58.421 154.898 58.1611 154.971 57.9391 155.117C57.7194 155.261 57.5493 155.45 57.4288 155.684C57.3107 155.916 57.2516 156.167 57.2516 156.439V157.059C57.2516 157.423 57.3154 157.732 57.443 157.988C57.5729 158.243 57.7536 158.438 57.9851 158.572C58.2166 158.705 58.4871 158.771 58.7966 158.771C58.9974 158.771 59.1805 158.742 59.3459 158.686C59.5112 158.627 59.6541 158.539 59.7746 158.423C59.8951 158.308 59.9872 158.165 60.051 157.995L61.0538 158.175C60.9735 158.471 60.8294 158.729 60.6215 158.951C60.416 159.171 60.1573 159.342 59.8455 159.465C59.536 159.586 59.1829 159.646 58.786 159.646ZM63.8807 159.657C63.5358 159.657 63.224 159.593 62.9452 159.465C62.6665 159.335 62.4456 159.147 62.2826 158.902C62.1219 158.656 62.0416 158.355 62.0416 157.998C62.0416 157.691 62.1007 157.438 62.2188 157.24C62.3369 157.041 62.4964 156.884 62.6972 156.769C62.898 156.653 63.1224 156.565 63.3704 156.506C63.6185 156.447 63.8713 156.402 64.1288 156.372C64.4548 156.334 64.7194 156.303 64.9225 156.28C65.1257 156.254 65.2733 156.212 65.3655 156.156C65.4576 156.099 65.5037 156.007 65.5037 155.879V155.854C65.5037 155.545 65.4162 155.305 65.2414 155.135C65.069 154.965 64.8115 154.88 64.4689 154.88C64.1122 154.88 63.8311 154.959 63.6256 155.117C63.4224 155.273 63.2819 155.447 63.2039 155.638L62.2082 155.411C62.3263 155.081 62.4987 154.814 62.7255 154.611C62.9547 154.405 63.2181 154.256 63.5157 154.164C63.8134 154.07 64.1264 154.022 64.4548 154.022C64.6721 154.022 64.9024 154.048 65.1458 154.1C65.3914 154.15 65.6206 154.242 65.8332 154.377C66.0482 154.511 66.2242 154.704 66.3612 154.954C66.4982 155.202 66.5667 155.525 66.5667 155.922V159.536H65.532V158.792H65.4895C65.421 158.929 65.3182 159.064 65.1812 159.196C65.0442 159.328 64.8682 159.438 64.6532 159.525C64.4382 159.613 64.1807 159.657 63.8807 159.657ZM64.111 158.806C64.404 158.806 64.6544 158.748 64.8623 158.632C65.0725 158.517 65.232 158.366 65.3407 158.179C65.4517 157.99 65.5072 157.788 65.5072 157.573V156.871C65.4694 156.909 65.3962 156.945 65.2875 156.978C65.1812 157.008 65.0595 157.036 64.9225 157.059C64.7855 157.08 64.652 157.1 64.5221 157.119C64.3922 157.136 64.2835 157.15 64.1961 157.162C63.9906 157.188 63.8028 157.232 63.6327 157.293C63.4649 157.354 63.3303 157.443 63.2287 157.559C63.1295 157.672 63.0799 157.823 63.0799 158.012C63.0799 158.275 63.1767 158.473 63.3704 158.608C63.5642 158.74 63.811 158.806 64.111 158.806ZM70.0155 159.642C69.5761 159.642 69.1839 159.53 68.839 159.306C68.4965 159.079 68.2272 158.756 68.0311 158.338C67.8374 157.918 67.7405 157.413 67.7405 156.825C67.7405 156.237 67.8386 155.734 68.0346 155.316C68.2331 154.898 68.5047 154.577 68.8497 154.355C69.1946 154.133 69.5855 154.022 70.0226 154.022C70.3604 154.022 70.6321 154.079 70.8376 154.192C71.0455 154.303 71.2061 154.433 71.3195 154.582C71.4353 154.731 71.525 154.862 71.5888 154.976H71.6526V152.279H72.7121V159.536H71.6774V158.689H71.5888C71.525 158.805 71.4329 158.937 71.3124 159.086C71.1943 159.235 71.0313 159.365 70.8234 159.476C70.6155 159.587 70.3462 159.642 70.0155 159.642ZM70.2494 158.739C70.5541 158.739 70.8116 158.658 71.0219 158.498C71.2345 158.335 71.3951 158.109 71.5038 157.821C71.6148 157.533 71.6703 157.197 71.6703 156.815C71.6703 156.437 71.616 156.106 71.5073 155.822C71.3986 155.539 71.2392 155.318 71.0289 155.16C70.8187 155.002 70.5588 154.922 70.2494 154.922C69.9304 154.922 69.6647 155.005 69.4521 155.17C69.2394 155.336 69.0788 155.561 68.9701 155.847C68.8638 156.133 68.8107 156.456 68.8107 156.815C68.8107 157.178 68.865 157.506 68.9737 157.796C69.0823 158.087 69.243 158.317 69.4556 158.487C69.6706 158.655 69.9352 158.739 70.2494 158.739ZM74.2243 159.536V154.093H75.2839V159.536H74.2243ZM74.7594 153.253C74.5751 153.253 74.4169 153.192 74.2846 153.069C74.1546 152.944 74.0897 152.795 74.0897 152.623C74.0897 152.448 74.1546 152.299 74.2846 152.176C74.4169 152.051 74.5751 151.988 74.7594 151.988C74.9437 151.988 75.1008 152.051 75.2307 152.176C75.363 152.299 75.4291 152.448 75.4291 152.623C75.4291 152.795 75.363 152.944 75.2307 153.069C75.1008 153.192 74.9437 153.253 74.7594 153.253ZM77.7688 156.304V159.536H76.7092V154.093H77.7262V154.979H77.7936C77.9188 154.691 78.1149 154.459 78.3818 154.285C78.6511 154.11 78.9901 154.022 79.3988 154.022C79.7697 154.022 80.0945 154.1 80.3733 154.256C80.652 154.41 80.8682 154.639 81.0217 154.944C81.1753 155.248 81.2521 155.625 81.2521 156.074V159.536H80.1926V156.202C80.1926 155.807 80.0898 155.499 79.8843 155.277C79.6787 155.052 79.3964 154.94 79.0374 154.94C78.7917 154.94 78.5732 154.993 78.3818 155.1C78.1928 155.206 78.0428 155.362 77.9318 155.567C77.8231 155.77 77.7688 156.016 77.7688 156.304ZM84.9551 161.691C84.5228 161.691 84.1507 161.634 83.8389 161.52C83.5294 161.407 83.2766 161.257 83.0805 161.07C82.8845 160.884 82.738 160.679 82.6411 160.457L83.5518 160.082C83.6156 160.186 83.7007 160.296 83.807 160.411C83.9156 160.529 84.0621 160.63 84.2464 160.713C84.433 160.795 84.6728 160.837 84.9657 160.837C85.3673 160.837 85.6992 160.739 85.9615 160.542C86.2237 160.349 86.3548 160.039 86.3548 159.614V158.544H86.2875C86.2237 158.66 86.1315 158.788 86.0111 158.93C85.8929 159.072 85.7299 159.195 85.5221 159.299C85.3142 159.403 85.0437 159.455 84.7106 159.455C84.2806 159.455 83.8932 159.354 83.5483 159.153C83.2058 158.95 82.9341 158.651 82.7333 158.257C82.5348 157.86 82.4356 157.372 82.4356 156.793C82.4356 156.215 82.5337 155.718 82.7297 155.305C82.9282 154.892 83.1998 154.575 83.5448 154.355C83.8897 154.133 84.2806 154.022 84.7177 154.022C85.0555 154.022 85.3283 154.079 85.5362 154.192C85.7441 154.303 85.9059 154.433 86.0217 154.582C86.1398 154.731 86.2308 154.862 86.2945 154.976H86.3725V154.093H87.4108V159.657C87.4108 160.124 87.3021 160.508 87.0848 160.808C86.8674 161.108 86.5733 161.33 86.2024 161.474C85.8339 161.619 85.4181 161.691 84.9551 161.691ZM84.9445 158.576C85.2492 158.576 85.5067 158.505 85.7169 158.363C85.9296 158.219 86.0902 158.014 86.1989 157.747C86.3099 157.477 86.3654 157.155 86.3654 156.779C86.3654 156.413 86.3111 156.091 86.2024 155.812C86.0937 155.533 85.9343 155.316 85.724 155.16C85.5138 155.002 85.2539 154.922 84.9445 154.922C84.6255 154.922 84.3598 155.005 84.1472 155.17C83.9345 155.333 83.7739 155.555 83.6652 155.837C83.5589 156.118 83.5058 156.432 83.5058 156.779C83.5058 157.136 83.5601 157.449 83.6688 157.718C83.7774 157.988 83.9381 158.198 84.1507 158.349C84.3657 158.5 84.6303 158.576 84.9445 158.576Z" fill="#111927"/>
<path d="M108.916 160.036L112.396 152.964H108.456V151.673H114.001V152.964L110.6 160.036H108.916ZM114.895 160.036V158.88L117.163 156.511C117.612 156.04 117.956 155.665 118.195 155.389C118.442 155.104 118.614 154.861 118.712 154.659C118.809 154.457 118.858 154.251 118.858 154.041C118.858 153.69 118.745 153.413 118.521 153.211C118.304 153.009 118.023 152.908 117.679 152.908C117.32 152.908 117.009 153.012 116.747 153.222C116.485 153.424 116.294 153.723 116.175 154.12L114.839 153.705C114.929 153.263 115.112 152.881 115.389 152.56C115.666 152.23 116.003 151.98 116.399 151.807C116.803 151.628 117.23 151.538 117.679 151.538C118.218 151.538 118.689 151.635 119.093 151.83C119.505 152.024 119.823 152.298 120.048 152.649C120.28 153.001 120.396 153.413 120.396 153.884C120.396 154.184 120.339 154.479 120.227 154.771C120.115 155.063 119.947 155.362 119.722 155.669C119.498 155.969 119.206 156.305 118.846 156.68L116.882 158.745H120.508V160.036H114.895Z" fill="#111927"/>
<path opacity="0.1" d="M496.662 160.525L496.662 150.547C496.662 149.858 496.103 149.299 495.414 149.299L142.281 149.299C141.592 149.299 141.034 149.858 141.034 150.547L141.034 160.525C141.034 161.214 141.592 161.773 142.281 161.773L495.414 161.773C496.103 161.773 496.662 161.214 496.662 160.525Z" fill="#87DA55"/>
<path d="M421.253 160.525L421.253 150.547C421.253 149.858 420.694 149.299 420.005 149.299L142.896 149.299C142.208 149.299 141.649 149.858 141.649 150.547L141.649 160.525C141.649 161.214 142.208 161.773 142.896 161.773L420.005 161.773C420.694 161.773 421.253 161.214 421.253 160.525Z" fill="#87DA55"/>
<path d="M45.3674 188.633V181.376H46.4624V187.69H49.7508V188.633H45.3674ZM50.9149 188.633V183.19H51.9744V188.633H50.9149ZM51.4499 182.35C51.2657 182.35 51.1074 182.289 50.9751 182.166C50.8452 182.041 50.7802 181.892 50.7802 181.72C50.7802 181.545 50.8452 181.396 50.9751 181.273C51.1074 181.148 51.2657 181.085 51.4499 181.085C51.6342 181.085 51.7913 181.148 51.9212 181.273C52.0535 181.396 52.1197 181.545 52.1197 181.72C52.1197 181.892 52.0535 182.041 51.9212 182.166C51.7913 182.289 51.6342 182.35 51.4499 182.35ZM57.4784 184.519L56.5181 184.689C56.4779 184.566 56.4142 184.449 56.3268 184.338C56.2417 184.227 56.126 184.136 55.9795 184.065C55.833 183.995 55.6499 183.959 55.4302 183.959C55.1302 183.959 54.8798 184.026 54.679 184.161C54.4782 184.293 54.3778 184.465 54.3778 184.675C54.3778 184.857 54.4451 185.003 54.5798 185.114C54.7144 185.225 54.9318 185.316 55.2318 185.387L56.0964 185.586C56.5972 185.701 56.9705 185.88 57.2162 186.121C57.4619 186.362 57.5847 186.675 57.5847 187.06C57.5847 187.386 57.4902 187.676 57.3012 187.931C57.1146 188.184 56.8536 188.383 56.5181 188.527C56.185 188.671 55.7988 188.743 55.3594 188.743C54.7499 188.743 54.2526 188.613 53.8675 188.353C53.4825 188.091 53.2462 187.719 53.1588 187.237L54.1829 187.081C54.2467 187.348 54.3778 187.55 54.5762 187.687C54.7747 187.822 55.0334 187.889 55.3523 187.889C55.6995 187.889 55.9771 187.817 56.185 187.673C56.3929 187.526 56.4968 187.348 56.4968 187.138C56.4968 186.968 56.4331 186.825 56.3055 186.709C56.1803 186.593 55.9878 186.506 55.7279 186.447L54.8066 186.245C54.2987 186.129 53.923 185.945 53.6797 185.692C53.4388 185.439 53.3183 185.119 53.3183 184.732C53.3183 184.41 53.408 184.129 53.5876 183.888C53.7671 183.647 54.0152 183.459 54.3317 183.325C54.6483 183.188 55.0109 183.119 55.4196 183.119C56.0078 183.119 56.4709 183.247 56.8087 183.502C57.1465 183.755 57.3697 184.094 57.4784 184.519ZM61.2904 183.19V184.041H58.3173V183.19H61.2904ZM59.1146 181.886H60.1742V187.035C60.1742 187.24 60.2049 187.395 60.2663 187.499C60.3277 187.601 60.4069 187.67 60.5037 187.708C60.6029 187.744 60.7104 187.761 60.8262 187.761C60.9112 187.761 60.9856 187.755 61.0494 187.744C61.1132 187.732 61.1628 187.722 61.1982 187.715L61.3896 188.591C61.3282 188.614 61.2408 188.638 61.1274 188.661C61.014 188.687 60.8722 188.702 60.7021 188.704C60.4234 188.709 60.1635 188.659 59.9226 188.555C59.6816 188.451 59.4867 188.29 59.3379 188.073C59.1891 187.856 59.1146 187.583 59.1146 187.255V181.886ZM64.7498 188.743C64.2135 188.743 63.7517 188.628 63.3642 188.399C62.9792 188.168 62.6815 187.843 62.4713 187.425C62.2634 187.004 62.1594 186.512 62.1594 185.947C62.1594 185.39 62.2634 184.898 62.4713 184.473C62.6815 184.048 62.9744 183.716 63.3501 183.477C63.728 183.239 64.1698 183.119 64.6754 183.119C64.9825 183.119 65.2801 183.17 65.5683 183.272C65.8565 183.373 66.1152 183.533 66.3444 183.75C66.5735 183.967 66.7542 184.25 66.8865 184.597C67.0188 184.942 67.085 185.361 67.085 185.855V186.231H62.7583V185.437H66.0467C66.0467 185.158 65.99 184.911 65.8766 184.696C65.7632 184.479 65.6038 184.308 65.3982 184.182C65.1951 184.057 64.9565 183.995 64.6824 183.995C64.3848 183.995 64.1249 184.068 63.9029 184.214C63.6832 184.358 63.5131 184.547 63.3926 184.781C63.2745 185.013 63.2154 185.264 63.2154 185.536V186.156C63.2154 186.52 63.2792 186.829 63.4068 187.085C63.5367 187.34 63.7174 187.535 63.9489 187.669C64.1804 187.801 64.4509 187.868 64.7604 187.868C64.9612 187.868 65.1443 187.839 65.3096 187.783C65.475 187.724 65.6179 187.636 65.7384 187.52C65.8589 187.405 65.951 187.262 66.0148 187.092L67.0176 187.272C66.9373 187.568 66.7932 187.826 66.5853 188.048C66.3798 188.268 66.1211 188.439 65.8093 188.562C65.4998 188.683 65.1466 188.743 64.7498 188.743ZM69.3201 185.401V188.633H68.2605V183.19H69.2775V184.076H69.3449C69.4701 183.788 69.6661 183.556 69.9331 183.381C70.2024 183.207 70.5414 183.119 70.9501 183.119C71.321 183.119 71.6458 183.197 71.9246 183.353C72.2033 183.507 72.4195 183.736 72.573 184.041C72.7266 184.345 72.8034 184.722 72.8034 185.171V188.633H71.7438V185.299C71.7438 184.904 71.6411 184.596 71.4356 184.374C71.23 184.149 70.9477 184.037 70.5887 184.037C70.343 184.037 70.1244 184.09 69.9331 184.197C69.7441 184.303 69.5941 184.459 69.4831 184.664C69.3744 184.867 69.3201 185.113 69.3201 185.401ZM74.2243 188.633V183.19H75.2839V188.633H74.2243ZM74.7594 182.35C74.5751 182.35 74.4169 182.289 74.2846 182.166C74.1546 182.041 74.0897 181.892 74.0897 181.72C74.0897 181.545 74.1546 181.396 74.2846 181.273C74.4169 181.148 74.5751 181.085 74.7594 181.085C74.9437 181.085 75.1008 181.148 75.2307 181.273C75.363 181.396 75.4291 181.545 75.4291 181.72C75.4291 181.892 75.363 182.041 75.2307 182.166C75.1008 182.289 74.9437 182.35 74.7594 182.35ZM77.7688 185.401V188.633H76.7092V183.19H77.7262V184.076H77.7936C77.9188 183.788 78.1149 183.556 78.3818 183.381C78.6511 183.207 78.9901 183.119 79.3988 183.119C79.7697 183.119 80.0945 183.197 80.3733 183.353C80.652 183.507 80.8682 183.736 81.0217 184.041C81.1753 184.345 81.2521 184.722 81.2521 185.171V188.633H80.1926V185.299C80.1926 184.904 80.0898 184.596 79.8843 184.374C79.6787 184.149 79.3964 184.037 79.0374 184.037C78.7917 184.037 78.5732 184.09 78.3818 184.197C78.1928 184.303 78.0428 184.459 77.9318 184.664C77.8231 184.867 77.7688 185.113 77.7688 185.401ZM84.9551 190.788C84.5228 190.788 84.1507 190.731 83.8389 190.617C83.5294 190.504 83.2766 190.354 83.0806 190.167C82.8845 189.981 82.738 189.776 82.6412 189.554L83.5518 189.179C83.6156 189.283 83.7007 189.393 83.807 189.508C83.9156 189.626 84.0621 189.727 84.2464 189.809C84.433 189.892 84.6728 189.934 84.9657 189.934C85.3673 189.934 85.6992 189.835 85.9615 189.639C86.2237 189.446 86.3548 189.136 86.3548 188.711V187.641H86.2875C86.2237 187.757 86.1315 187.885 86.0111 188.027C85.8929 188.169 85.7299 188.292 85.5221 188.396C85.3142 188.5 85.0437 188.552 84.7106 188.552C84.2806 188.552 83.8932 188.451 83.5483 188.25C83.2058 188.047 82.9341 187.748 82.7333 187.354C82.5348 186.957 82.4356 186.469 82.4356 185.89C82.4356 185.312 82.5337 184.815 82.7297 184.402C82.9282 183.989 83.1998 183.672 83.5448 183.452C83.8897 183.23 84.2806 183.119 84.7177 183.119C85.0555 183.119 85.3283 183.176 85.5362 183.289C85.7441 183.4 85.9059 183.53 86.0217 183.679C86.1398 183.828 86.2308 183.959 86.2945 184.072H86.3725V183.19H87.4108V188.754C87.4108 189.221 87.3021 189.605 87.0848 189.905C86.8674 190.205 86.5733 190.427 86.2024 190.571C85.8339 190.715 85.4181 190.788 84.9551 190.788ZM84.9445 187.673C85.2492 187.673 85.5067 187.602 85.717 187.46C85.9296 187.316 86.0902 187.11 86.1989 186.844C86.3099 186.574 86.3654 186.252 86.3654 185.876C86.3654 185.51 86.3111 185.188 86.2024 184.909C86.0937 184.63 85.9343 184.413 85.724 184.257C85.5138 184.098 85.2539 184.019 84.9445 184.019C84.6255 184.019 84.3598 184.102 84.1472 184.267C83.9345 184.43 83.7739 184.652 83.6652 184.934C83.5589 185.215 83.5058 185.529 83.5058 185.876C83.5058 186.233 83.5601 186.546 83.6688 186.815C83.7774 187.085 83.9381 187.295 84.1507 187.446C84.3657 187.597 84.6303 187.673 84.9445 187.673Z" fill="#111927"/>
<path d="M112.583 189.268C111.977 189.268 111.449 189.155 111 188.931C110.559 188.699 110.214 188.388 109.967 187.999C109.728 187.61 109.608 187.183 109.608 186.719C109.608 186.173 109.754 185.713 110.046 185.339C110.338 184.957 110.761 184.676 111.315 184.497L111.225 184.867C110.828 184.74 110.514 184.493 110.282 184.126C110.057 183.76 109.945 183.355 109.945 182.914C109.945 182.472 110.057 182.079 110.282 181.735C110.506 181.391 110.817 181.121 111.214 180.927C111.61 180.732 112.067 180.635 112.583 180.635C113.092 180.635 113.541 180.732 113.93 180.927C114.327 181.121 114.638 181.391 114.862 181.735C115.094 182.079 115.21 182.472 115.21 182.914C115.21 183.363 115.094 183.771 114.862 184.137C114.638 184.497 114.327 184.744 113.93 184.878L113.852 184.485C114.405 184.68 114.828 184.968 115.12 185.35C115.412 185.724 115.558 186.184 115.558 186.731C115.558 187.195 115.435 187.621 115.188 188.01C114.948 188.392 114.604 188.699 114.155 188.931C113.713 189.155 113.189 189.268 112.583 189.268ZM112.583 187.977C112.875 187.977 113.129 187.924 113.347 187.82C113.564 187.707 113.732 187.554 113.852 187.359C113.971 187.157 114.031 186.929 114.031 186.675C114.031 186.413 113.971 186.188 113.852 186.001C113.732 185.806 113.564 185.657 113.347 185.552C113.129 185.44 112.875 185.384 112.583 185.384C112.291 185.384 112.037 185.44 111.82 185.552C111.61 185.657 111.446 185.806 111.326 186.001C111.206 186.188 111.146 186.413 111.146 186.675C111.146 186.929 111.206 187.157 111.326 187.359C111.446 187.554 111.61 187.707 111.82 187.82C112.037 187.924 112.291 187.977 112.583 187.977ZM112.583 184.093C112.8 184.093 112.991 184.044 113.156 183.947C113.32 183.849 113.448 183.722 113.537 183.565C113.635 183.4 113.683 183.213 113.683 183.004C113.683 182.794 113.635 182.611 113.537 182.454C113.448 182.289 113.32 182.162 113.156 182.072C112.991 181.975 112.8 181.926 112.583 181.926C112.366 181.926 112.172 181.975 111.999 182.072C111.835 182.162 111.704 182.289 111.606 182.454C111.517 182.611 111.472 182.794 111.472 183.004C111.472 183.213 111.517 183.4 111.606 183.565C111.704 183.722 111.835 183.849 111.999 183.947C112.172 184.044 112.366 184.093 112.583 184.093ZM120.103 189.268C119.437 189.268 118.853 189.088 118.351 188.729C117.85 188.37 117.457 187.865 117.173 187.213C116.896 186.562 116.757 185.806 116.757 184.946C116.757 184.078 116.896 183.322 117.173 182.678C117.45 182.034 117.839 181.533 118.34 181.174C118.842 180.815 119.425 180.635 120.091 180.635C120.773 180.635 121.36 180.815 121.854 181.174C122.355 181.533 122.748 182.038 123.033 182.689C123.317 183.333 123.459 184.085 123.459 184.946C123.459 185.806 123.317 186.562 123.033 187.213C122.756 187.857 122.367 188.362 121.865 188.729C121.364 189.088 120.776 189.268 120.103 189.268ZM120.114 187.876C120.496 187.876 120.821 187.76 121.091 187.528C121.36 187.288 121.566 186.951 121.708 186.517C121.858 186.076 121.933 185.552 121.933 184.946C121.933 184.34 121.858 183.819 121.708 183.385C121.566 182.944 121.356 182.607 121.079 182.375C120.81 182.143 120.481 182.027 120.091 182.027C119.717 182.027 119.395 182.143 119.126 182.375C118.857 182.607 118.647 182.944 118.497 183.385C118.355 183.819 118.284 184.34 118.284 184.946C118.284 185.544 118.355 186.065 118.497 186.506C118.647 186.94 118.857 187.277 119.126 187.516C119.403 187.756 119.732 187.876 120.114 187.876Z" fill="#111927"/>
<path opacity="0.1" d="M496.662 189.622L496.662 179.644C496.662 178.955 496.103 178.396 495.414 178.396L145.281 178.396C144.592 178.396 144.034 178.955 144.034 179.644L144.034 189.622C144.034 190.311 144.592 190.87 145.281 190.87L495.414 190.87C496.103 190.87 496.662 190.311 496.662 189.622Z" fill="#6E58D9"/>
<path d="M461.504 189.622L461.504 179.644C461.504 178.955 460.945 178.396 460.256 178.396L145.9 178.396C145.211 178.396 144.652 178.955 144.652 179.644L144.652 189.622C144.652 190.311 145.211 190.87 145.9 190.87L460.256 190.87C460.945 190.87 461.504 190.311 461.504 189.622Z" fill="#6E58D9"/>
<path d="M352.748 75.4601L355.063 70.8783V70.8411H352.376V70.0172H356.083V70.8597L353.771 75.4601H352.748ZM357.253 75.4601V74.7478L359.142 72.8954C359.323 72.713 359.474 72.5508 359.594 72.4091C359.715 72.2673 359.805 72.13 359.865 71.9972C359.926 71.8643 359.956 71.7225 359.956 71.5719C359.956 71.4001 359.917 71.253 359.839 71.1308C359.761 71.0067 359.654 70.9111 359.517 70.8437C359.381 70.7764 359.226 70.7427 359.052 70.7427C358.873 70.7427 358.716 70.7799 358.582 70.8544C358.447 70.927 358.342 71.0306 358.268 71.1653C358.195 71.3 358.159 71.4603 358.159 71.6463H357.221C357.221 71.3008 357.3 71.0005 357.457 70.7454C357.615 70.4903 357.832 70.2927 358.109 70.1527C358.387 70.0128 358.706 69.9428 359.065 69.9428C359.43 69.9428 359.751 70.011 360.027 70.1474C360.304 70.2838 360.518 70.4708 360.671 70.7082C360.825 70.9456 360.902 71.2167 360.902 71.5214C360.902 71.7252 360.863 71.9254 360.785 72.1221C360.707 72.3187 360.57 72.5367 360.373 72.7758C360.178 73.015 359.904 73.3047 359.552 73.6449L358.614 74.599V74.6362H360.984V75.4601H357.253ZM369.298 72.7386C369.298 73.3251 369.188 73.8274 368.968 74.2455C368.75 74.6619 368.453 74.9808 368.075 75.2023C367.7 75.4238 367.274 75.5345 366.797 75.5345C366.32 75.5345 365.893 75.4238 365.516 75.2023C365.14 74.979 364.843 74.6592 364.623 74.2429C364.405 73.8247 364.296 73.3233 364.296 72.7386C364.296 72.1522 364.405 71.6508 364.623 71.2344C364.843 70.8163 365.14 70.4965 365.516 70.275C365.893 70.0535 366.32 69.9428 366.797 69.9428C367.274 69.9428 367.7 70.0535 368.075 70.275C368.453 70.4965 368.75 70.8163 368.968 71.2344C369.188 71.6508 369.298 72.1522 369.298 72.7386ZM368.307 72.7386C368.307 72.3258 368.242 71.9777 368.112 71.6942C367.985 71.4089 367.808 71.1937 367.581 71.0484C367.354 70.9013 367.093 70.8278 366.797 70.8278C366.501 70.8278 366.24 70.9013 366.013 71.0484C365.786 71.1937 365.608 71.4089 365.479 71.6942C365.351 71.9777 365.287 72.3258 365.287 72.7386C365.287 73.1515 365.351 73.5005 365.479 73.7858C365.608 74.0692 365.786 74.2845 366.013 74.4316C366.24 74.5769 366.501 74.6495 366.797 74.6495C367.093 74.6495 367.354 74.5769 367.581 74.4316C367.808 74.2845 367.985 74.0692 368.112 73.7858C368.242 73.5005 368.307 73.1515 368.307 72.7386ZM370.978 70.0172L372.394 74.3013H372.45L373.864 70.0172H374.948L373.029 75.4601H371.812L369.896 70.0172H370.978ZM375.977 75.4601V70.0172H379.517V70.8437H376.963V72.3214H379.334V73.1479H376.963V74.6336H379.538V75.4601H375.977ZM380.835 75.4601V70.0172H382.876C383.294 70.0172 383.645 70.0898 383.928 70.2351C384.214 70.3804 384.429 70.5842 384.574 70.8464C384.721 71.1068 384.795 71.4107 384.795 71.758C384.795 72.107 384.72 72.41 384.571 72.6669C384.424 72.922 384.207 73.1196 383.92 73.2595C383.633 73.3977 383.281 73.4668 382.863 73.4668H381.409V72.6483H382.73C382.974 72.6483 383.174 72.6146 383.33 72.5473C383.486 72.4782 383.601 72.3781 383.676 72.247C383.752 72.1141 383.79 71.9511 383.79 71.758C383.79 71.5648 383.752 71.4001 383.676 71.2636C383.6 71.1254 383.484 71.0209 383.328 70.95C383.172 70.8774 382.971 70.8411 382.724 70.8411H381.821V75.4601H380.835ZM383.647 72.9938L384.994 75.4601H383.894L382.57 72.9938H383.647ZM386.713 75.4601H385.661L387.577 70.0172H388.794L390.713 75.4601H389.66L388.207 71.1334H388.164L386.713 75.4601ZM386.748 73.326H389.618V74.118H386.748V73.326ZM391.742 75.4601V70.0172H392.728V74.6336H395.125V75.4601H391.742ZM396.292 75.4601V70.0172H397.278V74.6336H399.676V75.4601H396.292Z" fill="#111927"/>
<line x1="375.562" y1="194.252" x2="375.562" y2="86.6698" stroke="#B5BCC4" stroke-width="0.935497" stroke-linecap="round" stroke-dasharray="2.49 2.49"/>
</g>
<path d="M39.4736 47.0299H496.662V45.7826H39.4736V47.0299Z" fill="#F2F4F7" mask="url(#path-3-inside-1_506_31828)"/>
</g>
<g filter="url(#filter1_d_506_31828)">
<path d="M115.922 269C115.922 262.373 121.295 257 127.922 257H500.068C506.695 257 512.068 262.373 512.068 269V299C512.068 305.628 506.695 311 500.068 311H127.922C121.295 311 115.922 305.628 115.922 299V269Z" fill="white" shape-rendering="crispEdges"/>
<rect width="142.469" height="45.6626" transform="translate(115.922 261.169)" fill="white" fill-opacity="0.01"/>
<path d="M133.193 281.401C133.153 281.042 132.986 280.764 132.693 280.567C132.4 280.368 132.032 280.268 131.587 280.268C131.269 280.268 130.994 280.319 130.762 280.42C130.53 280.518 130.349 280.654 130.22 280.829C130.094 281 130.031 281.196 130.031 281.416C130.031 281.6 130.074 281.759 130.16 281.893C130.248 282.027 130.363 282.139 130.504 282.23C130.648 282.318 130.802 282.393 130.966 282.453C131.13 282.511 131.288 282.559 131.44 282.597L132.197 282.794C132.445 282.855 132.698 282.937 132.958 283.04C133.219 283.144 133.46 283.28 133.682 283.449C133.904 283.619 134.083 283.828 134.22 284.078C134.359 284.328 134.428 284.627 134.428 284.976C134.428 285.415 134.314 285.805 134.087 286.146C133.862 286.487 133.535 286.756 133.106 286.953C132.679 287.15 132.163 287.248 131.557 287.248C130.976 287.248 130.474 287.156 130.05 286.972C129.626 286.787 129.294 286.526 129.054 286.188C128.814 285.847 128.681 285.443 128.656 284.976H129.83C129.853 285.256 129.944 285.49 130.103 285.676C130.264 285.861 130.47 285.998 130.72 286.089C130.973 286.178 131.249 286.222 131.55 286.222C131.88 286.222 132.174 286.17 132.432 286.066C132.692 285.96 132.897 285.814 133.046 285.627C133.195 285.438 133.269 285.217 133.269 284.964C133.269 284.735 133.203 284.547 133.072 284.4C132.943 284.254 132.768 284.132 132.546 284.036C132.326 283.941 132.077 283.856 131.8 283.783L130.883 283.533C130.262 283.364 129.77 283.115 129.406 282.787C129.045 282.458 128.864 282.024 128.864 281.484C128.864 281.037 128.986 280.647 129.228 280.314C129.47 279.98 129.799 279.721 130.213 279.537C130.627 279.35 131.094 279.257 131.614 279.257C132.139 279.257 132.602 279.349 133.004 279.533C133.408 279.718 133.726 279.971 133.958 280.295C134.191 280.615 134.312 280.984 134.322 281.401H133.193ZM136.982 283.665V287.119H135.85V279.363H136.967V282.249H137.039C137.175 281.936 137.384 281.687 137.664 281.503C137.944 281.318 138.31 281.226 138.762 281.226C139.161 281.226 139.51 281.308 139.808 281.472C140.108 281.637 140.34 281.882 140.504 282.207C140.671 282.53 140.754 282.934 140.754 283.419V287.119H139.622V283.555C139.622 283.129 139.512 282.798 139.292 282.563C139.073 282.326 138.767 282.207 138.376 282.207C138.108 282.207 137.868 282.264 137.656 282.378C137.447 282.491 137.281 282.658 137.16 282.878C137.042 283.095 136.982 283.357 136.982 283.665ZM144.83 287.237C144.285 287.237 143.809 287.112 143.402 286.862C142.996 286.612 142.68 286.262 142.455 285.813C142.231 285.363 142.118 284.838 142.118 284.237C142.118 283.634 142.231 283.106 142.455 282.654C142.68 282.202 142.996 281.851 143.402 281.601C143.809 281.351 144.285 281.226 144.83 281.226C145.376 281.226 145.851 281.351 146.258 281.601C146.664 281.851 146.98 282.202 147.205 282.654C147.429 283.106 147.542 283.634 147.542 284.237C147.542 284.838 147.429 285.363 147.205 285.813C146.98 286.262 146.664 286.612 146.258 286.862C145.851 287.112 145.376 287.237 144.83 287.237ZM144.834 286.286C145.187 286.286 145.48 286.193 145.713 286.006C145.945 285.819 146.117 285.57 146.228 285.26C146.341 284.949 146.398 284.607 146.398 284.233C146.398 283.862 146.341 283.521 146.228 283.211C146.117 282.898 145.945 282.647 145.713 282.457C145.48 282.268 145.187 282.173 144.834 282.173C144.478 282.173 144.183 282.268 143.948 282.457C143.715 282.647 143.542 282.898 143.429 283.211C143.318 283.521 143.262 283.862 143.262 284.233C143.262 284.607 143.318 284.949 143.429 285.26C143.542 285.57 143.715 285.819 143.948 286.006C144.183 286.193 144.478 286.286 144.834 286.286ZM148.92 287.119V281.302H150.015V282.226H150.075C150.181 281.913 150.368 281.667 150.636 281.488C150.906 281.306 151.211 281.215 151.552 281.215C151.623 281.215 151.706 281.217 151.802 281.223C151.901 281.228 151.978 281.234 152.033 281.241V282.325C151.988 282.312 151.907 282.298 151.791 282.283C151.675 282.265 151.559 282.256 151.442 282.256C151.175 282.256 150.936 282.313 150.727 282.427C150.52 282.538 150.356 282.693 150.234 282.893C150.113 283.09 150.053 283.314 150.053 283.567V287.119H148.92ZM156.187 281.302V282.211H153.009V281.302H156.187ZM153.861 279.908H154.994V285.411C154.994 285.631 155.027 285.796 155.092 285.907C155.158 286.016 155.242 286.09 155.346 286.131C155.452 286.169 155.567 286.188 155.691 286.188C155.781 286.188 155.861 286.181 155.929 286.169C155.997 286.156 156.05 286.146 156.088 286.138L156.293 287.074C156.227 287.099 156.134 287.124 156.013 287.15C155.891 287.177 155.74 287.193 155.558 287.195C155.26 287.2 154.982 287.147 154.725 287.036C154.467 286.925 154.259 286.753 154.1 286.521C153.941 286.289 153.861 285.997 153.861 285.646V279.908ZM162.1 287.119L159.949 279.363H161.18L162.691 285.37H162.763L164.335 279.363H165.554L167.126 285.373H167.198L168.705 279.363H169.94L167.785 287.119H166.607L164.975 281.31H164.914L163.282 287.119H162.1ZM170.666 287.119V281.302H171.76V282.226H171.821C171.927 281.913 172.114 281.667 172.381 281.488C172.651 281.306 172.957 281.215 173.298 281.215C173.369 281.215 173.452 281.217 173.548 281.223C173.646 281.228 173.723 281.234 173.779 281.241V282.325C173.733 282.312 173.653 282.298 173.536 282.283C173.42 282.265 173.304 282.256 173.188 282.256C172.92 282.256 172.682 282.313 172.472 282.427C172.265 282.538 172.101 282.693 171.98 282.893C171.859 283.09 171.798 283.314 171.798 283.567V287.119H170.666ZM174.873 287.119V281.302H176.005V287.119H174.873ZM175.445 280.404C175.248 280.404 175.079 280.339 174.937 280.208C174.799 280.074 174.729 279.915 174.729 279.73C174.729 279.543 174.799 279.384 174.937 279.253C175.079 279.119 175.248 279.052 175.445 279.052C175.642 279.052 175.81 279.119 175.949 279.253C176.09 279.384 176.161 279.543 176.161 279.73C176.161 279.915 176.09 280.074 175.949 280.208C175.81 280.339 175.642 280.404 175.445 280.404ZM180.359 281.302V282.211H177.181V281.302H180.359ZM178.033 279.908H179.166V285.411C179.166 285.631 179.198 285.796 179.264 285.907C179.33 286.016 179.414 286.09 179.518 286.131C179.624 286.169 179.739 286.188 179.863 286.188C179.953 286.188 180.033 286.181 180.101 286.169C180.169 286.156 180.222 286.146 180.26 286.138L180.465 287.074C180.399 287.099 180.306 287.124 180.184 287.15C180.063 287.177 179.912 287.193 179.73 287.195C179.432 287.2 179.154 287.147 178.897 287.036C178.639 286.925 178.431 286.753 178.272 286.521C178.113 286.289 178.033 285.997 178.033 285.646V279.908ZM181.726 287.119V281.302H182.858V287.119H181.726ZM182.297 280.404C182.101 280.404 181.931 280.339 181.79 280.208C181.651 280.074 181.582 279.915 181.582 279.73C181.582 279.543 181.651 279.384 181.79 279.253C181.931 279.119 182.101 279.052 182.297 279.052C182.494 279.052 182.662 279.119 182.801 279.253C182.943 279.384 183.013 279.543 183.013 279.73C183.013 279.915 182.943 280.074 182.801 280.208C182.662 280.339 182.494 280.404 182.297 280.404ZM185.628 283.665V287.119H184.496V281.302H185.583V282.249H185.655C185.788 281.941 185.998 281.693 186.283 281.507C186.571 281.32 186.933 281.226 187.37 281.226C187.767 281.226 188.114 281.31 188.412 281.476C188.71 281.64 188.941 281.885 189.105 282.211C189.269 282.537 189.351 282.939 189.351 283.419V287.119H188.219V283.555C188.219 283.134 188.109 282.804 187.889 282.567C187.669 282.327 187.368 282.207 186.984 282.207C186.721 282.207 186.488 282.264 186.283 282.378C186.081 282.491 185.921 282.658 185.802 282.878C185.686 283.095 185.628 283.357 185.628 283.665ZM193.423 289.422C192.961 289.422 192.563 289.361 192.23 289.24C191.899 289.119 191.629 288.959 191.42 288.759C191.21 288.56 191.053 288.341 190.95 288.104L191.923 287.703C191.991 287.814 192.082 287.931 192.196 288.055C192.312 288.181 192.469 288.288 192.666 288.377C192.865 288.465 193.121 288.509 193.434 288.509C193.864 288.509 194.218 288.405 194.499 288.195C194.779 287.988 194.919 287.657 194.919 287.203V286.059H194.847C194.779 286.183 194.68 286.32 194.552 286.472C194.425 286.623 194.251 286.755 194.029 286.866C193.807 286.977 193.518 287.032 193.162 287.032C192.702 287.032 192.288 286.925 191.919 286.71C191.553 286.493 191.263 286.174 191.048 285.752C190.836 285.328 190.73 284.807 190.73 284.188C190.73 283.569 190.835 283.039 191.045 282.597C191.257 282.155 191.547 281.817 191.916 281.582C192.284 281.345 192.702 281.226 193.169 281.226C193.53 281.226 193.822 281.287 194.044 281.408C194.266 281.527 194.439 281.666 194.563 281.825C194.689 281.984 194.786 282.124 194.855 282.245H194.938V281.302H196.048V287.248C196.048 287.748 195.931 288.158 195.699 288.479C195.467 288.8 195.153 289.037 194.756 289.191C194.362 289.345 193.918 289.422 193.423 289.422ZM193.412 286.093C193.737 286.093 194.013 286.017 194.237 285.866C194.465 285.712 194.636 285.492 194.752 285.207C194.871 284.919 194.93 284.574 194.93 284.173C194.93 283.781 194.872 283.437 194.756 283.139C194.64 282.841 194.47 282.609 194.245 282.442C194.02 282.273 193.742 282.188 193.412 282.188C193.071 282.188 192.787 282.277 192.56 282.453C192.332 282.628 192.161 282.865 192.044 283.165C191.931 283.466 191.874 283.802 191.874 284.173C191.874 284.554 191.932 284.889 192.048 285.176C192.164 285.464 192.336 285.689 192.563 285.851C192.793 286.012 193.076 286.093 193.412 286.093Z" fill="#111927"/>
<rect width="147.025" height="45.8537" transform="translate(258.392 261.073)" fill="white" fill-opacity="0.01"/>
<rect x="338.38" y="272.5" width="54.8489" height="23" rx="11.5" fill="#E0EEFF"/>
<path d="M346.529 287.5L344.652 280.852H345.948L347.146 285.738H347.207L348.486 280.852H349.665L350.947 285.741H351.005L352.203 280.852H353.498L351.622 287.5H350.434L349.103 282.835H349.051L347.717 287.5H346.529ZM354.714 287.5V280.852H357.208C357.718 280.852 358.147 280.941 358.493 281.118C358.842 281.296 359.105 281.544 359.282 281.865C359.462 282.183 359.551 282.554 359.551 282.978C359.551 283.405 359.461 283.775 359.279 284.088C359.099 284.4 358.834 284.641 358.483 284.812C358.133 284.981 357.702 285.066 357.191 285.066H355.416V284.066H357.029C357.328 284.066 357.572 284.025 357.763 283.942C357.953 283.858 358.094 283.736 358.185 283.576C358.278 283.413 358.324 283.214 358.324 282.978C358.324 282.742 358.278 282.541 358.185 282.374C358.092 282.206 357.95 282.078 357.759 281.991C357.569 281.903 357.323 281.858 357.023 281.858H355.919V287.5H354.714ZM358.149 284.488L359.795 287.5H358.451L356.834 284.488H358.149ZM362.245 280.852V287.5H361.041V280.852H362.245ZM363.638 281.861V280.852H368.943V281.861H366.888V287.5H365.693V281.861H363.638ZM371.55 280.852V287.5H370.346V280.852H371.55ZM378.699 280.852V287.5H377.628L374.495 282.972H374.44V287.5H373.235V280.852H374.313L377.443 285.384H377.501V280.852H378.699ZM384.846 282.975C384.792 282.8 384.717 282.643 384.622 282.504C384.529 282.364 384.416 282.243 384.284 282.144C384.155 282.044 384.005 281.97 383.836 281.92C383.668 281.868 383.484 281.842 383.285 281.842C382.927 281.842 382.609 281.932 382.33 282.111C382.051 282.291 381.831 282.555 381.671 282.904C381.513 283.25 381.434 283.672 381.434 284.17C381.434 284.672 381.513 285.097 381.671 285.445C381.829 285.794 382.049 286.059 382.33 286.241C382.612 286.42 382.938 286.51 383.311 286.51C383.648 286.51 383.94 286.445 384.187 286.315C384.436 286.186 384.627 286.002 384.762 285.763C384.896 285.523 384.963 285.242 384.963 284.919L385.236 284.962H383.431V284.02H386.128V284.819C386.128 285.388 386.007 285.88 385.765 286.296C385.522 286.711 385.189 287.032 384.765 287.257C384.341 287.48 383.854 287.591 383.304 287.591C382.692 287.591 382.154 287.454 381.691 287.179C381.23 286.902 380.869 286.509 380.61 286C380.352 285.49 380.223 284.884 380.223 284.183C380.223 283.646 380.299 283.166 380.451 282.744C380.604 282.322 380.818 281.964 381.093 281.67C381.368 281.373 381.691 281.148 382.061 280.995C382.431 280.839 382.833 280.761 383.268 280.761C383.636 280.761 383.979 280.815 384.297 280.923C384.616 281.029 384.898 281.181 385.145 281.378C385.394 281.575 385.598 281.808 385.758 282.079C385.918 282.35 386.023 282.648 386.073 282.975H384.846Z" fill="#1780FF"/>
<rect width="106.651" height="28.948" transform="translate(405.417 269.526)" fill="white" fill-opacity="0.01"/>
<g clip-path="url(#clip2_506_31828)">
<g clip-path="url(#clip3_506_31828)">
<rect width="59" height="6.09432" transform="translate(417.606 280.953)" fill="#FFB800"/>
<rect x="476.606" y="280.953" width="23.2733" height="6.09432" fill="#FFB800"/>
<rect opacity="0.6" x="476.606" y="280.953" width="23.2733" height="6.09432" fill="white"/>
</g>
</g>
</g>
<g filter="url(#filter2_d_506_31828)">
<path d="M29.2659 365.744C29.2659 359.117 34.6385 353.744 41.2659 353.744H413.411C420.039 353.744 425.411 359.117 425.411 365.744V397.744C425.411 404.372 420.039 409.744 413.411 409.744H41.2659C34.6385 409.744 29.2659 404.372 29.2659 397.744V365.744Z" fill="white" shape-rendering="crispEdges"/>
<rect width="142.469" height="45.6626" transform="translate(29.2659 358.913)" fill="white" fill-opacity="0.01"/>
<path d="M42.3066 384.863V377.107H47.1695V378.114H43.4769V380.478H46.9158V381.481H43.4769V383.856H47.215V384.863H42.3066ZM49.6499 379.046L50.9338 381.311L52.2291 379.046H53.4675L51.6534 381.955L53.4827 384.863H52.2442L50.9338 382.689L49.6272 384.863H48.3849L50.1953 381.955L48.4077 379.046H49.6499ZM57.46 379.046V379.955H54.2824V379.046H57.46ZM55.1346 377.652H56.267V383.155C56.267 383.375 56.2998 383.54 56.3654 383.651C56.4311 383.76 56.5157 383.834 56.6192 383.875C56.7252 383.913 56.8401 383.932 56.9638 383.932C57.0547 383.932 57.1343 383.925 57.2024 383.913C57.2706 383.9 57.3236 383.89 57.3615 383.882L57.566 384.818C57.5004 384.843 57.407 384.868 57.2858 384.894C57.1646 384.921 57.0131 384.937 56.8313 384.939C56.5333 384.944 56.2556 384.891 55.9981 384.78C55.7405 384.669 55.5322 384.497 55.3732 384.265C55.2141 384.033 55.1346 383.741 55.1346 383.39V377.652ZM61.2716 384.981C60.6985 384.981 60.2048 384.858 59.7908 384.613C59.3792 384.366 59.0611 384.019 58.8364 383.572C58.6142 383.122 58.5031 382.596 58.5031 381.993C58.5031 381.397 58.6142 380.872 58.8364 380.417C59.0611 379.963 59.3742 379.608 59.7756 379.353C60.1796 379.098 60.6517 378.97 61.1921 378.97C61.5203 378.97 61.8384 379.025 62.1465 379.133C62.4545 379.242 62.731 379.412 62.9759 379.644C63.2208 379.877 63.414 380.178 63.5553 380.55C63.6967 380.918 63.7674 381.366 63.7674 381.894V382.296H59.1431V381.447H62.6578C62.6578 381.149 62.5972 380.885 62.476 380.656C62.3548 380.423 62.1843 380.24 61.9647 380.106C61.7475 379.973 61.4925 379.906 61.1996 379.906C60.8815 379.906 60.6038 379.984 60.3664 380.141C60.1316 380.295 59.9498 380.497 59.8211 380.747C59.6948 380.994 59.6317 381.263 59.6317 381.553V382.216C59.6317 382.605 59.6999 382.936 59.8362 383.208C59.9751 383.481 60.1682 383.689 60.4157 383.833C60.6631 383.975 60.9522 384.045 61.283 384.045C61.4976 384.045 61.6933 384.015 61.87 383.954C62.0467 383.891 62.1995 383.798 62.3283 383.674C62.457 383.55 62.5555 383.398 62.6237 383.216L63.6955 383.409C63.6096 383.725 63.4556 384.001 63.2334 384.238C63.0138 384.473 62.7373 384.656 62.404 384.788C62.0732 384.916 61.6958 384.981 61.2716 384.981ZM66.2705 381.409V384.863H65.1381V379.046H66.2251V379.993H66.2971C66.4309 379.685 66.6404 379.437 66.9258 379.251C67.2136 379.064 67.5759 378.97 68.0127 378.97C68.4091 378.97 68.7563 379.054 69.0542 379.22C69.3522 379.384 69.5832 379.629 69.7473 379.955C69.9114 380.281 69.9935 380.683 69.9935 381.163V384.863H68.8611V381.299C68.8611 380.878 68.7512 380.548 68.5316 380.311C68.3119 380.071 68.0102 379.951 67.6264 379.951C67.3638 379.951 67.1303 380.008 66.9258 380.122C66.7238 380.235 66.5634 380.402 66.4448 380.622C66.3286 380.839 66.2705 381.101 66.2705 381.409ZM73.8041 384.977C73.3345 384.977 72.9154 384.857 72.5468 384.617C72.1807 384.375 71.8928 384.03 71.6833 383.583C71.4762 383.134 71.3727 382.595 71.3727 381.966C71.3727 381.337 71.4775 380.8 71.687 380.353C71.8991 379.906 72.1895 379.564 72.5581 379.326C72.9268 379.089 73.3446 378.97 73.8117 378.97C74.1728 378.97 74.4631 379.031 74.6828 379.152C74.905 379.271 75.0767 379.41 75.1979 379.569C75.3216 379.728 75.4175 379.868 75.4857 379.989H75.5539V377.107H76.6863V384.863H75.5804V383.958H75.4857C75.4175 384.082 75.3191 384.223 75.1903 384.382C75.0641 384.541 74.8898 384.68 74.6677 384.799C74.4455 384.918 74.1576 384.977 73.8041 384.977ZM74.0541 384.011C74.3798 384.011 74.655 383.925 74.8797 383.754C75.107 383.579 75.2787 383.338 75.3948 383.03C75.5135 382.722 75.5728 382.364 75.5728 381.955C75.5728 381.551 75.5147 381.197 75.3986 380.894C75.2825 380.591 75.112 380.355 74.8873 380.186C74.6626 380.017 74.3849 379.932 74.0541 379.932C73.7133 379.932 73.4292 380.021 73.202 380.197C72.9747 380.374 72.803 380.615 72.6869 380.921C72.5733 381.226 72.5165 381.571 72.5165 381.955C72.5165 382.344 72.5745 382.693 72.6907 383.004C72.8068 383.314 72.9785 383.561 73.2058 383.742C73.4355 383.922 73.7183 384.011 74.0541 384.011ZM80.924 384.981C80.3508 384.981 79.8572 384.858 79.4432 384.613C79.0316 384.366 78.7135 384.019 78.4888 383.572C78.2666 383.122 78.1555 382.596 78.1555 381.993C78.1555 381.397 78.2666 380.872 78.4888 380.417C78.7135 379.963 79.0265 379.608 79.428 379.353C79.832 379.098 80.3041 378.97 80.8445 378.97C81.1727 378.97 81.4908 379.025 81.7989 379.133C82.1069 379.242 82.3834 379.412 82.6283 379.644C82.8732 379.877 83.0663 380.178 83.2077 380.55C83.3491 380.918 83.4198 381.366 83.4198 381.894V382.296H78.7955V381.447H82.3101C82.3101 381.149 82.2495 380.885 82.1284 380.656C82.0072 380.423 81.8367 380.24 81.6171 380.106C81.3999 379.973 81.1449 379.906 80.852 379.906C80.5339 379.906 80.2562 379.984 80.0188 380.141C79.784 380.295 79.6022 380.497 79.4735 380.747C79.3472 380.994 79.2841 381.263 79.2841 381.553V382.216C79.2841 382.605 79.3523 382.936 79.4886 383.208C79.6275 383.481 79.8206 383.689 80.0681 383.833C80.3155 383.975 80.6046 384.045 80.9354 384.045C81.15 384.045 81.3456 384.015 81.5224 383.954C81.6991 383.891 81.8519 383.798 81.9806 383.674C82.1094 383.55 82.2079 383.398 82.2761 383.216L83.3479 383.409C83.262 383.725 83.108 384.001 82.8858 384.238C82.6662 384.473 82.3897 384.656 82.0564 384.788C81.7256 384.916 81.3482 384.981 80.924 384.981ZM86.9682 384.977C86.4986 384.977 86.0795 384.857 85.7108 384.617C85.3447 384.375 85.0569 384.03 84.8473 383.583C84.6403 383.134 84.5368 382.595 84.5368 381.966C84.5368 381.337 84.6416 380.8 84.8511 380.353C85.0632 379.906 85.3536 379.564 85.7222 379.326C86.0908 379.089 86.5087 378.97 86.9758 378.97C87.3369 378.97 87.6272 379.031 87.8469 379.152C88.0691 379.271 88.2408 379.41 88.362 379.569C88.4857 379.728 88.5816 379.868 88.6498 379.989H88.718V377.107H89.8504V384.863H88.7445V383.958H88.6498C88.5816 384.082 88.4832 384.223 88.3544 384.382C88.2281 384.541 88.0539 384.68 87.8317 384.799C87.6095 384.918 87.3217 384.977 86.9682 384.977ZM87.2182 384.011C87.5439 384.011 87.8191 383.925 88.0438 383.754C88.2711 383.579 88.4428 383.338 88.5589 383.03C88.6776 382.722 88.7369 382.364 88.7369 381.955C88.7369 381.551 88.6788 381.197 88.5627 380.894C88.4465 380.591 88.2761 380.355 88.0514 380.186C87.8267 380.017 87.549 379.932 87.2182 379.932C86.8773 379.932 86.5933 380.021 86.366 380.197C86.1388 380.374 85.9671 380.615 85.851 380.921C85.7374 381.226 85.6805 381.571 85.6805 381.955C85.6805 382.344 85.7386 382.693 85.8548 383.004C85.9709 383.314 86.1426 383.561 86.3698 383.742C86.5996 383.922 86.8824 384.011 87.2182 384.011ZM98.8389 379.145C98.7985 378.786 98.6319 378.508 98.339 378.311C98.0461 378.112 97.6775 378.012 97.2331 378.012C96.915 378.012 96.6398 378.063 96.4075 378.164C96.1752 378.262 95.9947 378.398 95.8659 378.573C95.7397 378.744 95.6765 378.94 95.6765 379.16C95.6765 379.344 95.7195 379.503 95.8053 379.637C95.8937 379.771 96.0086 379.883 96.15 379.974C96.2939 380.062 96.4479 380.137 96.612 380.197C96.7761 380.255 96.9339 380.303 97.0854 380.341L97.8429 380.538C98.0903 380.599 98.3441 380.681 98.6041 380.784C98.8642 380.888 99.1053 381.024 99.3275 381.193C99.5497 381.363 99.729 381.572 99.8653 381.822C100.004 382.072 100.074 382.371 100.074 382.72C100.074 383.159 99.96 383.549 99.7328 383.89C99.508 384.231 99.1811 384.5 98.7518 384.697C98.3251 384.894 97.8088 384.992 97.2028 384.992C96.6221 384.992 96.1197 384.9 95.6955 384.716C95.2713 384.531 94.9393 384.27 94.6994 383.932C94.4596 383.591 94.327 383.187 94.3018 382.72H95.4758C95.4985 383 95.5894 383.234 95.7485 383.42C95.9101 383.605 96.1159 383.742 96.3658 383.833C96.6183 383.922 96.8948 383.966 97.1953 383.966C97.526 383.966 97.8202 383.914 98.0777 383.81C98.3378 383.704 98.5423 383.558 98.6912 383.371C98.8402 383.182 98.9147 382.961 98.9147 382.708C98.9147 382.479 98.849 382.29 98.7178 382.144C98.589 381.998 98.4135 381.876 98.1913 381.78C97.9717 381.685 97.723 381.6 97.4452 381.527L96.5287 381.277C95.9076 381.108 95.4152 380.859 95.0516 380.531C94.6906 380.202 94.5101 379.768 94.5101 379.228C94.5101 378.781 94.6312 378.391 94.8736 378.058C95.116 377.724 95.4443 377.465 95.8583 377.281C96.2724 377.094 96.7395 377.001 97.2596 377.001C97.7848 377.001 98.2481 377.093 98.6496 377.277C99.0536 377.462 99.3717 377.715 99.604 378.039C99.8363 378.359 99.9575 378.728 99.9676 379.145H98.8389ZM101.495 387.045V379.046H102.601V379.989H102.696C102.762 379.868 102.856 379.728 102.98 379.569C103.104 379.41 103.275 379.271 103.495 379.152C103.715 379.031 104.005 378.97 104.366 378.97C104.836 378.97 105.255 379.089 105.624 379.326C105.992 379.564 106.281 379.906 106.491 380.353C106.703 380.8 106.809 381.337 106.809 381.966C106.809 382.595 106.704 383.134 106.495 383.583C106.285 384.03 105.997 384.375 105.631 384.617C105.265 384.857 104.847 384.977 104.378 384.977C104.024 384.977 103.735 384.918 103.51 384.799C103.288 384.68 103.114 384.541 102.988 384.382C102.861 384.223 102.764 384.082 102.696 383.958H102.628V387.045H101.495ZM102.605 381.955C102.605 382.364 102.664 382.722 102.783 383.03C102.902 383.338 103.073 383.579 103.298 383.754C103.523 383.925 103.798 384.011 104.124 384.011C104.462 384.011 104.745 383.922 104.972 383.742C105.199 383.561 105.371 383.314 105.487 383.004C105.606 382.693 105.665 382.344 105.665 381.955C105.665 381.571 105.607 381.226 105.491 380.921C105.377 380.615 105.206 380.374 104.976 380.197C104.749 380.021 104.465 379.932 104.124 379.932C103.796 379.932 103.518 380.017 103.291 380.186C103.066 380.355 102.895 380.591 102.779 380.894C102.663 381.197 102.605 381.551 102.605 381.955ZM110.699 384.981C110.126 384.981 109.632 384.858 109.218 384.613C108.807 384.366 108.489 384.019 108.264 383.572C108.042 383.122 107.931 382.596 107.931 381.993C107.931 381.397 108.042 380.872 108.264 380.417C108.489 379.963 108.802 379.608 109.203 379.353C109.607 379.098 110.079 378.97 110.62 378.97C110.948 378.97 111.266 379.025 111.574 379.133C111.882 379.242 112.159 379.412 112.404 379.644C112.648 379.877 112.842 380.178 112.983 380.55C113.124 380.918 113.195 381.366 113.195 381.894V382.296H108.571V381.447H112.085C112.085 381.149 112.025 380.885 111.904 380.656C111.782 380.423 111.612 380.24 111.392 380.106C111.175 379.973 110.92 379.906 110.627 379.906C110.309 379.906 110.031 379.984 109.794 380.141C109.559 380.295 109.377 380.497 109.249 380.747C109.122 380.994 109.059 381.263 109.059 381.553V382.216C109.059 382.605 109.128 382.936 109.264 383.208C109.403 383.481 109.596 383.689 109.843 383.833C110.091 383.975 110.38 384.045 110.711 384.045C110.925 384.045 111.121 384.015 111.298 383.954C111.474 383.891 111.627 383.798 111.756 383.674C111.885 383.55 111.983 383.398 112.051 383.216L113.123 383.409C113.037 383.725 112.883 384.001 112.661 384.238C112.441 384.473 112.165 384.656 111.832 384.788C111.501 384.916 111.123 384.981 110.699 384.981ZM116.259 384.992C115.89 384.992 115.557 384.924 115.259 384.788C114.961 384.649 114.725 384.448 114.551 384.185C114.379 383.923 114.293 383.601 114.293 383.22C114.293 382.891 114.356 382.621 114.482 382.409C114.609 382.197 114.779 382.029 114.994 381.905C115.208 381.782 115.448 381.688 115.713 381.625C115.978 381.562 116.249 381.514 116.524 381.481C116.872 381.441 117.155 381.408 117.372 381.383C117.589 381.355 117.747 381.311 117.846 381.25C117.944 381.19 117.993 381.091 117.993 380.955V380.928C117.993 380.598 117.9 380.341 117.713 380.16C117.529 379.978 117.254 379.887 116.887 379.887C116.506 379.887 116.206 379.971 115.986 380.141C115.769 380.307 115.619 380.493 115.535 380.697L114.471 380.455C114.597 380.101 114.782 379.816 115.024 379.599C115.269 379.379 115.55 379.22 115.869 379.122C116.187 379.021 116.521 378.97 116.872 378.97C117.105 378.97 117.351 378.998 117.611 379.054C117.873 379.107 118.118 379.205 118.346 379.349C118.575 379.493 118.763 379.699 118.91 379.966C119.056 380.231 119.129 380.576 119.129 381V384.863H118.024V384.068H117.978C117.905 384.214 117.795 384.358 117.649 384.5C117.502 384.641 117.314 384.759 117.084 384.852C116.855 384.945 116.579 384.992 116.259 384.992ZM116.505 384.083C116.818 384.083 117.086 384.021 117.308 383.898C117.533 383.774 117.703 383.612 117.819 383.413C117.938 383.211 117.997 382.995 117.997 382.765V382.015C117.957 382.056 117.878 382.094 117.762 382.129C117.649 382.162 117.519 382.191 117.372 382.216C117.226 382.239 117.083 382.26 116.944 382.28C116.805 382.298 116.689 382.313 116.596 382.326C116.376 382.354 116.175 382.4 115.994 382.466C115.814 382.532 115.67 382.626 115.562 382.75C115.456 382.871 115.403 383.033 115.403 383.235C115.403 383.515 115.506 383.727 115.713 383.871C115.92 384.012 116.184 384.083 116.505 384.083ZM121.794 382.89L121.786 381.508H121.983L124.301 379.046H125.657L123.013 381.849H122.835L121.794 382.89ZM120.752 384.863V377.107H121.884V384.863H120.752ZM124.426 384.863L122.343 382.099L123.123 381.307L125.816 384.863H124.426ZM126.803 384.863V379.046H127.935V384.863H126.803ZM127.375 378.148C127.178 378.148 127.009 378.083 126.867 377.952C126.728 377.818 126.659 377.659 126.659 377.474C126.659 377.287 126.728 377.128 126.867 376.997C127.009 376.863 127.178 376.796 127.375 376.796C127.572 376.796 127.74 376.863 127.879 376.997C128.02 377.128 128.091 377.287 128.091 377.474C128.091 377.659 128.02 377.818 127.879 377.952C127.74 378.083 127.572 378.148 127.375 378.148ZM130.705 381.409V384.863H129.573V379.046H130.66V379.993H130.732C130.866 379.685 131.075 379.437 131.361 379.251C131.648 379.064 132.011 378.97 132.448 378.97C132.844 378.97 133.191 379.054 133.489 379.22C133.787 379.384 134.018 379.629 134.182 379.955C134.346 380.281 134.428 380.683 134.428 381.163V384.863H133.296V381.299C133.296 380.878 133.186 380.548 132.966 380.311C132.747 380.071 132.445 379.951 132.061 379.951C131.799 379.951 131.565 380.008 131.361 380.122C131.159 380.235 130.998 380.402 130.88 380.622C130.764 380.839 130.705 381.101 130.705 381.409ZM138.5 387.166C138.038 387.166 137.641 387.105 137.307 386.984C136.977 386.863 136.706 386.703 136.497 386.503C136.287 386.304 136.131 386.085 136.027 385.848L137.001 385.447C137.069 385.558 137.16 385.675 137.273 385.799C137.389 385.925 137.546 386.032 137.743 386.121C137.942 386.209 138.199 386.253 138.512 386.253C138.941 386.253 139.296 386.149 139.576 385.939C139.856 385.732 139.996 385.401 139.996 384.947V383.803H139.924C139.856 383.927 139.758 384.064 139.629 384.216C139.503 384.367 139.329 384.498 139.106 384.61C138.884 384.721 138.595 384.776 138.239 384.776C137.78 384.776 137.365 384.669 136.997 384.454C136.631 384.237 136.34 383.918 136.126 383.496C135.914 383.072 135.808 382.551 135.808 381.932C135.808 381.313 135.912 380.783 136.122 380.341C136.334 379.899 136.624 379.561 136.993 379.326C137.362 379.089 137.78 378.97 138.247 378.97C138.608 378.97 138.899 379.031 139.121 379.152C139.344 379.271 139.517 379.41 139.64 379.569C139.767 379.728 139.864 379.868 139.932 379.989H140.015V379.046H141.125V384.992C141.125 385.492 141.009 385.902 140.777 386.223C140.544 386.544 140.23 386.781 139.834 386.935C139.44 387.089 138.995 387.166 138.5 387.166ZM138.489 383.837C138.815 383.837 139.09 383.761 139.315 383.61C139.542 383.456 139.714 383.236 139.83 382.951C139.948 382.663 140.008 382.318 140.008 381.917C140.008 381.525 139.95 381.181 139.834 380.883C139.717 380.585 139.547 380.353 139.322 380.186C139.098 380.017 138.82 379.932 138.489 379.932C138.148 379.932 137.864 380.021 137.637 380.197C137.41 380.372 137.238 380.609 137.122 380.909C137.008 381.21 136.951 381.546 136.951 381.917C136.951 382.298 137.009 382.633 137.126 382.92C137.242 383.208 137.413 383.433 137.641 383.595C137.87 383.756 138.153 383.837 138.489 383.837Z" fill="#111927"/>
<rect width="147.025" height="45.8537" transform="translate(171.735 358.817)" fill="white" fill-opacity="0.01"/>
<rect x="183.924" y="370.244" width="61.705" height="23" rx="11.5" fill="#FAD6E9"/>
<path d="M194.287 380.424C194.257 380.14 194.129 379.919 193.904 379.761C193.681 379.603 193.391 379.524 193.034 379.524C192.783 379.524 192.568 379.562 192.388 379.638C192.208 379.714 192.071 379.816 191.976 379.946C191.881 380.076 191.832 380.224 191.83 380.391C191.83 380.53 191.861 380.65 191.924 380.751C191.989 380.853 192.076 380.94 192.187 381.011C192.297 381.08 192.419 381.139 192.554 381.186C192.688 381.234 192.823 381.274 192.959 381.307L193.583 381.462C193.834 381.521 194.075 381.6 194.307 381.699C194.54 381.799 194.749 381.924 194.933 382.076C195.119 382.227 195.266 382.41 195.375 382.624C195.483 382.839 195.537 383.09 195.537 383.378C195.537 383.767 195.437 384.11 195.238 384.407C195.039 384.701 194.751 384.932 194.375 385.098C194 385.263 193.547 385.345 193.015 385.345C192.497 385.345 192.048 385.265 191.667 385.105C191.289 384.944 190.992 384.711 190.778 384.403C190.566 384.096 190.451 383.722 190.434 383.28H191.619C191.636 383.512 191.707 383.704 191.833 383.858C191.958 384.012 192.122 384.126 192.323 384.202C192.527 384.278 192.754 384.316 193.005 384.316C193.267 384.316 193.496 384.277 193.693 384.199C193.892 384.119 194.048 384.008 194.161 383.868C194.273 383.725 194.33 383.558 194.333 383.368C194.33 383.195 194.28 383.052 194.18 382.939C194.08 382.825 193.941 382.729 193.761 382.654C193.584 382.576 193.376 382.507 193.138 382.446L192.382 382.251C191.834 382.111 191.401 381.897 191.083 381.612C190.767 381.324 190.609 380.942 190.609 380.466C190.609 380.074 190.715 379.731 190.927 379.437C191.142 379.142 191.433 378.914 191.801 378.752C192.168 378.587 192.585 378.505 193.05 378.505C193.522 378.505 193.935 378.587 194.29 378.752C194.647 378.914 194.928 379.14 195.131 379.43C195.335 379.718 195.44 380.049 195.446 380.424H194.287ZM196.992 385.244V378.596H199.485C199.995 378.596 200.424 378.691 200.77 378.882C201.119 379.072 201.382 379.334 201.559 379.667C201.739 379.998 201.828 380.375 201.828 380.797C201.828 381.223 201.739 381.602 201.559 381.933C201.379 382.264 201.114 382.525 200.764 382.715C200.413 382.904 199.981 382.998 199.468 382.998H197.816V382.008H199.306C199.605 382.008 199.849 381.956 200.04 381.852C200.23 381.748 200.371 381.605 200.462 381.423C200.555 381.242 200.601 381.033 200.601 380.797C200.601 380.561 200.555 380.353 200.462 380.174C200.371 379.994 200.229 379.854 200.037 379.755C199.846 379.653 199.6 379.602 199.3 379.602H198.196V385.244H196.992ZM203.255 385.244V378.596H207.58V379.605H204.46V381.41H207.356V382.42H204.46V384.235H207.605V385.244H203.255ZM210.043 385.244H208.757L211.098 378.596H212.585L214.929 385.244H213.643L211.867 379.959H211.815L210.043 385.244ZM210.085 382.637H213.591V383.605H210.085V382.637ZM216.185 385.244V378.596H217.389V381.651H217.471L220.064 378.596H221.535L218.964 381.579L221.558 385.244H220.11L218.126 382.394L217.389 383.264V385.244H216.185ZM223.957 378.596V385.244H222.753V378.596H223.957ZM231.105 378.596V385.244H230.034L226.902 380.716H226.846V385.244H225.642V378.596H226.72L229.849 383.128H229.908V378.596H231.105ZM237.253 380.719C237.198 380.544 237.124 380.387 237.029 380.248C236.935 380.108 236.823 379.987 236.691 379.888C236.561 379.788 236.412 379.714 236.243 379.664C236.074 379.612 235.89 379.586 235.691 379.586C235.334 379.586 235.016 379.676 234.737 379.855C234.457 380.035 234.238 380.299 234.078 380.648C233.92 380.994 233.841 381.416 233.841 381.914C233.841 382.416 233.92 382.841 234.078 383.189C234.236 383.538 234.455 383.803 234.737 383.985C235.018 384.164 235.345 384.254 235.717 384.254C236.055 384.254 236.347 384.189 236.594 384.059C236.842 383.929 237.034 383.746 237.168 383.507C237.302 383.267 237.369 382.986 237.369 382.663L237.642 382.706H235.837V381.764H238.535V382.563C238.535 383.132 238.414 383.624 238.171 384.04C237.929 384.455 237.596 384.776 237.171 385.001C236.747 385.224 236.26 385.335 235.711 385.335C235.098 385.335 234.56 385.198 234.097 384.923C233.636 384.646 233.276 384.253 233.016 383.744C232.759 383.234 232.63 382.628 232.63 381.927C232.63 381.39 232.706 380.91 232.857 380.488C233.011 380.066 233.225 379.708 233.5 379.414C233.775 379.117 234.097 378.892 234.467 378.739C234.837 378.583 235.24 378.505 235.675 378.505C236.043 378.505 236.386 378.559 236.704 378.667C237.022 378.773 237.304 378.925 237.551 379.122C237.8 379.319 238.005 379.552 238.165 379.823C238.325 380.093 238.43 380.392 238.48 380.719H237.253Z" fill="#E23793"/>
<rect x="251.723" y="370.244" width="54.8489" height="23" rx="11.5" fill="#E0EEFF"/>
<path d="M259.873 385.244L257.996 378.596H259.291L260.489 383.482H260.551L261.83 378.596H263.008L264.291 383.485H264.349L265.547 378.596H266.842L264.966 385.244H263.778L262.447 380.579H262.395L261.061 385.244H259.873ZM268.058 385.244V378.596H270.551C271.062 378.596 271.491 378.685 271.837 378.862C272.185 379.04 272.448 379.288 272.626 379.609C272.805 379.927 272.895 380.298 272.895 380.722C272.895 381.149 272.804 381.519 272.622 381.832C272.443 382.144 272.178 382.385 271.827 382.556C271.477 382.725 271.046 382.81 270.535 382.81H268.759V381.81H270.373C270.671 381.81 270.916 381.769 271.106 381.686C271.297 381.602 271.438 381.48 271.528 381.32C271.622 381.157 271.668 380.958 271.668 380.722C271.668 380.486 271.622 380.285 271.528 380.118C271.435 379.95 271.294 379.822 271.103 379.735C270.913 379.647 270.667 379.602 270.366 379.602H269.263V385.244H268.058ZM271.493 382.232L273.139 385.244H271.795L270.178 382.232H271.493ZM275.589 378.596V385.244H274.385V378.596H275.589ZM276.982 379.605V378.596H282.286V379.605H280.231V385.244H279.037V379.605H276.982ZM284.894 378.596V385.244H283.69V378.596H284.894ZM292.043 378.596V385.244H290.971L287.839 380.716H287.784V385.244H286.579V378.596H287.657L290.786 383.128H290.845V378.596H292.043ZM298.19 380.719C298.136 380.544 298.061 380.387 297.966 380.248C297.873 380.108 297.76 379.987 297.628 379.888C297.498 379.788 297.349 379.714 297.18 379.664C297.011 379.612 296.827 379.586 296.628 379.586C296.271 379.586 295.953 379.676 295.674 379.855C295.395 380.035 295.175 380.299 295.015 380.648C294.857 380.994 294.778 381.416 294.778 381.914C294.778 382.416 294.857 382.841 295.015 383.189C295.173 383.538 295.393 383.803 295.674 383.985C295.955 384.164 296.282 384.254 296.654 384.254C296.992 384.254 297.284 384.189 297.531 384.059C297.78 383.929 297.971 383.746 298.105 383.507C298.24 383.267 298.307 382.986 298.307 382.663L298.579 382.706H296.774V381.764H299.472V382.563C299.472 383.132 299.351 383.624 299.108 384.04C298.866 384.455 298.533 384.776 298.109 385.001C297.684 385.224 297.197 385.335 296.648 385.335C296.035 385.335 295.498 385.198 295.034 384.923C294.573 384.646 294.213 384.253 293.953 383.744C293.696 383.234 293.567 382.628 293.567 381.927C293.567 381.39 293.643 380.91 293.794 380.488C293.948 380.066 294.162 379.708 294.437 379.414C294.712 379.117 295.034 378.892 295.404 378.739C295.775 378.583 296.177 378.505 296.612 378.505C296.98 378.505 297.323 378.559 297.641 378.667C297.959 378.773 298.242 378.925 298.488 379.122C298.737 379.319 298.942 379.552 299.102 379.823C299.262 380.093 299.367 380.392 299.417 380.719H298.19Z" fill="#1780FF"/>
<rect width="106.651" height="28.948" transform="translate(318.761 367.27)" fill="white" fill-opacity="0.01"/>
<g clip-path="url(#clip4_506_31828)">
<g clip-path="url(#clip5_506_31828)">
<rect width="59" height="6.09432" transform="translate(330.949 378.697)" fill="#FFB800"/>
<rect x="389.949" y="378.697" width="23.2733" height="6.09432" fill="#FFB800"/>
<rect opacity="0.6" x="389.949" y="378.697" width="23.2733" height="6.09432" fill="white"/>
</g>
</g>
</g>
</g>
<defs>
<filter id="filter0_d_506_31828" x="-11.9324" y="19.0002" width="560" height="263.131" filterUnits="userSpaceOnUse" colorInterpolationFilters="sRGB">
<feFlood floodOpacity="0" result="BackgroundImageFix"/>
<feColorMatrix in="SourceAlpha" type="matrix" values="0 0 0 0 0 0 0 0 0 0 0 0 0 0 0 0 0 0 127 0" result="hardAlpha"/>
<feMorphology radius="12" operator="erode" in="SourceAlpha" result="effect1_dropShadow_506_31828"/>
<feOffset dy="24"/>
<feGaussianBlur stdDeviation="24"/>
<feComposite in2="hardAlpha" operator="out"/>
<feColorMatrix type="matrix" values="0 0 0 0 0.0627451 0 0 0 0 0.0941176 0 0 0 0 0.156863 0 0 0 0.18 0"/>
<feBlend mode="normal" in2="BackgroundImageFix" result="effect1_dropShadow_506_31828"/>
<feBlend mode="normal" in="SourceGraphic" in2="effect1_dropShadow_506_31828" result="shape"/>
</filter>
<filter id="filter1_d_506_31828" x="79.9221" y="245" width="468.145" height="126" filterUnits="userSpaceOnUse" colorInterpolationFilters="sRGB">
<feFlood floodOpacity="0" result="BackgroundImageFix"/>
<feColorMatrix in="SourceAlpha" type="matrix" values="0 0 0 0 0 0 0 0 0 0 0 0 0 0 0 0 0 0 127 0" result="hardAlpha"/>
<feMorphology radius="12" operator="erode" in="SourceAlpha" result="effect1_dropShadow_506_31828"/>
<feOffset dy="24"/>
<feGaussianBlur stdDeviation="24"/>
<feComposite in2="hardAlpha" operator="out"/>
<feColorMatrix type="matrix" values="0 0 0 0 0.0627451 0 0 0 0 0.0941176 0 0 0 0 0.156863 0 0 0 0.18 0"/>
<feBlend mode="normal" in2="BackgroundImageFix" result="effect1_dropShadow_506_31828"/>
<feBlend mode="normal" in="SourceGraphic" in2="effect1_dropShadow_506_31828" result="shape"/>
</filter>
<filter id="filter2_d_506_31828" x="-6.73413" y="341.744" width="468.145" height="128" filterUnits="userSpaceOnUse" colorInterpolationFilters="sRGB">
<feFlood floodOpacity="0" result="BackgroundImageFix"/>
<feColorMatrix in="SourceAlpha" type="matrix" values="0 0 0 0 0 0 0 0 0 0 0 0 0 0 0 0 0 0 127 0" result="hardAlpha"/>
<feMorphology radius="12" operator="erode" in="SourceAlpha" result="effect1_dropShadow_506_31828"/>
<feOffset dy="24"/>
<feGaussianBlur stdDeviation="24"/>
<feComposite in2="hardAlpha" operator="out"/>
<feColorMatrix type="matrix" values="0 0 0 0 0.0627451 0 0 0 0 0.0941176 0 0 0 0 0.156863 0 0 0 0.18 0"/>
<feBlend mode="normal" in2="BackgroundImageFix" result="effect1_dropShadow_506_31828"/>
<feBlend mode="normal" in="SourceGraphic" in2="effect1_dropShadow_506_31828" result="shape"/>
</filter>
<clipPath id="clip0_506_31828">
<rect x="0.5" y="0.000244141" width="531.5" height="460" rx="20" fill="white"/>
</clipPath>
<clipPath id="clip1_506_31828">
<path d="M39.4736 46.4063H496.662V207.601H39.4736V46.4063Z" fill="white"/>
</clipPath>
<clipPath id="clip2_506_31828">
<rect x="417.606" y="280.953" width="82.2733" height="6.09432" rx="3.04716" fill="white"/>
</clipPath>
<clipPath id="clip3_506_31828">
<rect x="417.606" y="280.953" width="82.2733" height="6.09432" rx="3.04716" fill="white"/>
</clipPath>
<clipPath id="clip4_506_31828">
<rect x="330.949" y="378.697" width="82.2733" height="6.09432" rx="3.04716" fill="white"/>
</clipPath>
<clipPath id="clip5_506_31828">
<rect x="330.949" y="378.697" width="82.2733" height="6.09432" rx="3.04716" fill="white"/>
</clipPath>
</defs>
</svg>
