<svg width="24" height="24" viewBox="0 0 24 24" fill="none" xmlns="http://www.w3.org/2000/svg">
<g clip-path="url(#clip0_496_53325)">
<path fillRule="evenodd" clipRule="evenodd" d="M0.0336914 11.1C0.260704 8.08169 1.61996 5.26066 3.83908 3.20221C6.05821 1.14375 8.97326 -4.9839e-05 12.0001 1.62876e-09C11.0041 1.62877e-09 10.1161 0.4368 9.38409 1.1052C8.65809 1.77 8.04489 2.6988 7.54809 3.7956C7.04889 4.8996 6.66009 6.1908 6.39729 7.5912C6.18307 8.74969 6.05552 9.92254 6.01569 11.1H0.0336914ZM0.0336914 12.9H6.01569C6.05889 14.1024 6.18729 15.2856 6.39729 16.4088C6.66129 17.8092 7.04889 19.1004 7.54809 20.2044C8.04489 21.3012 8.65809 22.23 9.38409 22.8948C10.1161 23.5632 11.0041 24 12.0001 24C5.67609 24 0.493291 19.1076 0.0336914 12.9Z" fill="#6C737F"/>
<path d="M12 1.67399C11.67 1.67399 11.244 1.81439 10.7484 2.26799C10.2492 2.72519 9.74882 3.44159 9.30722 4.41719C8.86802 5.38679 8.51162 6.55679 8.26682 7.86479C8.07482 8.89439 7.95482 9.98639 7.91162 11.1H16.0884C16.0493 10.0144 15.9306 8.93305 15.7332 7.86479C15.4884 6.55679 15.1332 5.38679 14.6928 4.41719C14.2512 3.44159 13.752 2.72519 13.2528 2.26919C12.756 1.81439 12.33 1.67399 12 1.67399ZM8.26682 16.1352C8.51162 17.4432 8.86802 18.6132 9.30722 19.5828C9.74882 20.5584 10.2492 21.2748 10.7472 21.7308C11.244 22.1856 11.6712 22.326 12 22.326C12.33 22.326 12.756 22.1856 13.2516 21.732C13.752 21.2748 14.2512 20.5584 14.6928 19.5828C15.132 18.6132 15.4884 17.4432 15.7332 16.1352C15.9264 15.1056 16.0464 14.0136 16.0884 12.9H7.91162C7.95362 14.0136 8.07362 15.1056 8.26682 16.1352Z" fill="#6C737F"/>
<path d="M12 7.16816e-08C12.9972 7.16816e-08 13.884 0.4368 14.616 1.1052C15.342 1.77 15.9564 2.6988 16.452 3.7956C16.9524 4.8996 17.34 6.1908 17.6028 7.5912C17.8128 8.7144 17.9412 9.8976 17.9844 11.1H23.9664C23.7397 8.08159 22.3805 5.26039 20.1613 3.20189C17.9421 1.14338 15.0269 -0.000330596 12 7.16816e-08ZM17.6028 16.4088C17.34 17.8092 16.9524 19.1004 16.452 20.2044C15.9564 21.3012 15.342 22.23 14.616 22.8948C13.884 23.5632 12.9972 24 12 24C18.324 24 23.5068 19.1076 23.9664 12.9H17.9844C17.9446 14.0775 17.817 15.2503 17.6028 16.4088Z" fill="#6C737F"/>
</g>
<defs>
<clipPath id="clip0_496_53325">
<rect width="24" height="24" fill="white"/>
</clipPath>
</defs>
</svg>
