<svg width="232" height="108" viewBox="0 0 232 108" fill="none" xmlns="http://www.w3.org/2000/svg">
<rect width="232" height="108" rx="10" fill="white"/>
<path d="M23.664 23.132C23.0847 23.132 22.5457 23.0257 22.047 22.813C21.5557 22.6003 21.1267 22.307 20.76 21.933C20.4007 21.5517 20.1183 21.1043 19.913 20.591C19.7077 20.0777 19.605 19.513 19.605 18.897C19.605 18.2883 19.704 17.7273 19.902 17.214C20.1073 16.6933 20.3933 16.246 20.76 15.872C21.1267 15.4907 21.5557 15.1973 22.047 14.992C22.5383 14.7793 23.0773 14.673 23.664 14.673C24.2433 14.673 24.7603 14.772 25.215 14.97C25.677 15.168 26.0657 15.4283 26.381 15.751C26.6963 16.0663 26.9237 16.411 27.063 16.785L25.897 17.335C25.721 16.895 25.4387 16.5393 25.05 16.268C24.6687 15.9893 24.2067 15.85 23.664 15.85C23.1213 15.85 22.641 15.9783 22.223 16.235C21.805 16.4917 21.4787 16.8473 21.244 17.302C21.0167 17.7567 20.903 18.2883 20.903 18.897C20.903 19.5057 21.0167 20.041 21.244 20.503C21.4787 20.9577 21.805 21.3133 22.223 21.57C22.641 21.8193 23.1213 21.944 23.664 21.944C24.2067 21.944 24.6687 21.8083 25.05 21.537C25.4387 21.2657 25.721 20.91 25.897 20.47L27.063 21.02C26.9237 21.3867 26.6963 21.7313 26.381 22.054C26.0657 22.3767 25.677 22.637 25.215 22.835C24.7603 23.033 24.2433 23.132 23.664 23.132ZM31.0404 23.132C30.4684 23.132 29.944 22.9963 29.4674 22.725C28.998 22.4537 28.624 22.0833 28.3454 21.614C28.0667 21.1447 27.9274 20.613 27.9274 20.019C27.9274 19.4177 28.0667 18.886 28.3454 18.424C28.624 17.9547 28.998 17.588 29.4674 17.324C29.9367 17.0527 30.461 16.917 31.0404 16.917C31.627 16.917 32.1514 17.0527 32.6134 17.324C33.0827 17.588 33.453 17.9547 33.7244 18.424C34.003 18.886 34.1424 19.4177 34.1424 20.019C34.1424 20.6203 34.003 21.1557 33.7244 21.625C33.4457 22.0943 33.0717 22.4647 32.6024 22.736C32.133 23 31.6124 23.132 31.0404 23.132ZM31.0404 21.977C31.3924 21.977 31.704 21.8927 31.9754 21.724C32.2467 21.5553 32.4594 21.3243 32.6134 21.031C32.7747 20.7303 32.8554 20.393 32.8554 20.019C32.8554 19.645 32.7747 19.3113 32.6134 19.018C32.4594 18.7247 32.2467 18.4937 31.9754 18.325C31.704 18.1563 31.3924 18.072 31.0404 18.072C30.6957 18.072 30.384 18.1563 30.1054 18.325C29.834 18.4937 29.6177 18.7247 29.4564 19.018C29.3024 19.3113 29.2254 19.645 29.2254 20.019C29.2254 20.393 29.3024 20.7303 29.4564 21.031C29.6177 21.3243 29.834 21.5553 30.1054 21.724C30.384 21.8927 30.6957 21.977 31.0404 21.977ZM35.3559 23V17.049H36.5439V18.336L36.3899 18.138C36.5145 17.7347 36.7419 17.4303 37.0719 17.225C37.4019 17.0197 37.7795 16.917 38.2049 16.917C38.6815 16.917 39.1032 17.0453 39.4699 17.302C39.8439 17.5513 40.0932 17.885 40.2179 18.303L39.8659 18.336C40.0419 17.8593 40.3095 17.5037 40.6689 17.269C41.0355 17.0343 41.4535 16.917 41.9229 16.917C42.3335 16.917 42.7039 17.0123 43.0339 17.203C43.3712 17.3937 43.6389 17.6577 43.8369 17.995C44.0349 18.3323 44.1339 18.7173 44.1339 19.15V23H42.8909V19.491C42.8909 19.1903 42.8359 18.9373 42.7259 18.732C42.6232 18.5193 42.4766 18.358 42.2859 18.248C42.1025 18.1307 41.8862 18.072 41.6369 18.072C41.3875 18.072 41.1675 18.1307 40.9769 18.248C40.7862 18.358 40.6359 18.5193 40.5259 18.732C40.4159 18.9447 40.3609 19.1977 40.3609 19.491V23H39.1289V19.491C39.1289 19.1903 39.0739 18.9373 38.9639 18.732C38.8612 18.5193 38.7145 18.358 38.5239 18.248C38.3405 18.1307 38.1205 18.072 37.8639 18.072C37.6145 18.072 37.3945 18.1307 37.2039 18.248C37.0132 18.358 36.8629 18.5193 36.7529 18.732C36.6502 18.9447 36.5989 19.1977 36.5989 19.491V23H35.3559ZM45.4643 23V17.049H46.6523V18.336L46.4983 18.138C46.6229 17.7347 46.8503 17.4303 47.1803 17.225C47.5103 17.0197 47.8879 16.917 48.3133 16.917C48.7899 16.917 49.2116 17.0453 49.5783 17.302C49.9523 17.5513 50.2016 17.885 50.3263 18.303L49.9743 18.336C50.1503 17.8593 50.4179 17.5037 50.7773 17.269C51.1439 17.0343 51.5619 16.917 52.0313 16.917C52.4419 16.917 52.8123 17.0123 53.1423 17.203C53.4796 17.3937 53.7473 17.6577 53.9453 17.995C54.1433 18.3323 54.2423 18.7173 54.2423 19.15V23H52.9993V19.491C52.9993 19.1903 52.9443 18.9373 52.8343 18.732C52.7316 18.5193 52.5849 18.358 52.3943 18.248C52.2109 18.1307 51.9946 18.072 51.7453 18.072C51.4959 18.072 51.2759 18.1307 51.0853 18.248C50.8946 18.358 50.7443 18.5193 50.6343 18.732C50.5243 18.9447 50.4693 19.1977 50.4693 19.491V23H49.2373V19.491C49.2373 19.1903 49.1823 18.9373 49.0723 18.732C48.9696 18.5193 48.8229 18.358 48.6323 18.248C48.4489 18.1307 48.2289 18.072 47.9723 18.072C47.7229 18.072 47.5029 18.1307 47.3123 18.248C47.1216 18.358 46.9713 18.5193 46.8613 18.732C46.7586 18.9447 46.7073 19.1977 46.7073 19.491V23H45.4643ZM57.6957 23.132C57.2483 23.132 56.856 23.033 56.5187 22.835C56.1813 22.6297 55.9173 22.3473 55.7267 21.988C55.5433 21.6213 55.4517 21.1997 55.4517 20.723V17.049H56.6947V20.613C56.6947 20.8843 56.7497 21.1227 56.8597 21.328C56.9697 21.5333 57.1237 21.6947 57.3217 21.812C57.5197 21.922 57.747 21.977 58.0037 21.977C58.2677 21.977 58.4987 21.9183 58.6967 21.801C58.8947 21.6837 59.0487 21.5187 59.1587 21.306C59.276 21.0933 59.3347 20.844 59.3347 20.558V17.049H60.5667V23H59.3897V21.834L59.5217 21.988C59.3823 22.3547 59.1513 22.637 58.8287 22.835C58.506 23.033 58.1283 23.132 57.6957 23.132ZM62.018 23V17.049H63.206V18.215L63.063 18.061C63.2097 17.687 63.4443 17.4047 63.767 17.214C64.0897 17.016 64.4637 16.917 64.889 16.917C65.329 16.917 65.7177 17.0123 66.055 17.203C66.3923 17.3937 66.6563 17.6577 66.847 17.995C67.0377 18.3323 67.133 18.721 67.133 19.161V23H65.901V19.491C65.901 19.1903 65.846 18.9373 65.736 18.732C65.626 18.5193 65.4683 18.358 65.263 18.248C65.065 18.1307 64.8377 18.072 64.581 18.072C64.3243 18.072 64.0933 18.1307 63.888 18.248C63.69 18.358 63.536 18.5193 63.426 18.732C63.316 18.9447 63.261 19.1977 63.261 19.491V23H62.018ZM68.4633 23V17.049H69.7063V23H68.4633ZM68.4633 16.235V14.805H69.7063V16.235H68.4633ZM73.9866 23.132C73.3926 23.132 72.8646 22.9963 72.4026 22.725C71.9479 22.4463 71.5849 22.0723 71.3136 21.603C71.0496 21.1337 70.9176 20.602 70.9176 20.008C70.9176 19.4213 71.0496 18.8933 71.3136 18.424C71.5776 17.9547 71.9406 17.588 72.4026 17.324C72.8646 17.0527 73.3926 16.917 73.9866 16.917C74.3899 16.917 74.7676 16.9903 75.1196 17.137C75.4716 17.2763 75.7759 17.4707 76.0326 17.72C76.2966 17.9693 76.4909 18.259 76.6156 18.589L75.5266 19.095C75.4019 18.787 75.2003 18.5413 74.9216 18.358C74.6503 18.1673 74.3386 18.072 73.9866 18.072C73.6493 18.072 73.3449 18.1563 73.0736 18.325C72.8096 18.4863 72.6006 18.7173 72.4466 19.018C72.2926 19.3113 72.2156 19.645 72.2156 20.019C72.2156 20.393 72.2926 20.7303 72.4466 21.031C72.6006 21.3243 72.8096 21.5553 73.0736 21.724C73.3449 21.8927 73.6493 21.977 73.9866 21.977C74.3459 21.977 74.6576 21.8853 74.9216 21.702C75.1929 21.5113 75.3946 21.2583 75.5266 20.943L76.6156 21.46C76.4983 21.7753 76.3076 22.0613 76.0436 22.318C75.7869 22.5673 75.4826 22.7653 75.1306 22.912C74.7786 23.0587 74.3973 23.132 73.9866 23.132ZM79.5588 23.132C79.1554 23.132 78.7998 23.0623 78.4918 22.923C78.1911 22.7763 77.9564 22.5783 77.7878 22.329C77.6191 22.0723 77.5348 21.7717 77.5348 21.427C77.5348 21.1043 77.6044 20.8147 77.7438 20.558C77.8904 20.3013 78.1141 20.085 78.4148 19.909C78.7154 19.733 79.0931 19.6083 79.5478 19.535L81.6158 19.194V20.173L79.7898 20.492C79.4598 20.5507 79.2178 20.657 79.0638 20.811C78.9098 20.9577 78.8328 21.1483 78.8328 21.383C78.8328 21.6103 78.9171 21.7973 79.0858 21.944C79.2618 22.0833 79.4854 22.153 79.7568 22.153C80.0941 22.153 80.3874 22.0797 80.6368 21.933C80.8934 21.7863 81.0914 21.592 81.2308 21.35C81.3701 21.1007 81.4398 20.8257 81.4398 20.525V18.996C81.4398 18.7027 81.3298 18.4643 81.1098 18.281C80.8971 18.0903 80.6111 17.995 80.2518 17.995C79.9218 17.995 79.6321 18.083 79.3828 18.259C79.1408 18.4277 78.9611 18.6477 78.8438 18.919L77.8098 18.402C77.9198 18.1087 78.0994 17.852 78.3488 17.632C78.5981 17.4047 78.8878 17.2287 79.2178 17.104C79.5551 16.9793 79.9108 16.917 80.2848 16.917C80.7541 16.917 81.1684 17.005 81.5278 17.181C81.8944 17.357 82.1768 17.6027 82.3748 17.918C82.5801 18.226 82.6828 18.5853 82.6828 18.996V23H81.4948V21.922L81.7478 21.955C81.6084 22.197 81.4288 22.406 81.2088 22.582C80.9961 22.758 80.7504 22.8937 80.4718 22.989C80.2004 23.0843 79.8961 23.132 79.5588 23.132ZM86.6027 23.066C85.9794 23.066 85.4954 22.89 85.1507 22.538C84.8061 22.186 84.6337 21.691 84.6337 21.053V18.171H83.5887V17.049H83.7537C84.0324 17.049 84.2487 16.9683 84.4027 16.807C84.5567 16.6457 84.6337 16.4257 84.6337 16.147V15.685H85.8767V17.049H87.2297V18.171H85.8767V20.998C85.8767 21.2033 85.9097 21.3793 85.9757 21.526C86.0417 21.6653 86.1481 21.7753 86.2947 21.856C86.4414 21.9293 86.6321 21.966 86.8667 21.966C86.9254 21.966 86.9914 21.9623 87.0647 21.955C87.1381 21.9477 87.2077 21.9403 87.2737 21.933V23C87.1711 23.0147 87.0574 23.0293 86.9327 23.044C86.8081 23.0587 86.6981 23.066 86.6027 23.066ZM88.4867 23V17.049H89.7297V23H88.4867ZM88.4867 16.235V14.805H89.7297V16.235H88.4867ZM92.91 23L90.578 17.049H91.931L93.724 21.9H93.229L95.022 17.049H96.386L94.043 23H92.91ZM99.9175 23.132C99.3235 23.132 98.7955 22.9963 98.3335 22.725C97.8788 22.4463 97.5231 22.0723 97.2665 21.603C97.0098 21.1263 96.8815 20.5947 96.8815 20.008C96.8815 19.4067 97.0098 18.875 97.2665 18.413C97.5305 17.951 97.8825 17.588 98.3225 17.324C98.7625 17.0527 99.2611 16.917 99.8185 16.917C100.266 16.917 100.665 16.994 101.017 17.148C101.369 17.302 101.666 17.5147 101.908 17.786C102.15 18.05 102.334 18.3543 102.458 18.699C102.59 19.0437 102.656 19.4103 102.656 19.799C102.656 19.8943 102.653 19.9933 102.645 20.096C102.638 20.1987 102.623 20.294 102.601 20.382H97.8605V19.392H101.897L101.303 19.843C101.377 19.4837 101.351 19.1647 101.226 18.886C101.109 18.6 100.926 18.3763 100.676 18.215C100.434 18.0463 100.148 17.962 99.8185 17.962C99.4885 17.962 99.1951 18.0463 98.9385 18.215C98.6818 18.3763 98.4838 18.611 98.3445 18.919C98.2051 19.2197 98.1501 19.5863 98.1795 20.019C98.1428 20.4223 98.1978 20.7743 98.3445 21.075C98.4985 21.3757 98.7111 21.6103 98.9825 21.779C99.2611 21.9477 99.5765 22.032 99.9285 22.032C100.288 22.032 100.592 21.9513 100.841 21.79C101.098 21.6287 101.3 21.4197 101.446 21.163L102.458 21.658C102.341 21.9367 102.158 22.1897 101.908 22.417C101.666 22.637 101.373 22.813 101.028 22.945C100.691 23.0697 100.321 23.132 99.9175 23.132ZM108.784 23.132C108.271 23.132 107.794 23.0367 107.354 22.846C106.914 22.648 106.54 22.3803 106.232 22.043C105.924 21.7057 105.697 21.317 105.55 20.877L106.65 20.415C106.848 20.921 107.138 21.3097 107.519 21.581C107.901 21.8523 108.341 21.988 108.839 21.988C109.133 21.988 109.389 21.944 109.609 21.856C109.829 21.7607 109.998 21.6287 110.115 21.46C110.24 21.2913 110.302 21.097 110.302 20.877C110.302 20.5763 110.218 20.338 110.049 20.162C109.881 19.986 109.631 19.8467 109.301 19.744L107.761 19.26C107.145 19.0693 106.676 18.7797 106.353 18.391C106.031 17.995 105.869 17.533 105.869 17.005C105.869 16.543 105.983 16.1397 106.21 15.795C106.438 15.443 106.749 15.168 107.145 14.97C107.549 14.772 108.007 14.673 108.52 14.673C109.012 14.673 109.459 14.761 109.862 14.937C110.266 15.1057 110.61 15.3403 110.896 15.641C111.19 15.9417 111.402 16.29 111.534 16.686L110.456 17.159C110.295 16.7263 110.042 16.3927 109.697 16.158C109.36 15.9233 108.968 15.806 108.52 15.806C108.249 15.806 108.011 15.8537 107.805 15.949C107.6 16.037 107.439 16.169 107.321 16.345C107.211 16.5137 107.156 16.7117 107.156 16.939C107.156 17.203 107.241 17.4377 107.409 17.643C107.578 17.8483 107.835 18.0023 108.179 18.105L109.609 18.556C110.262 18.754 110.753 19.04 111.083 19.414C111.413 19.7807 111.578 20.239 111.578 20.789C111.578 21.2437 111.457 21.647 111.215 21.999C110.981 22.351 110.654 22.6297 110.236 22.835C109.818 23.033 109.334 23.132 108.784 23.132ZM112.914 23V14.673H114.157V20.25L113.673 20.129L116.654 17.049H118.205L115.961 19.436L118.304 23H116.874L114.784 19.843L115.521 19.744L113.761 21.614L114.157 20.789V23H112.914ZM119.156 23V17.049H120.399V23H119.156ZM119.156 16.235V14.805H120.399V16.235H119.156ZM121.852 23V14.673H123.095V23H121.852ZM124.548 23V14.673H125.791V23H124.548ZM129.445 23.132C128.836 23.132 128.301 22.9817 127.839 22.681C127.384 22.3803 127.065 21.977 126.882 21.471L127.839 21.02C128 21.3573 128.22 21.625 128.499 21.823C128.785 22.021 129.1 22.12 129.445 22.12C129.738 22.12 129.976 22.054 130.16 21.922C130.343 21.79 130.435 21.6103 130.435 21.383C130.435 21.2363 130.394 21.119 130.314 21.031C130.233 20.9357 130.13 20.8587 130.006 20.8C129.888 20.7413 129.767 20.6973 129.643 20.668L128.708 20.404C128.194 20.2573 127.809 20.0373 127.553 19.744C127.303 19.4433 127.179 19.095 127.179 18.699C127.179 18.3397 127.27 18.028 127.454 17.764C127.637 17.4927 127.89 17.2837 128.213 17.137C128.535 16.9903 128.898 16.917 129.302 16.917C129.844 16.917 130.328 17.0527 130.754 17.324C131.179 17.588 131.48 17.9583 131.656 18.435L130.699 18.886C130.581 18.6 130.394 18.3727 130.138 18.204C129.888 18.0353 129.606 17.951 129.291 17.951C129.019 17.951 128.803 18.017 128.642 18.149C128.48 18.2737 128.4 18.4387 128.4 18.644C128.4 18.7833 128.436 18.9007 128.51 18.996C128.583 19.084 128.678 19.1573 128.796 19.216C128.913 19.2673 129.034 19.3113 129.159 19.348L130.127 19.634C130.618 19.7733 130.996 19.9933 131.26 20.294C131.524 20.5873 131.656 20.9393 131.656 21.35C131.656 21.702 131.56 22.0137 131.37 22.285C131.186 22.549 130.93 22.758 130.6 22.912C130.27 23.0587 129.885 23.132 129.445 23.132Z" fill="black"/>
<path d="M58.5 61C58.5 71.2173 50.2173 79.5 40 79.5C29.7827 79.5 21.5 71.2173 21.5 61C21.5 50.7827 29.7827 42.5 40 42.5C50.2173 42.5 58.5 50.7827 58.5 61Z" stroke="#FFEDD2" stroke-width="3"/>
<path fillRule="evenodd" clipRule="evenodd" d="M20 61.9754C20.521 72.5565 29.2651 80.9754 39.9754 80.9754C51.0211 80.9754 59.9754 72.0211 59.9754 60.9754C59.9754 50.2651 51.5565 41.521 40.9754 41V44.0044C49.8988 44.522 56.9754 51.9223 56.9754 60.9754C56.9754 70.3643 49.3643 77.9754 39.9754 77.9754C30.9223 77.9754 23.522 70.8988 23.0044 61.9754H20Z" fill="#FFB500"/>
<path d="M33.6733 66L37.6942 58.0412V57.9766H33.0269V56.5455H39.4669V58.0089L35.4506 66H33.6733ZM39.5244 64.2457V62.8839L43.5361 56.5455H44.6717V58.4844H43.9793L41.2786 62.7638V62.8377H46.8784V64.2457H39.5244ZM44.0347 66V63.8303L44.0531 63.2209V56.5455H45.6689V66H44.0347Z" fill="black"/>
<path d="M30.8341 92L29.6025 87.6364H30.4527L31.2389 90.843H31.2794L32.1189 87.6364H32.8923L33.7339 90.8452H33.7723L34.5585 87.6364H35.4086L34.1771 92H33.3973L32.5237 88.9382H32.4896L31.6139 92H30.8341ZM35.7176 92V88.7273H36.4655V89.2727H36.4996C36.5592 89.0838 36.6615 88.9382 36.8064 88.8359C36.9527 88.7322 37.1196 88.6804 37.3071 88.6804C37.3497 88.6804 37.3973 88.6825 37.4498 88.6868C37.5038 88.6896 37.5486 88.6946 37.5841 88.7017V89.4112C37.5514 89.3999 37.4996 89.3899 37.4285 89.3814C37.3589 89.3714 37.2915 89.3665 37.2261 89.3665C37.0855 89.3665 36.9591 89.397 36.8469 89.4581C36.7361 89.5178 36.6487 89.6009 36.5848 89.7074C36.5209 89.8139 36.4889 89.9368 36.4889 90.076V92H35.7176ZM38.0965 92V88.7273H38.8678V92H38.0965ZM38.4843 88.2628C38.3621 88.2628 38.257 88.2223 38.1689 88.1413C38.0809 88.0589 38.0368 87.9602 38.0368 87.8452C38.0368 87.7287 38.0809 87.63 38.1689 87.549C38.257 87.4666 38.3621 87.4254 38.4843 87.4254C38.6079 87.4254 38.713 87.4666 38.7996 87.549C38.8877 87.63 38.9317 87.7287 38.9317 87.8452C38.9317 87.9602 38.8877 88.0589 38.7996 88.1413C38.713 88.2223 38.6079 88.2628 38.4843 88.2628ZM41.2952 88.7273V89.3239H39.4138V88.7273H41.2952ZM39.8783 87.9432H40.6496V91.0156C40.6496 91.1193 40.6652 91.1989 40.6965 91.2543C40.7291 91.3082 40.7718 91.3452 40.8243 91.3651C40.8769 91.3849 40.9351 91.3949 40.999 91.3949C41.0473 91.3949 41.0914 91.3913 41.1311 91.3842C41.1723 91.3771 41.2036 91.3707 41.2249 91.3651L41.3548 91.968C41.3137 91.9822 41.2547 91.9979 41.178 92.0149C41.1027 92.032 41.0104 92.0419 40.901 92.0447C40.7078 92.0504 40.5338 92.0213 40.379 91.9574C40.2242 91.892 40.1013 91.7912 40.0104 91.6548C39.9209 91.5185 39.8769 91.348 39.8783 91.1435V87.9432ZM41.9403 92V88.7273H42.7116V92H41.9403ZM42.328 88.2628C42.2059 88.2628 42.1008 88.2223 42.0127 88.1413C41.9246 88.0589 41.8806 87.9602 41.8806 87.8452C41.8806 87.7287 41.9246 87.63 42.0127 87.549C42.1008 87.4666 42.2059 87.4254 42.328 87.4254C42.4516 87.4254 42.5567 87.4666 42.6434 87.549C42.7314 87.63 42.7755 87.7287 42.7755 87.8452C42.7755 87.9602 42.7314 88.0589 42.6434 88.1413C42.5567 88.2223 42.4516 88.2628 42.328 88.2628ZM44.276 90.0824V92H43.5047V88.7273H44.2419V89.2834H44.2803C44.3556 89.1001 44.4756 88.9545 44.6404 88.8466C44.8066 88.7386 45.0118 88.6847 45.2561 88.6847C45.482 88.6847 45.6787 88.733 45.8463 88.8295C46.0154 88.9261 46.146 89.0661 46.2384 89.2493C46.3321 89.4325 46.3783 89.6548 46.3769 89.9162V92H45.6056V90.0355C45.6056 89.8168 45.5487 89.6456 45.4351 89.522C45.3229 89.3984 45.1673 89.3366 44.9685 89.3366C44.8335 89.3366 44.7135 89.3665 44.6084 89.4261C44.5047 89.4844 44.423 89.5689 44.3634 89.6797C44.3051 89.7905 44.276 89.9247 44.276 90.0824ZM48.5843 93.2955C48.3073 93.2955 48.0693 93.2578 47.8705 93.1825C47.6716 93.1087 47.5118 93.0092 47.3911 92.8842C47.2703 92.7592 47.1865 92.6207 47.1396 92.4688L47.8343 92.3004C47.8655 92.3643 47.911 92.4276 47.9706 92.4901C48.0303 92.554 48.1105 92.6065 48.2114 92.6477C48.3137 92.6903 48.4422 92.7116 48.597 92.7116C48.8158 92.7116 48.9969 92.6584 49.1404 92.5518C49.2838 92.4467 49.3556 92.2734 49.3556 92.032V91.4119H49.3172C49.2774 91.4915 49.2192 91.5732 49.1425 91.657C49.0672 91.7408 48.9671 91.8111 48.8421 91.8679C48.7185 91.9247 48.5629 91.9531 48.3754 91.9531C48.124 91.9531 47.896 91.8942 47.6915 91.7763C47.4884 91.657 47.3264 91.4794 47.2057 91.2436C47.0864 91.0064 47.0267 90.7095 47.0267 90.353C47.0267 89.9936 47.0864 89.6903 47.2057 89.4432C47.3264 89.1946 47.4891 89.0064 47.6936 88.8786C47.8982 88.7493 48.1262 88.6847 48.3776 88.6847C48.5693 88.6847 48.727 88.7173 48.8506 88.7827C48.9756 88.8466 49.075 88.924 49.1489 89.0149C49.2227 89.1044 49.2789 89.1889 49.3172 89.2685H49.3598V88.7273H50.1205V92.0533C50.1205 92.3331 50.0537 92.5646 49.9202 92.7479C49.7867 92.9311 49.6041 93.0682 49.3726 93.1591C49.1411 93.25 48.8783 93.2955 48.5843 93.2955ZM48.5906 91.348C48.754 91.348 48.8932 91.3082 49.0083 91.2287C49.1233 91.1491 49.2107 91.0348 49.2703 90.8857C49.33 90.7365 49.3598 90.5575 49.3598 90.3487C49.3598 90.1428 49.33 89.9624 49.2703 89.8075C49.2121 89.6527 49.1254 89.5327 49.0104 89.4474C48.8968 89.3608 48.7568 89.3175 48.5906 89.3175C48.4188 89.3175 48.2753 89.3622 48.1602 89.4517C48.0452 89.5412 47.9585 89.6641 47.9003 89.8203C47.8421 89.9751 47.8129 90.1513 47.8129 90.3487C47.8129 90.549 47.8421 90.7244 47.9003 90.875C47.96 91.0241 48.0473 91.1406 48.1624 91.2244C48.2789 91.3068 48.4216 91.348 48.5906 91.348Z" fill="black"/>
<path d="M109.525 61C109.525 71.2173 101.242 79.5 91.0245 79.5C80.8073 79.5 72.5245 71.2173 72.5245 61C72.5245 50.7827 80.8073 42.5 91.0245 42.5C101.242 42.5 109.525 50.7827 109.525 61Z" stroke="#FFE2D9" stroke-width="3"/>
<path fillRule="evenodd" clipRule="evenodd" d="M83.9343 42.2593C76.3755 45.1144 71 52.4171 71 60.9754C71 72.0211 79.9543 80.9754 91 80.9754C102.046 80.9754 111 72.0211 111 60.9754C111 50.2651 102.581 41.521 92 41V44.0044C100.923 44.522 108 51.9223 108 60.9754C108 70.3643 100.389 77.9754 91 77.9754C81.6112 77.9754 74 70.3643 74 60.9754C74 53.6719 78.6056 47.4441 85.071 45.0379L83.9343 42.2593Z" fill="#F35321"/>
<path d="M87.3468 56.4162C87.7992 56.4193 88.2393 56.4993 88.6671 56.6562C89.0979 56.8101 89.4857 57.0625 89.8304 57.4134C90.1751 57.7611 90.449 58.2274 90.6522 58.8121C90.8553 59.3969 90.9568 60.1201 90.9568 60.9819C90.9599 61.7944 90.8737 62.5207 90.6983 63.1609C90.526 63.7979 90.2782 64.3365 89.9551 64.7766C89.6319 65.2167 89.2426 65.5522 88.7871 65.783C88.3316 66.0138 87.8192 66.1293 87.2498 66.1293C86.6527 66.1293 86.1234 66.0123 85.6617 65.7784C85.2032 65.5445 84.8323 65.2244 84.5492 64.8182C84.266 64.4119 84.0921 63.9472 84.0275 63.424H85.7125C85.7987 63.7995 85.9741 64.098 86.2388 64.3196C86.5066 64.5381 86.8436 64.6474 87.2498 64.6474C87.9054 64.6474 88.4101 64.3627 88.764 63.7933C89.1179 63.224 89.2949 62.433 89.2949 61.4205H89.2303C89.0795 61.6913 88.884 61.9252 88.644 62.1222C88.4039 62.3161 88.1316 62.4653 87.8269 62.57C87.5253 62.6746 87.2052 62.7269 86.8666 62.7269C86.3127 62.7269 85.8141 62.5946 85.3709 62.3299C84.9308 62.0652 84.5815 61.7021 84.323 61.2404C84.0675 60.7788 83.9383 60.2509 83.9352 59.657C83.9352 59.0414 84.0768 58.489 84.3599 57.9996C84.6461 57.5072 85.0447 57.1194 85.5556 56.8363C86.0665 56.5501 86.6635 56.41 87.3468 56.4162ZM87.3514 57.8011C87.019 57.8011 86.7189 57.8827 86.4512 58.0458C86.1865 58.2058 85.9772 58.4244 85.8233 58.7013C85.6725 58.9753 85.5971 59.2815 85.5971 59.62C85.6002 59.9555 85.6756 60.2602 85.8233 60.5341C85.9741 60.808 86.1788 61.025 86.4373 61.185C86.6989 61.3451 86.9974 61.4251 87.3329 61.4251C87.5822 61.4251 87.8146 61.3774 88.03 61.282C88.2454 61.1866 88.4332 61.0542 88.5932 60.8849C88.7563 60.7126 88.8825 60.5172 88.9718 60.2987C89.0641 60.0801 89.1087 59.8493 89.1056 59.6062C89.1056 59.283 89.0287 58.9845 88.8748 58.7106C88.724 58.4367 88.5163 58.2166 88.2516 58.0504C87.99 57.8842 87.6899 57.8011 87.3514 57.8011ZM95.4888 66.18C94.7286 66.18 94.0762 65.9877 93.5314 65.603C92.9897 65.2152 92.5727 64.6566 92.2804 63.9272C91.9911 63.1947 91.8464 62.313 91.8464 61.282C91.8495 60.2509 91.9957 59.3738 92.285 58.6506C92.5773 57.9242 92.9944 57.3703 93.536 56.9886C94.0808 56.607 94.7317 56.4162 95.4888 56.4162C96.2459 56.4162 96.8968 56.607 97.4416 56.9886C97.9863 57.3703 98.4033 57.9242 98.6926 58.6506C98.985 59.3769 99.1312 60.254 99.1312 61.282C99.1312 62.3161 98.985 63.1993 98.6926 63.9318C98.4033 64.6612 97.9863 65.2183 97.4416 65.603C96.8999 65.9877 96.249 66.18 95.4888 66.18ZM95.4888 64.7351C96.0797 64.7351 96.546 64.4442 96.8876 63.8626C97.2323 63.2778 97.4046 62.4176 97.4046 61.282C97.4046 60.531 97.3262 59.9001 97.1692 59.3892C97.0122 58.8783 96.7906 58.4936 96.5044 58.2351C96.2182 57.9735 95.8797 57.8427 95.4888 57.8427C94.901 57.8427 94.4362 58.1351 94.0946 58.7198C93.753 59.3015 93.5807 60.1555 93.5776 61.282C93.5745 62.036 93.6499 62.67 93.8038 63.1839C93.9607 63.6979 94.1823 64.0857 94.4686 64.3473C94.7548 64.6058 95.0949 64.7351 95.4888 64.7351Z" fill="black"/>
<path d="M80.3088 88.8359C80.2889 88.6499 80.2051 88.505 80.0574 88.4013C79.9111 88.2976 79.7207 88.2457 79.4864 88.2457C79.3216 88.2457 79.1803 88.2706 79.0624 88.3203C78.9445 88.37 78.8543 88.4375 78.7918 88.5227C78.7293 88.608 78.6973 88.7053 78.6959 88.8146C78.6959 88.9055 78.7165 88.9844 78.7577 89.0511C78.8003 89.1179 78.8578 89.1747 78.9303 89.2216C79.0027 89.267 79.083 89.3054 79.171 89.3366C79.2591 89.3679 79.3479 89.3942 79.4374 89.4155L79.8464 89.5178C80.0112 89.5561 80.1696 89.608 80.3216 89.6733C80.475 89.7386 80.6121 89.821 80.7328 89.9205C80.855 90.0199 80.9516 90.1399 81.0226 90.2805C81.0936 90.4212 81.1291 90.5859 81.1291 90.7749C81.1291 91.0305 81.0638 91.2557 80.9331 91.4503C80.8024 91.6435 80.6135 91.7947 80.3663 91.9041C80.1206 92.0121 79.823 92.0661 79.4736 92.0661C79.1341 92.0661 78.8393 92.0135 78.5893 91.9084C78.3408 91.8033 78.1462 91.6499 78.0055 91.4482C77.8663 91.2464 77.791 91.0007 77.7797 90.7109H78.5574C78.5687 90.8629 78.6156 90.9893 78.698 91.0902C78.7804 91.1911 78.8876 91.2663 79.0197 91.3161C79.1533 91.3658 79.3024 91.3906 79.4672 91.3906C79.6391 91.3906 79.7896 91.3651 79.9189 91.3139C80.0496 91.2614 80.1518 91.1889 80.2257 91.0966C80.2996 91.0028 80.3372 90.8935 80.3386 90.7685C80.3372 90.6548 80.3038 90.5611 80.2385 90.4872C80.1732 90.4119 80.0815 90.3494 79.9636 90.2997C79.8472 90.2486 79.7108 90.2031 79.5545 90.1634L79.0581 90.0355C78.6987 89.9432 78.4146 89.8033 78.2058 89.6158C77.9984 89.4268 77.8947 89.1761 77.8947 88.8636C77.8947 88.6065 77.9643 88.3814 78.1035 88.1882C78.2442 87.995 78.4352 87.8452 78.6767 87.7386C78.9182 87.6307 79.1916 87.5767 79.497 87.5767C79.8067 87.5767 80.078 87.6307 80.3109 87.7386C80.5453 87.8452 80.7293 87.9936 80.8628 88.1839C80.9963 88.3729 81.0652 88.5902 81.0695 88.8359H80.3088ZM81.7997 93.2273V88.7273H82.5583V89.2685H82.603C82.6428 89.1889 82.6989 89.1044 82.7713 89.0149C82.8438 88.924 82.9418 88.8466 83.0654 88.7827C83.189 88.7173 83.3466 88.6847 83.5384 88.6847C83.7912 88.6847 84.0192 88.7493 84.2223 88.8786C84.4269 89.0064 84.5888 89.196 84.7081 89.4474C84.8289 89.6974 84.8892 90.0043 84.8892 90.3679C84.8892 90.7273 84.8303 91.0327 84.7124 91.2841C84.5945 91.5355 84.434 91.7273 84.2309 91.8594C84.0277 91.9915 83.7976 92.0575 83.5405 92.0575C83.353 92.0575 83.1975 92.0263 83.0739 91.9638C82.9503 91.9013 82.8509 91.826 82.7756 91.7379C82.7017 91.6484 82.6442 91.5639 82.603 91.4844H82.5711V93.2273H81.7997ZM82.5561 90.3636C82.5561 90.5753 82.586 90.7607 82.6456 90.9197C82.7067 91.0788 82.7941 91.2031 82.9077 91.2926C83.0228 91.3807 83.162 91.4247 83.3253 91.4247C83.4958 91.4247 83.6385 91.3793 83.7536 91.2884C83.8686 91.196 83.9553 91.0703 84.0135 90.9112C84.0732 90.7507 84.103 90.5682 84.103 90.3636C84.103 90.1605 84.0739 89.9801 84.0157 89.8224C83.9574 89.6648 83.8708 89.5412 83.7557 89.4517C83.6407 89.3622 83.4972 89.3175 83.3253 89.3175C83.1605 89.3175 83.0206 89.3608 82.9056 89.4474C82.7905 89.5341 82.7032 89.6555 82.6435 89.8118C82.5853 89.968 82.5561 90.152 82.5561 90.3636ZM86.9986 92.0639C86.6705 92.0639 86.3871 91.9957 86.1485 91.8594C85.9113 91.7216 85.7287 91.527 85.6009 91.2756C85.473 91.0227 85.4091 90.7251 85.4091 90.3828C85.4091 90.0462 85.473 89.7507 85.6009 89.4964C85.7301 89.2408 85.9105 89.0419 86.1421 88.8999C86.3736 88.7564 86.6456 88.6847 86.9581 88.6847C87.1598 88.6847 87.3502 88.7173 87.5292 88.7827C87.7096 88.8466 87.8686 88.946 88.0064 89.081C88.1456 89.2159 88.255 89.3878 88.3346 89.5966C88.4141 89.804 88.4539 90.0511 88.4539 90.3381V90.5746H85.7713V90.0547H87.7145C87.7131 89.907 87.6811 89.7756 87.6186 89.6605C87.5561 89.544 87.4688 89.4524 87.3566 89.3857C87.2458 89.3189 87.1165 89.2855 86.9688 89.2855C86.8111 89.2855 86.6726 89.3239 86.5533 89.4006C86.434 89.4759 86.3409 89.5753 86.2742 89.6989C86.2088 89.821 86.1755 89.9553 86.174 90.1016V90.5554C86.174 90.7457 86.2088 90.9091 86.2784 91.0455C86.348 91.1804 86.4453 91.2841 86.5703 91.3565C86.6953 91.4276 86.8417 91.4631 87.0093 91.4631C87.1215 91.4631 87.223 91.4474 87.314 91.4162C87.4049 91.3835 87.4837 91.3359 87.5505 91.2734C87.6172 91.2109 87.6676 91.1335 87.7017 91.0412L88.4219 91.1222C88.3765 91.3125 88.2898 91.4787 88.162 91.6207C88.0355 91.7614 87.8736 91.8707 87.6762 91.9489C87.4787 92.0256 87.2529 92.0639 86.9986 92.0639ZM90.0482 92.0661C89.8408 92.0661 89.654 92.0291 89.4878 91.9553C89.323 91.88 89.1923 91.7692 89.0957 91.6229C89.0006 91.4766 88.953 91.2962 88.953 91.0817C88.953 90.897 88.9871 90.7443 89.0553 90.6236C89.1234 90.5028 89.2165 90.4062 89.3344 90.3338C89.4523 90.2614 89.5851 90.2067 89.7328 90.1697C89.882 90.1314 90.0361 90.1037 90.1952 90.0866C90.3869 90.0668 90.5425 90.049 90.6618 90.0334C90.7811 90.0163 90.8678 89.9908 90.9217 89.9567C90.9771 89.9212 91.0048 89.8665 91.0048 89.7926V89.7798C91.0048 89.6193 90.9572 89.495 90.8621 89.407C90.7669 89.3189 90.6298 89.2749 90.4509 89.2749C90.2619 89.2749 90.1121 89.3161 90.0013 89.3984C89.8919 89.4808 89.818 89.5781 89.7797 89.6903L89.0595 89.5881C89.1163 89.3892 89.2101 89.223 89.3408 89.0895C89.4714 88.9545 89.6312 88.8537 89.8202 88.7869C90.0091 88.7188 90.2179 88.6847 90.4466 88.6847C90.6043 88.6847 90.7612 88.7031 90.9175 88.7401C91.0737 88.777 91.2165 88.8381 91.3457 88.9233C91.475 89.0071 91.5787 89.1214 91.6568 89.2663C91.7364 89.4112 91.7761 89.5923 91.7761 89.8097V92H91.0347V91.5504H91.0091C90.9622 91.6413 90.8962 91.7266 90.8109 91.8061C90.7271 91.8842 90.6213 91.9474 90.4935 91.9957C90.367 92.0426 90.2186 92.0661 90.0482 92.0661ZM90.2484 91.4993C90.4033 91.4993 90.5375 91.4687 90.6511 91.4077C90.7648 91.3452 90.8521 91.2628 90.9132 91.1605C90.9757 91.0582 91.007 90.9467 91.007 90.826V90.4403C90.9828 90.4602 90.9416 90.4787 90.8834 90.4957C90.8266 90.5128 90.7626 90.5277 90.6916 90.5405C90.6206 90.5533 90.5503 90.5646 90.4807 90.5746C90.4111 90.5845 90.3507 90.593 90.2996 90.6001C90.1845 90.6158 90.0815 90.6413 89.9906 90.6768C89.8997 90.7124 89.828 90.7621 89.7754 90.826C89.7229 90.8885 89.6966 90.9695 89.6966 91.0689C89.6966 91.2109 89.7484 91.3182 89.8521 91.3906C89.9558 91.4631 90.0879 91.4993 90.2484 91.4993ZM93.2548 90.973L93.2527 90.0419H93.3763L94.5524 88.7273H95.4537L94.007 90.3381H93.8472L93.2548 90.973ZM92.5517 92V87.6364H93.323V92H92.5517ZM94.6057 92L93.5403 90.5107L94.0602 89.9673L95.5283 92H94.6057ZM95.9677 92V88.7273H96.739V92H95.9677ZM96.3555 88.2628C96.2333 88.2628 96.1282 88.2223 96.0402 88.1413C95.9521 88.0589 95.9081 87.9602 95.9081 87.8452C95.9081 87.7287 95.9521 87.63 96.0402 87.549C96.1282 87.4666 96.2333 87.4254 96.3555 87.4254C96.4791 87.4254 96.5842 87.4666 96.6708 87.549C96.7589 87.63 96.8029 87.7287 96.8029 87.8452C96.8029 87.9602 96.7589 88.0589 96.6708 88.1413C96.5842 88.2223 96.4791 88.2628 96.3555 88.2628ZM98.3035 90.0824V92H97.5322V88.7273H98.2694V89.2834H98.3077C98.383 89.1001 98.5031 88.9545 98.6678 88.8466C98.834 88.7386 99.0393 88.6847 99.2836 88.6847C99.5094 88.6847 99.7062 88.733 99.8738 88.8295C100.043 88.9261 100.174 89.0661 100.266 89.2493C100.36 89.4325 100.406 89.6548 100.404 89.9162V92H99.633V90.0355C99.633 89.8168 99.5762 89.6456 99.4626 89.522C99.3504 89.3984 99.1948 89.3366 98.9959 89.3366C98.861 89.3366 98.741 89.3665 98.6359 89.4261C98.5322 89.4844 98.4505 89.5689 98.3908 89.6797C98.3326 89.7905 98.3035 89.9247 98.3035 90.0824ZM102.612 93.2955C102.335 93.2955 102.097 93.2578 101.898 93.1825C101.699 93.1087 101.539 93.0092 101.419 92.8842C101.298 92.7592 101.214 92.6207 101.167 92.4688L101.862 92.3004C101.893 92.3643 101.938 92.4276 101.998 92.4901C102.058 92.554 102.138 92.6065 102.239 92.6477C102.341 92.6903 102.47 92.7116 102.625 92.7116C102.843 92.7116 103.024 92.6584 103.168 92.5518C103.311 92.4467 103.383 92.2734 103.383 92.032V91.4119H103.345C103.305 91.4915 103.247 91.5732 103.17 91.657C103.095 91.7408 102.995 91.8111 102.87 91.8679C102.746 91.9247 102.59 91.9531 102.403 91.9531C102.151 91.9531 101.924 91.8942 101.719 91.7763C101.516 91.657 101.354 91.4794 101.233 91.2436C101.114 91.0064 101.054 90.7095 101.054 90.353C101.054 89.9936 101.114 89.6903 101.233 89.4432C101.354 89.1946 101.517 89.0064 101.721 88.8786C101.926 88.7493 102.154 88.6847 102.405 88.6847C102.597 88.6847 102.754 88.7173 102.878 88.7827C103.003 88.8466 103.102 88.924 103.176 89.0149C103.25 89.1044 103.306 89.1889 103.345 89.2685H103.387V88.7273H104.148V92.0533C104.148 92.3331 104.081 92.5646 103.948 92.7479C103.814 92.9311 103.632 93.0682 103.4 93.1591C103.169 93.25 102.906 93.2955 102.612 93.2955ZM102.618 91.348C102.781 91.348 102.921 91.3082 103.036 91.2287C103.151 91.1491 103.238 91.0348 103.298 90.8857C103.357 90.7365 103.387 90.5575 103.387 90.3487C103.387 90.1428 103.357 89.9624 103.298 89.8075C103.24 89.6527 103.153 89.5327 103.038 89.4474C102.924 89.3608 102.784 89.3175 102.618 89.3175C102.446 89.3175 102.303 89.3622 102.188 89.4517C102.073 89.5412 101.986 89.6641 101.928 89.8203C101.87 89.9751 101.84 90.1513 101.84 90.3487C101.84 90.549 101.87 90.7244 101.928 90.875C101.987 91.0241 102.075 91.1406 102.19 91.2244C102.306 91.3068 102.449 91.348 102.618 91.348Z" fill="black"/>
<path d="M160.549 61C160.549 71.2173 152.266 79.5 142.049 79.5C131.832 79.5 123.549 71.2173 123.549 61C123.549 50.7827 131.832 42.5 142.049 42.5C152.266 42.5 160.549 50.7827 160.549 61Z" stroke="#E9D6FF" stroke-width="3"/>
<path fillRule="evenodd" clipRule="evenodd" d="M128.702 46.0584C124.604 49.7209 122.025 55.0469 122.025 60.9754C122.025 72.0211 130.979 80.9754 142.025 80.9754C153.07 80.9754 162.025 72.0211 162.025 60.9754C162.025 50.2651 153.606 41.521 143.025 41V44.0044C151.948 44.522 159.025 51.9223 159.025 60.9754C159.025 70.3643 151.413 77.9754 142.025 77.9754C132.636 77.9754 125.025 70.3643 125.025 60.9754C125.025 55.9322 127.221 51.4018 130.709 48.2885L128.702 46.0584Z" fill="#9232FF"/>
<path d="M139.681 66.1293C138.995 66.1293 138.386 66.0138 137.853 65.783C137.324 65.5522 136.908 65.2367 136.607 64.8366C136.308 64.4335 136.16 63.9764 136.163 63.4656C136.16 63.0685 136.247 62.7038 136.422 62.3714C136.597 62.0391 136.834 61.7621 137.133 61.5405C137.435 61.3158 137.77 61.1727 138.139 61.1112V61.0465C137.653 60.9388 137.259 60.6911 136.957 60.3033C136.659 59.9124 136.511 59.4615 136.514 58.9506C136.511 58.4644 136.647 58.0304 136.921 57.6488C137.194 57.2672 137.57 56.9671 138.047 56.7486C138.524 56.527 139.069 56.4162 139.681 56.4162C140.288 56.4162 140.828 56.527 141.302 56.7486C141.779 56.9671 142.154 57.2672 142.428 57.6488C142.705 58.0304 142.844 58.4644 142.844 58.9506C142.844 59.4615 142.691 59.9124 142.386 60.3033C142.085 60.6911 141.696 60.9388 141.219 61.0465V61.1112C141.588 61.1727 141.92 61.3158 142.216 61.5405C142.514 61.7621 142.751 62.0391 142.927 62.3714C143.105 62.7038 143.194 63.0685 143.194 63.4656C143.194 63.9764 143.044 64.4335 142.742 64.8366C142.44 65.2367 142.025 65.5522 141.495 65.783C140.969 66.0138 140.364 66.1293 139.681 66.1293ZM139.681 64.8089C140.035 64.8089 140.343 64.7489 140.605 64.6289C140.866 64.5058 141.069 64.3335 141.214 64.1119C141.359 63.8903 141.432 63.6348 141.435 63.3455C141.432 63.0439 141.354 62.7777 141.2 62.5469C141.049 62.313 140.841 62.1299 140.577 61.9975C140.315 61.8652 140.017 61.799 139.681 61.799C139.343 61.799 139.041 61.8652 138.776 61.9975C138.512 62.1299 138.302 62.313 138.149 62.5469C137.998 62.7777 137.924 63.0439 137.927 63.3455C137.924 63.6348 137.995 63.8903 138.139 64.1119C138.284 64.3304 138.487 64.5012 138.749 64.6243C139.013 64.7474 139.324 64.8089 139.681 64.8089ZM139.681 60.5018C139.971 60.5018 140.226 60.4433 140.448 60.3263C140.672 60.2094 140.849 60.0463 140.978 59.837C141.108 59.6277 141.174 59.3861 141.177 59.1122C141.174 58.8414 141.109 58.6044 140.983 58.4013C140.857 58.1951 140.681 58.0366 140.457 57.9258C140.232 57.8119 139.974 57.755 139.681 57.755C139.383 57.755 139.12 57.8119 138.892 57.9258C138.667 58.0366 138.492 58.1951 138.366 58.4013C138.242 58.6044 138.182 58.8414 138.185 59.1122C138.182 59.3861 138.244 59.6277 138.37 59.837C138.499 60.0432 138.676 60.2063 138.901 60.3263C139.129 60.4433 139.389 60.5018 139.681 60.5018ZM148.058 56.5455V66H146.345V58.212H146.289L144.078 59.6246V58.055L146.428 56.5455H148.058Z" fill="black"/>
<path d="M129.638 92V87.6364H130.428V91.3374H132.35V92H129.638ZM133.002 92V88.7273H133.773V92H133.002ZM133.39 88.2628C133.268 88.2628 133.163 88.2223 133.074 88.1413C132.986 88.0589 132.942 87.9602 132.942 87.8452C132.942 87.7287 132.986 87.63 133.074 87.549C133.163 87.4666 133.268 87.4254 133.39 87.4254C133.513 87.4254 133.618 87.4666 133.705 87.549C133.793 87.63 133.837 87.7287 133.837 87.8452C133.837 87.9602 133.793 88.0589 133.705 88.1413C133.618 88.2223 133.513 88.2628 133.39 88.2628ZM137.153 89.5923L136.45 89.669C136.43 89.598 136.395 89.5312 136.346 89.4688C136.297 89.4062 136.232 89.3558 136.15 89.3175C136.067 89.2791 135.966 89.2599 135.847 89.2599C135.687 89.2599 135.552 89.2947 135.442 89.3643C135.334 89.4339 135.281 89.5241 135.282 89.6349C135.281 89.7301 135.316 89.8075 135.387 89.8672C135.459 89.9268 135.579 89.9759 135.745 90.0142L136.303 90.1335C136.613 90.2003 136.843 90.3061 136.993 90.451C137.145 90.5959 137.222 90.7855 137.223 91.0199C137.222 91.2259 137.162 91.4077 137.042 91.5653C136.924 91.7216 136.76 91.8437 136.55 91.9318C136.34 92.0199 136.098 92.0639 135.826 92.0639C135.425 92.0639 135.103 91.9801 134.858 91.8125C134.614 91.6435 134.468 91.4084 134.422 91.1072L135.174 91.0348C135.208 91.1825 135.28 91.294 135.391 91.3693C135.502 91.4446 135.646 91.4822 135.824 91.4822C136.007 91.4822 136.154 91.4446 136.265 91.3693C136.377 91.294 136.433 91.201 136.433 91.0902C136.433 90.9964 136.397 90.919 136.324 90.858C136.253 90.7969 136.142 90.75 135.992 90.7173L135.434 90.6001C135.12 90.5348 134.887 90.4247 134.737 90.2699C134.586 90.1136 134.512 89.9162 134.513 89.6776C134.512 89.4759 134.566 89.3011 134.677 89.1534C134.789 89.0043 134.945 88.8892 135.144 88.8082C135.344 88.7259 135.575 88.6847 135.836 88.6847C136.22 88.6847 136.522 88.7663 136.742 88.9297C136.963 89.093 137.101 89.3139 137.153 89.5923ZM139.494 88.7273V89.3239H137.612V88.7273H139.494ZM138.077 87.9432H138.848V91.0156C138.848 91.1193 138.864 91.1989 138.895 91.2543C138.928 91.3082 138.97 91.3452 139.023 91.3651C139.075 91.3849 139.134 91.3949 139.198 91.3949C139.246 91.3949 139.29 91.3913 139.33 91.3842C139.371 91.3771 139.402 91.3707 139.423 91.3651L139.553 91.968C139.512 91.9822 139.453 91.9979 139.376 92.0149C139.301 92.032 139.209 92.0419 139.099 92.0447C138.906 92.0504 138.732 92.0213 138.577 91.9574C138.423 91.892 138.3 91.7912 138.209 91.6548C138.119 91.5185 138.075 91.348 138.077 91.1435V87.9432ZM141.552 92.0639C141.224 92.0639 140.941 91.9957 140.702 91.8594C140.465 91.7216 140.283 91.527 140.155 91.2756C140.027 91.0227 139.963 90.7251 139.963 90.3828C139.963 90.0462 140.027 89.7507 140.155 89.4964C140.284 89.2408 140.464 89.0419 140.696 88.8999C140.927 88.7564 141.199 88.6847 141.512 88.6847C141.714 88.6847 141.904 88.7173 142.083 88.7827C142.263 88.8466 142.422 88.946 142.56 89.081C142.699 89.2159 142.809 89.3878 142.888 89.5966C142.968 89.804 143.008 90.0511 143.008 90.3381V90.5746H140.325V90.0547H142.268C142.267 89.907 142.235 89.7756 142.172 89.6605C142.11 89.544 142.023 89.4524 141.91 89.3857C141.8 89.3189 141.67 89.2855 141.523 89.2855C141.365 89.2855 141.226 89.3239 141.107 89.4006C140.988 89.4759 140.895 89.5753 140.828 89.6989C140.763 89.821 140.729 89.9553 140.728 90.1016V90.5554C140.728 90.7457 140.763 90.9091 140.832 91.0455C140.902 91.1804 140.999 91.2841 141.124 91.3565C141.249 91.4276 141.395 91.4631 141.563 91.4631C141.675 91.4631 141.777 91.4474 141.868 91.4162C141.959 91.3835 142.038 91.3359 142.104 91.2734C142.171 91.2109 142.221 91.1335 142.256 91.0412L142.976 91.1222C142.93 91.3125 142.844 91.4787 142.716 91.6207C142.589 91.7614 142.427 91.8707 142.23 91.9489C142.033 92.0256 141.807 92.0639 141.552 92.0639ZM144.432 90.0824V92H143.66V88.7273H144.397V89.2834H144.436C144.511 89.1001 144.631 88.9545 144.796 88.8466C144.962 88.7386 145.167 88.6847 145.412 88.6847C145.637 88.6847 145.834 88.733 146.002 88.8295C146.171 88.9261 146.302 89.0661 146.394 89.2493C146.488 89.4325 146.534 89.6548 146.532 89.9162V92H145.761V90.0355C145.761 89.8168 145.704 89.6456 145.591 89.522C145.478 89.3984 145.323 89.3366 145.124 89.3366C144.989 89.3366 144.869 89.3665 144.764 89.4261C144.66 89.4844 144.579 89.5689 144.519 89.6797C144.461 89.7905 144.432 89.9247 144.432 90.0824ZM147.316 92V88.7273H148.088V92H147.316ZM147.704 88.2628C147.582 88.2628 147.477 88.2223 147.389 88.1413C147.301 88.0589 147.257 87.9602 147.257 87.8452C147.257 87.7287 147.301 87.63 147.389 87.549C147.477 87.4666 147.582 87.4254 147.704 87.4254C147.828 87.4254 147.933 87.4666 148.02 87.549C148.108 87.63 148.152 87.7287 148.152 87.8452C148.152 87.9602 148.108 88.0589 148.02 88.1413C147.933 88.2223 147.828 88.2628 147.704 88.2628ZM149.652 90.0824V92H148.881V88.7273H149.618V89.2834H149.656C149.732 89.1001 149.852 88.9545 150.017 88.8466C150.183 88.7386 150.388 88.6847 150.632 88.6847C150.858 88.6847 151.055 88.733 151.223 88.8295C151.392 88.9261 151.522 89.0661 151.615 89.2493C151.708 89.4325 151.755 89.6548 151.753 89.9162V92H150.982V90.0355C150.982 89.8168 150.925 89.6456 150.811 89.522C150.699 89.3984 150.544 89.3366 150.345 89.3366C150.21 89.3366 150.09 89.3665 149.985 89.4261C149.881 89.4844 149.799 89.5689 149.74 89.6797C149.681 89.7905 149.652 89.9247 149.652 90.0824ZM153.96 93.2955C153.683 93.2955 153.446 93.2578 153.247 93.1825C153.048 93.1087 152.888 93.0092 152.767 92.8842C152.647 92.7592 152.563 92.6207 152.516 92.4688L153.21 92.3004C153.242 92.3643 153.287 92.4276 153.347 92.4901C153.406 92.554 153.487 92.6065 153.588 92.6477C153.69 92.6903 153.818 92.7116 153.973 92.7116C154.192 92.7116 154.373 92.6584 154.517 92.5518C154.66 92.4467 154.732 92.2734 154.732 92.032V91.4119H154.693C154.654 91.4915 154.595 91.5732 154.519 91.657C154.443 91.7408 154.343 91.8111 154.218 91.8679C154.095 91.9247 153.939 91.9531 153.752 91.9531C153.5 91.9531 153.272 91.8942 153.068 91.7763C152.865 91.657 152.703 91.4794 152.582 91.2436C152.463 91.0064 152.403 90.7095 152.403 90.353C152.403 89.9936 152.463 89.6903 152.582 89.4432C152.703 89.1946 152.865 89.0064 153.07 88.8786C153.274 88.7493 153.502 88.6847 153.754 88.6847C153.946 88.6847 154.103 88.7173 154.227 88.7827C154.352 88.8466 154.451 88.924 154.525 89.0149C154.599 89.1044 154.655 89.1889 154.693 89.2685H154.736V88.7273H155.497V92.0533C155.497 92.3331 155.43 92.5646 155.296 92.7479C155.163 92.9311 154.98 93.0682 154.749 93.1591C154.517 93.25 154.255 93.2955 153.96 93.2955ZM153.967 91.348C154.13 91.348 154.269 91.3082 154.384 91.2287C154.5 91.1491 154.587 91.0348 154.647 90.8857C154.706 90.7365 154.736 90.5575 154.736 90.3487C154.736 90.1428 154.706 89.9624 154.647 89.8075C154.588 89.6527 154.502 89.5327 154.387 89.4474C154.273 89.3608 154.133 89.3175 153.967 89.3175C153.795 89.3175 153.652 89.3622 153.536 89.4517C153.421 89.5412 153.335 89.6641 153.277 89.8203C153.218 89.9751 153.189 90.1513 153.189 90.3487C153.189 90.549 153.218 90.7244 153.277 90.875C153.336 91.0241 153.424 91.1406 153.539 91.2244C153.655 91.3068 153.798 91.348 153.967 91.348Z" fill="black"/>
<path d="M211.573 61C211.573 71.2173 203.291 79.5 193.073 79.5C182.856 79.5 174.573 71.2173 174.573 61C174.573 50.7827 182.856 42.5 193.073 42.5C203.291 42.5 211.573 50.7827 211.573 61Z" stroke="#E0EEFF" stroke-width="3"/>
<path fillRule="evenodd" clipRule="evenodd" d="M183.79 43.2433C177.406 46.5837 173.049 53.2708 173.049 60.9754C173.049 72.0211 182.003 80.9754 193.049 80.9754C204.095 80.9754 213.049 72.0211 213.049 60.9754C213.049 50.2651 204.63 41.521 194.049 41V44.0044C202.972 44.522 210.049 51.9223 210.049 60.9754C210.049 70.3643 202.438 77.9754 193.049 77.9754C183.66 77.9754 176.049 70.3643 176.049 60.9754C176.049 54.4053 179.776 48.7057 185.232 45.8756L183.79 43.2433Z" fill="#27AAE2"/>
<path d="M189.715 66.1293C189.029 66.1293 188.42 66.0138 187.887 65.783C187.358 65.5522 186.942 65.2367 186.641 64.8366C186.342 64.4335 186.195 63.9764 186.198 63.4656C186.195 63.0685 186.281 62.7038 186.456 62.3714C186.632 62.0391 186.869 61.7621 187.167 61.5405C187.469 61.3158 187.804 61.1727 188.173 61.1112V61.0465C187.687 60.9388 187.293 60.6911 186.992 60.3033C186.693 59.9124 186.545 59.4615 186.548 58.9506C186.545 58.4644 186.681 58.0304 186.955 57.6488C187.229 57.2672 187.604 56.9671 188.081 56.7486C188.558 56.527 189.103 56.4162 189.715 56.4162C190.322 56.4162 190.862 56.527 191.336 56.7486C191.813 56.9671 192.188 57.2672 192.462 57.6488C192.739 58.0304 192.878 58.4644 192.878 58.9506C192.878 59.4615 192.725 59.9124 192.421 60.3033C192.119 60.6911 191.73 60.9388 191.253 61.0465V61.1112C191.622 61.1727 191.954 61.3158 192.25 61.5405C192.548 61.7621 192.785 62.0391 192.961 62.3714C193.139 62.7038 193.229 63.0685 193.229 63.4656C193.229 63.9764 193.078 64.4335 192.776 64.8366C192.475 65.2367 192.059 65.5522 191.53 65.783C191.003 66.0138 190.399 66.1293 189.715 66.1293ZM189.715 64.8089C190.069 64.8089 190.377 64.7489 190.639 64.6289C190.9 64.5058 191.103 64.3335 191.248 64.1119C191.393 63.8903 191.467 63.6348 191.47 63.3455C191.467 63.0439 191.388 62.7777 191.234 62.5469C191.083 62.313 190.876 62.1299 190.611 61.9975C190.349 61.8652 190.051 61.799 189.715 61.799C189.377 61.799 189.075 61.8652 188.811 61.9975C188.546 62.1299 188.337 62.313 188.183 62.5469C188.032 62.7777 187.958 63.0439 187.961 63.3455C187.958 63.6348 188.029 63.8903 188.173 64.1119C188.318 64.3304 188.521 64.5012 188.783 64.6243C189.048 64.7474 189.358 64.8089 189.715 64.8089ZM189.715 60.5018C190.005 60.5018 190.26 60.4433 190.482 60.3263C190.706 60.2094 190.883 60.0463 191.013 59.837C191.142 59.6277 191.208 59.3861 191.211 59.1122C191.208 58.8414 191.143 58.6044 191.017 58.4013C190.891 58.1951 190.716 58.0366 190.491 57.9258C190.266 57.8119 190.008 57.755 189.715 57.755C189.417 57.755 189.154 57.8119 188.926 57.9258C188.701 58.0366 188.526 58.1951 188.4 58.4013C188.277 58.6044 188.217 58.8414 188.22 59.1122C188.217 59.3861 188.278 59.6277 188.404 59.837C188.534 60.0432 188.711 60.2063 188.935 60.3263C189.163 60.4433 189.423 60.5018 189.715 60.5018ZM197.533 66.1293C196.918 66.1293 196.367 66.0138 195.88 65.783C195.394 65.5491 195.008 65.229 194.722 64.8228C194.439 64.4165 194.288 63.9518 194.269 63.4286H195.931C195.962 63.8164 196.13 64.1334 196.434 64.3796C196.739 64.6228 197.105 64.7443 197.533 64.7443C197.869 64.7443 198.167 64.6674 198.429 64.5135C198.69 64.3596 198.897 64.1457 199.047 63.8718C199.198 63.5979 199.272 63.2855 199.269 62.9347C199.272 62.5777 199.197 62.2607 199.043 61.9837C198.889 61.7067 198.678 61.4897 198.41 61.3327C198.143 61.1727 197.835 61.0927 197.487 61.0927C197.204 61.0896 196.925 61.1419 196.651 61.2496C196.377 61.3574 196.161 61.4989 196 61.6744L194.454 61.4205L194.948 56.5455H200.432V57.9766H196.365L196.093 60.4833H196.148C196.324 60.2771 196.571 60.1063 196.891 59.9709C197.212 59.8324 197.562 59.7631 197.944 59.7631C198.516 59.7631 199.027 59.8986 199.477 60.1694C199.926 60.4371 200.28 60.8065 200.538 61.2773C200.797 61.7482 200.926 62.2868 200.926 62.8931C200.926 63.5179 200.782 64.0749 200.492 64.5643C200.206 65.0505 199.808 65.4337 199.297 65.7138C198.789 65.9908 198.201 66.1293 197.533 66.1293Z" fill="black"/>
<path d="M181.7 92V87.6364H183.337C183.672 87.6364 183.953 87.6946 184.18 87.8111C184.409 87.9276 184.582 88.0909 184.698 88.3011C184.816 88.5099 184.875 88.7536 184.875 89.032C184.875 89.3118 184.815 89.5547 184.696 89.7607C184.578 89.9652 184.404 90.1236 184.174 90.2358C183.944 90.3466 183.661 90.402 183.326 90.402H182.16V89.7457H183.219C183.415 89.7457 183.576 89.7187 183.701 89.6648C183.826 89.6094 183.918 89.5291 183.978 89.424C184.039 89.3175 184.069 89.1868 184.069 89.032C184.069 88.8771 184.039 88.745 183.978 88.6357C183.917 88.5249 183.824 88.4411 183.699 88.3842C183.574 88.326 183.413 88.2969 183.215 88.2969H182.491V92H181.7ZM183.954 90.0227L185.035 92H184.153L183.092 90.0227H183.954ZM186.97 92.0639C186.642 92.0639 186.359 91.9957 186.12 91.8594C185.883 91.7216 185.701 91.527 185.573 91.2756C185.445 91.0227 185.381 90.7251 185.381 90.3828C185.381 90.0462 185.445 89.7507 185.573 89.4964C185.702 89.2408 185.882 89.0419 186.114 88.8999C186.345 88.7564 186.617 88.6847 186.93 88.6847C187.132 88.6847 187.322 88.7173 187.501 88.7827C187.681 88.8466 187.84 88.946 187.978 89.081C188.117 89.2159 188.227 89.3878 188.306 89.5966C188.386 89.804 188.426 90.0511 188.426 90.3381V90.5746H185.743V90.0547H187.686C187.685 89.907 187.653 89.7756 187.59 89.6605C187.528 89.544 187.441 89.4524 187.328 89.3857C187.218 89.3189 187.088 89.2855 186.941 89.2855C186.783 89.2855 186.644 89.3239 186.525 89.4006C186.406 89.4759 186.313 89.5753 186.246 89.6989C186.181 89.821 186.147 89.9553 186.146 90.1016V90.5554C186.146 90.7457 186.181 90.9091 186.25 91.0455C186.32 91.1804 186.417 91.2841 186.542 91.3565C186.667 91.4276 186.813 91.4631 186.981 91.4631C187.093 91.4631 187.195 91.4474 187.286 91.4162C187.377 91.3835 187.455 91.3359 187.522 91.2734C187.589 91.2109 187.639 91.1335 187.674 91.0412L188.394 91.1222C188.348 91.3125 188.262 91.4787 188.134 91.6207C188.007 91.7614 187.845 91.8707 187.648 91.9489C187.451 92.0256 187.225 92.0639 186.97 92.0639ZM190.02 92.0661C189.813 92.0661 189.626 92.0291 189.46 91.9553C189.295 91.88 189.164 91.7692 189.068 91.6229C188.972 91.4766 188.925 91.2962 188.925 91.0817C188.925 90.897 188.959 90.7443 189.027 90.6236C189.095 90.5028 189.188 90.4062 189.306 90.3338C189.424 90.2614 189.557 90.2067 189.705 90.1697C189.854 90.1314 190.008 90.1037 190.167 90.0866C190.359 90.0668 190.514 90.049 190.634 90.0334C190.753 90.0163 190.84 89.9908 190.894 89.9567C190.949 89.9212 190.977 89.8665 190.977 89.7926V89.7798C190.977 89.6193 190.929 89.495 190.834 89.407C190.739 89.3189 190.602 89.2749 190.423 89.2749C190.234 89.2749 190.084 89.3161 189.973 89.3984C189.864 89.4808 189.79 89.5781 189.751 89.6903L189.031 89.5881C189.088 89.3892 189.182 89.223 189.313 89.0895C189.443 88.9545 189.603 88.8537 189.792 88.7869C189.981 88.7188 190.19 88.6847 190.418 88.6847C190.576 88.6847 190.733 88.7031 190.889 88.7401C191.046 88.777 191.188 88.8381 191.318 88.9233C191.447 89.0071 191.55 89.1214 191.629 89.2663C191.708 89.4112 191.748 89.5923 191.748 89.8097V92H191.006V91.5504H190.981C190.934 91.6413 190.868 91.7266 190.783 91.8061C190.699 91.8842 190.593 91.9474 190.465 91.9957C190.339 92.0426 190.19 92.0661 190.02 92.0661ZM190.22 91.4993C190.375 91.4993 190.509 91.4687 190.623 91.4077C190.737 91.3452 190.824 91.2628 190.885 91.1605C190.948 91.0582 190.979 90.9467 190.979 90.826V90.4403C190.955 90.4602 190.913 90.4787 190.855 90.4957C190.798 90.5128 190.734 90.5277 190.663 90.5405C190.592 90.5533 190.522 90.5646 190.452 90.5746C190.383 90.5845 190.323 90.593 190.271 90.6001C190.156 90.6158 190.053 90.6413 189.962 90.6768C189.872 90.7124 189.8 90.7621 189.747 90.826C189.695 90.8885 189.668 90.9695 189.668 91.0689C189.668 91.2109 189.72 91.3182 189.824 91.3906C189.928 91.4631 190.06 91.4993 190.22 91.4993ZM193.738 92.0575C193.481 92.0575 193.251 91.9915 193.048 91.8594C192.845 91.7273 192.684 91.5355 192.566 91.2841C192.448 91.0327 192.389 90.7273 192.389 90.3679C192.389 90.0043 192.449 89.6974 192.568 89.4474C192.689 89.196 192.852 89.0064 193.056 88.8786C193.261 88.7493 193.489 88.6847 193.74 88.6847C193.932 88.6847 194.09 88.7173 194.213 88.7827C194.337 88.8466 194.435 88.924 194.507 89.0149C194.58 89.1044 194.636 89.1889 194.675 89.2685H194.707V87.6364H195.481V92H194.722V91.4844H194.675C194.636 91.5639 194.578 91.6484 194.503 91.7379C194.428 91.826 194.328 91.9013 194.205 91.9638C194.081 92.0263 193.925 92.0575 193.738 92.0575ZM193.953 91.4247C194.117 91.4247 194.256 91.3807 194.371 91.2926C194.486 91.2031 194.573 91.0788 194.633 90.9197C194.693 90.7607 194.722 90.5753 194.722 90.3636C194.722 90.152 194.693 89.968 194.633 89.8118C194.575 89.6555 194.488 89.5341 194.373 89.4474C194.259 89.3608 194.119 89.3175 193.953 89.3175C193.781 89.3175 193.638 89.3622 193.523 89.4517C193.408 89.5412 193.321 89.6648 193.263 89.8224C193.205 89.9801 193.175 90.1605 193.175 90.3636C193.175 90.5682 193.205 90.7507 193.263 90.9112C193.323 91.0703 193.41 91.196 193.525 91.2884C193.641 91.3793 193.784 91.4247 193.953 91.4247ZM196.303 92V88.7273H197.074V92H196.303ZM196.691 88.2628C196.568 88.2628 196.463 88.2223 196.375 88.1413C196.287 88.0589 196.243 87.9602 196.243 87.8452C196.243 87.7287 196.287 87.63 196.375 87.549C196.463 87.4666 196.568 87.4254 196.691 87.4254C196.814 87.4254 196.919 87.4666 197.006 87.549C197.094 87.63 197.138 87.7287 197.138 87.8452C197.138 87.9602 197.094 88.0589 197.006 88.1413C196.919 88.2223 196.814 88.2628 196.691 88.2628ZM198.639 90.0824V92H197.867V88.7273H198.604V89.2834H198.643C198.718 89.1001 198.838 88.9545 199.003 88.8466C199.169 88.7386 199.374 88.6847 199.619 88.6847C199.845 88.6847 200.041 88.733 200.209 88.8295C200.378 88.9261 200.509 89.0661 200.601 89.2493C200.695 89.4325 200.741 89.6548 200.739 89.9162V92H199.968V90.0355C199.968 89.8168 199.911 89.6456 199.798 89.522C199.685 89.3984 199.53 89.3366 199.331 89.3366C199.196 89.3366 199.076 89.3665 198.971 89.4261C198.867 89.4844 198.786 89.5689 198.726 89.6797C198.668 89.7905 198.639 89.9247 198.639 90.0824ZM202.947 93.2955C202.67 93.2955 202.432 93.2578 202.233 93.1825C202.034 93.1087 201.874 93.0092 201.754 92.8842C201.633 92.7592 201.549 92.6207 201.502 92.4688L202.197 92.3004C202.228 92.3643 202.274 92.4276 202.333 92.4901C202.393 92.554 202.473 92.6065 202.574 92.6477C202.676 92.6903 202.805 92.7116 202.96 92.7116C203.178 92.7116 203.359 92.6584 203.503 92.5518C203.646 92.4467 203.718 92.2734 203.718 92.032V91.4119H203.68C203.64 91.4915 203.582 91.5732 203.505 91.657C203.43 91.7408 203.33 91.8111 203.205 91.8679C203.081 91.9247 202.925 91.9531 202.738 91.9531C202.487 91.9531 202.259 91.8942 202.054 91.7763C201.851 91.657 201.689 91.4794 201.568 91.2436C201.449 91.0064 201.389 90.7095 201.389 90.353C201.389 89.9936 201.449 89.6903 201.568 89.4432C201.689 89.1946 201.852 89.0064 202.056 88.8786C202.261 88.7493 202.489 88.6847 202.74 88.6847C202.932 88.6847 203.09 88.7173 203.213 88.7827C203.338 88.8466 203.438 88.924 203.511 89.0149C203.585 89.1044 203.641 89.1889 203.68 89.2685H203.722V88.7273H204.483V92.0533C204.483 92.3331 204.416 92.5646 204.283 92.7479C204.149 92.9311 203.967 93.0682 203.735 93.1591C203.504 93.25 203.241 93.2955 202.947 93.2955ZM202.953 91.348C203.117 91.348 203.256 91.3082 203.371 91.2287C203.486 91.1491 203.573 91.0348 203.633 90.8857C203.693 90.7365 203.722 90.5575 203.722 90.3487C203.722 90.1428 203.693 89.9624 203.633 89.8075C203.575 89.6527 203.488 89.5327 203.373 89.4474C203.259 89.3608 203.119 89.3175 202.953 89.3175C202.781 89.3175 202.638 89.3622 202.523 89.4517C202.408 89.5412 202.321 89.6641 202.263 89.8203C202.205 89.9751 202.175 90.1513 202.175 90.3487C202.175 90.549 202.205 90.7244 202.263 90.875C202.323 91.0241 202.41 91.1406 202.525 91.2244C202.641 91.3068 202.784 91.348 202.953 91.348Z" fill="black"/>
</svg>
