<svg width="990" height="602" viewBox="0 0 990 602" fill="none" xmlns="http://www.w3.org/2000/svg">
<path d="M749.089 79.5038V79.5191C749.087 79.5127 749.085 79.5063 749.083 79.5C749.085 79.5012 749.087 79.5025 749.089 79.5038ZM749.089 79.5038C749.265 79.6126 749.438 79.7195 749.606 79.8242C749.584 79.7556 749.563 79.687 749.541 79.6184C749.395 79.5301 749.244 79.4417 749.089 79.3534V79.5038ZM511.262 65.8202H511.342C511.234 45.5884 511.117 25.357 510.992 5.12619H510.592C510.717 25.3304 510.833 45.5352 510.942 65.7404L511.262 65.8202ZM520.843 68.522C520.975 68.5542 521.109 68.5828 521.244 68.6068C520.952 50.3392 520.64 32.0714 520.309 13.8036C520.172 13.7875 520.038 13.775 519.908 13.7665C520.239 32.0184 520.551 50.2703 520.843 68.522ZM530.68 63.9513C530.786 63.9105 530.892 63.8697 530.998 63.8295C530.914 60.6824 530.828 57.5353 530.741 54.3882C530.597 54.3301 530.462 54.2701 530.336 54.2087C530.426 57.4662 530.515 60.7238 530.602 63.9813C530.628 63.9713 530.654 63.9613 530.68 63.9513ZM540.211 58.4385H540.612C540.596 58.0202 540.58 57.6018 540.564 57.1834C540.423 57.1429 540.288 57.092 540.157 57.033C540.175 57.5015 540.193 57.97 540.211 58.4385ZM540.153 46.6326C540.25 49.1037 540.347 51.5748 540.442 54.046C540.302 54.015 540.167 53.9768 540.038 53.9323C539.939 51.3979 539.84 48.8636 539.74 46.3293C539.875 46.4325 540.013 46.5335 540.153 46.6326ZM539.614 33.1984C539.649 34.0424 539.683 34.8864 539.717 35.7304C539.645 35.746 539.577 35.7553 539.508 35.7581C539.445 35.7607 539.383 35.7578 539.317 35.7494C539.28 34.8272 539.243 33.905 539.205 32.9829C539.351 33.0459 539.488 33.1172 539.614 33.1984ZM539.438 28.8782C539.458 29.3678 539.478 29.8574 539.498 30.347H539.097C539.074 29.7849 539.051 29.2228 539.028 28.6606C539.166 28.7317 539.302 28.8041 539.438 28.8782ZM529.698 18.1852C529.707 18.4722 529.715 18.7591 529.724 19.046C529.58 18.957 529.445 18.8759 529.316 18.802C529.302 18.3317 529.288 17.8613 529.274 17.3909L529.351 17.429L529.556 18.0442C529.604 18.0914 529.651 18.1384 529.698 18.1852ZM529.785 21.0713C529.652 21.0229 529.517 20.9786 529.38 20.9377C529.513 25.3728 529.643 29.8079 529.771 34.2429H530.171C530.044 29.8524 529.915 25.4619 529.785 21.0713ZM529.846 36.8385C529.831 36.3263 529.817 35.8142 529.802 35.3021C529.959 35.3635 530.093 35.4164 530.207 35.4624C530.217 35.8127 530.227 36.1631 530.237 36.5135L529.846 36.8385ZM530.257 37.2209C530.126 37.154 529.991 37.0724 529.85 36.9727C529.981 41.5334 530.11 46.094 530.237 50.6546C530.375 50.6305 530.507 50.6071 530.635 50.5844C530.511 46.1299 530.385 41.6754 530.257 37.2209ZM501.849 2.46005C501.694 27.4971 501.551 52.5349 501.421 77.5734C501.282 77.7276 501.147 77.8882 501.018 78.0576C501.149 52.8553 501.293 27.6538 501.449 2.45301C501.566 2.45748 501.694 2.45931 501.849 2.46005ZM500.675 673.376H500.275C500.31 686.267 500.348 699.157 500.389 712.048L500.787 711.499C500.747 698.791 500.709 686.084 500.675 673.376ZM492.735 2.05047C492.234 28.923 491.777 55.7953 491.362 82.6676C491.229 82.7413 491.094 82.8136 490.959 82.8841C491.374 55.9397 491.833 28.9951 492.335 2.05047H492.735ZM489.186 671.61C489.049 671.566 488.915 671.522 488.784 671.479C488.92 688.33 489.072 705.182 489.241 722.033C489.371 721.867 489.502 721.698 489.636 721.527C489.469 704.889 489.319 688.25 489.186 671.61ZM483.884 0.205047C483.018 27.9549 482.229 55.7047 481.517 83.4543H481.116C481.829 55.7047 482.618 27.9549 483.483 0.205047H483.884ZM477.758 660.008C477.62 659.926 477.485 659.847 477.354 659.771C477.67 684.783 478.048 709.794 478.488 734.805C478.606 734.547 478.735 734.288 478.875 734.026C478.442 709.354 478.069 684.681 477.758 660.008ZM471.295 88.9013C471.166 92.5402 471.039 96.1792 470.913 99.8182C470.766 99.9253 470.63 100.026 470.502 100.123C471.65 66.8166 472.953 33.5108 474.411 0.205047H474.811C473.527 29.5444 472.363 58.8839 471.319 88.2236L471.179 88.7856C471.218 88.8247 471.257 88.8632 471.295 88.9013ZM465.423 1.84543H465.261C463.079 40.6624 461.169 79.4795 459.53 118.297C459.669 118.079 459.813 117.86 459.958 117.642C460.11 114.035 460.265 110.427 460.423 106.819C460.244 106.397 460.189 105.932 460.479 105.531C461.995 70.8847 463.727 36.2389 465.676 1.59312L465.423 1.84543ZM456.584 0.615142L456.722 0.595434C456.73 0.480424 456.738 0.365414 456.746 0.250404L456.342 0.290676C456.33 0.467181 456.318 0.643685 456.306 0.820189C456.305 0.838332 456.304 0.856474 456.302 0.874617C453.419 42.9547 450.924 85.0325 448.817 127.109C448.937 127.152 449.069 127.192 449.211 127.229C451.32 85.0979 453.819 42.9648 456.706 0.829421C456.707 0.826344 456.707 0.823266 456.707 0.820189C456.709 0.794465 456.711 0.768741 456.712 0.743017L456.584 0.615142ZM456.749 0.205047L456.749 0.210136L456.344 0.260564C456.346 0.242058 456.347 0.223553 456.348 0.205047H456.749ZM456.763 0C456.762 0.0130033 456.761 0.0260065 456.761 0.0390098L456.355 0.106441C456.357 0.0709608 456.36 0.0354804 456.362 0L456.763 0ZM447.723 0.526739C447.59 0.536064 447.455 0.544842 447.319 0.553221C447.278 1.05231 447.238 1.55139 447.197 2.05047H447.599C447.64 1.54256 447.681 1.03465 447.723 0.526739ZM438.685 1.05282C438.549 1.06969 438.414 1.08649 438.278 1.10311C438.273 1.16454 438.267 1.22597 438.261 1.28741C438.395 1.27265 438.53 1.25908 438.667 1.24585C438.673 1.18151 438.679 1.11716 438.685 1.05282ZM429.249 1.84543C429.214 2.17442 429.178 2.50342 429.143 2.83241C429.278 2.81584 429.414 2.79928 429.551 2.78271C429.584 2.47028 429.618 2.15785 429.651 1.84543H429.249ZM420.817 2.93905L420.406 3.0074C420.391 3.13233 420.376 3.25725 420.361 3.38217L420.773 3.30747C420.788 3.18466 420.803 3.06185 420.817 2.93905ZM411.679 4.93867C411.631 5.30513 411.582 5.67159 411.533 6.03805C411.404 6.09092 411.262 6.14831 411.107 6.21088C411.159 5.81261 411.212 5.41435 411.265 5.01609L411.679 4.93867ZM411.861 3.57503C411.828 3.82674 411.794 4.07844 411.76 4.33015C411.62 4.36241 411.481 4.3948 411.344 4.4272C411.379 4.16385 411.414 3.90049 411.449 3.63713C411.587 3.61521 411.724 3.59442 411.861 3.57503ZM402.802 5.07057L402.385 5.15366C402.267 5.9627 402.148 6.77174 402.03 7.58077L402.452 7.46054C402.568 6.66389 402.685 5.86723 402.802 5.07057ZM393.552 6.61939C393.484 6.63461 393.416 6.64976 393.348 6.6648C393.335 6.74568 393.322 6.82657 393.309 6.90745L393.73 6.81214C393.743 6.73187 393.756 6.6516 393.768 6.57133C393.696 6.58738 393.624 6.60342 393.552 6.61939ZM393.199 7.5973C393.23 7.4069 393.26 7.2165 393.29 7.0261C393.431 6.99324 393.571 6.95934 393.712 6.92401C393.608 7.57369 393.504 8.22338 393.401 8.87306C393.275 8.90229 393.135 8.93479 392.98 8.97094C393.052 8.51624 393.125 8.06154 393.198 7.60684C393.223 7.6002 393.248 7.5935 393.273 7.58676L393.199 7.5973ZM384.434 9.43218L384.103 9.54223C384.017 10.04 383.931 10.5377 383.845 11.0354L384.272 10.9137C384.359 10.4124 384.445 9.911 384.532 9.40962L384.434 9.43218ZM383.301 14.2004C383.335 13.9993 383.37 13.7982 383.404 13.5971L383.839 13.4304C383.798 13.6642 383.758 13.898 383.718 14.1318C383.563 14.1613 383.425 14.1838 383.301 14.2004ZM375.577 11.0102C375.511 11.3635 375.446 11.7168 375.38 12.0701L374.942 12.2382C375.009 11.8769 375.076 11.5157 375.143 11.1545L375.577 11.0102ZM375.815 9.73739C375.759 10.0395 375.702 10.3415 375.646 10.6436L375.595 10.6625L375.211 10.7901C375.273 10.4625 375.334 10.1348 375.395 9.80722L375.815 9.73739ZM366.756 11.8928L366.519 11.9625C366.418 12.4635 366.318 12.9645 366.217 13.4655L366.653 13.3283C366.749 12.8498 366.845 12.3713 366.941 11.8928H366.756ZM365.845 15.3307C365.894 15.083 365.944 14.8353 365.993 14.5876L366.425 14.4679C366.37 14.743 366.315 15.018 366.26 15.293L365.845 15.3307ZM364.963 19.7787C365.082 19.1788 365.2 18.5789 365.319 17.979L365.754 17.842C365.634 18.4448 365.515 19.0477 365.396 19.6506C365.255 19.6937 365.11 19.7365 364.963 19.7787ZM356.71 19.5729C356.608 20.0554 356.505 20.5379 356.403 21.0204L355.952 21.2232C356.06 20.7126 356.168 20.202 356.276 19.6913C356.428 19.6472 356.573 19.608 356.71 19.5729ZM357.173 17.3963C357.076 17.8495 356.98 18.3027 356.883 18.7559L356.684 18.8644L356.431 18.9616C356.536 18.4655 356.642 17.9695 356.747 17.4735L357.173 17.3963ZM357.693 14.9623C357.669 15.0755 357.645 15.1887 357.621 15.3019L357.195 15.3791C357.216 15.2803 357.237 15.1816 357.258 15.0828L357.693 14.9623ZM358.127 12.9416C358.105 13.0435 358.084 13.1455 358.062 13.2474C357.917 13.2982 357.768 13.3697 357.604 13.4703C357.635 13.3285 357.665 13.1867 357.696 13.0448L358.127 12.9416ZM348.739 16.8102C348.709 16.9393 348.679 17.0684 348.65 17.1975L348.203 17.358C348.233 17.2268 348.263 17.0956 348.293 16.9644C348.443 16.9118 348.591 16.8604 348.739 16.8102ZM349.192 14.8347L348.753 14.9561C348.745 14.9938 348.736 15.0315 348.727 15.0691C348.724 15.0827 348.721 15.0962 348.718 15.1097C348.678 15.284 348.638 15.4584 348.598 15.6328L349.037 15.5076C349.076 15.3388 349.115 15.1699 349.153 15.0011C349.155 14.9918 349.158 14.9826 349.16 14.9733C349.17 14.9271 349.181 14.8809 349.192 14.8347ZM340.215 17.1431C340.211 17.1615 340.206 17.1798 340.202 17.1982L339.745 17.3802C339.755 17.3432 339.764 17.3063 339.773 17.2693L340.215 17.1431ZM331.229 19.4637C331.082 19.505 330.933 19.5471 330.783 19.5898C330.751 19.7129 330.719 19.836 330.687 19.9591L331.136 19.8224C331.167 19.7028 331.198 19.5832 331.229 19.4637ZM322.22 22.0902C322.064 22.1364 321.913 22.1807 321.769 22.2232C321.747 22.305 321.724 22.3868 321.702 22.4686L322.154 22.3313C322.176 22.2509 322.198 22.1706 322.22 22.0902ZM313.293 24.6399L312.834 24.7854C312.814 24.8534 312.795 24.9214 312.775 24.9893L313.236 24.8361C313.255 24.7707 313.274 24.7053 313.293 24.6399ZM312.719 25.182C312.731 25.1399 312.744 25.0978 312.756 25.0557L313.224 24.876C313.208 24.9313 313.192 24.9865 313.176 25.0417L312.719 25.182ZM312.622 25.5187C312.636 25.4713 312.649 25.4239 312.663 25.3765L313.117 25.2472C313.105 25.2867 313.094 25.3261 313.082 25.3655L312.622 25.5187ZM304.113 28.856L303.643 29.0264C303.613 29.1249 303.583 29.2233 303.553 29.3218H303.651L303.511 29.4619C303.488 29.5349 303.466 29.608 303.444 29.681L303.896 29.5682C303.968 29.3308 304.041 29.0934 304.113 28.856ZM302.862 31.6019C302.978 31.2162 303.095 30.8305 303.212 30.4448L303.681 30.2778C303.56 30.6748 303.44 31.0717 303.32 31.4686L302.862 31.6019ZM293.032 38.334C292.944 38.6134 292.856 38.8928 292.768 39.1722L292.296 39.3383C292.367 39.1116 292.439 38.8849 292.51 38.6583C292.723 38.5294 292.894 38.423 293.032 38.334ZM293.648 36.386C293.594 36.555 293.541 36.7241 293.487 36.8931L293.003 37.0963C293.06 36.9157 293.118 36.7351 293.175 36.5545L293.648 36.386ZM291.934 41.6246L291.417 42.1405C290.894 43.8139 290.374 45.4874 289.857 47.1608C289.997 47.0949 290.141 47.0266 290.29 46.9559L290.341 46.948C290.894 45.161 291.45 43.3741 292.009 41.5872L291.934 41.6246ZM284.166 41.0411C283.888 41.8798 283.611 42.7185 283.335 43.5572L282.822 43.8347C283.105 42.975 283.389 42.1152 283.674 41.2555C283.837 41.1842 284.001 41.1128 284.166 41.0411ZM286.546 33.9186C286.241 34.8236 285.937 35.7286 285.634 36.6336L285.137 36.8591C285.445 35.9384 285.754 35.0178 286.064 34.0971C286.224 34.0352 286.385 33.9754 286.546 33.9186ZM277.395 37.6805L276.897 37.8915C276.608 38.708 276.321 39.5245 276.035 40.341L276.528 40.1443C276.816 39.323 277.105 38.5018 277.395 37.6805ZM268.123 41.7332L267.614 41.9565C267.404 42.526 267.194 43.0955 266.985 43.665C266.926 43.8237 266.868 43.9823 266.81 44.141C264.897 49.3495 263.02 54.5581 261.177 59.7666L261.611 59.7395C263.477 54.4672 265.378 49.1948 267.316 43.9224C267.372 43.7702 267.428 43.6179 267.484 43.4657C267.697 42.8882 267.909 42.3107 268.123 41.7332ZM258.953 45.8235L258.435 46.0559C258.197 46.6704 257.96 47.285 257.724 47.8995C257.688 47.9931 257.652 48.0867 257.616 48.1804C257.451 48.611 257.286 49.0417 257.121 49.4723L257.401 49.4164L257.059 49.6335C255.122 54.6941 253.219 59.7547 251.352 64.8153L251.44 64.795L251.877 64.5488C253.921 59.0153 256.006 53.4819 258.134 47.9485C258.165 47.8666 258.197 47.7846 258.228 47.7027C258.469 47.0763 258.711 46.4499 258.953 45.8235ZM249.59 50.4417L249.258 50.6276C249.051 51.1406 248.845 51.6535 248.639 52.1665L249.159 51.944C249.38 51.3938 249.602 50.8436 249.824 50.2933L249.59 50.4417ZM247.387 55.2971C247.636 54.6723 247.885 54.0475 248.135 53.4228L248.674 53.1543C248.403 53.8288 248.134 54.5034 247.865 55.1779L247.387 55.2971ZM238.704 59.1325L238.184 59.3397C237.09 61.9692 236.006 64.5986 234.933 67.228L235.463 66.9876C236.533 64.3692 237.613 61.7508 238.704 59.1325ZM231.288 59.2741C231.235 59.3953 231.182 59.5166 231.129 59.6378L231.09 59.6688L230.541 59.9836C230.602 59.8435 230.663 59.7033 230.725 59.5632L231.288 59.2741ZM222.03 63.7856C222.009 63.8312 221.988 63.8768 221.967 63.9223L221.384 64.2353C221.407 64.1847 221.431 64.1341 221.454 64.0835L222.03 63.7856ZM212.557 68.8359C212.538 68.8761 212.519 68.9162 212.5 68.9564L211.9 69.2873C211.916 69.2538 211.931 69.2204 211.947 69.1869L212.557 68.8359ZM212.493 68.9709C212.287 69.0942 212.08 69.2181 211.873 69.3426C162.892 172.368 132.816 275.413 121.644 378.464L122.056 378.37C133.255 275.228 163.4 172.091 212.493 68.9709ZM202.656 75.0073C202.441 75.1418 202.226 75.2766 202.011 75.4117C150.237 180.487 119.148 285.564 108.745 390.642L109.153 390.581C119.581 285.39 150.749 180.199 202.656 75.0073ZM192.629 81.376C192.406 81.5194 192.183 81.6629 191.96 81.8065C139.855 183.787 108.282 285.752 97.2449 387.717L97.6758 387.454C108.759 285.441 140.409 183.42 192.629 81.376ZM182.762 87.7714C182.53 87.9224 182.299 88.0731 182.069 88.2236C129.082 188.117 96.8913 287.995 85.5005 387.872L85.9677 387.309C97.4378 287.476 129.701 187.636 182.762 87.7714ZM172.546 94.4601C172.307 94.6167 172.07 94.7725 171.833 94.9276C116.121 196.473 83.0335 298.003 72.5754 399.534L73.0606 398.733C83.6314 297.322 116.792 195.904 172.546 94.4601ZM161.829 101.969C161.565 102.16 161.305 102.348 161.048 102.534C91.6367 224.987 56.9263 347.448 56.9263 469.916C56.9263 481.802 57.2533 493.689 57.9072 505.575L58.3262 505.905C57.6596 493.908 57.3264 481.912 57.3264 469.916C57.3264 347.274 92.1574 224.626 161.829 101.969ZM150.549 110.44C150.261 110.668 149.973 110.898 149.683 111.13C79.831 230.737 44.9001 350.323 44.9001 469.917C44.9001 478.654 45.0866 487.392 45.4595 496.13L45.8728 496.43C45.4911 487.592 45.3002 478.754 45.3002 469.917C45.3002 350.108 80.3798 230.293 150.549 110.44ZM137.963 121.006C137.642 121.286 137.316 121.572 136.984 121.862C67.5823 237.906 32.876 353.959 32.876 470.019C32.876 475.191 32.9449 480.363 33.0827 485.535L33.5005 486.181C33.3509 480.794 33.276 475.406 33.276 470.019C33.276 353.689 68.168 237.352 137.963 121.006ZM125.874 130.415C125.821 130.501 125.768 130.587 125.715 130.673C125.368 130.98 125.023 131.287 124.679 131.594C124.741 131.494 124.803 131.393 124.865 131.292C125.198 131 125.534 130.707 125.874 130.415ZM124.096 133.312C123.757 133.616 123.413 133.924 123.064 134.236C60.8791 236.377 27.0653 338.522 21.6319 440.662L21.944 442.375C27.1073 339.371 61.155 236.347 124.096 133.312ZM109.637 146.294C109.286 146.608 108.933 146.926 108.576 147.247C55.3061 233.403 23.3694 319.565 12.7723 405.732L13.0339 406.892C23.5311 320.032 55.73 233.166 109.637 146.294ZM91.7235 164.653L90.0097 166.933C42.9328 243.638 13.7257 320.347 2.39384 397.054L2.63768 398.149C13.9943 320.166 43.8414 242.171 92.1847 164.168L91.7235 164.653ZM55.7352 213.67L55.0174 214.148C53.2214 217.426 51.4599 220.704 49.733 223.982L49.3791 224.732L48.4869 227.224C50.8373 222.706 53.2534 218.188 55.7352 213.67ZM0 351.421C8.4566 318.088 20.4844 284.756 36.0829 251.425L38.0594 248.172C21.7082 282.572 9.164 316.97 0.426236 351.368C0.286122 351.387 0.145049 351.406 0 351.421ZM0.440454 411.759C0.675882 409.763 0.923413 407.767 1.18305 405.771L1.6817 405.044C1.34695 407.587 1.03186 410.13 0.736428 412.672L0.456938 411.94L0.440454 411.759ZM9.4609 444.164L9.81288 445.167C9.95883 442.092 10.132 439.017 10.3323 435.941L10.3236 435.931L10.4114 434.748C10.5098 433.29 10.6142 431.831 10.7248 430.373L10.3813 429.619C10.0069 434.467 9.70013 439.316 9.4609 444.164ZM69.9768 507.366L70.3217 506.334C69.831 497.134 69.5263 487.934 69.4075 478.734L69.0033 478.412C69.1233 488.063 69.4478 497.715 69.9768 507.366ZM81.9014 509.321L82.3295 509.82C81.9119 502.296 81.6125 494.772 81.4311 487.248L81.0333 487.347C81.2108 494.672 81.5001 501.997 81.9014 509.321ZM94.546 521.469C94.6799 521.463 94.8133 521.457 94.9459 521.453C94.0783 508.676 93.5334 495.899 93.3111 483.122L92.9124 483.208C93.1357 495.962 93.6802 508.715 94.546 521.469ZM107.135 530.802L107.55 530.983C105.689 506.593 104.943 482.204 105.312 457.814L104.91 457.914C104.546 482.21 105.288 506.506 107.135 530.802ZM119.486 538.43C119.646 538.713 119.802 538.99 119.955 539.262C118.966 527.268 118.233 515.274 117.757 503.28L117.418 503.186L117.354 503.225C117.82 514.96 118.53 526.695 119.486 538.43ZM133.118 558.329L133.547 558.599C131.725 540.364 130.465 522.129 129.767 503.894L129.368 503.952C130.063 522.078 131.313 540.203 133.118 558.329ZM145.935 568.558C146.063 568.542 146.195 568.523 146.332 568.503C145.826 563.703 145.357 558.903 144.926 554.104L144.472 553.519C144.919 558.532 145.407 563.545 145.935 568.558ZM169.899 653.806C168.945 648.689 168.032 643.572 167.158 638.456C167.288 638.428 167.419 638.402 167.551 638.378C168.429 643.524 169.348 648.669 170.307 653.815C170.171 653.815 170.035 653.812 169.899 653.806ZM176.913 688.225C174.933 679.277 173.076 670.329 171.34 661.381C171.449 661.278 171.566 661.176 171.688 661.075C173.481 670.33 175.405 679.584 177.459 688.839C177.274 688.637 177.092 688.432 176.913 688.225ZM190.277 700.232C190.455 700.408 190.631 700.586 190.805 700.766C185.077 674.955 180.31 649.144 176.504 623.333C176.383 623.44 176.264 623.548 176.147 623.655C179.918 649.181 184.628 674.706 190.277 700.232ZM207.299 729.589C207.487 729.782 207.671 729.979 207.85 730.182C197.522 686.6 189.788 643.02 184.648 599.443C184.544 599.622 184.431 599.8 184.308 599.978C189.423 643.179 197.087 686.383 207.299 729.589ZM223.192 752.998C223.345 753.077 223.501 753.152 223.659 753.224C206.88 684.573 196.199 615.923 191.618 547.272C191.487 547.272 191.354 547.272 191.217 547.272C195.792 615.847 206.45 684.423 223.192 752.998ZM233.591 754.026C233.729 754.025 233.866 754.026 234.002 754.028C217.65 683.54 207.386 613.052 203.21 542.564C203.079 542.655 202.951 542.745 202.825 542.832C207.01 613.23 217.266 683.629 233.591 754.026ZM245.202 760.196C245.389 760.411 245.574 760.627 245.758 760.846C228.901 685.82 218.567 610.8 214.755 535.781C214.606 536.735 214.701 538.073 214.851 540.095C214.761 540.095 214.671 540.095 214.581 540.096C218.552 613.46 228.759 686.825 245.202 760.196ZM258.012 772.408C258.157 772.457 258.304 772.503 258.452 772.547C241.5 695.968 230.982 619.382 226.899 542.789C226.777 542.917 226.651 543.05 226.52 543.187C230.614 619.601 241.112 696.008 258.012 772.408ZM292.959 874.168C294.241 876.995 294.931 879.358 295.061 881.635C297.75 891.099 300.532 900.563 303.406 910.028C303.806 910.84 304.19 911.663 304.574 912.488C266.648 788.345 244.682 664.18 238.676 540.011C238.538 539.935 238.401 539.858 238.264 539.782C243.637 651.252 261.869 762.719 292.959 874.168ZM318.864 935.414C319.025 935.509 319.191 935.6 319.365 935.686C318.594 933.143 317.83 930.6 317.072 928.056L316.395 927.02H316.763C279.229 800.775 257.241 674.556 250.801 548.341C250.668 548.334 250.534 548.327 250.399 548.32C256.979 677.339 279.801 806.364 318.864 935.414ZM330.617 948.596C330.485 948.145 330.353 947.695 330.221 947.245C330.39 947.346 330.559 947.446 330.726 947.544C330.879 948.069 331.033 948.594 331.188 949.12C331.025 948.963 330.865 948.814 330.701 948.67C330.673 948.645 330.645 948.62 330.617 948.596ZM332.736 955.768C332.245 954.118 331.756 952.469 331.271 950.819C331.435 950.908 331.6 950.996 331.765 951.083C332.248 952.721 332.733 954.358 333.221 955.995C333.059 955.92 332.897 955.844 332.736 955.768ZM343.733 967.704C343.28 966.12 342.828 964.536 342.379 962.952C342.503 962.892 342.626 962.838 342.749 962.787C343.245 964.539 343.744 966.291 344.246 968.043C344.075 967.93 343.903 967.817 343.733 967.704ZM353.417 975.551C353.588 975.674 353.759 975.795 353.931 975.915C314.795 832.559 292.294 689.203 286.428 545.848C286.3 545.821 286.166 545.794 286.024 545.765C291.879 689.027 314.343 832.29 353.417 975.551ZM362.851 981.972L363.145 982.131C360.443 971.683 357.823 961.235 355.286 950.787C355.08 950.617 354.921 950.472 354.76 950.318C357.302 960.798 359.927 971.278 362.636 981.758L362.851 981.972ZM371.409 986.593L371.883 986.848C370.839 982.561 369.808 978.274 368.79 973.987C368.615 973.793 368.433 973.6 368.241 973.406C369.284 977.802 370.34 982.197 371.409 986.593ZM380.323 991.405C380.407 991.488 380.49 991.571 380.63 991.683C379.97 988.798 379.316 985.914 378.667 983.029C378.533 982.91 378.366 982.765 378.157 982.584C378.81 985.49 379.468 988.396 380.132 991.301L380.323 991.405ZM388.225 994.159C388.363 994.189 388.506 994.221 388.655 994.254C388.337 992.762 388.02 991.27 387.705 989.778C387.567 989.737 387.422 989.696 387.27 989.655C387.587 991.156 387.905 992.658 388.225 994.159ZM396.151 994.685C396.232 994.604 396.313 994.515 396.393 994.422C396.276 993.83 396.16 993.239 396.043 992.648C395.885 992.566 395.735 992.491 395.591 992.42C395.74 993.178 395.889 993.937 396.039 994.695C396.076 994.692 396.113 994.689 396.151 994.685ZM378.783 895.95C378.807 896.104 378.832 896.258 378.857 896.413L378.641 897.594C378.388 896.016 378.135 894.438 377.884 892.86C378.076 893.443 378.223 893.981 378.37 894.52C378.498 894.987 378.626 895.454 378.783 895.95ZM385.926 884.218C386.064 884.218 386.198 884.216 386.329 884.213C372.235 785.786 363.163 687.36 359.114 588.933C358.974 588.878 358.839 588.825 358.707 588.773C362.752 687.255 371.825 785.736 385.926 884.218ZM393.588 870.25C393.682 869.922 393.776 869.601 393.87 869.29C382.413 778.435 374.866 687.58 371.229 596.725C371.087 596.648 370.95 596.572 370.819 596.495C374.466 687.747 382.055 778.999 393.588 870.25ZM402.345 862.145C402.486 862.169 402.623 862.189 402.754 862.202C394.469 788.471 388.52 714.733 384.907 640.992C384.78 641.012 384.648 641.028 384.509 641.04C388.121 714.745 394.066 788.448 402.345 862.145ZM410.731 847.862C410.854 847.77 410.979 847.679 411.107 847.59C404.2 776.57 399.241 705.555 396.231 634.543C396.096 634.495 395.961 634.447 395.824 634.398C398.838 705.549 403.807 776.703 410.731 847.862ZM418.128 818.99C418.251 818.857 418.374 818.724 418.498 818.591C413.759 759.304 410.229 700.018 407.907 640.731C407.778 640.741 407.645 640.753 407.508 640.765C409.835 700.174 413.375 759.582 418.128 818.99ZM427.945 811.776C428.077 811.775 428.211 811.774 428.345 811.772C424.494 755.775 421.588 699.778 419.628 643.782C419.494 643.753 419.36 643.724 419.225 643.696C421.185 699.723 424.091 755.75 427.945 811.776ZM438.073 807.106C438.194 806.978 438.319 806.844 438.45 806.705C435.363 753.855 433.001 701.008 431.367 648.163C431.233 648.091 431.097 648.019 430.96 647.947C432.599 700.998 434.97 754.051 438.073 807.106ZM448.522 806.576C448.655 806.573 448.788 806.57 448.922 806.567C446.496 757.286 444.603 708.007 443.243 658.73C443.109 658.814 442.978 658.895 442.849 658.972C444.209 708.172 446.1 757.373 448.522 806.576ZM458.687 801.082C458.816 800.971 458.945 800.853 459.073 800.729C457.182 753.077 455.698 705.428 454.624 657.781C454.487 657.726 454.353 657.673 454.22 657.62C455.298 705.438 456.786 753.258 458.687 801.082ZM468.725 784.025C468.831 783.696 468.953 783.372 469.096 783.034C467.891 741.694 466.924 700.357 466.196 659.021C466.063 659.021 465.93 659.021 465.796 659.02C466.53 700.687 467.506 742.355 468.725 784.025ZM447.546 2.70423C444.376 41.8127 441.605 80.9192 439.231 120.024C439.123 120.003 439.015 119.98 438.906 119.953H438.834C441.204 80.9268 443.969 41.8993 447.131 2.86972C447.137 2.78959 447.144 2.70945 447.15 2.62931C447.16 2.50472 447.171 2.38012 447.181 2.25552H447.54C447.554 2.24818 447.569 2.24091 447.584 2.23369C447.574 2.35217 447.565 2.47065 447.555 2.58912C447.552 2.62749 447.549 2.66586 447.546 2.70423ZM438.402 4.06783C434.821 42.2883 431.681 80.5087 428.982 118.729C428.856 118.626 428.73 118.519 428.603 118.409C431.296 80.3179 434.426 42.227 437.993 4.13605C438.014 3.9193 438.034 3.70256 438.054 3.48581C438.115 2.84407 438.175 2.20233 438.235 1.56059C438.372 1.53959 438.508 1.51661 438.644 1.49229C438.587 2.09191 438.531 2.69154 438.474 3.29116C438.45 3.55005 438.426 3.80894 438.402 4.06783ZM420.75 93.9136C420.436 97.5582 420.126 101.203 419.822 104.847C419.711 104.572 419.601 104.294 419.49 104.015C419.765 100.733 420.044 97.4519 420.326 94.1704C420.471 94.0931 420.612 94.0084 420.75 93.9136ZM420.719 89.6293C420.853 89.6005 420.989 89.5773 421.127 89.5605C421.865 81.0834 422.629 72.6064 423.417 64.1293C423.287 64.1538 423.152 64.1702 423.011 64.1767C422.222 72.6609 421.458 81.1451 420.719 89.6293ZM423.652 57.3284C423.779 57.3307 423.912 57.3349 424.053 57.3408C424.139 56.436 424.224 55.5312 424.311 54.6265C424.177 54.6145 424.044 54.603 423.912 54.5924C423.825 55.5044 423.739 56.4164 423.652 57.3284ZM424.073 52.9022H424.312C424.365 52.9377 424.416 52.9716 424.465 53.0041C424.552 52.1001 424.638 51.1961 424.725 50.2921C424.596 50.1512 424.48 49.9761 424.374 49.7587C424.274 50.8065 424.173 51.8544 424.073 52.9022ZM414.979 54.3249C414.886 55.1924 414.794 56.0598 414.701 56.9273C414.575 56.9115 414.443 56.8953 414.304 56.8787C414.386 56.1125 414.467 55.3462 414.549 54.58C414.687 54.4857 414.831 54.4015 414.979 54.3249ZM424.883 44.5034C425.001 44.4748 425.136 44.4477 425.293 44.4207C426.473 32.3243 427.702 20.2279 428.982 8.13144L428.629 8.2019H428.572C427.292 20.3024 426.063 32.4029 424.883 44.5034ZM428.855 5.53628C428.947 4.67171 429.039 3.80713 429.131 2.94256C429.267 2.92147 429.404 2.9007 429.54 2.88016C429.446 3.76553 429.351 4.65091 429.257 5.53628H428.855ZM420.406 3.8959H420.702C420.722 3.73568 420.741 3.57546 420.76 3.41524L420.406 3.48581L420.348 3.49507C420.331 3.63448 420.314 3.77389 420.297 3.9133C420.333 3.90754 420.37 3.90174 420.406 3.8959ZM420.669 4.1706C420.533 4.18793 420.397 4.20405 420.261 4.21869C420.147 5.17025 420.033 6.12181 419.92 7.07337L420.352 6.82697C420.457 5.94152 420.563 5.05606 420.669 4.1706ZM419.639 9.43218C419.21 13.0547 418.785 16.6772 418.366 20.2997H418.769C419.188 16.6772 419.613 13.0547 420.042 9.43218H419.639ZM411.457 6.61414C411.391 7.11091 411.325 7.60768 411.259 8.10445C411.121 8.13727 410.982 8.1695 410.843 8.2012C410.91 7.69505 410.977 7.1889 411.044 6.68275L411.457 6.61414ZM410.745 10.6625C410.664 10.6874 410.585 10.7117 410.508 10.7356C410.368 11.8048 410.228 12.874 410.088 13.9432H410.492C410.634 12.8496 410.778 11.7561 410.922 10.6625H410.745ZM409.343 19.6846C409.555 18.0442 409.767 16.4038 409.981 14.7634H410.384C410.162 16.4725 409.94 18.1816 409.72 19.8907L409.717 19.8896V19.6846H409.343ZM384.179 634.172C383.926 628.785 383.685 623.399 383.457 618.013H383.857C384.084 623.37 384.324 628.728 384.576 634.085C384.441 634.118 384.31 634.147 384.179 634.172ZM402.405 7.7831C402.209 9.12437 402.014 10.4656 401.82 11.8069C401.678 11.8666 401.534 11.925 401.391 11.9815C401.539 10.9546 401.688 9.92776 401.838 8.90088C401.93 8.87491 402.022 8.84708 402.112 8.81704L401.856 8.77452C401.895 8.51055 401.933 8.24659 401.972 7.98263L402.405 7.7831ZM393.256 9.78248C393.009 11.3375 392.763 12.8925 392.518 14.4474L392.088 14.6054C392.339 13.0115 392.591 11.4175 392.844 9.82354L393.256 9.78248ZM360.988 175.111C360.286 181.439 359.606 187.768 358.95 194.098L358.543 194.138C359.201 187.796 359.882 181.453 360.585 175.111H360.988ZM361.733 168.463C361.667 169.049 361.601 169.634 361.535 170.219L361.097 170.531C361.175 169.837 361.254 169.142 361.332 168.447L361.733 168.463ZM373.909 75.4575C373.635 77.3029 373.363 79.1483 373.093 80.9937H372.689C372.959 79.1483 373.23 77.3029 373.504 75.4575H373.909ZM383.668 14.4253C383.421 15.8654 383.175 17.3055 382.931 18.7456C382.798 18.7853 382.656 18.8268 382.504 18.8707C382.748 17.4294 382.994 15.9881 383.241 14.5469L383.668 14.4253ZM373.874 20.2358C373.846 20.386 373.819 20.5362 373.791 20.6865C373.644 20.6973 373.511 20.7031 373.381 20.7062C373.396 20.6238 373.411 20.5413 373.426 20.4589L373.874 20.2358ZM356.684 64.59C356.812 64.3992 356.939 64.2134 357.067 64.0309C357.989 58.8546 358.927 53.6783 359.884 48.502L359.482 48.4734C357.308 60.2438 355.224 72.0141 353.232 83.7842L353.563 84.2247C354.668 77.6901 355.801 71.1555 356.963 64.6208L356.684 64.59ZM360.397 45.732C360.324 46.1265 360.25 46.5209 360.177 46.9154L359.738 47.0907C359.833 46.5759 359.929 46.0611 360.025 45.5463L360.397 45.732ZM364.768 22.8461C364.534 24.0391 364.301 25.2321 364.069 26.4251C363.899 26.4997 363.751 26.5768 363.616 26.6575C363.856 25.4226 364.097 24.1878 364.339 22.953L364.768 22.8461ZM355.631 24.6885C355.326 26.1432 355.022 27.5978 354.72 29.0525C354.584 29.0649 354.445 29.0774 354.303 29.0903C354.335 28.9388 354.366 28.7873 354.398 28.6357L354.834 28.0915L354.483 28.2263C354.724 27.0686 354.966 25.911 355.208 24.7533L355.631 24.6885ZM353.859 33.2177H353.45C353.134 34.7524 352.82 36.2871 352.508 37.8218L352.95 37.6537C353.252 36.175 353.554 34.6964 353.859 33.2177ZM352.683 38.9707C352.547 38.9733 352.41 38.9766 352.272 38.9805C349.408 53.0923 346.684 67.2038 344.1 81.315L344.553 81.0642C347.124 67.0333 349.834 53.0021 352.683 38.9707ZM343.494 86.8859L343.236 86.0659C342.04 92.6758 340.876 99.2856 339.742 105.895L340.101 106.169C341.203 99.7415 342.334 93.3137 343.494 86.8859ZM336.979 124.867L336.951 124.259L336.63 124.518C332.269 151.319 328.415 178.118 325.069 204.917L325.464 204.983C328.798 178.279 332.636 151.573 336.979 124.867ZM321.647 237.556C321.373 240.058 321.104 242.56 320.839 245.062L320.391 245.494C320.651 243.033 320.916 240.571 321.184 238.11L321.647 237.556ZM314.313 207.309C314.021 209.515 313.732 211.72 313.447 213.925C313.326 213.824 313.205 213.721 313.084 213.613C313.356 211.513 313.631 209.412 313.909 207.311C313.985 207.306 314.059 207.303 314.134 207.303C314.194 207.303 314.254 207.305 314.313 207.309ZM324.979 136.441C321.151 159.172 317.715 181.903 314.67 204.634L314.265 204.645C317.303 181.958 320.731 159.271 324.549 136.584L324.979 136.441ZM314.014 141.401C310.264 162.548 306.876 183.695 303.85 204.842H303.446C306.472 183.69 309.86 162.537 313.611 141.384L314.014 141.401ZM304.86 136.339C300.323 159.97 296.269 183.601 292.697 207.233L292.195 207.876C295.785 184.062 299.865 160.248 304.434 136.434L304.86 136.339ZM291.434 215.723L291.012 215.849C289.521 226.046 288.121 236.242 286.81 246.439C286.946 246.435 287.081 246.43 287.215 246.426C288.531 236.192 289.937 225.957 291.434 215.723ZM300.909 108.048C293.099 143.292 286.431 178.535 280.903 213.779L280.45 214.09C286.004 178.622 292.714 143.153 300.58 107.685L300.909 108.048ZM279.788 220.992L279.349 221.219C277.626 232.539 276.02 243.86 274.532 255.18L274.966 254.946C276.456 243.628 278.063 232.31 279.788 220.992ZM268.468 224.033C268.4 224.456 268.332 224.879 268.265 225.302L267.803 225.661C267.895 225.083 267.987 224.505 268.079 223.928L268.468 224.033ZM291.106 109.283C282.266 146.967 274.811 184.649 268.741 222.33C268.605 222.334 268.47 222.338 268.334 222.342C274.422 184.532 281.905 146.721 290.783 108.908L291.106 109.283ZM294.147 94.8537C294.433 93.6821 294.72 92.5106 295.009 91.339L295.429 90.836L295.561 90.7681C295.219 92.1538 294.88 93.5395 294.542 94.9252L294.147 94.8537ZM303.9 93.0105L304.062 92.8865L304.37 92.7549C304.802 90.885 305.237 89.0151 305.675 87.1452H305.264C304.806 89.1003 304.352 91.0554 303.9 93.0105ZM312.723 56.5399C312.865 56.5312 313.005 56.521 313.144 56.5092C314.504 51.1373 315.89 45.7655 317.303 40.3936L316.832 40.6137C315.437 45.9224 314.067 51.2312 312.723 56.5399ZM317.447 38.2813L317.834 38.1388L317.906 38.1081C318.258 36.7762 318.612 35.4444 318.968 34.1125C318.8 34.1864 318.644 34.2536 318.5 34.3153C318.147 35.6373 317.796 36.9593 317.447 38.2813ZM309.316 38.5876C309.082 39.422 308.849 40.2563 308.616 41.0907L308.379 41.2145L308.139 41.31C308.37 40.4845 308.6 39.6589 308.832 38.8333C308.992 38.7521 309.154 38.6701 309.316 38.5876ZM310.483 34.448C310.241 35.3038 309.999 36.1597 309.758 37.0156C309.61 37.0737 309.455 37.1322 309.293 37.1915C309.599 36.1046 309.906 35.0178 310.214 33.9309L310.64 33.8328L310.434 34.448H310.483ZM320.339 27.4725C320.377 27.3324 320.415 27.1923 320.453 27.0521L320.918 26.8612L320.919 26.8608C320.879 27.0069 320.84 27.153 320.8 27.2991C320.633 27.3627 320.48 27.4202 320.339 27.4725ZM320.625 26.4185L321.085 26.2492C321.261 25.6014 321.438 24.9535 321.614 24.3056C321.467 24.3546 321.315 24.4052 321.158 24.4573C320.98 25.111 320.802 25.7647 320.625 26.4185ZM329.511 24.5233C329.592 24.2084 329.673 23.8935 329.754 23.5786C329.909 23.5099 330.065 23.4408 330.22 23.3712C330.132 23.715 330.043 24.0588 329.955 24.4025L329.511 24.5233ZM328.968 26.6477C329.08 26.2109 329.191 25.774 329.303 25.3372L329.783 25.0761C329.658 25.5634 329.533 26.0506 329.409 26.5378L328.968 26.6477ZM327.049 34.2375C327.203 33.6241 327.357 33.0108 327.511 32.3975H327.924C327.786 32.9441 327.649 33.4907 327.511 34.0373C327.368 34.1003 327.214 34.1669 327.049 34.2375ZM327.021 35.9964L326.567 36.1619C326.226 37.5292 325.887 38.8964 325.549 40.2636L325.645 40.1893L326.047 39.9153C326.37 38.609 326.695 37.3027 327.021 35.9964ZM325.351 42.7349L324.885 42.9551C323.761 47.5309 322.655 52.1066 321.567 56.6824L321.984 56.6593C323.088 52.0178 324.21 47.3764 325.351 42.7349ZM330.793 55.6564C332.228 49.2368 333.697 42.8171 335.199 36.3975L335.644 36.2494C334.128 42.728 332.645 49.2066 331.197 55.6851L330.793 55.6564ZM319.323 68.0009C318.868 69.9688 318.416 71.9368 317.968 73.9048L317.54 73.9824C317.975 72.0709 318.414 70.1594 318.855 68.2479C319.029 68.1537 319.185 68.0715 319.323 68.0009ZM315.015 87.0782L314.592 87.1385C314.1 89.3719 313.613 91.6054 313.129 93.8388L313.312 93.9117L313.436 94.3135C313.957 91.9017 314.484 89.49 315.015 87.0782ZM304.609 135.525C305.712 129.79 306.844 124.055 308.004 118.32L308.34 118.68C307.256 124.041 306.197 129.401 305.163 134.761L304.609 135.525ZM320.211 106.057C322.081 96.5361 324.024 87.0157 326.04 77.4953L326.504 77.2322C324.424 87.0476 322.421 96.8629 320.497 106.678L320.211 106.057ZM329.038 110.901L329.443 110.912C329.896 108.412 330.354 105.913 330.817 103.413L330.495 102.95C330.004 105.601 329.519 108.251 329.038 110.901ZM331.102 99.6886L331.461 99.947C335.145 80.2299 339.123 60.5129 343.396 40.7958L343.01 40.6859C338.748 60.3535 334.779 80.021 331.102 99.6886ZM343.399 38.8935L343.856 38.6766C344.223 36.9912 344.592 35.3058 344.964 33.6205L344.515 33.7954C344.141 35.4948 343.769 37.1941 343.399 38.8935ZM345.368 29.9388C345.372 29.9382 345.375 29.9376 345.379 29.9369C345.51 29.9369 345.643 29.9369 345.779 29.9367C346.234 27.8862 346.693 25.8358 347.155 23.7853C347.002 23.8657 346.847 23.9476 346.689 24.031C346.246 26.0003 345.806 27.9695 345.368 29.9388ZM338.302 25.0408C338.17 25.5891 338.039 26.1374 337.908 26.6857L337.451 26.8755C337.587 26.3059 337.724 25.7363 337.86 25.1667L338.302 25.0408ZM339.008 22.1121C338.941 22.3875 338.874 22.663 338.808 22.9385C338.738 22.9475 338.667 22.9564 338.595 22.9653C338.521 22.9933 338.445 23.0213 338.37 23.0493C338.429 22.8026 338.489 22.556 338.548 22.3094C338.69 22.2493 338.843 22.1837 339.008 22.1121ZM339.354 20.679C339.296 20.9204 339.237 21.1618 339.179 21.4031L338.714 21.6251C338.777 21.3651 338.84 21.1051 338.903 20.8451L339.354 20.679ZM339.623 19.5714C339.573 19.7796 339.522 19.9879 339.472 20.1961L339.016 20.378C339.069 20.1606 339.121 19.9432 339.174 19.7259L339.623 19.5714ZM339.829 17.6341L340.109 17.5782C340.124 17.5169 340.139 17.4557 340.154 17.3944L340.034 17.429L339.829 17.6341ZM337.344 29.0499L336.78 29.693C336.777 29.7049 336.774 29.7169 336.771 29.7289L337.194 29.6792C337.244 29.4695 337.294 29.2597 337.344 29.0499ZM335.542 34.9341C335.681 34.3406 335.821 33.7472 335.961 33.1538L336.386 33.0932C336.255 33.6465 336.125 34.1997 335.995 34.753L335.718 34.8581L335.542 34.9341ZM330.215 21.7878L330.666 21.6375C330.729 21.393 330.793 21.1485 330.856 20.904L330.401 21.0661C330.339 21.3067 330.277 21.5472 330.215 21.7878ZM331.06 20.1135C331.026 20.2476 330.991 20.3818 330.956 20.5159L330.504 20.6663C330.538 20.5361 330.571 20.4059 330.605 20.2757L331.06 20.1135ZM322.026 22.8004C321.949 23.0802 321.873 23.3601 321.796 23.64L321.331 23.8257C321.411 23.5325 321.491 23.2393 321.571 22.9461L322.026 22.8004ZM322.127 22.4324C322.126 22.435 322.125 22.4375 322.125 22.4401L321.74 22.5552L322.127 22.4324ZM312.973 25.7436C312.652 26.8538 312.333 27.9641 312.015 29.0743C311.872 29.094 311.733 29.1046 311.588 29.1102C311.895 28.0391 312.203 26.9679 312.513 25.8967L312.973 25.7436ZM301.172 38.6253C301.005 38.7032 300.843 38.7787 300.687 38.8519C300.253 40.3101 299.821 41.7684 299.392 43.2267L299.911 42.8818C300.329 41.463 300.749 40.0442 301.172 38.6253ZM299.075 45.7256H298.658C298.525 46.1804 298.392 46.6352 298.26 47.0901L298.922 46.2491C298.973 46.0746 299.024 45.9001 299.075 45.7256ZM293.452 65.3871C292.276 69.5986 291.118 73.8103 289.979 78.0219L289.505 78.2426C290.637 74.0518 291.788 69.8611 292.957 65.6703L293.452 65.3871ZM300.897 68.134C301.836 64.5386 302.788 60.9431 303.753 57.3475L304.274 56.9503C303.356 60.3651 302.451 63.7799 301.556 67.1946L300.897 68.134ZM304.949 52.914L305.401 52.7752C305.683 51.7339 305.967 50.6926 306.252 49.6512L306.118 49.6215L305.824 49.6985C305.531 50.7703 305.24 51.8422 304.949 52.914ZM306.557 47.0258L306.94 47.1405C307.002 46.914 307.065 46.6875 307.127 46.461L306.628 46.7684C306.604 46.8542 306.58 46.94 306.557 47.0258ZM285.578 62.6458C285.141 64.1132 284.707 65.5805 284.275 67.0479L283.776 67.3266C284.212 65.8426 284.651 64.3585 285.093 62.8745L285.578 62.6458ZM289.799 48.7052C289.019 51.2397 288.246 53.7742 287.479 56.3086L286.959 56.6469C287.735 54.0786 288.518 51.5102 289.308 48.9418L289.799 48.7052ZM282.825 72.0001L282.33 72.273C281.194 76.1799 280.076 80.0868 278.974 83.9937L279.19 83.8644L279.554 83.4102C280.629 79.6068 281.719 75.8035 282.825 72.0001ZM274.161 101.456C274.998 98.3457 275.846 95.2359 276.705 92.126L277.108 92.1663C276.256 95.2543 275.414 98.3423 274.582 101.43C274.441 101.44 274.3 101.448 274.161 101.456ZM272.316 109.942L271.854 110.126C271.324 112.142 270.798 114.158 270.277 116.175C270.419 116.164 270.56 116.152 270.699 116.138C271.233 114.073 271.772 112.007 272.316 109.942ZM267.23 129.818L266.492 131.133C265.597 134.747 264.717 138.361 263.851 141.975L264.151 142.438C265.158 138.231 266.184 134.025 267.23 129.818ZM262.946 147.511L262.129 149.685C262.07 149.785 262.012 149.885 261.954 149.986C251.427 195.014 243.122 240.041 237.04 285.067L237.479 284.807C243.671 239.043 252.16 193.277 262.946 147.511ZM224.958 471.821C224.879 471.817 224.799 471.814 224.718 471.814L224.558 471.808C224.564 476.199 224.591 480.589 224.64 484.98C224.774 484.943 224.908 484.908 225.039 484.876C224.991 480.525 224.964 476.173 224.958 471.821ZM236.654 484.503C236.632 482.385 236.616 480.267 236.604 478.148L237.004 478.133C237.016 480.258 237.033 482.383 237.054 484.508C236.921 484.499 236.787 484.498 236.654 484.503ZM248.457 483.134C248.61 483.091 248.743 483.05 248.856 483.013C248.836 480.675 248.821 478.338 248.812 476C248.679 475.936 248.546 475.873 248.411 475.812C248.421 478.253 248.436 480.693 248.457 483.134ZM262.731 260H262.951L263.184 259.643C264.543 249.708 265.998 239.773 267.55 229.838L267.087 230.207C265.539 240.138 264.087 250.069 262.731 260ZM255.14 238.265L255.58 237.746C262.445 194.905 271.209 152.065 281.874 109.227L281.384 109.538C267.747 164.377 257.223 219.22 249.812 274.065L251.094 267.67C252.474 257.784 253.955 247.898 255.537 238.013L255.14 238.265ZM248.913 280.838C249.092 279.466 249.273 278.093 249.456 276.721L249.66 278.219C249.547 279.076 249.434 279.933 249.323 280.79L248.913 280.838ZM260.489 484.117C260.465 481.433 260.448 478.749 260.438 476.064C260.567 476.033 260.7 476 260.838 475.966C260.848 478.683 260.865 481.4 260.889 484.117H260.489ZM262.766 549.4C262.636 549.352 262.5 549.306 262.359 549.262C268.782 681.27 291.212 813.278 329.65 945.286C329.886 945.643 330.135 946.019 330.395 946.414C291.761 814.075 269.218 681.738 262.766 549.4ZM213.085 471.417C213.092 477.221 213.137 483.025 213.221 488.83C213.097 488.729 212.962 488.613 212.816 488.481C212.735 482.803 212.692 477.124 212.685 471.445C212.758 471.438 212.829 471.432 212.9 471.427C212.962 471.423 213.023 471.419 213.085 471.417ZM225.2 290L225.76 288.884C231.559 247.446 239.348 206.006 249.127 164.565L248.646 164.861C238.815 206.576 231 248.289 225.2 290ZM262.511 110.815C262.763 109.907 263.015 108.999 263.269 108.091C263.3 108.081 263.331 108.07 263.362 108.06C263.491 108.039 263.606 108.02 263.709 108.002C263.474 108.844 263.239 109.687 263.005 110.529C262.844 110.626 262.679 110.722 262.511 110.815ZM265.655 99.6531H266.071C267.362 95.1394 268.677 90.6256 270.016 86.1119L269.474 86.5346C268.179 90.9075 266.906 95.2803 265.655 99.6531ZM279.683 54.7915C276.62 64.3408 273.663 73.8901 270.811 83.4392L270.302 83.7477C273.121 74.2977 276.043 64.8475 279.069 55.3971L279.395 54.9527L279.683 54.7915ZM267.003 68.1866C265.013 74.2479 263.069 80.3093 261.17 86.3707L260.823 86.14C262.679 80.2177 264.578 74.2954 266.521 68.3731L267.003 68.1866ZM259.046 91.8516C259.353 90.8559 259.662 89.8603 259.972 88.8646L260.372 88.926C260.119 89.7374 259.867 90.5487 259.616 91.36L259.046 91.8516ZM257.962 96.7483C257.249 99.0861 256.543 101.424 255.844 103.762C255.713 103.673 255.601 103.585 255.505 103.497C256.162 101.302 256.825 99.1061 257.494 96.9105L257.962 96.7483ZM238.248 168.259L237.821 168.322C237.775 168.507 237.73 168.692 237.684 168.877L237.729 170.371C237.902 169.667 238.075 168.963 238.248 168.259ZM233.283 187.343C233.699 185.539 234.119 183.735 234.544 181.931C234.81 181.386 235.076 180.838 235.342 180.289C225.085 223.631 217.13 266.973 211.477 310.316L210.957 311.208C216.216 270.653 223.489 230.099 232.777 189.545L233.145 189.054L233.283 187.343ZM256.819 73.5123C254.03 81.6667 251.328 89.8211 248.711 97.9755L248.562 98.0127L248.334 97.842C250.883 89.8985 253.514 81.9551 256.226 74.0116L256.819 73.5123ZM220.682 199.061L220.257 199.122C209.28 246.123 201.161 293.125 195.9 340.127L196.323 339.942C201.589 292.982 209.709 246.021 220.682 199.061ZM248.892 72.7109C245.526 82.0114 242.278 91.312 239.148 100.613L238.901 100.678L238.728 100.607C241.843 91.3478 245.075 82.0883 248.424 72.8289L248.768 72.7918L248.892 72.7109ZM219.141 165.825L218.742 165.767C201.868 226.675 190.063 287.584 183.326 348.497L183.772 348.098C190.517 287.338 202.307 226.581 219.141 165.825ZM231.351 98.9053C230.15 102.272 228.966 105.638 227.798 109.005L227.306 109.201C228.526 105.682 229.763 102.164 231.019 98.6452L231.351 98.9053ZM241.062 72.6086C237.774 81.2174 234.593 89.8262 231.518 98.4349L231.123 98.3528C234.293 89.4756 237.576 80.5984 240.973 71.7212L241.062 72.6086ZM243.05 66.3289L243.623 65.9572C243.633 65.9308 243.644 65.9043 243.654 65.8778L243.164 66.0341C243.126 66.1324 243.088 66.2306 243.05 66.3289ZM234.557 69.2121C234.367 69.68 234.177 70.1479 233.987 70.6158L233.466 70.8388C233.655 70.3701 233.845 69.9014 234.036 69.4327L234.557 69.2121ZM233.548 71.7017L233.028 71.9218C227.165 86.457 221.623 100.992 216.402 115.528L216.977 115.111C222.182 100.641 227.706 86.1712 233.548 71.7017ZM226.568 69.306C226.693 69.306 226.818 69.3013 226.943 69.2932C227.059 69.0225 227.175 68.7518 227.291 68.4811L226.568 69.306ZM223.16 78.2238C216.727 93.5844 210.673 108.945 204.997 124.306L204.397 124.777C210.07 109.397 216.122 94.0169 222.554 78.6368L223.16 78.2238ZM223.456 76.4857L223.69 76.2777L224.512 74.0221L224.492 74.029C224.146 74.8479 223.8 75.6668 223.456 76.4857ZM221.913 64.041C220.438 67.2659 218.982 70.4908 217.542 73.7157L216.901 74.1729C218.363 70.8903 219.844 67.6077 221.343 64.325L221.913 64.041ZM216.869 75.2263L216.459 75.165C171.46 176.404 143.769 277.627 133.387 378.846L133.712 379.602C144.036 278.153 171.755 176.699 216.869 75.2263ZM140.852 455.468C140.918 451.197 141.013 446.927 141.138 442.656C141.272 442.651 141.406 442.644 141.539 442.638C141.415 446.88 141.32 451.122 141.254 455.365C141.12 455.403 140.986 455.438 140.852 455.468ZM158.36 574.987C157.808 569.808 157.298 564.63 156.828 559.451L157.231 559.469C157.707 564.715 158.226 569.961 158.785 575.207L158.36 574.987ZM152.979 450.489C152.979 450.489 153.118 450.541 153.355 450.642C153.416 447.499 153.493 444.356 153.584 441.213C153.45 441.22 153.317 441.226 153.183 441.231C153.094 444.316 153.018 447.4 152.958 450.484C152.965 450.486 152.972 450.488 152.979 450.489ZM169.249 566.247C169.05 564.09 168.857 561.933 168.67 559.775C168.804 559.775 168.938 559.774 169.072 559.773C169.259 561.94 169.453 564.106 169.653 566.273L169.249 566.247ZM164.834 460.376C164.974 460.401 165.107 460.418 165.234 460.428C165.274 456.067 165.341 451.705 165.436 447.343C165.303 447.265 165.171 447.186 165.041 447.105C164.944 451.529 164.875 455.952 164.834 460.376ZM176.718 485.328C176.697 483.851 176.679 482.374 176.665 480.897C176.798 480.892 176.931 480.888 177.065 480.884C177.08 482.399 177.098 483.914 177.119 485.429C176.984 485.385 176.849 485.351 176.718 485.328ZM182.878 587.278C182.239 581.299 181.649 575.32 181.108 569.341C181.193 569.222 181.277 569.104 181.362 568.986C181.396 568.939 181.431 568.891 181.465 568.843C182.054 575.385 182.702 581.927 183.408 588.47C183.353 588.345 183.297 588.22 183.241 588.095C183.12 587.823 182.998 587.551 182.878 587.278ZM176.614 467.184C176.745 467.21 176.878 467.233 177.013 467.253C177.022 463.727 177.048 460.202 177.09 456.676C176.957 456.646 176.824 456.61 176.691 456.571C176.648 460.108 176.622 463.646 176.614 467.184ZM188.64 467.013C188.773 467.01 188.907 467.008 189.04 467.005C189.049 463.492 189.074 459.979 189.114 456.467C188.981 456.422 188.848 456.382 188.716 456.347C188.674 459.903 188.649 463.458 188.64 467.013ZM210.414 163.178C191.377 227.738 178.351 292.299 171.334 356.859L171.068 356.988L170.883 357.313C177.889 292.559 190.94 227.805 210.034 163.051L210.414 163.178ZM203.263 155.539C175.634 242.222 159.434 328.914 154.661 415.608L154.418 415.426L154.303 414.851C159.132 328.288 175.351 241.726 202.959 155.175L203.263 155.539ZM144.9 381.705L145.252 382.232C152.455 305.406 169.122 228.585 195.253 151.766L194.782 151.908C168.749 228.504 152.122 305.102 144.9 381.705ZM244.167 63.4599C244.937 61.4871 245.713 59.5143 246.495 57.5414C246.685 57.4528 246.86 57.3704 247.024 57.2932C246.238 59.273 245.459 61.2527 244.685 63.2325L244.167 63.4599ZM257.104 71.4476C257.676 69.7822 258.252 68.1168 258.832 66.4514L260.229 63.6644C259.56 65.5726 258.896 67.4808 258.237 69.389L257.812 69.7161H258.124C257.967 70.1689 257.811 70.6217 257.655 71.0745L257.104 71.4476ZM268.317 62.9337C268.726 61.7025 269.137 60.4712 269.55 59.2399L270.071 58.9456C269.671 60.135 269.274 61.3245 268.878 62.5139L268.317 62.9337ZM274.327 46.4569C273.947 47.5578 273.567 48.6588 273.189 49.7598L272.672 50.0365C273.056 48.914 273.443 47.7916 273.831 46.6692L274.327 46.4569ZM274.231 45.5122L274.749 45.2404C274.931 44.7169 275.113 44.1934 275.295 43.6699L274.782 43.9255C274.598 44.4544 274.415 44.9833 274.231 45.5122ZM274.992 43.3247L275.494 43.0993C275.663 42.6132 275.833 42.1272 276.003 41.6412L275.495 41.8811C275.327 42.3623 275.159 42.8435 274.992 43.3247ZM275.61 41.5536L275.901 41.4196L276.117 41.3168C276.235 40.9794 276.353 40.6419 276.471 40.3045L275.982 40.4904C275.858 40.8448 275.734 41.1992 275.61 41.5536ZM284.077 40.0401C284.106 39.9531 284.134 39.8662 284.163 39.7792H284.534L284.077 40.0401ZM268.311 64.2198L267.713 64.7536C267.549 65.248 267.386 65.7423 267.223 66.2367L267.665 66.1737C267.88 65.5224 268.095 64.8711 268.311 64.2198ZM284.964 261.289C285.27 258.743 285.581 256.198 285.897 253.653C286.037 253.546 286.185 253.436 286.341 253.323C286.002 256.045 285.669 258.767 285.343 261.489L284.964 261.289ZM341.701 960.553C302.933 823.167 280.442 685.812 274.229 548.475C274.348 548.283 274.472 548.094 274.604 547.909C280.789 685.583 303.336 823.277 342.243 961.001C342.065 960.848 341.884 960.699 341.701 960.553ZM296.837 255.961L297.254 255.84C297.464 254.016 297.678 252.192 297.894 250.368C297.76 250.369 297.626 250.37 297.491 250.372C297.27 252.235 297.052 254.098 296.837 255.961ZM297.951 246.526C298.086 246.552 298.216 246.58 298.343 246.61C298.745 243.275 299.157 239.94 299.577 236.605L299.231 236.146C298.795 239.606 298.368 243.066 297.951 246.526ZM300.819 223.882C301.248 220.654 301.685 217.425 302.131 214.197L302.531 214.227C302.099 217.35 301.676 220.474 301.261 223.597L300.819 223.882ZM309.794 243.945L309.389 243.965C309.103 246.471 308.822 248.976 308.545 251.482L308.969 251.289C309.24 248.841 309.514 246.393 309.794 243.945ZM354.015 947.233C322.609 816.913 304.065 686.593 298.383 556.272C298.514 556.227 298.646 556.182 298.778 556.137C304.074 677.783 320.579 799.428 348.293 921.073H348.051C348.197 921.316 348.331 921.558 348.459 921.801C350.364 930.146 352.321 938.491 354.331 946.836C354.222 946.969 354.115 947.101 354.015 947.233ZM311.181 567.754C311.036 567.675 310.899 567.6 310.77 567.528C316.224 686.119 331.619 804.714 356.955 923.329H357.364C332.04 804.789 316.645 686.269 311.181 567.754ZM358.58 930.874C358.479 930.409 358.378 929.945 358.278 929.481C358.541 929.746 358.64 929.897 358.74 930.095C358.666 930.315 358.619 930.587 358.58 930.874ZM367.789 971.494C366.594 966.436 365.416 961.378 364.258 956.32C364.407 956.352 364.553 956.387 364.692 956.423C365.483 959.874 366.282 963.325 367.09 966.776C366.975 966.857 366.863 966.933 366.756 967.004C366.871 967.175 366.989 967.353 367.11 967.537C367.19 967.658 367.272 967.782 367.355 967.907C367.633 969.091 367.911 970.275 368.191 971.459C368.059 971.475 367.924 971.486 367.789 971.494ZM362.936 909.66C341.848 800.25 328.628 690.855 323.279 581.465C323.413 581.566 323.552 581.668 323.694 581.769C329.054 691.045 342.268 800.326 363.336 909.623C363.197 909.637 363.064 909.649 362.936 909.66ZM371.475 908.565H371.484C371.608 908.607 371.749 908.64 371.9 908.668C370.434 900.449 369.009 892.231 367.626 884.013C367.466 883.888 367.31 883.76 367.156 883.629C368.553 891.941 369.993 900.253 371.475 908.565ZM366.764 881.294H367.17C350.741 783.062 340.197 684.829 335.538 586.597C335.402 586.564 335.267 586.531 335.133 586.498C339.789 684.763 350.333 783.029 366.764 881.294ZM344.223 228.423H344.625C344.931 225.307 345.243 222.19 345.56 219.074C345.406 219.219 345.257 219.358 345.116 219.492C344.813 222.469 344.515 225.446 344.223 228.423ZM347.503 197.04L347.948 196.662C348.651 190.336 349.378 184.01 350.129 177.684L349.702 177.891C348.944 184.274 348.211 190.657 347.503 197.04ZM350.204 173.691L350.622 173.564C350.962 170.748 351.306 167.932 351.655 165.116L351.266 165C350.907 167.897 350.553 170.794 350.204 173.691ZM343.764 147.342C343.493 149.257 343.224 151.172 342.958 153.087L342.542 153.176C342.844 151.002 343.149 148.828 343.457 146.653L343.764 147.342ZM342.321 157.707L341.966 157.353C339.784 173.279 337.768 189.206 335.92 205.132L336.352 204.873C338.18 189.151 340.169 173.429 342.321 157.707ZM362.414 85.4349C363.264 79.9903 364.133 74.5456 365.021 69.101H365.318L365.417 69.1575C364.563 74.3958 363.726 79.6341 362.906 84.8724L362.851 84.8897L362.414 85.4349ZM357.529 208.148C357.394 208.267 357.246 208.398 357.089 208.538C356.437 215.166 355.81 221.794 355.208 228.423H355.61C356.224 221.665 356.863 214.906 357.529 208.148ZM376.288 882.708C360.958 783.991 351.128 685.263 346.798 586.53C346.93 586.503 347.062 586.476 347.195 586.45C351.525 685.239 361.363 784.025 376.707 882.799C376.569 882.769 376.429 882.739 376.288 882.708ZM366.179 230.406C366.295 230.538 366.417 230.68 366.545 230.833C367.072 224.453 367.62 218.073 368.19 211.694C368.057 211.682 367.924 211.672 367.791 211.664C367.233 217.911 366.696 224.159 366.179 230.406ZM368.699 201.677C368.757 201.055 368.815 200.434 368.873 199.812C369.069 200.401 368.949 201.063 368.699 201.677ZM377.129 233.288C377.362 232.302 377.499 230.917 377.455 228.963C377.345 230.405 377.236 231.846 377.129 233.288ZM377.791 224.581C377.962 222.372 378.135 220.163 378.311 217.954C378.435 217.957 378.568 217.959 378.712 217.961C378.557 219.911 378.403 221.862 378.252 223.813C378.063 224.088 377.911 224.338 377.791 224.581ZM373.62 19.4007C373.765 19.3687 373.907 19.3355 374.044 19.3021C374.291 17.9535 374.54 16.6049 374.789 15.2563C374.637 15.3144 374.491 15.3698 374.351 15.4227C374.106 16.7487 373.862 18.0747 373.62 19.4007ZM411.083 6.38938L411.473 6.4868C411.486 6.39256 411.499 6.29832 411.511 6.20407L411.092 6.31799C411.089 6.34178 411.086 6.36558 411.083 6.38938ZM416.12 43.795C416.11 43.8868 416.1 43.9787 416.09 44.0706V43.8802C416.099 43.8513 416.109 43.8229 416.12 43.795ZM413.47 68.6723C413.318 68.7498 413.177 68.8224 413.045 68.8904C412.892 70.3755 412.74 71.8607 412.588 73.3458C412.726 73.3909 412.855 73.4358 412.976 73.4803C413.14 71.8777 413.305 70.275 413.47 68.6723ZM411.78 81.3401C411.921 79.9309 412.063 78.5216 412.205 77.1124C412.343 77.0371 412.485 76.9664 412.629 76.8974C412.439 78.7707 412.251 80.6441 412.064 82.5174C411.965 82.0898 411.868 81.6924 411.78 81.3401ZM117.208 455.849C117.148 459.466 117.111 463.083 117.098 466.699L116.696 467.079C116.708 463.354 116.745 459.629 116.807 455.904L117.208 455.849ZM366.102 16.0902C366.087 16.1629 366.073 16.2357 366.058 16.3084L365.729 16.1987L366.102 16.0902ZM492.346 1.43648L492.346 1.43533H492.351L492.346 1.43648ZM492.747 1.38772C492.746 1.45033 492.745 1.51294 492.744 1.57554L492.556 1.43533L492.747 1.38772ZM501.451 2.13442C501.467 2.14061 501.482 2.14681 501.498 2.153C501.617 2.20057 501.736 2.24814 501.85 2.29571C501.851 2.14282 501.852 1.98993 501.853 1.83705C501.729 1.82506 501.593 1.80148 501.454 1.77468C501.453 1.8946 501.452 2.01451 501.451 2.13442ZM561.598 96.3349C561.493 94.4127 561.388 92.4904 561.281 90.5682C561.42 90.5936 561.555 90.6191 561.686 90.6443C561.811 92.9057 561.936 95.167 562.059 97.4283L562.034 97.3976C561.876 97.0311 561.732 96.6781 561.598 96.3349ZM571.883 99.0379H572.283C571.983 94.3666 571.677 89.6953 571.365 85.0239C571.258 85.1209 571.164 85.2143 571.078 85.2997C571.047 85.3232 571.016 85.3458 570.987 85.3676C571.291 89.9244 571.589 94.4812 571.883 99.0379ZM582.26 102.35C582.389 102.365 582.525 102.378 582.664 102.391C582.23 96.5181 581.786 90.6451 581.331 84.7721C581.194 84.7485 581.059 84.7228 580.924 84.6958C581.38 90.5805 581.825 96.4652 582.26 102.35ZM591.894 96.4677C592.024 96.2085 592.137 95.9839 592.238 95.7887C591.833 91.0621 591.42 86.3354 591 81.6087C590.866 81.6085 590.732 81.6081 590.598 81.6074C591.038 86.5609 591.471 91.5143 591.894 96.4677ZM601.725 94.2996C601.856 94.3032 601.991 94.3069 602.128 94.3107C602.099 94.0097 602.069 93.7086 602.04 93.4076C601.941 93.2299 601.84 93.0512 601.738 92.8709C601.677 92.7636 601.616 92.6558 601.555 92.5472C601.612 93.1313 601.668 93.7155 601.725 94.2996ZM594.088 18.7662C594.12 19.0445 594.152 19.3228 594.185 19.6011C594.038 19.5556 593.899 19.5133 593.767 19.474C593.733 19.1796 593.699 18.8851 593.665 18.5906C593.801 18.6472 593.942 18.7058 594.088 18.7662ZM593.838 16.6234C593.869 16.8831 593.899 17.1428 593.929 17.4025C593.787 17.3565 593.647 17.3117 593.511 17.2677C593.482 17.0196 593.453 16.7715 593.424 16.5233C593.562 16.5568 593.7 16.5901 593.838 16.6234ZM584.495 14.3162C584.357 14.2783 584.219 14.2407 584.081 14.2033C584.087 14.2577 584.093 14.312 584.098 14.3664C584.239 14.4084 584.378 14.4497 584.513 14.4901C584.507 14.4321 584.501 14.3741 584.495 14.3162ZM575.158 11.9558C575.022 11.9271 574.886 11.8984 574.749 11.8699C574.793 12.3496 574.837 12.8292 574.881 13.3089C575.012 13.3498 575.15 13.3927 575.294 13.4377C575.279 13.273 575.264 13.1082 575.249 12.9435L575.189 12.918L575.248 12.9277C575.218 12.6037 575.188 12.2798 575.158 11.9558ZM565.781 8.90617C565.809 9.26615 565.838 9.62614 565.867 9.98613C565.729 9.96047 565.593 9.93482 565.459 9.90917C565.43 9.54687 565.402 9.18458 565.373 8.82228C565.406 8.82923 565.44 8.8361 565.473 8.8429C565.58 8.86491 565.683 8.8861 565.781 8.90617ZM556.559 7.27477C556.394 7.24891 556.259 7.22912 556.154 7.21433C556.155 7.22755 556.156 7.24077 556.157 7.25399C556.293 7.28799 556.429 7.31894 556.564 7.34771C556.563 7.3234 556.561 7.29908 556.559 7.27477ZM556.302 9.40558C556.287 9.1759 556.271 8.94623 556.256 8.71655C556.388 8.7513 556.524 8.78335 556.663 8.81169C556.679 9.04641 556.695 9.28113 556.71 9.51585C556.574 9.47934 556.438 9.44259 556.302 9.40558ZM561.15 88.2083C561.012 85.7407 560.873 83.2731 560.733 80.8055L561.128 80.707C561.275 83.283 561.42 85.8591 561.563 88.4351L561.15 88.2083ZM551.335 83.0953C551.386 84.194 551.437 85.2926 551.488 86.3913C551.316 86.1758 551.174 85.9707 551.059 85.7755C551.024 85.0154 550.988 84.2552 550.953 83.4951C551.061 83.3469 551.191 83.214 551.335 83.0953ZM565.624 11.9761C565.761 12.0168 565.898 12.0578 566.035 12.0992C566.029 12.0286 566.024 11.958 566.018 11.8875C566.017 11.8768 566.016 11.8662 566.016 11.8556C565.994 11.5858 565.973 11.316 565.951 11.0462C565.83 11.0142 565.694 10.9777 565.541 10.9361C565.563 11.2096 565.585 11.483 565.606 11.7564C565.607 11.7637 565.608 11.7709 565.608 11.7782C565.613 11.8442 565.619 11.9101 565.624 11.9761ZM565.525 10.737C565.68 10.7776 565.815 10.8141 565.935 10.8481C565.923 10.693 565.911 10.538 565.898 10.383C565.763 10.3678 565.628 10.3511 565.493 10.3329C565.504 10.4676 565.515 10.6023 565.525 10.737ZM556.212 8.06495C556.347 8.09709 556.483 8.12943 556.619 8.16186C556.607 7.98708 556.596 7.8123 556.584 7.63753C556.582 7.6171 556.581 7.59668 556.58 7.57625C556.579 7.56195 556.578 7.54765 556.577 7.53336L556.17 7.4464C556.171 7.46113 556.172 7.47587 556.173 7.49061C556.174 7.51443 556.176 7.53825 556.178 7.56207C556.189 7.7297 556.2 7.89732 556.212 8.06495ZM556.637 8.42036C556.637 8.43117 556.638 8.44198 556.639 8.45278C556.642 8.49652 556.645 8.54026 556.648 8.58399C556.648 8.59338 556.649 8.60278 556.65 8.61217C556.51 8.56751 556.373 8.5207 556.239 8.4709C556.239 8.46753 556.239 8.46415 556.238 8.46077C556.237 8.44283 556.236 8.42489 556.235 8.40694H556.278L556.283 8.40744C556.401 8.40833 556.504 8.41088 556.607 8.41813C556.617 8.41883 556.627 8.41957 556.637 8.42036ZM574.964 14.2166C575.099 14.2447 575.235 14.2693 575.373 14.2895C575.357 14.1244 575.342 13.9594 575.327 13.7943C575.192 13.7447 575.053 13.6935 574.911 13.6414C574.929 13.8332 574.947 14.0249 574.964 14.2166ZM584.305 16.3538C584.529 16.3842 584.635 16.3961 584.712 16.4008C584.708 16.3554 584.703 16.3099 584.698 16.2645C584.617 16.2024 584.506 16.1371 584.27 16.0152C584.282 16.1281 584.294 16.2409 584.305 16.3538ZM584.239 15.7145C584.381 15.7427 584.514 15.7744 584.651 15.8144C584.62 15.5172 584.589 15.2199 584.559 14.9227C584.433 14.8812 584.295 14.8363 584.142 14.7872C584.174 15.0963 584.207 15.4054 584.239 15.7145ZM666.67 546.902C666.798 547.065 666.927 547.229 667.056 547.393C668.151 509.81 668.45 472.227 667.951 434.644C667.81 434.99 667.68 435.308 667.563 435.596C668.043 472.698 667.745 509.8 666.67 546.902ZM678.202 558.793C678.332 558.89 678.462 558.985 678.592 559.08C680.404 509.173 680.695 459.269 679.463 409.367C679.337 409.592 679.209 409.825 679.08 410.064C680.29 459.638 679.997 509.214 678.202 558.793ZM689.086 578.699C689.214 578.761 689.345 578.823 689.478 578.883C692.307 519.668 692.83 460.454 691.047 401.24C690.919 401.37 690.789 401.497 690.658 401.619C692.426 460.646 691.902 519.672 689.086 578.699ZM700.55 585.64C700.672 585.877 700.793 586.111 700.912 586.342C704.489 521.15 705.061 455.96 702.63 390.769C702.497 390.762 702.363 390.755 702.229 390.749C704.653 455.713 704.093 520.676 700.55 585.64ZM711.054 602.984C711.18 603.106 711.306 603.223 711.432 603.334C716.863 522.703 717.371 442.071 712.955 361.439C712.821 361.434 712.687 361.429 712.553 361.425C716.964 441.945 716.465 522.465 711.054 602.984ZM722.778 605.095C722.873 604.944 722.968 604.787 723.063 604.625C729.605 514.544 729.58 424.463 722.988 334.382C722.859 334.624 722.743 334.869 722.64 335.116C729.192 425.116 729.187 515.116 722.626 605.117C722.676 605.11 722.727 605.102 722.778 605.095ZM734.786 598.852C734.92 598.846 735.055 598.839 735.189 598.829C741.608 512.329 741.57 425.837 735.076 339.35C734.939 339.345 734.805 339.339 734.673 339.331C741.171 425.832 741.208 512.338 734.786 598.852ZM746.512 598.702C746.643 598.706 746.776 598.71 746.913 598.715C753.724 512.432 753.696 426.149 746.83 339.866C746.7 339.92 746.571 339.978 746.442 340.039C753.296 426.26 753.32 512.481 746.512 598.702ZM757.932 602.193C758.064 602.195 758.198 602.197 758.333 602.198C765.977 513.368 765.921 424.541 758.167 335.711C758.077 336.074 757.973 336.435 757.858 336.783C765.522 425.254 765.546 513.721 757.932 602.193ZM770.153 596.137C770.297 596.007 770.441 595.884 770.587 595.767C778.248 507.53 777.852 419.29 769.398 331.054C769.264 331.05 769.13 331.046 768.995 331.043C777.464 419.407 777.85 507.774 770.153 596.137ZM781.972 594.793C782.102 594.821 782.234 594.85 782.366 594.879C790.523 505.612 789.941 416.336 780.62 327.055C780.49 327.07 780.358 327.086 780.223 327.103C789.539 416.339 790.122 505.571 781.972 594.793ZM793.715 590.683C793.851 590.659 793.986 590.638 794.123 590.62C802.156 504.388 801.573 418.158 792.376 331.925C792.336 331.941 792.296 331.957 792.256 331.972C792.152 331.878 792.049 331.785 791.949 331.694C801.175 418.025 801.764 504.353 793.715 590.683ZM803.719 606.843C803.84 606.914 803.967 606.984 804.098 607.053C814.502 514.07 814.317 421.087 803.542 328.104C803.412 328.113 803.279 328.121 803.143 328.13C813.91 421.034 814.102 513.938 803.719 606.843ZM746.358 892.503C747.874 888.343 749.369 884.183 750.84 880.022C751.005 879.937 751.177 879.848 751.359 879.756C749.854 884.015 748.325 888.273 746.773 892.532C746.633 892.523 746.495 892.513 746.358 892.503ZM754.327 891.959C754.488 891.903 754.653 891.846 754.821 891.789C766.111 862.383 776.22 832.979 785.149 803.576C784.727 804.417 784.347 805.211 784.004 805.959C782.938 809.446 781.855 812.932 780.755 816.418L780.745 816.499C780.734 816.518 780.723 816.536 780.712 816.555C772.779 841.689 763.985 866.823 754.327 891.959ZM762.348 890.675C762.491 890.674 762.635 890.671 762.783 890.666C784.211 837.666 801.591 784.666 814.922 731.666L814.217 732.824C800.92 785.441 783.63 838.058 762.348 890.675ZM771.111 887.408C771.344 887.198 771.577 886.989 771.81 886.781C843.167 717.902 871.155 548.971 855.774 380.052C855.638 380.031 855.502 380.01 855.366 379.988C870.786 549.137 842.7 718.296 771.111 887.408ZM782.317 878.022C782.537 877.85 782.758 877.677 782.978 877.505C854.892 712.266 883.08 547.076 867.544 381.908C867.405 381.819 867.263 381.733 867.118 381.65C882.731 547.075 854.464 712.522 782.317 878.022ZM793.205 869.863C793.421 869.707 793.637 869.551 793.853 869.396C865.936 709.142 894.651 548.931 879.997 388.712C879.869 388.739 879.737 388.766 879.603 388.793C894.26 549.14 865.461 709.478 793.205 869.863ZM803.847 862.348C804.065 862.197 804.282 862.045 804.5 861.894C880.406 698.818 908.947 535.692 890.124 372.578C889.982 372.514 889.841 372.451 889.699 372.388C908.593 535.715 879.975 699.054 803.847 862.348ZM814.565 854.884C814.788 854.727 815.012 854.569 815.236 854.412C891.411 696.07 920.55 537.77 902.653 379.459C902.509 379.372 902.365 379.285 902.221 379.199C920.206 537.752 890.987 696.293 814.565 854.884ZM825.598 846.949C825.835 846.774 826.07 846.598 826.306 846.422C888.52 720.907 919.63 595.414 919.63 469.916C919.63 442.092 918.1 414.268 915.042 386.444C914.9 386.376 914.758 386.307 914.617 386.238C917.692 414.131 919.229 442.024 919.229 469.916C919.229 595.579 888.021 721.247 825.598 846.949ZM837.267 837.821C837.529 837.603 837.79 837.385 838.05 837.167C900.452 714.807 931.656 592.411 931.656 469.992C931.656 444.242 930.275 418.49 927.514 392.739C927.352 392.469 927.188 392.201 927.025 391.934C929.845 417.954 931.256 443.974 931.256 469.992C931.256 592.618 899.928 715.232 837.267 837.821ZM852.081 822.872L853.298 821.385C913.551 704.218 943.681 587.07 943.681 469.916C943.681 454.884 943.185 439.851 942.193 424.819C942.03 424.358 941.865 423.896 941.699 423.435C942.754 438.929 943.281 454.423 943.281 469.916C943.281 587.554 912.883 705.197 852.081 822.872ZM871.341 799.327L872.521 797.884C926.692 690.833 954.342 583.776 955.465 476.714C955.345 476.022 955.218 475.301 955.084 474.555C954.308 582.807 926.396 691.064 871.341 799.327ZM891.424 774.774L892.555 773.391C932.807 691.913 956.851 610.443 964.685 528.971C964.582 528.653 964.478 528.335 964.374 528.017C956.589 610.26 932.273 692.509 891.424 774.774ZM859.771 842.719C866.211 832.666 872.39 822.614 878.309 812.561C878.874 811.856 879.439 811.153 880.008 810.456C873.767 821.128 867.233 831.799 860.405 842.471C860.18 842.578 859.969 842.661 859.771 842.719ZM874.399 828.646C875.122 827.784 875.855 826.9 876.594 825.997C887.026 809.852 896.748 793.706 905.76 777.559C905.616 777.529 905.478 777.504 905.344 777.485C895.821 794.539 885.506 811.593 874.399 828.646ZM981.179 577.06C979.403 586.205 977.399 595.351 975.168 604.496C974.798 605.517 974.4 606.572 973.97 607.675C977.017 595.486 979.659 583.296 981.896 571.106C981.875 571.631 981.826 572.165 981.778 572.698C981.568 574.235 981.369 575.685 981.179 577.06ZM989.411 518.847C989.305 520.04 989.196 521.233 989.082 522.426L988.709 522.128C989.218 516.746 989.648 511.363 990 505.981V511.674C989.963 512.157 989.926 512.64 989.889 513.123L989.589 512.824C989.589 512.855 989.584 512.965 989.576 513.151C989.543 513.891 989.456 515.838 989.411 518.847ZM971.903 378.193L972.726 380.878C972.784 381.263 972.843 381.648 972.901 382.033C972.969 382.482 973.037 382.932 973.104 383.382C973.116 383.463 973.128 383.545 973.14 383.626C973.141 383.631 973.141 383.636 973.142 383.641C973.128 383.624 973.113 383.606 973.098 383.589C973.131 383.729 973.164 383.87 973.197 384.01C973.249 384.366 973.301 384.721 973.353 385.076L973.35 385.079L973.357 385.101C974.95 396.024 976.236 406.946 977.214 417.868C977.092 417.409 976.969 416.937 976.844 416.451C976.756 416.076 976.668 415.71 976.582 415.353C975.574 404.629 974.27 393.905 972.669 383.181C972.66 383.121 972.651 383.061 972.642 383.002C972.5 382.052 972.356 381.102 972.209 380.152C972.169 379.89 972.128 379.628 972.087 379.366C972.076 379.293 972.064 379.22 972.053 379.147C972.003 378.829 971.953 378.511 971.903 378.193ZM944.014 301.483C944.365 302.25 944.713 303.019 945.059 303.798C945.196 304.304 945.332 304.809 945.468 305.315C952.021 329.769 957.114 354.223 960.747 378.677C960.609 378.645 960.469 378.614 960.328 378.582C956.581 353.397 951.283 328.211 944.435 303.024C944.295 302.51 944.155 301.997 944.014 301.483ZM920.342 256.434C920.021 255.884 919.699 255.334 919.376 254.786C919.548 255.302 919.719 255.819 919.889 256.336C933.065 296.298 942.544 336.259 948.324 376.22C948.463 376.245 948.601 376.271 948.739 376.296C943.047 336.89 933.762 297.485 920.883 258.081C920.703 257.532 920.523 256.983 920.342 256.434ZM898.195 221.757C898.49 222.171 898.779 222.578 899.062 222.978C899.074 223.009 899.085 223.04 899.096 223.071C917.288 273.434 929.913 323.794 936.971 374.154C936.833 374.128 936.695 374.103 936.556 374.078C929.432 323.319 916.65 272.557 898.207 221.792C898.203 221.78 898.199 221.769 898.195 221.757ZM880.102 197.431C898.552 246.207 912.051 294.982 920.597 343.757C920.46 343.743 920.322 343.729 920.183 343.714C911.578 294.648 897.959 245.578 879.324 196.507C879.585 196.817 879.845 197.125 880.102 197.431ZM926.6 384.642C926.455 384.581 926.312 384.517 926.174 384.45C926.258 385.157 926.341 385.863 926.423 386.569C926.572 386.668 926.709 386.744 926.854 386.812C926.77 386.088 926.686 385.365 926.6 384.642ZM940.999 414.088C939.943 401.172 938.521 388.256 936.732 375.341C936.87 375.358 937.007 375.376 937.143 375.394C938.775 387.188 940.101 398.982 941.122 410.776L941.078 410.71C940.99 411.236 941.015 411.8 941.04 412.369C941.065 412.948 941.091 413.532 940.999 414.088ZM954.834 451.354C954.975 451.712 955.119 452.069 955.264 452.425C954.586 427.3 952.448 402.176 948.848 377.052C948.711 377.031 948.573 377.009 948.434 376.988C951.991 401.777 954.124 426.566 954.834 451.354ZM967.124 469.917C967.124 439.653 964.886 409.389 960.409 379.124C960.549 379.153 960.688 379.183 960.826 379.212C965.291 409.447 967.524 439.681 967.524 469.917C967.524 478.868 967.328 487.819 966.937 496.77L966.622 494.73C966.957 486.459 967.124 478.188 967.124 469.917ZM947.025 663.355C957.577 631.604 965.529 599.853 970.882 568.103C970.882 568.131 970.883 568.159 970.883 568.187C970.993 568.296 971.103 568.418 971.212 568.549C965.944 599.676 958.18 630.802 947.919 661.928C947.622 662.404 947.324 662.88 947.025 663.355ZM973.299 552.529C973.433 552.546 973.566 552.553 973.7 552.551C977.6 525.041 979.55 497.53 979.55 470.019C979.55 456.593 979.086 443.168 978.157 429.743C977.988 429.164 977.813 428.587 977.633 428.01C978.644 442.013 979.15 456.016 979.15 470.019C979.15 497.522 977.2 525.025 973.299 552.529ZM863.529 178.006C884.67 233.014 899.837 288.019 909.028 343.023C908.891 342.961 908.745 342.907 908.594 342.858C899.347 287.615 884.068 232.369 862.758 177.118C863.015 177.414 863.272 177.71 863.529 178.006ZM847.844 160.329C869.921 217.35 885.897 274.367 895.772 331.382L895.445 330.947C895.369 330.821 895.297 330.701 895.227 330.586C885.29 273.566 869.248 216.544 847.101 159.517C847.348 159.786 847.595 160.057 847.844 160.329ZM836.35 153.481C854.878 202.824 869.071 252.172 878.928 301.521C878.891 301.495 878.854 301.468 878.817 301.442C878.695 301.355 878.574 301.268 878.452 301.182C868.586 251.912 854.397 202.644 835.885 153.38C836.042 153.413 836.197 153.447 836.35 153.481ZM826.707 151.748C844.763 202.144 858.53 252.536 868.007 302.926L867.542 302.617C858.058 252.307 844.297 201.996 826.258 151.68C826.409 151.703 826.559 151.726 826.707 151.748ZM868.923 307.867C868.739 307.597 868.553 307.32 868.364 307.037C869.796 314.837 871.124 322.637 872.35 330.436C872.552 330.965 872.762 331.488 872.998 331.993C871.749 323.951 870.39 315.909 868.923 307.867ZM878.344 376.023C878.088 373.608 877.823 371.194 877.548 368.78C877.685 368.799 877.821 368.818 877.957 368.839C878.352 372.31 878.727 375.782 879.082 379.253C878.843 378.173 878.593 377.097 878.344 376.023ZM817.144 150.446C835.301 203.623 848.924 256.801 858.014 309.981C857.803 309.586 857.6 309.187 857.403 308.786C848.307 255.986 834.74 203.189 816.703 150.392C816.851 150.41 816.998 150.428 817.144 150.446ZM807.807 149.38C822.362 194.184 833.864 238.991 842.315 283.799C842.181 283.72 842.046 283.64 841.912 283.561C841.894 283.551 841.875 283.54 841.857 283.529C833.405 238.796 821.91 194.064 807.372 149.334C807.517 149.349 807.663 149.365 807.807 149.38ZM798.179 148.421C811.122 190.314 821.534 232.208 829.417 274.101C829.293 273.976 829.124 273.806 828.915 273.597C821.038 231.858 810.649 190.119 797.748 148.38C797.892 148.394 798.036 148.407 798.179 148.421ZM831.923 287.906C831.771 287.821 831.62 287.732 831.471 287.641C832.378 292.817 833.246 297.992 834.075 303.168C834.239 303.339 834.402 303.51 834.563 303.682C833.723 298.423 832.843 293.164 831.923 287.906ZM796.908 177.634C804.376 205.687 810.77 233.74 816.088 261.794C815.927 261.661 815.766 261.529 815.606 261.399C810.294 233.439 803.913 205.48 796.464 177.521C796.605 177.557 796.753 177.594 796.908 177.634ZM818.624 275.632C818.454 275.456 818.287 275.279 818.123 275.099C819.106 280.633 820.046 286.167 820.945 291.702C821.099 291.82 821.253 291.939 821.408 292.058C820.521 286.582 819.593 281.107 818.624 275.632ZM787.35 179.22C795.884 213.257 802.918 247.293 808.454 281.33C808.316 281.213 808.164 281.098 807.991 280.975C802.491 247.233 795.517 213.491 787.07 179.749C787.173 179.553 787.266 179.377 787.35 179.22ZM814.867 326.231C814.741 326.262 814.617 326.293 814.496 326.323C826.152 420.411 826.351 514.499 815.095 608.588C815.229 608.594 815.362 608.599 815.496 608.605C826.754 514.483 826.551 420.361 814.889 326.239C814.881 326.236 814.874 326.233 814.867 326.231ZM826.591 609.146C837.027 526.834 838.208 444.529 830.132 362.23C830.274 362.32 830.416 362.408 830.56 362.495C838.605 444.714 837.415 526.938 826.991 609.17C826.858 609.162 826.725 609.154 826.591 609.146ZM817.468 668.468C820.29 652.856 822.78 637.245 824.937 621.635C825.128 621.146 825.333 620.628 825.556 620.064C825.557 620.06 825.557 620.057 825.558 620.053C823.317 636.45 820.709 652.846 817.734 669.243C817.635 668.988 817.547 668.729 817.468 668.468ZM785.691 800.4C789.575 787.493 793.231 774.586 796.66 761.68L797.393 760.475C793.779 774.141 789.91 787.807 785.786 801.473C785.756 801.194 785.724 800.833 785.691 800.4ZM816.876 722.086C817.286 720.391 817.693 718.697 818.095 717.003C818.369 716.211 818.571 715.708 818.772 715.206C818.87 715.027 818.966 714.847 819.059 714.667C818.378 717.559 817.686 720.45 816.982 723.342C816.925 722.919 816.889 722.497 816.876 722.086ZM822.128 699.396C822.147 699.977 822.156 700.558 822.152 701.138C846.853 589.967 853.74 478.796 842.813 367.625C842.673 367.57 842.534 367.516 842.394 367.462C853.292 478.107 846.536 588.751 822.128 699.396ZM846.968 312.895C847.098 312.84 847.226 312.793 847.351 312.754C847.065 310.958 846.774 309.162 846.478 307.366H846.073C846.377 309.209 846.675 311.052 846.968 312.895ZM845.386 303.25C845.041 301.207 844.689 299.164 844.332 297.121C844.48 297.204 844.63 297.286 844.781 297.366C845.133 299.384 845.48 301.401 845.82 303.419C845.715 303.368 845.606 303.317 845.495 303.265C845.458 303.26 845.422 303.255 845.386 303.25ZM838.001 329.781C838.137 329.792 838.273 329.802 838.409 329.811C837.978 326.612 837.533 323.413 837.072 320.214C836.941 320.24 836.809 320.263 836.678 320.284C837.134 323.45 837.575 326.615 838.001 329.781ZM778.55 184.787C784.939 212.222 790.407 239.658 794.953 267.093C794.801 266.97 794.646 266.85 794.488 266.733C789.94 239.346 784.474 211.959 778.089 184.572C778.241 184.655 778.394 184.727 778.55 184.787ZM767.272 180.06C773.935 209.814 779.572 239.567 784.184 269.319C784.063 269.332 783.931 269.346 783.786 269.363C779.335 240.648 773.928 211.932 767.565 183.216C767.574 183.181 767.582 183.145 767.589 183.107L767.503 182.935C767.296 182.001 767.087 181.067 766.878 180.133C767.012 180.106 767.146 180.079 767.272 180.06ZM756.75 177.104C763.616 209.19 769.353 241.276 773.961 273.361C773.821 273.288 773.676 273.213 773.525 273.134C768.512 238.287 762.168 203.439 754.492 168.591C754.659 168.743 754.827 168.871 754.987 168.979C755.517 171.387 756.04 173.795 756.557 176.203C756.461 176.303 756.37 176.416 756.284 176.546L756.75 177.104ZM748.375 186.677C754.99 220.524 760.419 254.373 764.662 288.223C764.531 288.235 764.398 288.246 764.263 288.258C760.017 254.387 754.583 220.517 747.962 186.649C748.108 186.657 748.245 186.666 748.375 186.677ZM740.517 201.066C745.901 231.852 750.359 262.638 753.894 293.423H753.611C753.611 293.669 753.6 293.927 753.579 294.189C750.035 263.198 745.555 232.207 740.137 201.215C740.261 201.155 740.387 201.106 740.517 201.066ZM755.867 315.496C755.628 313.118 755.384 310.74 755.134 308.361C755.286 308.6 755.446 308.849 755.614 309.109C755.832 311.189 756.045 313.268 756.254 315.347C756.135 315.393 756.006 315.443 755.867 315.496ZM732.021 214.377C737.535 249.624 741.908 284.872 745.139 320.12C745.012 320.18 744.883 320.24 744.754 320.301C741.521 285.003 737.144 249.706 731.621 214.408C731.753 214.394 731.885 214.383 732.021 214.377ZM728.815 272.897C730.812 290.511 732.54 308.125 734.001 325.739C733.873 325.808 733.745 325.877 733.616 325.947C732.148 308.213 730.407 290.479 728.396 272.746C728.536 272.795 728.676 272.846 728.815 272.897ZM716.976 268.32C719.145 288.252 720.993 308.184 722.519 328.117C722.374 327.903 722.225 327.692 722.069 327.486C720.551 307.753 718.718 288.02 716.57 268.287C716.705 268.298 716.84 268.309 716.976 268.32ZM705.612 267.792C707.492 286.218 709.115 304.644 710.482 323.07C710.345 323.034 710.209 322.997 710.072 322.96C708.706 304.554 707.084 286.149 705.205 267.743C705.305 267.759 705.407 267.775 705.512 267.792C705.545 267.792 705.578 267.792 705.612 267.792ZM697.172 298.365C697.466 302.003 697.751 305.64 698.026 309.278C697.872 309.026 697.719 308.773 697.568 308.519C697.323 305.296 697.07 302.074 696.81 298.851C696.923 298.69 697.043 298.528 697.172 298.365ZM695.739 286.04C695.881 286.221 696.03 286.399 696.187 286.574C695.667 280.564 695.123 274.555 694.553 268.546C694.421 268.576 694.289 268.603 694.158 268.627C694.709 274.431 695.236 280.235 695.739 286.04ZM686.055 196.222C686.1 196.225 686.145 196.228 686.189 196.23L685.972 195.58C686 195.794 686.027 196.008 686.055 196.222ZM682.046 166.728C682.208 166.911 682.371 167.102 682.531 167.297C681.753 161.837 680.953 156.378 680.133 150.919C679.996 150.908 679.86 150.897 679.723 150.886C680.517 156.166 681.291 161.447 682.046 166.728ZM669.799 151.094C669.656 151.039 669.514 150.982 669.372 150.924C669.571 152.351 669.77 153.779 669.967 155.207C670.108 155.239 670.248 155.273 670.385 155.313C670.191 153.907 669.996 152.501 669.799 151.094ZM672.307 169.575C672.177 169.621 672.048 169.673 671.924 169.726C673.099 178.655 674.222 187.585 675.292 196.514C675.354 196.374 675.501 196.283 675.657 196.194C674.592 187.321 673.476 178.448 672.307 169.575ZM662.467 176.719C662.414 176.753 662.359 176.789 662.302 176.823C662.647 179.712 662.987 182.601 663.322 185.489C663.468 185.503 663.601 185.515 663.729 185.524C663.384 182.546 663.033 179.567 662.677 176.589C662.611 176.626 662.541 176.672 662.467 176.719ZM664.705 197.675C664.632 197.018 664.559 196.361 664.485 195.705C664.585 195.61 664.71 195.521 664.857 195.428C664.964 196.388 665.071 197.349 665.178 198.309C665.038 198.17 664.914 198.024 664.812 197.871C664.774 197.803 664.738 197.738 664.705 197.675ZM664.322 190.687C664.38 191.193 664.437 191.7 664.494 192.206C664.338 191.705 664.242 191.202 664.322 190.687ZM671.343 162.34C671.433 163.001 671.521 163.662 671.61 164.323C671.159 163.462 670.962 162.969 671.109 162.623C671.154 162.517 671.231 162.425 671.343 162.34ZM693.856 176.962C693.339 173.472 692.814 169.982 692.279 166.492C692.415 166.516 692.554 166.537 692.694 166.557C693.263 170.273 693.822 173.99 694.37 177.706C694.315 177.627 694.261 177.548 694.206 177.469C694.089 177.3 693.973 177.13 693.856 176.962ZM709.106 208.564C707.547 197.511 705.888 186.458 704.131 175.404C704.26 175.567 704.378 175.741 704.484 175.931L704.627 175.978C706.354 186.863 707.985 197.747 709.52 208.632C709.384 208.61 709.247 208.588 709.106 208.564ZM699.578 97.0455C699.375 96.1027 699.172 95.16 698.968 94.2173C699.028 94.1777 699.085 94.1437 699.139 94.1168C699.084 93.9517 699.044 93.8309 699.022 93.7069C698.987 93.504 699.002 93.2924 699.084 92.8638C699.395 94.2936 699.703 95.7234 700.01 97.1533L699.578 97.0455ZM701.901 108.035C701.711 107.122 701.52 106.208 701.328 105.295C701.479 105.351 701.629 105.417 701.777 105.488C703.481 113.612 705.127 121.736 706.717 129.86C706.583 129.842 706.444 129.83 706.302 129.82C704.934 122.834 703.525 115.848 702.073 108.862L702.223 108.265C702.115 108.194 702.008 108.116 701.901 108.035ZM719.845 208.006C718.699 200.404 717.504 192.803 716.258 185.201C716.455 185.541 716.643 185.865 716.822 186.173C718.025 193.54 719.181 200.907 720.29 208.274C720.14 208.188 719.992 208.098 719.845 208.006ZM728.736 196.586C728.573 195.611 728.409 194.637 728.244 193.662C728.392 193.763 728.543 193.859 728.699 193.951C728.849 194.841 728.999 195.731 729.148 196.621C729.011 196.613 728.874 196.602 728.736 196.586ZM739.234 196.094C739.023 194.909 738.81 193.725 738.596 192.54H739.003C739.231 193.805 739.458 195.07 739.683 196.336L739.234 196.094ZM729.388 143.568C729.792 145.47 730.193 147.372 730.589 149.275C730.45 149.294 730.316 149.305 730.187 149.307C729.786 147.386 729.382 145.465 728.974 143.545C729.112 143.553 729.25 143.56 729.388 143.568ZM744.513 169.525C743.648 165.355 742.766 161.185 741.865 157.015C741.949 156.961 742.027 156.91 742.1 156.861C741.968 155.98 741.864 155.288 741.782 154.742C742.897 159.87 743.985 164.998 745.046 170.126C744.86 169.917 744.683 169.717 744.513 169.525ZM738.311 140.971C738.52 141.22 738.712 141.46 738.884 141.685C735.149 125.194 731.132 108.704 726.834 92.2138C726.779 92.1604 726.729 92.1112 726.684 92.0663C726.715 92.0507 726.749 92.0362 726.785 92.0228C724.851 84.6073 722.86 77.1918 720.813 69.7764C720.651 69.6969 720.491 69.6164 720.331 69.5348C726.912 93.346 732.905 117.158 738.311 140.971ZM751.374 154.753C750.59 151.35 749.793 147.947 748.984 144.543C749.123 144.552 749.262 144.561 749.401 144.569C750.237 148.082 751.058 151.594 751.866 155.107C751.73 154.993 751.572 154.88 751.374 154.753ZM766.168 176.976C766.081 176.594 765.994 176.212 765.907 175.829C766.069 176.153 766.219 176.462 766.356 176.751L766.168 176.976ZM764.643 170.316C762.701 161.931 760.678 153.546 758.574 145.16C758.714 145.17 758.854 145.179 758.994 145.189C761.148 153.779 763.218 162.369 765.202 170.959C765.042 170.771 764.877 170.583 764.711 170.394C764.688 170.368 764.666 170.342 764.643 170.316ZM773.646 166.114C773.669 166.037 773.705 165.96 773.756 165.883C773.819 165.821 773.881 165.777 773.967 165.747C773.716 164.733 773.462 163.719 773.208 162.706L772.728 161.987C772.828 161.987 772.929 161.989 773.029 161.993C772.788 161.036 772.546 160.078 772.303 159.121C772.164 159.159 772.033 159.181 771.908 159.187C772.494 161.496 773.073 163.805 773.646 166.114ZM764.308 130.57C764.476 130.688 764.648 130.808 764.822 130.928C761.422 118.648 757.837 106.367 754.067 94.0857C753.894 93.974 753.72 93.8631 753.546 93.7528C757.318 106.025 760.905 118.297 764.308 130.57ZM752.42 90.1044C752.571 90.1299 752.719 90.1573 752.865 90.1902C752.275 88.2877 751.681 86.3851 751.082 84.4826C750.905 84.362 750.727 84.2422 750.549 84.1232C751.178 86.1169 751.801 88.1107 752.42 90.1044ZM740.468 78.2391C741.268 80.8829 742.06 83.5267 742.844 86.1705C742.682 86.0939 742.52 86.0175 742.359 85.9417C741.572 83.2897 740.777 80.6377 739.974 77.9857C740.137 78.0691 740.302 78.1536 740.468 78.2391ZM750.117 82.7539C750.295 82.8736 750.473 82.994 750.65 83.1152C750.515 82.6865 750.379 82.2578 750.243 81.8291C750.236 81.8241 750.228 81.819 750.22 81.8139C750.052 81.7064 749.884 81.5988 749.716 81.4905C749.85 81.9117 749.984 82.3328 750.117 82.7539ZM739.659 75.5721C739.75 75.8734 739.842 76.1747 739.934 76.4761C739.75 76.3566 739.573 76.2371 739.407 76.1176C739.34 75.8975 739.273 75.6775 739.206 75.4575H739.223C739.397 75.501 739.535 75.5353 739.659 75.5721ZM739.071 73.648C739.109 73.7733 739.148 73.8986 739.186 74.0239C739.016 73.9235 738.846 73.823 738.676 73.7222C738.635 73.5904 738.595 73.4586 738.554 73.3268C738.71 73.4219 738.864 73.517 739.017 73.612C739.036 73.6244 739.054 73.6364 739.071 73.648ZM749.215 79.9126L749.295 79.9685L749.5 80.1736C749.599 80.262 749.7 80.3492 749.801 80.4351C749.74 80.2439 749.679 80.0526 749.618 79.8614C749.579 79.8343 749.54 79.8026 749.5 79.7635L749.104 79.5659C749.141 79.6815 749.178 79.7971 749.215 79.9126ZM760.078 86.8085C760.075 86.8 760.073 86.7914 760.07 86.7828L760.616 87.1601C760.616 87.1627 760.617 87.1652 760.618 87.1677C760.438 87.0479 760.258 86.9281 760.078 86.8085ZM771.183 94.4372C771.369 94.5703 771.556 94.7035 771.742 94.837C771.744 94.8428 771.746 94.8485 771.748 94.8543L771.195 94.4717C771.191 94.4602 771.187 94.4487 771.183 94.4372ZM760.664 87.3069C760.484 87.1868 760.304 87.0669 760.124 86.9472C760.24 87.2977 760.355 87.6482 760.471 87.9986C760.713 88.2649 760.946 88.543 761.167 88.8345C761 88.3253 760.832 87.8161 760.664 87.3069ZM761.426 89.6217C761.248 89.5083 761.071 89.3952 760.893 89.2826C760.976 89.5342 761.058 89.7858 761.141 90.0375C761.339 90.1575 761.51 90.2186 761.622 90.2208C761.557 90.0211 761.491 89.8214 761.426 89.6217ZM773.846 102.302C772.973 99.6964 772.09 97.0903 771.199 94.4842C771.385 94.6149 771.57 94.7456 771.756 94.8763C772.647 97.485 773.529 100.094 774.401 102.703C774.216 102.569 774.031 102.435 773.846 102.302ZM775.248 106.512C774.988 105.73 774.728 104.947 774.468 104.164H774.784C774.827 104.186 774.869 104.206 774.91 104.226C775.18 105.036 775.449 105.846 775.717 106.656C775.558 106.6 775.401 106.552 775.248 106.512ZM765.284 101.574C765.077 101.399 764.885 101.237 764.711 101.088L764.71 101.088C768.56 113.188 772.221 125.289 775.693 137.39C775.852 137.453 776.008 137.511 776.159 137.565C772.72 125.568 769.095 113.571 765.284 101.574ZM784.14 134.441C781.583 126.076 778.93 117.711 776.182 109.346C776.352 109.434 776.521 109.519 776.687 109.599C779.411 117.9 782.041 126.2 784.577 134.501C784.433 134.48 784.288 134.46 784.14 134.441ZM786.911 142.713C786.811 142.713 786.721 142.713 786.638 142.713C787.097 144.252 787.552 145.791 788.005 147.33C788.147 147.342 788.29 147.354 788.432 147.366C787.963 145.769 787.49 144.173 787.014 142.576L786.911 142.713ZM789.143 151.226C788.784 149.992 788.424 148.757 788.061 147.523C788.204 147.535 788.346 147.547 788.489 147.559C788.875 148.873 789.258 150.187 789.639 151.501C789.474 151.405 789.308 151.313 789.143 151.226ZM794.899 171.707C793.722 167.373 792.519 163.04 791.29 158.707H791.434C791.553 158.802 791.671 158.896 791.785 158.987C793.082 163.566 794.35 168.144 795.589 172.723C795.353 172.391 795.124 172.052 794.899 171.707ZM797.689 148.189C797.833 148.202 797.977 148.216 798.12 148.229C793.434 133.068 788.416 117.907 783.067 102.746C782.878 102.608 782.687 102.468 782.495 102.328C787.897 117.615 792.961 132.902 797.689 148.189ZM807.31 149.144C803.172 136.421 798.788 123.698 794.158 110.976C794.356 111.127 794.553 111.277 794.748 111.427C799.322 124.015 803.654 136.603 807.746 149.19C807.601 149.175 807.456 149.16 807.31 149.144ZM816.639 150.204C813.282 140.383 809.771 130.563 806.104 120.743C806.314 120.925 806.525 121.11 806.738 121.298C810.335 130.951 813.782 140.605 817.08 150.258C816.934 150.24 816.787 150.222 816.639 150.204ZM826.192 151.496C823.939 145.214 821.618 138.932 819.231 132.649C819.449 132.851 819.669 133.056 819.892 133.262C822.204 139.363 824.454 145.464 826.641 151.564C826.493 151.542 826.343 151.519 826.192 151.496ZM835.819 153.205C834.836 150.59 833.84 147.974 832.833 145.359C833.055 145.568 833.278 145.777 833.503 145.989C834.441 148.428 835.368 150.867 836.284 153.306C836.131 153.273 835.976 153.239 835.819 153.205ZM771.676 94.6438C771.491 94.5145 771.306 94.3855 771.121 94.2566C771.117 94.2459 771.114 94.2352 771.11 94.2245C771.296 94.3561 771.482 94.4878 771.668 94.6194C771.671 94.6276 771.673 94.6357 771.676 94.6438ZM760.539 86.9295C760.556 86.9793 760.572 87.029 760.589 87.0788C760.408 86.9566 760.227 86.8344 760.046 86.7121C760.03 86.6638 760.014 86.6154 759.998 86.5671C760.179 86.6878 760.359 86.8086 760.539 86.9295ZM730.709 73.6718L730.222 73.429C732.345 80.7533 734.409 88.0775 736.414 95.4018C736.573 95.5111 736.743 95.6285 736.925 95.7545C734.912 88.3936 732.84 81.0327 730.709 73.6718ZM748.82 143.855C746.986 136.157 745.086 128.46 743.122 120.763C743.316 120.989 743.512 121.215 743.708 121.442C745.613 128.923 747.456 136.404 749.239 143.885C749.099 143.875 748.96 143.865 748.82 143.855ZM758.412 144.517C757.472 140.778 756.516 137.04 755.543 133.301C755.721 133.44 755.896 133.581 756.067 133.727C757.004 137.333 757.926 140.94 758.832 144.546C758.692 144.536 758.552 144.527 758.412 144.517ZM743.289 87.6761C746.422 98.2871 749.425 108.898 752.297 119.509C752.085 119.254 751.878 118.997 751.672 118.733C748.835 108.279 745.872 97.8242 742.781 87.3695C742.95 87.4722 743.12 87.5743 743.289 87.6761ZM718.543 61.6397L718.054 61.3796C718.055 61.3838 718.057 61.3879 718.058 61.392C718.095 61.5223 718.131 61.6525 718.168 61.7828C718.328 61.8646 718.49 61.9476 718.654 62.0323C718.618 61.9065 718.583 61.7808 718.547 61.6551C718.546 61.6499 718.545 61.6448 718.543 61.6397ZM710.764 65.2236C717.565 91.0626 723.714 116.901 729.212 142.738C729.074 142.73 728.936 142.722 728.798 142.715C723.278 116.783 717.102 90.85 710.27 64.9164C710.446 65.026 710.611 65.1282 710.764 65.2236ZM708.265 55.8348C708.286 55.9147 708.308 55.9945 708.329 56.0744L707.852 55.8383C707.829 55.755 707.807 55.6718 707.784 55.5886C707.944 55.6702 708.104 55.7523 708.265 55.8348ZM698.28 50.9556C698.123 50.8802 697.966 50.8053 697.809 50.7309C697.824 50.7861 697.838 50.8413 697.852 50.8966L698.325 51.1303C698.31 51.072 698.295 51.0138 698.28 50.9556ZM698.004 51.4892C698.002 51.4798 697.999 51.4704 697.997 51.461C698.069 51.4971 698.142 51.5332 698.214 51.5694C698.3 51.6119 698.385 51.6544 698.47 51.6967C698.472 51.7027 698.473 51.7086 698.475 51.7146L698.004 51.4892ZM688.442 46.6442C688.45 46.6779 688.459 46.7116 688.467 46.7452C688.393 46.7129 688.319 46.6806 688.245 46.6483C688.165 46.6136 688.086 46.5788 688.006 46.5441C687.995 46.4995 687.984 46.455 687.974 46.4104L688.442 46.6442ZM678.153 42.1457C678.307 42.2114 678.459 42.2766 678.609 42.341C678.613 42.3569 678.616 42.3728 678.62 42.3887C678.468 42.3265 678.317 42.2644 678.167 42.2024C678.162 42.1835 678.158 42.1646 678.153 42.1457ZM681.902 58.7006C681.738 57.9619 681.574 57.2233 681.409 56.4846C681.581 56.6239 681.745 56.7493 681.903 56.8623C682.054 57.5407 682.205 58.2191 682.355 58.8975C682.201 58.8331 682.049 58.7674 681.902 58.7006ZM682.318 60.5803C682.309 60.5404 682.301 60.5006 682.292 60.4608C682.42 60.4804 682.562 60.4864 682.708 60.4882C682.738 60.6254 682.768 60.7626 682.798 60.8998C682.645 60.7978 682.485 60.6914 682.318 60.5803ZM683.128 64.2607C682.973 63.5547 682.818 62.8487 682.663 62.1427C682.816 62.2204 682.969 62.2976 683.123 62.3743C683.297 63.1633 683.47 63.9523 683.642 64.7413C683.486 64.5835 683.313 64.4228 683.128 64.2607ZM683.81 67.3884C683.687 66.8203 683.563 66.2521 683.439 65.684C683.574 65.7015 683.706 65.6998 683.849 65.6863C683.987 66.3184 684.124 66.9505 684.261 67.5826C684.112 67.5143 683.961 67.4501 683.81 67.3884ZM684.785 71.9017C684.528 70.7059 684.27 69.5101 684.011 68.3143C684.165 68.3938 684.319 68.4718 684.471 68.5478C684.682 69.5211 684.892 70.4944 685.101 71.4677C685.016 71.6124 684.908 71.7571 684.785 71.9017ZM681.557 55.3151C681.568 55.365 681.58 55.415 681.591 55.465C681.548 55.4313 681.505 55.3972 681.462 55.3628L681.557 55.3151ZM691.391 60.6696C691.223 59.96 691.056 59.2503 690.888 58.5407C691.04 58.6408 691.202 58.7481 691.375 58.8638C693.827 69.2295 696.186 79.5953 698.452 89.961C698.257 89.6734 698.053 89.37 697.844 89.055C695.779 79.6316 693.637 70.2083 691.418 60.7849C691.409 60.7465 691.4 60.708 691.391 60.6696ZM690.992 57.247C691.109 57.7403 691.226 58.2336 691.343 58.727C691.2 58.6302 691.042 58.5278 690.86 58.4233C690.736 57.8986 690.611 57.3739 690.487 56.8491C690.593 56.9292 690.704 57.0175 690.814 57.1057C690.874 57.1532 690.933 57.2007 690.992 57.247ZM700.373 60.489C700.339 60.4717 700.306 60.4545 700.272 60.4373C707.102 87.6753 713.251 114.913 718.718 142.151C718.855 142.157 718.993 142.163 719.13 142.17C713.692 115.067 707.579 87.9638 700.791 60.8608C700.639 60.738 700.497 60.6135 700.373 60.489ZM719.526 146.201C719.313 145.127 719.099 144.053 718.884 142.979C719.021 142.985 719.159 142.991 719.296 142.998C719.511 144.075 719.726 145.153 719.94 146.231L719.526 146.201ZM730.325 206.253C730.245 205.757 730.165 205.261 730.084 204.765C730.314 205.158 730.492 205.587 730.589 206.073C730.501 206.143 730.413 206.203 730.325 206.253ZM721.712 217.898C721.531 217.781 721.383 217.673 721.26 217.573C721.654 220.282 722.041 222.991 722.421 225.699C722.54 226.034 722.659 226.34 722.778 226.577C722.701 226.584 722.624 226.589 722.547 226.594C723.14 230.833 723.718 235.072 724.281 239.311C724.492 239.818 724.691 240.312 724.881 240.796C723.875 233.163 722.818 225.531 721.712 217.898ZM711.587 223.725C711.956 226.505 712.319 229.285 712.676 232.065C712.546 232.051 712.409 232.032 712.266 232.008C711.903 229.186 711.534 226.364 711.159 223.543C711.195 223.529 711.231 223.515 711.267 223.502C711.294 223.502 711.381 223.568 711.529 223.681C711.547 223.695 711.566 223.71 711.587 223.725ZM699.017 211.112C699.107 211.8 699.196 212.489 699.285 213.177C699.142 213.201 699.011 213.216 698.888 213.222C698.811 212.631 698.734 212.039 698.657 211.447C698.768 211.349 698.886 211.238 699.017 211.112ZM697.132 200.015C697.187 199.982 697.24 199.951 697.289 199.921C697.321 199.906 697.4 199.9 697.52 199.902C696.959 195.789 696.386 191.675 695.799 187.562C695.658 187.5 695.514 187.437 695.369 187.377C695.617 189.118 695.863 190.858 696.107 192.599C696.427 192.976 696.632 193.484 696.673 194.18H696.328C696.599 196.125 696.867 198.07 697.132 200.015ZM698.431 206.667C698.394 206.674 698.356 206.681 698.317 206.688C698.38 206.851 698.439 207.005 698.495 207.149C698.474 206.988 698.452 206.828 698.431 206.667ZM683.102 171.331C683.173 171.831 683.243 172.332 683.313 172.833C682.843 172.19 682.642 171.656 683.102 171.331ZM882.157 320.831C881.945 319.631 881.73 318.43 881.512 317.229C881.675 317.435 881.851 317.671 882.048 317.943C882.225 318.927 882.4 319.91 882.574 320.894C882.446 320.883 882.303 320.859 882.157 320.831ZM973.034 383.318C972.964 383.024 972.895 382.732 972.825 382.441C972.906 382.743 972.986 383.045 973.066 383.347C973.055 383.337 973.045 383.327 973.034 383.318ZM655.759 470.199C655.759 465.993 655.75 461.786 655.732 457.58C655.87 457.467 656.003 457.349 656.131 457.225C656.15 461.575 656.159 465.926 656.159 470.276C656.028 470.25 655.894 470.225 655.759 470.199ZM655.358 518.076C655.378 516.852 655.398 515.628 655.417 514.404C655.555 514.265 655.691 514.13 655.823 513.998C655.794 515.919 655.763 517.841 655.729 519.762C655.594 519.2 655.468 518.638 655.358 518.076Z" stroke="url(#paint0_linear_9400_463)" stroke-miterlimit="10"/>
<defs>
<linearGradient id="paint0_linear_9400_463" x1="495" y1="330.901" x2="495" y2="799.344" gradientUnits="userSpaceOnUse">
<stop stop-color="#B8AFCC"/>
<stop offset="1" stop-color="#F3EFFC" stop-opacity="0"/>
</linearGradient>
</defs>
</svg>
