<svg width="89" height="36" viewBox="0 0 89 36" fill="none" xmlns="http://www.w3.org/2000/svg">
<rect x="0.0214844" y="8.01428" width="86" height="28" rx="4" transform="rotate(-5 0.0214844 8.01428)" fill="white"/>
<path d="M10.8817 27.1406L9.84282 15.2659L12.0105 15.0763L13.0494 26.9509L10.8817 27.1406ZM15.3335 26.7511L14.2946 14.8764L22.1844 14.1862L22.3518 16.0989L16.6296 16.5995L16.896 19.6438L22.2993 19.1711L22.4667 21.0838L17.0633 21.5565L17.3338 24.6487L23.056 24.1481L23.2233 26.0608L15.3335 26.7511ZM24.8129 25.9217L23.774 14.0471L25.9417 13.8574L26.8133 23.8194L31.8978 23.3745L32.0652 25.2872L24.8129 25.9217ZM34.6218 25.0636L33.7502 15.1016L30.674 15.3708L30.5066 13.4581L38.795 12.7329L38.9623 14.6456L35.9339 14.9106L36.8054 24.8725L34.6218 25.0636ZM45.4132 24.3122C44.6588 24.3782 43.9454 24.3014 43.273 24.0818C42.6113 23.8613 42.0253 23.5271 41.5149 23.0792C41.0143 22.6198 40.6289 22.07 40.3588 21.4297L42.0916 20.4911C42.438 21.1461 42.8993 21.6465 43.4757 21.9922C44.0511 22.3273 44.6788 22.4652 45.3589 22.4057C45.7414 22.3722 46.0657 22.2849 46.3317 22.1439C46.6075 21.9913 46.8105 21.8022 46.9406 21.5766C47.0814 21.3502 47.1388 21.0882 47.1128 20.7906C47.0821 20.44 46.9507 20.1624 46.7187 19.9578C46.4963 19.7417 46.1724 19.588 45.7468 19.4968L43.4034 18.963C42.4538 18.757 41.7201 18.3875 41.2024 17.8546C40.6846 17.3217 40.3918 16.6674 40.324 15.8917C40.2645 15.2116 40.3767 14.5968 40.6605 14.0473C40.955 13.4969 41.3872 13.0522 41.9572 12.7132C42.5368 12.3627 43.2145 12.1535 43.9902 12.0857C44.7022 12.0234 45.3668 12.0937 45.9842 12.2967C46.6006 12.489 47.1409 12.7897 47.605 13.1989C48.0788 13.5964 48.448 14.0834 48.7125 14.6599L46.9971 15.613C46.7112 15.0384 46.3206 14.6122 45.8252 14.3343C45.3288 14.0458 44.7725 13.9285 44.1562 13.9824C43.7949 14.014 43.4817 14.1057 43.2165 14.2574C42.9505 14.3984 42.7475 14.5875 42.6077 14.8246C42.4775 15.0501 42.4254 15.3117 42.4514 15.6092C42.4803 15.9386 42.6121 16.2215 42.8469 16.458C43.0808 16.6838 43.4217 16.8467 43.8694 16.9467L46.113 17.441C47.0857 17.6664 47.8295 18.0297 48.3445 18.5307C48.8701 19.0308 49.1677 19.6793 49.2375 20.4763C49.297 21.1563 49.1742 21.7721 48.8691 22.3234C48.5639 22.8748 48.1163 23.3262 47.526 23.6776C46.9357 24.0291 46.2314 24.2406 45.4132 24.3122ZM57.9923 23.2116C57.1847 23.2823 56.4526 23.175 55.7959 22.8898C55.1489 22.5931 54.6245 22.1679 54.2227 21.6141C53.82 21.0497 53.5856 20.3903 53.5196 19.6359C53.4862 19.2533 53.4899 18.8675 53.5308 18.4785C53.5823 18.0885 53.6953 17.6664 53.8697 17.2121C54.0548 16.7569 54.3312 16.2456 54.6992 15.678L57.638 11.0844L60.2201 10.8585L56.6408 16.3915L56.2566 16.0396C56.3952 15.9097 56.5413 15.8059 56.6951 15.7282C56.848 15.6399 57.0028 15.5728 57.1594 15.527C57.3266 15.4802 57.5005 15.449 57.6812 15.4332C58.4038 15.3699 59.061 15.4784 59.653 15.7585C60.245 16.0387 60.7255 16.4517 61.0945 16.9976C61.4732 17.532 61.6937 18.1551 61.756 18.8671C61.8229 19.6322 61.7075 20.3329 61.4099 20.9693C61.1113 21.595 60.6638 22.1106 60.0676 22.5161C59.481 22.9101 58.7893 23.1419 57.9923 23.2116ZM57.8208 21.2511C58.1821 21.2195 58.4992 21.1115 58.7722 20.927C59.0548 20.7309 59.2677 20.4714 59.4107 20.1484C59.5644 19.8244 59.6245 19.4712 59.591 19.0886C59.5557 18.6848 59.4352 18.3474 59.2294 18.0763C59.0334 17.7936 58.7845 17.5798 58.4827 17.4349C58.1809 17.29 57.8441 17.2338 57.4722 17.2664C57.1109 17.298 56.7889 17.4118 56.5063 17.6078C56.2236 17.8039 56.005 18.0586 55.8503 18.3719C55.7054 18.6737 55.6506 19.0265 55.686 19.4303C55.7194 19.8128 55.8347 20.1507 56.0316 20.444C56.2392 20.7363 56.4992 20.9545 56.8116 21.0985C57.1231 21.2319 57.4595 21.2827 57.8208 21.2511ZM64.7108 22.4311L64.5156 20.1996L66.6196 20.0156L66.8148 22.247L64.7108 22.4311ZM73.5249 21.8527C72.8979 21.9076 72.2873 21.8432 71.6931 21.6596C71.1094 21.4751 70.5918 21.1885 70.1402 20.7997C69.6983 20.3994 69.3769 19.9082 69.1761 19.3261L70.9983 18.4921C71.2264 19.0183 71.5539 19.3965 71.981 19.6268C72.4071 19.8465 72.8645 19.935 73.3533 19.8922C73.7571 19.8569 74.1057 19.7407 74.3989 19.5438C74.7019 19.3352 74.9249 19.0694 75.068 18.7464C75.2101 18.4128 75.2631 18.0387 75.2268 17.6243C75.1905 17.2099 75.0686 16.8565 74.861 16.5641C74.664 16.2709 74.404 16.0527 74.081 15.9096C73.757 15.756 73.3932 15.6968 72.9894 15.7321C72.5749 15.7684 72.2056 15.8917 71.8814 16.1021C71.5678 16.3115 71.3515 16.5928 71.2325 16.9458L69.4284 16.7022L69.7914 10.0211L76.2627 9.45492L76.4231 11.2879L70.8125 11.7788L71.5431 10.7673L71.3088 15.7988L70.6425 15.3432C70.902 14.8815 71.2353 14.5311 71.6427 14.292C72.0607 14.052 72.5779 13.905 73.1942 13.8511C73.9805 13.7823 74.6755 13.8928 75.279 14.1826C75.8932 14.4716 76.3853 14.8943 76.7552 15.4508C77.1251 16.0074 77.3435 16.6682 77.4105 17.4333C77.4774 18.1983 77.3519 18.9053 77.0339 19.5541C76.7159 20.203 76.2534 20.7306 75.6466 21.1371C75.0397 21.5435 74.3324 21.7821 73.5249 21.8527Z" fill="black"/>
</svg>
