<svg width="34" height="34" viewBox="0 0 34 34" fill="none" xmlns="http://www.w3.org/2000/svg">
<path d="M33.3911 14.4927V19.0186C33.3911 19.4068 33.077 19.721 32.6887 19.721L23.8249 19.7185C23.1769 19.7185 22.8999 20.5395 23.4168 20.9303L29.9831 25.9138C30.3219 26.1685 30.3565 26.6681 30.0548 26.9673L26.8669 30.1552C26.5924 30.4298 26.1497 30.4298 25.8751 30.1552L3.2408 7.52085C2.96628 7.24635 2.96628 6.80366 3.2408 6.52914L6.42623 3.34124C6.72795 3.03952 7.22506 3.07413 7.48227 3.41295L12.4632 9.97669C12.8564 10.4912 13.6775 10.2142 13.6775 9.56862V0.707323C13.6775 0.319034 13.9916 0.00494384 14.3799 0.00494384L18.8959 0C19.3213 0 19.6502 0.375923 19.5908 0.798831L18.4705 8.95531C18.384 9.59338 19.1581 9.97923 19.6156 9.52169L25.8751 3.26952C26.1497 2.99499 26.5924 2.99499 26.8669 3.26952L30.1191 6.52172C30.3936 6.79624 30.3936 7.23893 30.1191 7.51592L23.8644 13.7681C23.4069 14.2256 23.7928 15.0022 24.4333 14.9132L32.5898 13.7903C33.0127 13.7384 33.3911 14.0648 33.3911 14.4927Z" fill="white"/>
<path d="M16.6871 28.0684C16.6871 27.6975 16.3952 27.3957 16.0218 27.3735C13.5115 27.2202 11.0458 26.1839 9.13154 24.2672C7.21239 22.348 6.17367 19.8822 6.02281 17.372C6.00055 17.001 5.69882 16.7068 5.32785 16.7068H0.70799C0.307338 16.7068 -0.0166492 17.0406 0.00066299 17.4412C0.176257 21.4676 1.80112 25.4444 4.87773 28.521C7.95185 31.5952 11.9262 33.2176 15.9525 33.3932C16.3532 33.4105 16.6871 33.0865 16.6871 32.6859V28.0684Z" fill="white"/>
</svg>
