<svg width="1440" height="143" viewBox="0 0 1440 143" fill="none" xmlns="http://www.w3.org/2000/svg">
<rect width="1789.88" height="95.7943" transform="translate(-173.379) rotate(1.5)" fill="#FFB500"/>
<path d="M-164.144 60.5435C-165.659 60.5039 -167.059 60.1898 -168.345 59.6013C-169.61 59.0133 -170.699 58.2165 -171.612 57.2109C-172.503 56.1846 -173.144 55.0047 -173.536 53.6713L-169.88 52.1985C-169.34 53.5785 -168.536 54.6772 -167.469 55.4948C-166.402 56.291 -165.186 56.707 -163.821 56.7427C-163.053 56.7628 -162.389 56.6628 -161.828 56.4428C-161.246 56.2019 -160.8 55.8722 -160.49 55.4535C-160.159 55.0353 -159.986 54.5277 -159.97 53.9305C-159.952 53.2268 -160.15 52.6454 -160.564 52.1864C-160.957 51.7066 -161.566 51.3279 -162.391 51.0502L-166.927 49.4589C-168.768 48.8345 -170.142 47.9342 -171.05 46.758C-171.958 45.5819 -172.392 44.2154 -172.351 42.6586C-172.315 41.2937 -171.953 40.0975 -171.265 39.0698C-170.555 38.0427 -169.595 37.2569 -168.386 36.7123C-167.155 36.147 -165.761 35.8848 -164.204 35.9255C-162.775 35.963 -161.47 36.2532 -160.29 36.7963C-159.108 37.3181 -158.103 38.038 -157.273 38.956C-156.422 39.8533 -155.798 40.9046 -155.403 42.11L-159.028 43.6157C-159.465 42.4091 -160.145 41.4737 -161.067 40.8093C-161.988 40.1237 -163.067 39.7646 -164.304 39.7322C-165.029 39.7133 -165.672 39.8245 -166.233 40.0658C-166.794 40.2859 -167.24 40.6157 -167.571 41.0552C-167.881 41.4739 -168.044 41.9818 -168.06 42.5789C-168.077 43.24 -167.879 43.8321 -167.466 44.355C-167.052 44.8567 -166.412 45.2576 -165.545 45.5578L-161.198 47.048C-159.316 47.7162 -157.921 48.6064 -157.011 49.7186C-156.079 50.8313 -155.635 52.1874 -155.677 53.7869C-155.712 55.1517 -156.096 56.3475 -156.827 57.374C-157.558 58.4005 -158.55 59.1962 -159.802 59.7609C-161.055 60.3257 -162.502 60.5865 -164.144 60.5435ZM-152.284 60.47L-151.65 36.2543L-147.459 36.364L-147.875 52.2306L-149.461 51.7089L-141.048 43.3502L-135.834 43.4868L-142.447 50.324L-136.161 60.8922L-140.96 60.7665L-146.417 51.5965L-143.909 51.15L-149.303 56.6427L-147.924 54.1179L-148.093 60.5797L-152.284 60.47ZM-133.821 60.9534L-133.366 43.5514L-129.175 43.6611L-129.631 61.0632L-133.821 60.9534ZM-133.315 41.6001L-133.197 37.1216L-129.007 37.2313L-129.124 41.7098L-133.315 41.6001ZM-125.762 61.1645L-125.127 36.9488L-120.937 37.0585L-121.571 61.2742L-125.762 61.1645ZM-117.702 61.3756L-117.068 37.1599L-112.877 37.2696L-113.511 61.4853L-117.702 61.3756ZM-103.03 62.1439C-104.886 62.0953 -106.495 61.6157 -107.858 60.705C-109.2 59.7736 -110.107 58.5441 -110.579 57.0165L-107.404 55.5951C-106.982 56.5878 -106.384 57.3718 -105.609 57.9469C-104.814 58.5226 -103.925 58.8233 -102.944 58.849C-102.176 58.8691 -101.564 58.7144 -101.107 58.3849C-100.651 58.0554 -100.415 57.6134 -100.4 57.059C-100.391 56.7178 -100.48 56.438 -100.667 56.2197C-100.831 55.9807 -101.071 55.7823 -101.387 55.6246C-101.681 55.4462 -102.008 55.2989 -102.368 55.1828L-105.194 54.3085C-106.654 53.8435 -107.757 53.1637 -108.502 52.2693C-109.225 51.3753 -109.571 50.3313 -109.54 49.137C-109.512 48.0707 -109.221 47.15 -108.668 46.3749C-108.092 45.579 -107.318 44.9697 -106.347 44.547C-105.354 44.1249 -104.229 43.9303 -102.97 43.9632C-101.328 44.0062 -99.8885 44.4387 -98.651 45.2607C-97.4134 46.0827 -96.5467 47.2151 -96.051 48.6579L-99.2893 50.0777C-99.5672 49.2808 -100.052 48.6385 -100.743 48.1509C-101.435 47.6633 -102.218 47.4081 -103.092 47.3852C-103.796 47.3668 -104.355 47.5122 -104.768 47.8215C-105.182 48.1308 -105.395 48.5413 -105.409 49.0531C-105.417 49.373 -105.339 49.6525 -105.174 49.8915C-105.01 50.1306 -104.78 50.3287 -104.486 50.4858C-104.17 50.6434 -103.811 50.7915 -103.409 50.9301L-100.648 51.8347C-99.2301 52.2986 -98.1485 52.9672 -97.4031 53.8403C-96.6364 54.714 -96.2692 55.7693 -96.3016 57.0062C-96.329 58.0512 -96.6305 58.9716 -97.2062 59.7675C-97.7814 60.5421 -98.5653 61.1404 -99.558 61.5626C-100.551 61.9847 -101.708 62.1785 -103.03 62.1439ZM-87.1728 62.175L-86.5487 38.3431L-76.5042 38.6062C-74.9261 38.6475 -73.5898 38.9599 -72.4954 39.5434C-71.379 40.1062 -70.5354 40.8965 -69.9646 41.9145C-69.3718 42.9117 -69.0938 44.114 -69.1307 45.5216C-69.1592 46.6092 -69.4845 47.625 -70.1068 48.5691C-70.7072 49.4923 -71.6552 50.2464 -72.951 50.8314L-72.8982 48.8161C-71.737 49.2946 -70.8239 49.8734 -70.1587 50.5524C-69.4936 51.2314 -69.033 51.9797 -68.777 52.7973C-68.521 53.615 -68.4047 54.4716 -68.4282 55.3673C-68.4879 57.6492 -69.2919 59.4208 -70.8401 60.682C-72.3665 61.9225 -74.4625 62.5078 -77.1282 62.438L-87.1728 62.175ZM-82.7218 58.4502L-76.5799 58.6111C-75.4496 58.6406 -74.5458 58.3549 -73.8685 57.7537C-73.1693 57.1318 -72.8061 56.2984 -72.7787 55.2534C-72.7513 54.2084 -73.0705 53.3571 -73.7362 52.6995C-74.3805 52.0424 -75.2678 51.699 -76.3981 51.6694L-82.54 51.5086L-82.7218 58.4502ZM-82.4403 47.7019L-76.5224 47.8569C-75.6267 47.8803 -74.9055 47.6431 -74.359 47.1453C-73.8119 46.6261 -73.5274 45.9506 -73.5056 45.1189C-73.4839 44.2872 -73.7331 43.6191 -74.2534 43.1146C-74.7737 42.6102 -75.4817 42.3462 -76.3774 42.3228L-82.2954 42.1678L-82.4403 47.7019ZM-56.9082 63.3516C-58.6143 63.3069 -60.1608 62.8716 -61.5476 62.0457C-62.9132 61.2204 -63.9939 60.1144 -64.7899 58.7277C-65.5645 57.3416 -65.929 55.7742 -65.8832 54.0255C-65.8374 52.2768 -65.3914 50.7306 -64.5453 49.3869C-63.6778 48.0438 -62.5407 46.9959 -61.1338 46.2431C-59.727 45.4904 -58.1599 45.1366 -56.4324 45.1818C-54.7264 45.2265 -53.1906 45.6615 -51.825 46.4869C-50.4595 47.3123 -49.3894 48.418 -48.6148 49.8041C-47.8182 51.1694 -47.4431 52.7371 -47.4895 54.5071C-47.5353 56.2559 -47.9919 57.8018 -48.8594 59.1449C-49.7268 60.488 -50.864 61.5359 -52.2708 62.2886C-53.6777 63.0414 -55.2235 63.3957 -56.9082 63.3516ZM-56.8077 59.5129C-55.8694 59.5375 -55.0425 59.3351 -54.327 58.9057C-53.5902 58.4768 -53.0088 57.8731 -52.583 57.0947C-52.1352 56.2955 -51.8982 55.3947 -51.872 54.3924C-51.8452 53.3687 -52.035 52.4675 -52.4414 51.6886C-52.8259 50.8889 -53.3749 50.2556 -54.0882 49.7888C-54.7797 49.3012 -55.5946 49.0451 -56.533 49.0205C-57.4926 48.9954 -58.3412 49.2079 -59.0785 49.6581C-59.8153 50.087 -60.4073 50.6904 -60.8545 51.4682C-61.2798 52.2254 -61.5059 53.1158 -61.5327 54.1394C-61.5589 55.1417 -61.3801 56.0534 -60.9961 56.8744C-60.5902 57.6746 -60.0306 58.3082 -59.3173 58.775C-58.6039 59.2418 -57.7674 59.4878 -56.8077 59.5129ZM-36.0404 63.8981C-37.7465 63.8534 -39.2929 63.4181 -40.6798 62.5922C-42.0453 61.7668 -43.1261 60.6608 -43.9221 59.2742C-44.6967 57.8881 -45.0611 56.3207 -45.0153 54.5719C-44.9695 52.8232 -44.5236 51.277 -43.6775 49.9334C-42.81 48.5903 -41.6728 47.5423 -40.266 46.7896C-38.8591 46.0368 -37.292 45.6831 -35.5646 45.7283C-33.8585 45.773 -32.3227 46.208 -30.9572 47.0333C-29.5917 47.8587 -28.5216 48.9644 -27.7469 50.3505C-26.9504 51.7158 -26.5753 53.2835 -26.6216 55.0536C-26.6674 56.8023 -27.1241 58.3482 -27.9915 59.6913C-28.859 61.0344 -29.9961 62.0823 -31.403 62.8351C-32.8098 63.5879 -34.3556 63.9422 -36.0404 63.8981ZM-35.9399 60.0594C-35.0015 60.0839 -34.1746 59.8815 -33.4591 59.4521C-32.7223 59.0232 -32.141 58.4196 -31.7151 57.6411C-31.2674 56.8419 -31.0304 55.9411 -31.0041 54.9388C-30.9773 53.9152 -31.1671 53.0139 -31.5736 52.235C-31.9581 51.4353 -32.507 50.8021 -33.2204 50.3352C-33.9119 49.8476 -34.7268 49.5915 -35.6651 49.567C-36.6248 49.5418 -37.4733 49.7544 -38.2107 50.2046C-38.9475 50.6334 -39.5395 51.2368 -39.9867 52.0147C-40.412 52.7718 -40.638 53.6622 -40.6648 54.6859C-40.6911 55.6882 -40.5122 56.5998 -40.1282 57.4208C-39.7224 58.2211 -39.1628 58.8546 -38.4494 59.3214C-37.7361 59.7883 -36.8995 60.0342 -35.9399 60.0594ZM-17.0599 64.3951C-18.9153 64.3465 -20.5246 63.8669 -21.8879 62.9562C-23.2293 62.0248 -24.1361 60.7953 -24.6083 59.2677L-21.434 57.8463C-21.0118 58.8391 -20.4135 59.623 -19.6389 60.1981C-18.843 60.7738 -17.9546 61.0745 -16.9736 61.1002C-16.2059 61.1203 -15.5936 60.9656 -15.1368 60.6361C-14.6801 60.3066 -14.4444 59.8647 -14.4299 59.3102C-14.421 58.969 -14.5097 58.6892 -14.696 58.4709C-14.8605 58.2319 -15.1007 58.0335 -15.4167 57.8759C-15.7108 57.6974 -16.0377 57.5502 -16.3975 57.434L-19.2235 56.5598C-20.6839 56.0947 -21.7864 55.4149 -22.5313 54.5205C-23.2548 53.6266 -23.6009 52.5825 -23.5696 51.3882C-23.5417 50.3219 -23.2509 49.4012 -22.697 48.6261C-22.1213 47.8302 -21.3478 47.221 -20.3764 46.7982C-19.3837 46.3761 -18.2582 46.1815 -17 46.2144C-15.3579 46.2574 -13.918 46.6899 -12.6804 47.5119C-11.4429 48.3339 -10.5762 49.4664 -10.0805 50.9092L-13.3188 52.3289C-13.5967 51.532 -14.0813 50.8898 -14.7728 50.4022C-15.4643 49.9146 -16.2472 49.6593 -17.1216 49.6364C-17.8253 49.618 -18.384 49.7634 -18.7976 50.0727C-19.2111 50.382 -19.4246 50.7925 -19.438 51.3043C-19.4464 51.6242 -19.3684 51.9037 -19.2039 52.1428C-19.0394 52.3818 -18.8099 52.5799 -18.5152 52.737C-18.1992 52.8947 -17.8403 53.0428 -17.4385 53.1813L-14.6772 54.0859C-13.2595 54.5499 -12.178 55.2184 -11.4326 56.0915C-10.6659 56.9652 -10.2987 58.0206 -10.3311 59.2575C-10.3585 60.3024 -10.66 61.2229 -11.2357 62.0187C-11.8108 62.7933 -12.5948 63.3916 -13.5875 63.8138C-14.5802 64.2359 -15.7377 64.4297 -17.0599 64.3951ZM0.688544 64.6678C-1.27345 64.6164 -2.7843 64.0433 -3.844 62.9485C-4.88183 61.833 -5.37505 60.2942 -5.32367 58.3322L-5.12263 50.6549L-8.1296 50.5761L-8.03159 46.8334L-7.7117 46.8418C-6.85866 46.8641 -6.19169 46.6575 -5.71079 46.2219C-5.22989 45.7864 -4.97827 45.1421 -4.95594 44.289L-4.92075 42.9455L-0.730191 43.0552L-0.834062 47.0219L3.16457 47.1266L3.06656 50.8693L-0.932068 50.7646L-1.12724 58.218C-1.14232 58.7938 -1.0592 59.2868 -0.877875 59.6971C-0.675225 60.1078 -0.363432 60.4255 0.0575043 60.6499C0.499766 60.8749 1.06211 60.9963 1.74455 61.0142C1.89383 61.0181 2.06472 61.0119 2.25721 60.9956C2.47103 60.9798 2.67418 60.9638 2.86668 60.9475L2.77286 64.5303C2.47318 64.5651 2.13084 64.5988 1.74586 64.6314C1.36087 64.664 1.00843 64.6762 0.688544 64.6678Z" fill="black"/>
<rect x="65.2852" y="54.1631" width="12" height="12" rx="4" transform="rotate(-43.5 65.2852 54.1631)" fill="#B66D00"/>
<path d="M152.717 68.8409C151.203 68.8013 149.803 68.4872 148.517 67.8986C147.252 67.3106 146.163 66.5139 145.25 65.5083C144.359 64.482 143.718 63.3021 143.326 61.9687L146.982 60.4959C147.522 61.8758 148.326 62.9746 149.393 63.7921C150.46 64.5884 151.676 65.0043 153.041 65.0401C153.809 65.0602 154.473 64.9602 155.034 64.7401C155.616 64.4993 156.062 64.1695 156.372 63.7508C156.703 63.3327 156.876 62.825 156.892 62.2279C156.91 61.5242 156.712 60.9428 156.297 60.4838C155.905 60.004 155.296 59.6252 154.471 59.3475L149.935 57.7563C148.094 57.1319 146.72 56.2316 145.812 55.0554C144.904 53.8792 144.47 52.5127 144.511 50.9559C144.547 49.5911 144.909 48.3948 145.597 47.3672C146.307 46.34 147.267 45.5542 148.476 45.0097C149.707 44.4444 151.101 44.1821 152.658 44.2229C154.087 44.2603 155.392 44.5506 156.572 45.0937C157.754 45.6154 158.759 46.3353 159.589 47.2534C160.44 48.1506 161.064 49.202 161.459 50.4074L157.834 51.913C157.396 50.7065 156.717 49.7711 155.795 49.1067C154.874 48.421 153.795 48.062 152.558 48.0296C151.833 48.0106 151.19 48.1218 150.629 48.3632C150.068 48.5833 149.622 48.913 149.29 49.3525C148.981 49.7712 148.818 50.2791 148.802 50.8763C148.785 51.5374 148.983 52.1294 149.396 52.6524C149.81 53.1541 150.45 53.555 151.317 53.8551L155.664 55.3454C157.546 56.0136 158.941 56.9037 159.851 58.0159C160.782 59.1287 161.227 60.4848 161.185 62.0842C161.15 63.4491 160.766 64.6448 160.035 65.6714C159.304 66.6979 158.312 67.4936 157.059 68.0583C155.807 68.623 154.36 68.8839 152.717 68.8409ZM172.949 69.3707C171.222 69.3255 169.675 68.8902 168.31 68.0648C166.966 67.2187 165.918 66.1028 165.164 64.7173C164.412 63.3105 164.058 61.7433 164.103 60.0159C164.148 58.2885 164.583 56.7527 165.408 55.4085C166.233 54.0643 167.338 53.0155 168.724 52.2622C170.131 51.5094 171.698 51.1557 173.425 51.2009C174.662 51.2333 175.808 51.4874 176.862 51.9632C177.917 52.4176 178.819 53.0387 179.566 53.8266C180.336 54.5937 180.878 55.5041 181.192 56.5581L177.471 58.0612C177.174 57.1784 176.649 56.4604 175.895 55.9072C175.162 55.3545 174.306 55.0653 173.325 55.0396C172.408 55.0156 171.581 55.218 170.844 55.6469C170.128 56.0763 169.558 56.6802 169.132 57.4587C168.706 58.2371 168.48 59.1382 168.453 60.1618C168.426 61.1855 168.605 62.0971 168.989 62.8968C169.374 63.6965 169.912 64.3295 170.604 64.7957C171.318 65.2626 172.133 65.508 173.05 65.532C174.052 65.5583 174.933 65.3146 175.694 64.801C176.454 64.2874 177.006 63.5869 177.349 62.6996L180.985 64.4593C180.618 65.4314 180.04 66.3019 179.252 67.0709C178.464 67.8185 177.531 68.4023 176.453 68.8222C175.375 69.2208 174.208 69.4036 172.949 69.3707ZM192.539 69.8837C190.833 69.839 189.287 69.4037 187.9 68.5778C186.534 67.7524 185.454 66.6464 184.658 65.2598C183.883 63.8737 183.519 62.3063 183.564 60.5575C183.61 58.8088 184.056 57.2626 184.902 55.919C185.77 54.5759 186.907 53.528 188.314 52.7752C189.721 52.0224 191.288 51.6687 193.015 51.7139C194.721 51.7586 196.257 52.1936 197.623 53.019C198.988 53.8443 200.058 54.95 200.833 56.3361C201.629 57.7014 202.004 59.2691 201.958 61.0392C201.912 62.7879 201.456 64.3338 200.588 65.6769C199.721 67.02 198.584 68.0679 197.177 68.8207C195.77 69.5735 194.224 69.9278 192.539 69.8837ZM192.64 66.045C193.578 66.0696 194.405 65.8671 195.121 65.4377C195.857 65.0089 196.439 64.4052 196.865 63.6268C197.312 62.8275 197.549 61.9268 197.576 60.9244C197.602 59.9008 197.413 58.9995 197.006 58.2206C196.622 57.4209 196.073 56.7877 195.359 56.3208C194.668 55.8332 193.853 55.5772 192.915 55.5526C191.955 55.5275 191.106 55.74 190.369 56.1902C189.632 56.619 189.04 57.2224 188.593 58.0003C188.168 58.7574 187.942 59.6478 187.915 60.6715C187.889 61.6738 188.068 62.5854 188.451 63.4064C188.857 64.2067 189.417 64.8402 190.13 65.307C190.844 65.7739 191.68 66.0199 192.64 66.045ZM204.908 69.8234L205.364 52.4214L209.298 52.5244L209.197 56.3951L208.892 55.8109C209.332 54.5206 209.984 53.6308 210.851 53.1413C211.739 52.6523 212.79 52.4238 214.006 52.4556L215.03 52.4824L214.932 56.1932L213.429 56.1538C212.235 56.1225 211.265 56.4706 210.521 57.198C209.776 57.9041 209.387 58.9183 209.353 60.2405L209.099 69.9332L204.908 69.8234ZM225.116 70.7367C223.325 70.6898 221.768 70.2436 220.445 69.398C219.123 68.5524 218.107 67.4268 217.397 66.021C216.687 64.6153 216.354 63.0701 216.398 61.3853C216.444 59.6366 216.857 58.1002 217.639 56.7762C218.442 55.4314 219.505 54.3816 220.826 53.6266C222.169 52.8721 223.651 52.5161 225.272 52.5586C226.637 52.5943 227.825 52.8495 228.837 53.3242C229.87 53.7994 230.739 54.441 231.443 55.2491C232.148 56.0571 232.679 56.978 233.036 58.0117C233.393 59.0241 233.557 60.1167 233.526 61.2896C233.518 61.5882 233.489 61.8969 233.438 62.2156C233.408 62.535 233.348 62.8108 233.256 63.0432L219.821 62.6914L219.904 59.4924L230.973 59.7823L228.95 61.2338C229.168 60.2579 229.137 59.3821 228.859 58.6065C228.602 57.8315 228.148 57.2115 227.499 56.7463C226.871 56.2817 226.098 56.0374 225.181 56.0134C224.307 55.9905 223.523 56.194 222.829 56.624C222.135 57.0327 221.596 57.6588 221.211 58.5023C220.848 59.3251 220.693 60.3347 220.747 61.5312C220.634 62.5953 220.748 63.5479 221.089 64.3891C221.451 65.2096 221.989 65.8532 222.703 66.32C223.437 66.7874 224.285 67.0337 225.244 67.0588C226.204 67.0839 227.02 66.9026 227.691 66.5147C228.384 66.1274 228.932 65.5975 229.333 64.9251L232.681 66.6774C232.318 67.5001 231.765 68.2219 231.024 68.8427C230.282 69.4635 229.405 69.9421 228.393 70.2783C227.403 70.6152 226.31 70.768 225.116 70.7367ZM244.543 71.2454C242.858 71.2013 241.365 70.7674 240.064 69.9437C238.763 69.0987 237.746 67.9731 237.015 66.5668C236.283 65.1605 235.94 63.615 235.984 61.9302C236.029 60.2241 236.453 58.6987 237.256 57.3539C238.06 56.0092 239.133 54.9489 240.477 54.1731C241.841 53.3979 243.345 53.0318 244.987 53.0748C246.309 53.1095 247.475 53.4067 248.485 53.9667C249.516 54.5059 250.318 55.2525 250.891 56.2065L250.228 57.0534L250.497 46.7849L254.688 46.8947L254.054 71.1104L250.087 71.0065L250.175 67.6476L250.601 68.4911C249.979 69.4138 249.129 70.1171 248.049 70.601C246.97 71.0636 245.801 71.2784 244.543 71.2454ZM245.091 67.4185C246.051 67.4436 246.899 67.2417 247.636 66.8129C248.373 66.384 248.954 65.7804 249.38 65.0019C249.827 64.224 250.064 63.3233 250.091 62.2996C250.117 61.2973 249.928 60.396 249.522 59.5958C249.138 58.7748 248.589 58.1309 247.876 57.664C247.162 57.1972 246.326 56.9512 245.366 56.9261C244.428 56.9015 243.579 57.114 242.821 57.5637C242.062 57.992 241.46 58.5951 241.013 59.373C240.587 60.1301 240.361 61.0205 240.334 62.0441C240.308 63.0678 240.486 63.9794 240.871 64.7791C241.277 65.5793 241.847 66.2131 242.582 66.6805C243.317 67.1479 244.153 67.3939 245.091 67.4185ZM263.99 71.3705L264.614 47.5387L268.773 47.6476L277.38 60.0052L275.397 59.9532L284.447 48.0581L288.606 48.167L287.982 71.9988L283.599 71.884L284.093 53.0105L285.778 53.4708L276.409 65.2936L275.897 65.2802L267.384 52.9891L268.835 52.6109L268.34 71.4845L263.99 71.3705ZM300.69 72.7157C298.984 72.671 297.437 72.2357 296.05 71.4098C294.685 70.5844 293.604 69.4784 292.808 68.0918C292.033 66.7057 291.669 65.1383 291.715 63.3896C291.761 61.6408 292.207 60.0946 293.053 58.751C293.92 57.4079 295.057 56.36 296.464 55.6072C297.871 54.8545 299.438 54.5007 301.166 54.5459C302.872 54.5906 304.407 55.0256 305.773 55.851C307.138 56.6763 308.209 57.7821 308.983 59.1681C309.78 60.5335 310.155 62.1012 310.108 63.8712C310.063 65.6199 309.606 67.1659 308.739 68.5089C307.871 69.852 306.734 70.9 305.327 71.6527C303.92 72.4055 302.375 72.7598 300.69 72.7157ZM300.79 68.877C301.729 68.9016 302.556 68.6992 303.271 68.2697C304.008 67.8409 304.589 67.2372 305.015 66.4588C305.463 65.6596 305.7 64.7588 305.726 63.7565C305.753 62.7328 305.563 61.8315 305.157 61.0526C304.772 60.253 304.223 59.6197 303.51 59.1529C302.818 58.6653 302.003 58.4092 301.065 58.3846C300.105 58.3595 299.257 58.572 298.519 59.0222C297.783 59.451 297.191 60.0544 296.743 60.8323C296.318 61.5894 296.092 62.4798 296.065 63.5035C296.039 64.5058 296.218 65.4175 296.602 66.2385C297.008 67.0387 297.567 67.6722 298.281 68.1391C298.994 68.6059 299.831 68.8519 300.79 68.877ZM321.43 73.2588C319.702 73.2136 318.156 72.7783 316.79 71.9529C315.447 71.1068 314.398 69.9909 313.645 68.6054C312.892 67.1986 312.538 65.6314 312.583 63.904C312.629 62.1766 313.064 60.6408 313.889 59.2966C314.713 57.9524 315.819 56.9036 317.204 56.1503C318.611 55.3975 320.178 55.0438 321.905 55.089C323.142 55.1214 324.288 55.3755 325.343 55.8513C326.398 56.3057 327.299 56.9268 328.047 57.7147C328.816 58.4817 329.358 59.3922 329.672 60.4462L325.951 61.9493C325.654 61.0665 325.129 60.3485 324.375 59.7953C323.643 59.2426 322.786 58.9534 321.805 58.9277C320.888 58.9037 320.061 59.1061 319.324 59.535C318.609 59.9644 318.038 60.5683 317.612 61.3468C317.186 62.1252 316.96 63.0263 316.933 64.0499C316.906 65.0736 317.085 65.9852 317.47 66.7849C317.854 67.5846 318.393 68.2176 319.085 68.6838C319.798 69.1507 320.613 69.3961 321.53 69.4201C322.532 69.4463 323.414 69.2027 324.174 68.6891C324.935 68.1755 325.486 67.475 325.83 66.5877L329.465 68.3474C329.098 69.3195 328.52 70.19 327.732 70.959C326.944 71.7066 326.011 72.2904 324.933 72.7103C323.856 73.1089 322.688 73.2917 321.43 73.2588ZM332.521 73.1651L333.155 48.9494L337.345 49.0591L336.93 64.9257L335.343 64.404L343.757 56.0453L348.971 56.1819L342.358 63.0191L348.643 73.5873L343.845 73.4616L338.387 64.2916L340.895 63.8451L335.502 69.3378L336.88 66.813L336.711 73.2748L332.521 73.1651ZM364.597 74.1971C362.635 74.1457 361.124 73.5726 360.064 72.4779C359.026 71.3623 358.533 69.8235 358.585 67.8615L358.786 60.1842L355.779 60.1054L355.877 56.3627L356.197 56.3711C357.05 56.3934 357.717 56.1868 358.198 55.7513C358.678 55.3157 358.93 54.6714 358.952 53.8184L358.988 52.4748L363.178 52.5845L363.074 56.5512L367.073 56.6559L366.975 60.3986L362.976 60.2939L362.781 67.7474C362.766 68.3232 362.849 68.8162 363.03 69.2264C363.233 69.6372 363.545 69.9548 363.966 70.1792C364.408 70.4042 364.97 70.5256 365.653 70.5435C365.802 70.5474 365.973 70.5412 366.166 70.5249C366.379 70.5092 366.583 70.4931 366.775 70.4768L366.681 74.0596C366.382 74.0944 366.039 74.1282 365.654 74.1608C365.269 74.1934 364.917 74.2055 364.597 74.1971ZM377.97 74.7393C376.178 74.6924 374.622 74.2462 373.299 73.4006C371.977 72.5551 370.961 71.4294 370.251 70.0237C369.54 68.6179 369.207 67.0727 369.252 65.3879C369.297 63.6392 369.711 62.1028 370.493 60.7788C371.296 59.4341 372.359 58.3842 373.68 57.6292C375.023 56.8747 376.505 56.5187 378.126 56.5612C379.491 56.5969 380.679 56.8521 381.691 57.3268C382.724 57.802 383.593 58.4436 384.297 59.2517C385.002 60.0597 385.533 60.9806 385.89 62.0143C386.247 63.0267 386.411 64.1193 386.38 65.2923C386.372 65.5908 386.343 65.8995 386.292 66.2183C386.262 66.5376 386.201 66.8134 386.11 67.0458L372.675 66.694L372.758 63.4951L383.827 63.7849L381.804 65.2364C382.021 64.2605 381.991 63.3847 381.713 62.6092C381.455 61.8342 381.002 61.2141 380.353 60.7489C379.725 60.2843 378.952 60.04 378.035 60.016C377.161 59.9931 376.377 60.1967 375.682 60.6266C374.989 61.0353 374.45 61.6614 374.065 62.5049C373.702 63.3277 373.547 64.3373 373.601 65.5338C373.488 66.5979 373.602 67.5505 373.943 68.3917C374.305 69.2122 374.843 69.8558 375.557 70.3227C376.291 70.79 377.138 71.0363 378.098 71.0614C379.058 71.0866 379.873 70.9052 380.545 70.5173C381.238 70.13 381.786 69.6001 382.187 68.9278L385.535 70.68C385.172 71.5028 384.619 72.2245 383.877 72.8453C383.136 73.4661 382.259 73.9447 381.247 74.281C380.256 74.6178 379.164 74.7706 377.97 74.7393ZM395.925 75.2095C394.07 75.1609 392.461 74.6813 391.097 73.7706C389.756 72.8392 388.849 71.6097 388.377 70.0822L391.551 68.6608C391.973 69.6535 392.572 70.4374 393.346 71.0126C394.142 71.5883 395.031 71.889 396.012 71.9147C396.779 71.9348 397.392 71.7801 397.848 71.4506C398.305 71.1211 398.541 70.6791 398.555 70.1246C398.564 69.7834 398.476 69.5037 398.289 69.2854C398.125 69.0463 397.885 68.848 397.569 68.6903C397.274 68.5119 396.948 68.3646 396.588 68.2485L393.762 67.3742C392.301 66.9091 391.199 66.2294 390.454 65.3349C389.73 64.441 389.384 63.3969 389.416 62.2027C389.444 61.1364 389.734 60.2157 390.288 59.4406C390.864 58.6447 391.637 58.0354 392.609 57.6127C393.602 57.1905 394.727 56.9959 395.985 57.0289C397.627 57.0719 399.067 57.5044 400.305 58.3264C401.542 59.1484 402.409 60.2808 402.905 61.7236L399.666 63.1433C399.389 62.3464 398.904 61.7042 398.212 61.2166C397.521 60.729 396.738 60.4737 395.864 60.4509C395.16 60.4324 394.601 60.5778 394.188 60.8871C393.774 61.1964 393.561 61.607 393.547 62.1188C393.539 62.4387 393.617 62.7181 393.781 62.9572C393.946 63.1963 394.175 63.3943 394.47 63.5514C394.786 63.7091 395.145 63.8572 395.547 63.9958L398.308 64.9004C399.726 65.3643 400.807 66.0328 401.553 66.906C402.319 67.7797 402.687 68.835 402.654 70.0719C402.627 71.1169 402.325 72.0373 401.75 72.8332C401.174 73.6077 400.39 74.2061 399.398 74.6282C398.405 75.0504 397.248 75.2441 395.925 75.2095ZM413.674 75.4822C411.712 75.4308 410.201 74.8578 409.141 73.763C408.103 72.6474 407.61 71.1087 407.662 69.1467L407.863 61.4693L404.856 61.3906L404.954 57.6478L405.274 57.6562C406.127 57.6786 406.794 57.4719 407.274 57.0364C407.755 56.6008 408.007 55.9565 408.029 55.1035L408.064 53.7599L412.255 53.8697L412.151 57.8363L416.15 57.941L416.052 61.6837L412.053 61.579L411.858 69.0325C411.843 69.6083 411.926 70.1013 412.107 70.5115C412.31 70.9223 412.622 71.2399 413.043 71.4643C413.485 71.6893 414.047 71.8107 414.73 71.8286C414.879 71.8325 415.05 71.8263 415.242 71.81C415.456 71.7943 415.659 71.7783 415.852 71.762L415.758 75.3447C415.458 75.3796 415.116 75.4133 414.731 75.4459C414.346 75.4785 413.994 75.4906 413.674 75.4822ZM425.571 75.9858C423.716 75.9372 422.107 75.4576 420.743 74.547C419.402 73.6155 418.495 72.386 418.023 70.8585L421.197 69.4371C421.62 70.4298 422.218 71.2137 422.992 71.7889C423.788 72.3646 424.677 72.6653 425.658 72.691C426.425 72.7111 427.038 72.5564 427.494 72.2269C427.951 71.8974 428.187 71.4554 428.201 70.9009C428.21 70.5597 428.122 70.28 427.935 70.0617C427.771 69.8226 427.531 69.6243 427.215 69.4666C426.921 69.2882 426.594 69.1409 426.234 69.0248L423.408 68.1505C421.947 67.6855 420.845 67.0057 420.1 66.1112C419.377 65.2173 419.03 64.1732 419.062 62.979C419.09 61.9127 419.38 60.992 419.934 60.2169C420.51 59.421 421.284 58.8117 422.255 58.389C423.248 57.9668 424.373 57.7722 425.631 57.8052C427.273 57.8482 428.713 58.2807 429.951 59.1027C431.188 59.9247 432.055 61.0571 432.551 62.4999L429.313 63.9196C429.035 63.1227 428.55 62.4805 427.859 61.9929C427.167 61.5053 426.384 61.2501 425.51 61.2272C424.806 61.2087 424.247 61.3542 423.834 61.6634C423.42 61.9727 423.207 62.3833 423.193 62.8951C423.185 63.215 423.263 63.4945 423.427 63.7335C423.592 63.9726 423.821 64.1706 424.116 64.3277C424.432 64.4854 424.791 64.6335 425.193 64.7721L427.954 65.6767C429.372 66.1406 430.453 66.8091 431.199 67.6823C431.965 68.556 432.333 69.6113 432.3 70.8482C432.273 71.8932 431.971 72.8136 431.396 73.6095C430.82 74.384 430.037 74.9824 429.044 75.4045C428.051 75.8267 426.894 76.0205 425.571 75.9858Z" fill="black"/>
<rect x="494.109" y="65.3926" width="12" height="12" rx="4" transform="rotate(-43.5 494.109 65.3926)" fill="#B66D00"/>
<path d="M573.042 79.4632L573.666 55.6314L582.559 55.8643C584.18 55.9067 585.601 56.2427 586.822 56.8722C588.065 57.4809 589.024 58.3597 589.698 59.5084C590.373 60.6358 590.689 61.9992 590.647 63.5986C590.606 65.1768 590.208 66.5215 589.453 67.6328C588.721 68.7233 587.728 69.5509 586.475 70.1157C585.223 70.6804 583.786 70.9415 582.165 70.8991L577.623 70.7802L577.393 79.5771L573.042 79.4632ZM577.723 66.9415L582.33 67.0621C583.119 67.0828 583.805 66.9513 584.389 66.6679C584.973 66.363 585.432 65.9376 585.767 65.3915C586.101 64.8454 586.278 64.2098 586.297 63.4847C586.316 62.7383 586.173 62.0943 585.867 61.5528C585.562 60.99 585.125 60.5517 584.557 60.2381C583.99 59.9031 583.312 59.7253 582.522 59.7046L577.916 59.584L577.723 66.9415ZM593.433 79.9972L593.889 62.5951L597.823 62.6982L597.722 66.5688L597.417 65.9847C597.856 64.6944 598.509 63.8045 599.376 63.315C600.264 62.8261 601.315 62.5975 602.531 62.6294L603.554 62.6562L603.457 66.3669L601.954 66.3275C600.76 66.2963 599.79 66.6443 599.045 67.3718C598.301 68.0779 597.912 69.092 597.877 70.4142L597.624 80.1069L593.433 79.9972ZM610.666 80.8326C609.45 80.8007 608.4 80.5705 607.515 80.1418C606.63 79.7132 605.952 79.1192 605.481 78.36C605.01 77.5794 604.788 76.688 604.815 75.6856C604.84 74.726 605.075 73.8785 605.521 73.1433C605.968 72.3867 606.646 71.7642 607.555 71.2759C608.464 70.7875 609.604 70.4545 610.974 70.277L616.693 69.4984L616.609 72.6973L611.693 73.4009C610.857 73.5284 610.232 73.7788 609.816 74.152C609.401 74.5253 609.185 75.0212 609.169 75.6396C609.154 76.2367 609.365 76.7224 609.803 77.0967C610.264 77.4502 610.835 77.6359 611.517 77.6538C612.392 77.6767 613.164 77.5155 613.835 77.1703C614.527 76.8043 615.063 76.2955 615.443 75.6438C615.844 74.9928 616.055 74.2727 616.076 73.4837L616.193 69.0052C616.213 68.2588 615.93 67.6325 615.346 67.1264C614.784 66.5995 614.023 66.3235 613.063 66.2983C612.167 66.2749 611.361 66.4992 610.645 66.9713C609.95 67.4226 609.432 68.0386 609.092 68.8192L605.712 67.0662C606.078 66.1581 606.632 65.383 607.374 64.7409C608.138 64.078 609.027 63.5677 610.039 63.2101C611.051 62.8525 612.144 62.689 613.317 62.7198C614.746 62.7572 615.997 63.0567 617.071 63.6183C618.145 64.1586 618.968 64.9058 619.541 65.8598C620.135 66.793 620.416 67.878 620.384 69.1149L620.081 80.695L616.114 80.5911L616.192 77.6161L617.089 77.5756C616.622 78.3103 616.072 78.9254 615.44 79.4211C614.809 79.8954 614.095 80.2608 613.299 80.5174C612.503 80.7526 611.625 80.8577 610.666 80.8326ZM632.325 81.3997C630.597 81.3545 629.051 80.9192 627.685 80.0938C626.342 79.2477 625.293 78.1319 624.54 76.7463C623.787 75.3395 623.434 73.7724 623.479 72.045C623.524 70.3175 623.959 68.7817 624.784 67.4375C625.609 66.0933 626.714 65.0446 628.099 64.2913C629.506 63.5385 631.073 63.1847 632.801 63.23C634.038 63.2623 635.183 63.5164 636.238 63.9922C637.293 64.4466 638.194 65.0678 638.942 65.8556C639.712 66.6227 640.253 67.5332 640.567 68.5871L636.846 70.0902C636.55 69.2075 636.024 68.4895 635.27 67.9362C634.538 67.3835 633.681 67.0943 632.7 67.0686C631.783 67.0446 630.956 67.2471 630.219 67.6759C629.504 68.1053 628.933 68.7093 628.507 69.4877C628.082 70.2662 627.855 71.1672 627.828 72.1909C627.802 73.2145 627.98 74.1262 628.365 74.9259C628.75 75.7255 629.288 76.3585 629.98 76.8248C630.693 77.2916 631.508 77.537 632.425 77.561C633.428 77.5873 634.309 77.3436 635.069 76.83C635.83 76.3164 636.382 75.6159 636.725 74.7286L640.36 76.4884C639.993 77.4604 639.416 78.331 638.627 79.0999C637.839 79.8475 636.906 80.4313 635.828 80.8513C634.751 81.2499 633.583 81.4327 632.325 81.3997ZM651.344 81.7057C649.382 81.6543 647.871 81.0812 646.812 79.9865C645.774 78.8709 645.281 77.3321 645.332 75.3701L645.533 67.6928L642.526 67.614L642.624 63.8713L642.944 63.8797C643.797 63.902 644.464 63.6954 644.945 63.2599C645.426 62.8243 645.677 62.18 645.7 61.327L645.735 59.9834L649.925 60.0932L649.822 64.0598L653.82 64.1645L653.722 67.9072L649.724 67.8025L649.528 75.256C649.513 75.8318 649.596 76.3248 649.778 76.735C649.98 77.1458 650.292 77.4634 650.713 77.6878C651.155 77.9128 651.718 78.0342 652.4 78.0521C652.549 78.056 652.72 78.0498 652.913 78.0335C653.127 78.0178 653.33 78.0017 653.522 77.9854L653.428 81.5682C653.129 81.603 652.786 81.6368 652.401 81.6694C652.016 81.702 651.664 81.7141 651.344 81.7057ZM656.63 81.6521L657.086 64.25L661.276 64.3597L660.821 81.7618L656.63 81.6521ZM657.137 62.2987L657.254 57.8202L661.445 57.93L661.327 62.4084L657.137 62.2987ZM673.061 82.4664C671.334 82.4212 669.787 81.9859 668.422 81.1605C667.078 80.3144 666.029 79.1986 665.276 77.8131C664.523 76.4062 664.17 74.8391 664.215 73.1117C664.26 71.3843 664.695 69.8485 665.52 68.5043C666.345 67.16 667.45 66.1113 668.835 65.358C670.242 64.6052 671.809 64.2514 673.537 64.2967C674.774 64.3291 675.919 64.5831 676.974 65.0589C678.029 65.5133 678.93 66.1345 679.678 66.9223C680.448 67.6894 680.989 68.5999 681.303 69.6538L677.583 71.1569C677.286 70.2742 676.76 69.5562 676.006 69.0029C675.274 68.4502 674.417 68.161 673.436 68.1354C672.519 68.1113 671.692 68.3138 670.955 68.7426C670.24 69.172 669.669 69.776 669.243 70.5544C668.818 71.3329 668.591 72.2339 668.564 73.2576C668.538 74.2812 668.717 75.1929 669.101 75.9926C669.486 76.7922 670.024 77.4252 670.716 77.8915C671.429 78.3583 672.244 78.6037 673.161 78.6278C674.164 78.654 675.045 78.4103 675.805 77.8967C676.566 77.3831 677.118 76.6827 677.461 75.7953L681.096 77.5551C680.729 78.5272 680.152 79.3977 679.363 80.1666C678.575 80.9143 677.643 81.498 676.564 81.918C675.487 82.3166 674.319 82.4994 673.061 82.4664ZM692.395 82.9727C690.604 82.9258 689.047 82.4796 687.724 81.634C686.402 80.7884 685.386 79.6628 684.676 78.257C683.966 76.8513 683.633 75.3061 683.677 73.6213C683.723 71.8726 684.136 70.3362 684.918 69.0122C685.721 67.6674 686.784 66.6176 688.105 65.8626C689.448 65.1081 690.93 64.7521 692.551 64.7946C693.916 64.8303 695.104 65.0855 696.116 65.5602C697.149 66.0354 698.018 66.677 698.723 67.485C699.427 68.2931 699.958 69.214 700.315 70.2477C700.672 71.2601 700.836 72.3527 700.805 73.5256C700.797 73.8242 700.768 74.1329 700.717 74.4516C700.687 74.771 700.627 75.0468 700.535 75.2792L687.1 74.9274L687.184 71.7284L698.252 72.0183L696.229 73.4698C696.447 72.4939 696.416 71.6181 696.138 70.8425C695.881 70.0675 695.427 69.4475 694.778 68.9823C694.15 68.5177 693.378 68.2734 692.46 68.2494C691.586 68.2265 690.802 68.43 690.108 68.86C689.414 69.2687 688.875 69.8948 688.49 70.7383C688.127 71.5611 687.972 72.5707 688.027 73.7672C687.913 74.8313 688.027 75.7839 688.368 76.6251C688.73 77.4456 689.268 78.0892 689.982 78.556C690.717 79.0234 691.564 79.2697 692.523 79.2948C693.483 79.3199 694.299 79.1386 694.97 78.7507C695.664 78.3634 696.211 77.8335 696.613 77.1611L699.96 78.9134C699.597 79.7361 699.044 80.4579 698.303 81.0787C697.561 81.6995 696.684 82.1781 695.672 82.5143C694.682 82.8512 693.589 83.004 692.395 82.9727ZM721.506 83.735C719.758 83.6892 718.134 83.3373 716.636 82.6792C715.138 82.0211 713.839 81.1227 712.738 79.9842C711.636 78.8456 710.785 77.5216 710.185 76.012C709.606 74.4817 709.339 72.8421 709.385 71.0934C709.431 69.3233 709.783 67.7 710.441 66.2234C711.098 64.7467 712.007 63.4687 713.166 62.3894C714.326 61.31 715.67 60.4916 717.2 59.9341C718.73 59.3553 720.38 59.0891 722.15 59.1355C723.921 59.1818 725.555 59.534 727.053 60.1921C728.55 60.8502 729.85 61.7486 730.951 62.8871C732.053 64.0043 732.894 65.3175 733.473 66.8265C734.074 68.3361 734.351 69.9759 734.305 71.7459C734.259 73.4947 733.896 75.1177 733.217 76.6151C732.538 78.0912 731.619 79.3689 730.459 80.4483C729.3 81.5276 727.955 82.3567 726.425 82.9355C724.916 83.5149 723.276 83.7814 721.506 83.735ZM721.61 79.7684C722.783 79.7991 723.865 79.6247 724.857 79.2452C725.849 78.8444 726.718 78.2802 727.462 77.5528C728.228 76.8259 728.816 75.9557 729.227 74.9421C729.659 73.9291 729.891 72.8254 729.922 71.6312C729.953 70.4369 729.779 69.3333 729.401 68.3204C729.043 67.2867 728.502 66.3869 727.775 65.6209C727.07 64.8342 726.232 64.2254 725.262 63.7945C724.291 63.3636 723.22 63.1328 722.047 63.1021C720.895 63.0719 719.823 63.2466 718.832 63.6261C717.84 64.0056 716.961 64.5695 716.195 65.3177C715.45 66.0451 714.862 66.9153 714.43 67.9284C713.998 68.9201 713.767 70.0131 713.736 71.2073C713.704 72.4016 713.878 73.5158 714.256 74.5501C714.635 75.5844 715.177 76.4842 715.882 77.2496C716.609 78.0155 717.457 78.6246 718.427 79.0768C719.398 79.5077 720.459 79.7382 721.61 79.7684ZM726.943 86.3742L719.847 73.7682L724.389 73.8871L731.582 86.4957L726.943 86.3742ZM743.704 84.3163C742.361 84.2811 741.196 83.9518 740.209 83.3285C739.244 82.7057 738.508 81.8541 738.003 80.7738C737.519 79.6941 737.296 78.4399 737.334 77.011L737.612 66.3587L741.803 66.4684L741.533 76.7689C741.514 77.494 741.636 78.1374 741.899 78.6991C742.183 79.2401 742.588 79.6775 743.113 80.0113C743.66 80.3244 744.274 80.4899 744.957 80.5078C745.639 80.5256 746.251 80.3923 746.792 80.1077C747.333 79.8017 747.761 79.3755 748.074 78.8288C748.387 78.2821 748.553 77.6249 748.573 76.8572L748.841 66.6527L753.031 66.7624L752.575 84.1645L748.609 84.0606L748.698 80.6378L749.034 81.2548C748.601 82.3105 747.909 83.0926 746.956 83.6012C746.025 84.1103 744.941 84.3487 743.704 84.3163ZM764.714 84.8665C762.923 84.8195 761.366 84.3733 760.043 83.5277C758.721 82.6822 757.705 81.5565 756.995 80.1508C756.285 78.745 755.952 77.1998 755.996 75.515C756.042 73.7663 756.455 72.2299 757.237 70.9059C758.04 69.5612 759.103 68.5113 760.424 67.7563C761.767 67.0019 763.249 66.6459 764.87 66.6883C766.235 66.724 767.423 66.9792 768.435 67.4539C769.468 67.9291 770.337 68.5707 771.042 69.3788C771.746 70.1868 772.277 71.1077 772.634 72.1414C772.991 73.1538 773.155 74.2464 773.124 75.4194C773.116 75.7179 773.087 76.0266 773.036 76.3454C773.006 76.6647 772.946 76.9406 772.854 77.1729L759.419 76.8211L759.503 73.6222L770.571 73.912L768.548 75.3636C768.766 74.3876 768.735 73.5118 768.457 72.7363C768.2 71.9613 767.746 71.3412 767.097 70.876C766.469 70.4114 765.696 70.1671 764.779 70.1431C763.905 70.1202 763.121 70.3238 762.427 70.7537C761.733 71.1624 761.194 71.7885 760.809 72.632C760.446 73.4548 760.291 74.4645 760.345 75.6609C760.232 76.725 760.346 77.6777 760.687 78.5189C761.049 79.3393 761.587 79.9829 762.301 80.4498C763.035 80.9172 763.883 81.1634 764.842 81.1886C765.802 81.2137 766.618 81.0323 767.289 80.6444C767.982 80.2571 768.53 79.7273 768.932 79.0549L772.279 80.8071C771.916 81.6299 771.363 82.3517 770.622 82.9725C769.88 83.5932 769.003 84.0718 767.991 84.4081C767.001 84.7449 765.908 84.8977 764.714 84.8665ZM782.67 85.3366C780.814 85.2881 779.205 84.8084 777.842 83.8978C776.5 82.9663 775.593 81.7368 775.121 80.2093L778.296 78.7879C778.718 79.7806 779.316 80.5646 780.091 81.1397C780.886 81.7154 781.775 82.0161 782.756 82.0418C783.524 82.0619 784.136 81.9072 784.593 81.5777C785.049 81.2482 785.285 80.8062 785.3 80.2517C785.309 79.9105 785.22 79.6308 785.033 79.4125C784.869 79.1734 784.629 78.9751 784.313 78.8174C784.019 78.639 783.692 78.4917 783.332 78.3756L780.506 77.5013C779.046 77.0363 777.943 76.3565 777.198 75.462C776.475 74.5681 776.129 73.524 776.16 72.3298C776.188 71.2635 776.479 70.3428 777.032 69.5677C777.608 68.7718 778.382 68.1625 779.353 67.7398C780.346 67.3176 781.471 67.123 782.73 67.156C784.372 67.199 785.811 67.6315 787.049 68.4535C788.287 69.2755 789.153 70.4079 789.649 71.8507L786.411 73.2704C786.133 72.4736 785.648 71.8313 784.957 71.3437C784.265 70.8561 783.482 70.6009 782.608 70.578C781.904 70.5595 781.345 70.705 780.932 71.0142C780.518 71.3235 780.305 71.7341 780.291 72.2459C780.283 72.5658 780.361 72.8453 780.526 73.0843C780.69 73.3234 780.92 73.5215 781.214 73.6786C781.53 73.8362 781.889 73.9843 782.291 74.1229L785.052 75.0275C786.47 75.4914 787.551 76.16 788.297 77.0331C789.064 77.9068 789.431 78.9621 789.398 80.199C789.371 81.244 789.07 82.1644 788.494 82.9603C787.919 83.7348 787.135 84.3332 786.142 84.7553C785.149 85.1775 783.992 85.3713 782.67 85.3366ZM800.418 85.6093C798.456 85.558 796.945 84.9849 795.885 83.8901C794.848 82.7745 794.354 81.2358 794.406 79.2738L794.607 71.5964L791.6 71.5177L791.698 67.775L792.018 67.7833C792.871 67.8057 793.538 67.5991 794.019 67.1635C794.5 66.7279 794.751 66.0836 794.774 65.2306L794.809 63.8871L798.999 63.9968L798.895 67.9634L802.894 68.0681L802.796 71.8109L798.797 71.7061L798.602 79.1596C798.587 79.7354 798.67 80.2284 798.852 80.6386C799.054 81.0494 799.366 81.367 799.787 81.5914C800.229 81.8164 800.792 81.9379 801.474 81.9557C801.623 81.9596 801.794 81.9534 801.987 81.9371C802.201 81.9214 802.404 81.9054 802.596 81.8891L802.502 85.4718C802.203 85.5067 801.86 85.5404 801.475 85.573C801.09 85.6056 800.738 85.6177 800.418 85.6093ZM805.704 85.5557L806.16 68.1537L810.35 68.2634L809.895 85.6654L805.704 85.5557ZM806.211 66.2023L806.328 61.7239L810.519 61.8336L810.401 66.3121L806.211 66.2023ZM822.263 86.3734C820.557 86.3288 819.01 85.8935 817.623 85.0675C816.258 84.2422 815.177 83.1362 814.381 81.7495C813.606 80.3634 813.242 78.796 813.288 77.0473C813.334 75.2986 813.78 73.7524 814.626 72.4087C815.493 71.0656 816.63 70.0177 818.037 69.2649C819.444 68.5122 821.011 68.1584 822.739 68.2037C824.445 68.2483 825.98 68.6833 827.346 69.5087C828.712 70.3341 829.782 71.4398 830.556 72.8259C831.353 74.1912 831.728 75.7589 831.682 77.5289C831.636 79.2777 831.179 80.8236 830.312 82.1667C829.444 83.5098 828.307 84.5577 826.9 85.3105C825.493 86.0632 823.948 86.4175 822.263 86.3734ZM822.363 82.5347C823.302 82.5593 824.129 82.3569 824.844 81.9275C825.581 81.4986 826.162 80.895 826.588 80.1165C827.036 79.3173 827.273 78.4165 827.299 77.4142C827.326 76.3905 827.136 75.4893 826.73 74.7104C826.345 73.9107 825.796 73.2774 825.083 72.8106C824.391 72.323 823.576 72.0669 822.638 72.0423C821.678 72.0172 820.83 72.2297 820.092 72.6799C819.356 73.1088 818.764 73.7122 818.316 74.4901C817.891 75.2472 817.665 76.1376 817.638 77.1612C817.612 78.1635 817.791 79.0752 818.175 79.8962C818.581 80.6964 819.14 81.33 819.854 81.7968C820.567 82.2636 821.404 82.5096 822.363 82.5347ZM834.632 86.3132L835.087 68.9111L839.022 69.0142L838.932 72.437L838.628 71.8208C839.061 70.7865 839.743 70.0147 840.674 69.5056C841.627 68.9757 842.721 68.7269 843.958 68.7593C845.238 68.7928 846.361 69.0997 847.327 69.6798C848.315 70.2605 849.073 71.0593 849.601 72.0762C850.13 73.0717 850.378 74.2199 850.343 75.5208L850.05 86.7169L845.86 86.6072L846.127 76.4027C846.147 75.635 846.015 74.9699 845.731 74.4077C845.447 73.8454 845.042 73.4079 844.517 73.0954C844.014 72.7621 843.41 72.5863 842.706 72.5678C842.024 72.55 841.412 72.694 840.87 72.9999C840.329 73.2845 839.902 73.7002 839.589 74.2468C839.276 74.7935 839.109 75.4507 839.089 76.2184L838.822 86.4229L834.632 86.3132ZM860.206 87.367C858.35 87.3184 856.741 86.8388 855.378 85.9281C854.036 84.9967 853.129 83.7672 852.657 82.2396L855.831 80.8182C856.254 81.811 856.852 82.5949 857.627 83.17C858.422 83.7457 859.311 84.0464 860.292 84.0721C861.06 84.0922 861.672 83.9375 862.129 83.608C862.585 83.2786 862.821 82.8366 862.836 82.2821C862.844 81.9409 862.756 81.6611 862.569 81.4428C862.405 81.2038 862.165 81.0054 861.849 80.8478C861.555 80.6693 861.228 80.5221 860.868 80.4059L858.042 79.5317C856.582 79.0666 855.479 78.3869 854.734 77.4924C854.011 76.5985 853.664 75.5544 853.696 74.3601C853.724 73.2938 854.015 72.3731 854.568 71.598C855.144 70.8022 855.918 70.1929 856.889 69.7701C857.882 69.348 859.007 69.1534 860.265 69.1863C861.908 69.2293 863.347 69.6618 864.585 70.4838C865.823 71.3059 866.689 72.4383 867.185 73.8811L863.947 75.3008C863.669 74.5039 863.184 73.8617 862.493 73.3741C861.801 72.8865 861.018 72.6312 860.144 72.6083C859.44 72.5899 858.881 72.7353 858.468 73.0446C858.054 73.3539 857.841 73.7644 857.827 74.2763C857.819 74.5961 857.897 74.8756 858.062 75.1147C858.226 75.3537 858.456 75.5518 858.75 75.7089C859.066 75.8666 859.425 76.0147 859.827 76.1532L862.588 77.0578C864.006 77.5218 865.087 78.1903 865.833 79.0635C866.6 79.9372 866.967 80.9925 866.934 82.2294C866.907 83.2743 866.605 84.1948 866.03 84.9906C865.455 85.7652 864.671 86.3635 863.678 86.7857C862.685 87.2078 861.528 87.4016 860.206 87.367Z" fill="black"/>
<rect x="928.93" y="76.7783" width="12" height="12" rx="4" transform="rotate(-43.5 928.93 76.7783)" fill="#B66D00"/>
<path d="M1016.36 91.4561C1014.85 91.4165 1013.45 91.1024 1012.16 90.5138C1010.9 89.9259 1009.81 89.1291 1008.9 88.1235C1008 87.0972 1007.36 85.9173 1006.97 84.5839L1010.63 83.1111C1011.17 84.4911 1011.97 85.5898 1013.04 86.4074C1014.11 87.2036 1015.32 87.6196 1016.69 87.6553C1017.45 87.6754 1018.12 87.5754 1018.68 87.3554C1019.26 87.1145 1019.71 86.7848 1020.02 86.3661C1020.35 85.9479 1020.52 85.4403 1020.54 84.8431C1020.56 84.1394 1020.36 83.558 1019.94 83.099C1019.55 82.6192 1018.94 82.2405 1018.12 81.9628L1013.58 80.3715C1011.74 79.7471 1010.37 78.8468 1009.46 77.6706C1008.55 76.4945 1008.12 75.128 1008.16 73.5712C1008.19 72.2063 1008.55 71.0101 1009.24 69.9824C1009.95 68.9553 1010.91 68.1695 1012.12 67.6249C1013.35 67.0596 1014.75 66.7974 1016.3 66.8381C1017.73 66.8756 1019.04 67.1658 1020.22 67.7089C1021.4 68.2307 1022.4 68.9506 1023.23 69.8686C1024.09 70.7659 1024.71 71.8172 1025.1 73.0226L1021.48 74.5283C1021.04 73.3217 1020.36 72.3863 1019.44 71.7219C1018.52 71.0363 1017.44 70.6772 1016.2 70.6448C1015.48 70.6258 1014.84 70.7371 1014.27 70.9784C1013.71 71.1985 1013.27 71.5283 1012.94 71.9677C1012.63 72.3865 1012.46 72.8944 1012.45 73.4915C1012.43 74.1526 1012.63 74.7447 1013.04 75.2676C1013.45 75.7693 1014.1 76.1702 1014.96 76.4703L1019.31 77.9606C1021.19 78.6288 1022.59 79.519 1023.5 80.6312C1024.43 81.7439 1024.87 83.1 1024.83 84.6995C1024.79 86.0643 1024.41 87.2601 1023.68 88.2866C1022.95 89.3131 1021.96 90.1088 1020.7 90.6735C1019.45 91.2383 1018 91.4991 1016.36 91.4561ZM1028.22 91.3826L1028.86 67.1669L1033.05 67.2766L1032.63 83.1432L1031.05 82.6215L1039.46 74.2628L1044.67 74.3994L1038.06 81.2366L1044.35 91.8048L1039.55 91.6791L1034.09 82.5091L1036.6 82.0626L1031.2 87.5553L1032.58 85.0305L1032.41 91.4923L1028.22 91.3826ZM1046.69 91.866L1047.14 74.464L1051.33 74.5737L1050.88 91.9758L1046.69 91.866ZM1047.19 72.5127L1047.31 68.0342L1051.5 68.1439L1051.38 72.6224L1047.19 72.5127ZM1054.75 92.0771L1055.38 67.8614L1059.57 67.9711L1058.94 92.1868L1054.75 92.0771ZM1062.81 92.2881L1063.44 68.0724L1067.63 68.1822L1067 92.3979L1062.81 92.2881ZM1077.48 93.0565C1075.62 93.0079 1074.01 92.5283 1072.65 91.6176C1071.31 90.6862 1070.4 89.4567 1069.93 87.9291L1073.1 86.5077C1073.52 87.5004 1074.12 88.2844 1074.9 88.8595C1075.69 89.4352 1076.58 89.7359 1077.56 89.7616C1078.33 89.7817 1078.94 89.627 1079.4 89.2975C1079.86 88.968 1080.09 88.526 1080.11 87.9716C1080.12 87.6304 1080.03 87.3506 1079.84 87.1323C1079.68 86.8933 1079.44 86.6949 1079.12 86.5372C1078.83 86.3588 1078.5 86.2115 1078.14 86.0954L1075.31 85.2211C1073.85 84.7561 1072.75 84.0763 1072.01 83.1819C1071.28 82.2879 1070.94 81.2439 1070.97 80.0496C1070.99 78.9833 1071.29 78.0626 1071.84 77.2875C1072.42 76.4916 1073.19 75.8823 1074.16 75.4596C1075.15 75.0375 1076.28 74.8429 1077.54 74.8758C1079.18 74.9188 1080.62 75.3513 1081.86 76.1733C1083.09 76.9953 1083.96 78.1277 1084.46 79.5705L1081.22 80.9903C1080.94 80.1934 1080.46 79.5511 1079.76 79.0635C1079.07 78.5759 1078.29 78.3207 1077.41 78.2978C1076.71 78.2794 1076.15 78.4248 1075.74 78.7341C1075.33 79.0433 1075.11 79.4539 1075.1 79.9657C1075.09 80.2856 1075.17 80.5651 1075.33 80.8041C1075.5 81.0432 1075.73 81.2413 1076.02 81.3984C1076.34 81.556 1076.7 81.7041 1077.1 81.8427L1079.86 82.7473C1081.28 83.2112 1082.36 83.8798 1083.1 84.7529C1083.87 85.6266 1084.24 86.6819 1084.21 87.9188C1084.18 88.9638 1083.88 89.8842 1083.3 90.6801C1082.73 91.4547 1081.94 92.053 1080.95 92.4752C1079.96 92.8973 1078.8 93.0911 1077.48 93.0565ZM1093.33 93.0876L1093.96 69.2557L1104 69.5188C1105.58 69.5601 1106.92 69.8725 1108.01 70.456C1109.13 71.0188 1109.97 71.8091 1110.54 72.8271C1111.14 73.8243 1111.41 75.0266 1111.38 76.4342C1111.35 77.5218 1111.02 78.5376 1110.4 79.4817C1109.8 80.4049 1108.85 81.159 1107.56 81.744L1107.61 79.7287C1108.77 80.2072 1109.68 80.786 1110.35 81.465C1111.01 82.1439 1111.47 82.8923 1111.73 83.7099C1111.99 84.5276 1112.1 85.3842 1112.08 86.2799C1112.02 88.5618 1111.22 90.3334 1109.67 91.5946C1108.14 92.8351 1106.04 93.4204 1103.38 93.3506L1093.33 93.0876ZM1097.79 89.3628L1103.93 89.5236C1105.06 89.5532 1105.96 89.2675 1106.64 88.6663C1107.34 88.0444 1107.7 87.211 1107.73 86.166C1107.76 85.121 1107.44 84.2697 1106.77 83.6121C1106.13 82.955 1105.24 82.6116 1104.11 82.582L1097.97 82.4212L1097.79 89.3628ZM1098.07 78.6145L1103.98 78.7695C1104.88 78.7929 1105.6 78.5557 1106.15 78.0579C1106.7 77.5387 1106.98 76.8632 1107 76.0315C1107.02 75.1998 1106.77 74.5317 1106.25 74.0272C1105.73 73.5228 1105.03 73.2588 1104.13 73.2354L1098.21 73.0804L1098.07 78.6145ZM1123.6 94.2642C1121.89 94.2195 1120.35 93.7842 1118.96 92.9583C1117.59 92.133 1116.51 91.027 1115.72 89.6403C1114.94 88.2542 1114.58 86.6868 1114.62 84.9381C1114.67 83.1893 1115.12 81.6432 1115.96 80.2995C1116.83 78.9564 1117.97 77.9085 1119.37 77.1557C1120.78 76.403 1122.35 76.0492 1124.07 76.0944C1125.78 76.1391 1127.32 76.5741 1128.68 77.3995C1130.05 78.2249 1131.12 79.3306 1131.89 80.7167C1132.69 82.082 1133.06 83.6497 1133.02 85.4197C1132.97 87.1685 1132.52 88.7144 1131.65 90.0575C1130.78 91.4006 1129.64 92.4485 1128.24 93.2012C1126.83 93.954 1125.28 94.3083 1123.6 94.2642ZM1123.7 90.4255C1124.64 90.4501 1125.46 90.2477 1126.18 89.8183C1126.92 89.3894 1127.5 88.7857 1127.92 88.0073C1128.37 87.2081 1128.61 86.3073 1128.64 85.305C1128.66 84.2813 1128.47 83.3801 1128.07 82.6011C1127.68 81.8015 1127.13 81.1682 1126.42 80.7014C1125.73 80.2138 1124.91 79.9577 1123.97 79.9331C1123.01 79.908 1122.17 80.1205 1121.43 80.5707C1120.69 80.9996 1120.1 81.6029 1119.65 82.3808C1119.23 83.138 1119 84.0284 1118.97 85.052C1118.95 86.0543 1119.13 86.966 1119.51 87.787C1119.92 88.5872 1120.48 89.2208 1121.19 89.6876C1121.9 90.1544 1122.74 90.4004 1123.7 90.4255ZM1144.47 94.8107C1142.76 94.766 1141.21 94.3307 1139.83 93.5048C1138.46 92.6794 1137.38 91.5734 1136.58 90.1868C1135.81 88.8007 1135.45 87.2333 1135.49 85.4845C1135.54 83.7358 1135.98 82.1896 1136.83 80.846C1137.7 79.5029 1138.83 78.4549 1140.24 77.7022C1141.65 76.9494 1143.21 76.5957 1144.94 76.6409C1146.65 76.6856 1148.18 77.1206 1149.55 77.9459C1150.92 78.7713 1151.99 79.877 1152.76 81.2631C1153.56 82.6284 1153.93 84.1961 1153.89 85.9662C1153.84 87.7149 1153.38 89.2608 1152.52 90.6039C1151.65 91.947 1150.51 92.9949 1149.1 93.7477C1147.7 94.5005 1146.15 94.8548 1144.47 94.8107ZM1144.57 90.972C1145.51 90.9965 1146.33 90.7941 1147.05 90.3647C1147.78 89.9358 1148.37 89.3322 1148.79 88.5537C1149.24 87.7545 1149.48 86.8537 1149.5 85.8514C1149.53 84.8278 1149.34 83.9265 1148.93 83.1476C1148.55 82.3479 1148 81.7147 1147.29 81.2478C1146.6 80.7602 1145.78 80.5041 1144.84 80.4796C1143.88 80.4544 1143.03 80.667 1142.3 81.1172C1141.56 81.546 1140.97 82.1494 1140.52 82.9273C1140.1 83.6844 1139.87 84.5748 1139.84 85.5984C1139.82 86.6008 1139.99 87.5124 1140.38 88.3334C1140.78 89.1337 1141.34 89.7672 1142.06 90.234C1142.77 90.7009 1143.61 90.9468 1144.57 90.972ZM1163.45 95.3077C1161.59 95.2591 1159.98 94.7795 1158.62 93.8688C1157.28 92.9374 1156.37 91.7079 1155.9 90.1803L1159.07 88.7589C1159.5 89.7517 1160.09 90.5356 1160.87 91.1107C1161.66 91.6864 1162.55 91.9871 1163.53 92.0128C1164.3 92.0329 1164.91 91.8782 1165.37 91.5487C1165.83 91.2192 1166.06 90.7773 1166.08 90.2228C1166.09 89.8816 1166 89.6018 1165.81 89.3835C1165.65 89.1445 1165.41 88.9461 1165.09 88.7885C1164.8 88.61 1164.47 88.4628 1164.11 88.3466L1161.28 87.4724C1159.82 87.0073 1158.72 86.3275 1157.98 85.4331C1157.25 84.5392 1156.91 83.4951 1156.94 82.3008C1156.97 81.2345 1157.26 80.3138 1157.81 79.5387C1158.39 78.7428 1159.16 78.1336 1160.13 77.7108C1161.12 77.2887 1162.25 77.0941 1163.51 77.127C1165.15 77.17 1166.59 77.6025 1167.83 78.4245C1169.06 79.2465 1169.93 80.379 1170.43 81.8218L1167.19 83.2415C1166.91 82.4446 1166.43 81.8024 1165.73 81.3148C1165.04 80.8272 1164.26 80.5719 1163.39 80.549C1162.68 80.5306 1162.12 80.676 1161.71 80.9853C1161.3 81.2946 1161.08 81.7051 1161.07 82.2169C1161.06 82.5368 1161.14 82.8163 1161.3 83.0554C1161.47 83.2944 1161.7 83.4925 1161.99 83.6496C1162.31 83.8072 1162.67 83.9554 1163.07 84.0939L1165.83 84.9985C1167.25 85.4625 1168.33 86.131 1169.07 87.0041C1169.84 87.8778 1170.21 88.9332 1170.18 90.1701C1170.15 91.215 1169.85 92.1355 1169.27 92.9313C1168.7 93.7059 1167.91 94.3042 1166.92 94.7264C1165.93 95.1485 1164.77 95.3423 1163.45 95.3077ZM1181.2 95.5804C1179.23 95.529 1177.72 94.9559 1176.66 93.8611C1175.63 92.7456 1175.13 91.2068 1175.18 89.2448L1175.38 81.5675L1172.38 81.4887L1172.48 77.746L1172.8 77.7544C1173.65 77.7767 1174.32 77.5701 1174.8 77.1345C1175.28 76.699 1175.53 76.0547 1175.55 75.2016L1175.59 73.8581L1179.78 73.9678L1179.67 77.9345L1183.67 78.0392L1183.57 81.7819L1179.57 81.6772L1179.38 89.1306C1179.36 89.7064 1179.45 90.1994 1179.63 90.6097C1179.83 91.0204 1180.14 91.3381 1180.56 91.5625C1181.01 91.7875 1181.57 91.9089 1182.25 91.9268C1182.4 91.9307 1182.57 91.9245 1182.76 91.9082C1182.98 91.8924 1183.18 91.8764 1183.37 91.8601L1183.28 95.4429C1182.98 95.4777 1182.64 95.5114 1182.25 95.544C1181.87 95.5766 1181.52 95.5888 1181.2 95.5804Z" fill="black"/>
<rect x="1245.79" y="85.0757" width="12" height="12" rx="4" transform="rotate(-43.5 1245.79 85.0757)" fill="#B66D00"/>
<path d="M1333.22 99.7535C1331.71 99.7139 1330.31 99.3998 1329.02 98.8112C1327.76 98.2232 1326.67 97.4265 1325.76 96.4209C1324.87 95.3945 1324.23 94.2147 1323.83 92.8813L1327.49 91.4085C1328.03 92.7884 1328.83 93.8872 1329.9 94.7047C1330.97 95.5009 1332.18 95.9169 1333.55 95.9527C1334.32 95.9728 1334.98 95.8728 1335.54 95.6527C1336.12 95.4119 1336.57 95.0821 1336.88 94.6634C1337.21 94.2453 1337.38 93.7376 1337.4 93.1405C1337.42 92.4368 1337.22 91.8554 1336.8 91.3963C1336.41 90.9166 1335.8 90.5378 1334.98 90.2601L1330.44 88.6689C1328.6 88.0445 1327.23 87.1442 1326.32 85.968C1325.41 84.7918 1324.98 83.4253 1325.02 81.8685C1325.05 80.5037 1325.42 79.3074 1326.1 78.2798C1326.81 77.2526 1327.77 76.4668 1328.98 75.9223C1330.21 75.357 1331.61 75.0947 1333.16 75.1355C1334.59 75.1729 1335.9 75.4632 1337.08 76.0063C1338.26 76.528 1339.27 77.2479 1340.1 78.166C1340.95 79.0632 1341.57 80.1146 1341.97 81.32L1338.34 82.8256C1337.9 81.6191 1337.22 80.6837 1336.3 80.0193C1335.38 79.3336 1334.3 78.9746 1333.07 78.9422C1332.34 78.9232 1331.7 79.0344 1331.14 79.2758C1330.58 79.4959 1330.13 79.8256 1329.8 80.2651C1329.49 80.6838 1329.33 81.1917 1329.31 81.7889C1329.29 82.45 1329.49 83.042 1329.9 83.565C1330.32 84.0667 1330.96 84.4676 1331.82 84.7677L1336.17 86.258C1338.05 86.9262 1339.45 87.8163 1340.36 88.9285C1341.29 90.0413 1341.73 91.3974 1341.69 92.9968C1341.66 94.3617 1341.27 95.5574 1340.54 96.584C1339.81 97.6105 1338.82 98.4062 1337.57 98.9709C1336.31 99.5356 1334.87 99.7965 1333.22 99.7535ZM1353.46 100.283C1351.73 100.238 1350.18 99.8028 1348.82 98.9774C1347.47 98.1313 1346.42 97.0154 1345.67 95.6299C1344.92 94.2231 1344.56 92.6559 1344.61 90.9285C1344.66 89.2011 1345.09 87.6653 1345.92 86.3211C1346.74 84.9769 1347.85 83.9281 1349.23 83.1748C1350.64 82.422 1352.2 82.0683 1353.93 82.1135C1355.17 82.1459 1356.31 82.4 1357.37 82.8758C1358.42 83.3302 1359.33 83.9513 1360.07 84.7392C1360.84 85.5063 1361.38 86.4167 1361.7 87.4707L1357.98 88.9738C1357.68 88.091 1357.16 87.373 1356.4 86.8198C1355.67 86.2671 1354.81 85.9779 1353.83 85.9522C1352.91 85.9282 1352.09 86.1306 1351.35 86.5595C1350.64 86.9889 1350.06 87.5928 1349.64 88.3713C1349.21 89.1497 1348.99 90.0508 1348.96 91.0744C1348.93 92.0981 1349.11 93.0097 1349.5 93.8094C1349.88 94.6091 1350.42 95.2421 1351.11 95.7083C1351.82 96.1752 1352.64 96.4206 1353.56 96.4446C1354.56 96.4709 1355.44 96.2272 1356.2 95.7136C1356.96 95.2 1357.51 94.4995 1357.86 93.6122L1361.49 95.3719C1361.12 96.344 1360.55 97.2145 1359.76 97.9835C1358.97 98.7311 1358.04 99.3149 1356.96 99.7348C1355.88 100.133 1354.71 100.316 1353.46 100.283ZM1373.05 100.796C1371.34 100.752 1369.79 100.316 1368.41 99.4904C1367.04 98.665 1365.96 97.559 1365.16 96.1724C1364.39 94.7863 1364.03 93.2189 1364.07 91.4701C1364.12 89.7214 1364.56 88.1752 1365.41 86.8316C1366.28 85.4885 1367.41 84.4406 1368.82 83.6878C1370.23 82.935 1371.79 82.5813 1373.52 82.6265C1375.23 82.6712 1376.76 83.1062 1378.13 83.9316C1379.5 84.7569 1380.57 85.8626 1381.34 87.2487C1382.14 88.614 1382.51 90.1817 1382.47 91.9518C1382.42 93.7005 1381.96 95.2464 1381.1 96.5895C1380.23 97.9326 1379.09 98.9805 1377.68 99.7333C1376.28 100.486 1374.73 100.84 1373.05 100.796ZM1373.15 96.9576C1374.09 96.9822 1374.91 96.7797 1375.63 96.3503C1376.36 95.9215 1376.95 95.3178 1377.37 94.5393C1377.82 93.7401 1378.06 92.8394 1378.08 91.837C1378.11 90.8134 1377.92 89.9121 1377.51 89.1332C1377.13 88.3335 1376.58 87.7003 1375.87 87.2334C1375.17 86.7458 1374.36 86.4898 1373.42 86.4652C1372.46 86.4401 1371.61 86.6526 1370.88 87.1028C1370.14 87.5316 1369.55 88.135 1369.1 88.9129C1368.67 89.67 1368.45 90.5604 1368.42 91.5841C1368.4 92.5864 1368.57 93.498 1368.96 94.319C1369.36 95.1193 1369.92 95.7528 1370.64 96.2196C1371.35 96.6865 1372.19 96.9325 1373.15 96.9576ZM1385.42 100.736L1385.87 83.334L1389.81 83.437L1389.7 87.3077L1389.4 86.7235C1389.84 85.4332 1390.49 84.5434 1391.36 84.0539C1392.25 83.5649 1393.3 83.3364 1394.51 83.3682L1395.54 83.395L1395.44 87.1058L1393.94 87.0664C1392.74 87.0351 1391.77 87.3832 1391.03 88.1106C1390.28 88.8167 1389.89 89.8309 1389.86 91.1531L1389.61 100.846L1385.42 100.736ZM1405.62 101.649C1403.83 101.602 1402.27 101.156 1400.95 100.311C1399.63 99.465 1398.61 98.3394 1397.9 96.9336C1397.19 95.5279 1396.86 93.9827 1396.9 92.2979C1396.95 90.5492 1397.36 89.0128 1398.15 87.6888C1398.95 86.344 1400.01 85.2942 1401.33 84.5392C1402.68 83.7847 1404.16 83.4287 1405.78 83.4712C1407.14 83.5069 1408.33 83.7621 1409.34 84.2368C1410.38 84.712 1411.25 85.3536 1411.95 86.1616C1412.65 86.9697 1413.19 87.8906 1413.54 88.9243C1413.9 89.9366 1414.06 91.0293 1414.03 92.2022C1414.03 92.5008 1414 92.8095 1413.94 93.1282C1413.92 93.4476 1413.85 93.7234 1413.76 93.9558L1400.33 93.6039L1400.41 90.405L1411.48 90.6949L1409.46 92.1464C1409.67 91.1705 1409.64 90.2947 1409.37 89.5191C1409.11 88.7441 1408.66 88.1241 1408.01 87.6589C1407.38 87.1943 1406.61 86.95 1405.69 86.926C1404.81 86.9031 1404.03 87.1066 1403.34 87.5366C1402.64 87.9453 1402.1 88.5714 1401.72 89.4149C1401.35 90.2377 1401.2 91.2473 1401.25 92.4438C1401.14 93.5079 1401.25 94.4605 1401.6 95.3017C1401.96 96.1222 1402.5 96.7658 1403.21 97.2326C1403.94 97.7 1404.79 97.9463 1405.75 97.9714C1406.71 97.9965 1407.53 97.8152 1408.2 97.4273C1408.89 97.04 1409.44 96.5101 1409.84 95.8377L1413.19 97.59C1412.82 98.4127 1412.27 99.1345 1411.53 99.7553C1410.79 100.376 1409.91 100.855 1408.9 101.191C1407.91 101.528 1406.82 101.681 1405.62 101.649ZM1425.05 102.158C1423.37 102.114 1421.87 101.68 1420.57 100.856C1419.27 100.011 1418.25 98.8857 1417.52 97.4794C1416.79 96.0731 1416.45 94.5275 1416.49 92.8428C1416.54 91.1367 1416.96 89.6113 1417.76 88.2665C1418.57 86.9218 1419.64 85.8615 1420.98 85.0857C1422.35 84.3105 1423.85 83.9444 1425.49 83.9874C1426.82 84.022 1427.98 84.3193 1428.99 84.8793C1430.02 85.4185 1430.83 86.1651 1431.4 87.119L1430.74 87.966L1431 77.6975L1435.19 77.8073L1434.56 102.023L1430.59 101.919L1430.68 98.5602L1431.11 99.4037C1430.49 100.326 1429.64 101.03 1428.56 101.514C1427.48 101.976 1426.31 102.191 1425.05 102.158ZM1425.6 98.3311C1426.56 98.3562 1427.41 98.1543 1428.14 97.7255C1428.88 97.2966 1429.46 96.693 1429.89 95.9145C1430.33 95.1366 1430.57 94.2359 1430.6 93.2122C1430.62 92.2099 1430.43 91.3086 1430.03 90.5084C1429.64 89.6874 1429.1 89.0435 1428.38 88.5766C1427.67 88.1098 1426.83 87.8638 1425.87 87.8387C1424.93 87.8141 1424.09 88.0266 1423.33 88.4763C1422.57 88.9046 1421.97 89.5077 1421.52 90.2856C1421.09 91.0427 1420.87 91.9331 1420.84 92.9567C1420.81 93.9804 1420.99 94.892 1421.38 95.6917C1421.78 96.4919 1422.35 97.1257 1423.09 97.5931C1423.82 98.0605 1424.66 98.3065 1425.6 98.3311ZM1444.5 102.283L1445.12 78.4513L1449.28 78.5602L1457.89 90.9178L1455.9 90.8658L1464.95 78.9707L1469.11 79.0796L1468.49 102.911L1464.11 102.797L1464.6 83.9231L1466.28 84.3833L1456.92 96.2062L1456.4 96.1928L1447.89 83.9017L1449.34 83.5235L1448.85 102.397L1444.5 102.283ZM1481.2 103.628C1479.49 103.584 1477.94 103.148 1476.56 102.322C1475.19 101.497 1474.11 100.391 1473.32 99.0044C1472.54 97.6183 1472.18 96.0509 1472.22 94.3022C1472.27 92.5534 1472.71 91.0072 1473.56 89.6636C1474.43 88.3205 1475.56 87.2726 1476.97 86.5198C1478.38 85.767 1479.95 85.4133 1481.67 85.4585C1483.38 85.5032 1484.91 85.9382 1486.28 86.7636C1487.65 87.5889 1488.72 88.6947 1489.49 90.0807C1490.29 91.4461 1490.66 93.0138 1490.62 94.7838C1490.57 96.5325 1490.11 98.0785 1489.25 99.4215C1488.38 100.765 1487.24 101.813 1485.83 102.565C1484.43 103.318 1482.88 103.672 1481.2 103.628ZM1481.3 99.7896C1482.24 99.8142 1483.06 99.6118 1483.78 99.1823C1484.51 98.7535 1485.1 98.1498 1485.52 97.3714C1485.97 96.5721 1486.21 95.6714 1486.23 94.6691C1486.26 93.6454 1486.07 92.7441 1485.66 91.9652C1485.28 91.1655 1484.73 90.5323 1484.02 90.0655C1483.33 89.5779 1482.51 89.3218 1481.57 89.2972C1480.61 89.2721 1479.76 89.4846 1479.03 89.9348C1478.29 90.3636 1477.7 90.967 1477.25 91.7449C1476.83 92.502 1476.6 93.3924 1476.57 94.4161C1476.55 95.4184 1476.72 96.3301 1477.11 97.1511C1477.51 97.9513 1478.07 98.5848 1478.79 99.0517C1479.5 99.5185 1480.34 99.7645 1481.3 99.7896ZM1501.94 104.171C1500.21 104.126 1498.66 103.691 1497.3 102.865C1495.95 102.019 1494.91 100.904 1494.15 99.518C1493.4 98.1112 1493.05 96.544 1493.09 94.8166C1493.14 93.0892 1493.57 91.5534 1494.4 90.2092C1495.22 88.865 1496.33 87.8162 1497.71 87.0629C1499.12 86.3101 1500.69 85.9564 1502.41 86.0016C1503.65 86.034 1504.8 86.2881 1505.85 86.7638C1506.9 87.2183 1507.81 87.8394 1508.55 88.6273C1509.32 89.3943 1509.87 90.3048 1510.18 91.3587L1506.46 92.8619C1506.16 91.9791 1505.64 91.2611 1504.88 90.7079C1504.15 90.1552 1503.29 89.866 1502.31 89.8403C1501.39 89.8163 1500.57 90.0187 1499.83 90.4476C1499.12 90.877 1498.55 91.4809 1498.12 92.2594C1497.69 93.0378 1497.47 93.9389 1497.44 94.9625C1497.41 95.9862 1497.59 96.8978 1497.98 97.6975C1498.36 98.4972 1498.9 99.1302 1499.59 99.5964C1500.31 100.063 1501.12 100.309 1502.04 100.333C1503.04 100.359 1503.92 100.115 1504.68 99.6017C1505.44 99.0881 1505.99 98.3876 1506.34 97.5003L1509.97 99.26C1509.61 100.232 1509.03 101.103 1508.24 101.872C1507.45 102.619 1506.52 103.203 1505.44 103.623C1504.36 104.022 1503.19 104.204 1501.94 104.171ZM1513.03 104.078L1513.66 79.862L1517.85 79.9717L1517.44 95.8383L1515.85 95.3166L1524.26 86.9579L1529.48 87.0945L1522.86 93.9317L1529.15 104.5L1524.35 104.374L1518.89 95.2042L1521.4 94.7577L1516.01 100.25L1517.39 97.7256L1517.22 104.187L1513.03 104.078ZM1545.1 105.11C1543.14 105.058 1541.63 104.485 1540.57 103.39C1539.53 102.275 1539.04 100.736 1539.09 98.7741L1539.29 91.0968L1536.29 91.018L1536.38 87.2753L1536.7 87.2837C1537.56 87.306 1538.22 87.0994 1538.7 86.6639C1539.19 86.2283 1539.44 85.584 1539.46 84.731L1539.49 83.3874L1543.69 83.4971L1543.58 87.4638L1547.58 87.5685L1547.48 91.3112L1543.48 91.2065L1543.29 98.6599C1543.27 99.2358 1543.36 99.7288 1543.54 100.139C1543.74 100.55 1544.05 100.867 1544.47 101.092C1544.92 101.317 1545.48 101.438 1546.16 101.456C1546.31 101.46 1546.48 101.454 1546.67 101.437C1546.89 101.422 1547.09 101.406 1547.28 101.389L1547.19 104.972C1546.89 105.007 1546.55 105.041 1546.16 105.073C1545.78 105.106 1545.42 105.118 1545.1 105.11ZM1558.48 105.652C1556.69 105.605 1555.13 105.159 1553.81 104.313C1552.48 103.468 1551.47 102.342 1550.76 100.936C1550.05 99.5305 1549.71 97.9853 1549.76 96.3005C1549.8 94.5518 1550.22 93.0154 1551 91.6914C1551.8 90.3467 1552.87 89.2968 1554.19 88.5418C1555.53 87.7873 1557.01 87.4313 1558.63 87.4738C1560 87.5095 1561.19 87.7647 1562.2 88.2394C1563.23 88.7146 1564.1 89.3562 1564.8 90.1643C1565.51 90.9723 1566.04 91.8932 1566.4 92.9269C1566.75 93.9393 1566.92 95.0319 1566.89 96.2049C1566.88 96.5034 1566.85 96.8121 1566.8 97.1309C1566.77 97.4502 1566.71 97.726 1566.62 97.9584L1553.18 97.6066L1553.27 94.4077L1564.33 94.6975L1562.31 96.149C1562.53 95.1731 1562.5 94.2973 1562.22 93.5218C1561.96 92.7468 1561.51 92.1267 1560.86 91.6615C1560.23 91.1969 1559.46 90.9526 1558.54 90.9286C1557.67 90.9057 1556.88 91.1092 1556.19 91.5392C1555.5 91.9479 1554.96 92.574 1554.57 93.4175C1554.21 94.2403 1554.05 95.2499 1554.11 96.4464C1554 97.5105 1554.11 98.4631 1554.45 99.3043C1554.81 100.125 1555.35 100.768 1556.06 101.235C1556.8 101.703 1557.65 101.949 1558.61 101.974C1559.56 101.999 1560.38 101.818 1561.05 101.43C1561.75 101.043 1562.29 100.513 1562.69 99.8403L1566.04 101.593C1565.68 102.415 1565.13 103.137 1564.38 103.758C1563.64 104.379 1562.77 104.857 1561.75 105.194C1560.76 105.53 1559.67 105.683 1558.48 105.652ZM1576.43 106.122C1574.58 106.074 1572.97 105.594 1571.6 104.683C1570.26 103.752 1569.36 102.522 1568.88 100.995L1572.06 99.5734C1572.48 100.566 1573.08 101.35 1573.85 101.925C1574.65 102.501 1575.54 102.802 1576.52 102.827C1577.29 102.847 1577.9 102.693 1578.36 102.363C1578.81 102.034 1579.05 101.592 1579.06 101.037C1579.07 100.696 1578.98 100.416 1578.8 100.198C1578.63 99.9589 1578.39 99.7606 1578.08 99.6029C1577.78 99.4245 1577.45 99.2772 1577.09 99.1611L1574.27 98.2868C1572.81 97.8217 1571.71 97.142 1570.96 96.2475C1570.24 95.3536 1569.89 94.3095 1569.92 93.1153C1569.95 92.049 1570.24 91.1283 1570.8 90.3532C1571.37 89.5573 1572.14 88.948 1573.12 88.5253C1574.11 88.1031 1575.23 87.9085 1576.49 87.9415C1578.13 87.9845 1579.57 88.417 1580.81 89.239C1582.05 90.061 1582.92 91.1934 1583.41 92.6362L1580.17 94.0559C1579.9 93.259 1579.41 92.6168 1578.72 92.1292C1578.03 91.6416 1577.25 91.3863 1576.37 91.3634C1575.67 91.345 1575.11 91.4904 1574.69 91.7997C1574.28 92.109 1574.07 92.5196 1574.05 93.0314C1574.05 93.3513 1574.12 93.6307 1574.29 93.8698C1574.45 94.1089 1574.68 94.3069 1574.98 94.464C1575.29 94.6217 1575.65 94.7698 1576.05 94.9084L1578.82 95.813C1580.23 96.2769 1581.31 96.9454 1582.06 97.8186C1582.83 98.6923 1583.19 99.7476 1583.16 100.985C1583.13 102.029 1582.83 102.95 1582.26 103.746C1581.68 104.52 1580.9 105.119 1579.9 105.541C1578.91 105.963 1577.75 106.157 1576.43 106.122ZM1594.18 106.395C1592.22 106.343 1590.71 105.77 1589.65 104.676C1588.61 103.56 1588.12 102.021 1588.17 100.059L1588.37 92.3819L1585.36 92.3032L1585.46 88.5604L1585.78 88.5688C1586.63 88.5912 1587.3 88.3845 1587.78 87.949C1588.26 87.5134 1588.51 86.8691 1588.54 86.0161L1588.57 84.6725L1592.76 84.7823L1592.66 88.7489L1596.66 88.8536L1596.56 92.5963L1592.56 92.4916L1592.37 99.9451C1592.35 100.521 1592.43 101.014 1592.61 101.424C1592.82 101.835 1593.13 102.152 1593.55 102.377C1593.99 102.602 1594.55 102.723 1595.24 102.741C1595.39 102.745 1595.56 102.739 1595.75 102.723C1595.96 102.707 1596.17 102.691 1596.36 102.675L1596.27 106.257C1595.97 106.292 1595.62 106.326 1595.24 106.358C1594.85 106.391 1594.5 106.403 1594.18 106.395ZM1606.08 106.898C1604.22 106.85 1602.61 106.37 1601.25 105.46C1599.91 104.528 1599 103.299 1598.53 101.771L1601.7 100.35C1602.13 101.342 1602.72 102.126 1603.5 102.701C1604.3 103.277 1605.18 103.578 1606.16 103.604C1606.93 103.624 1607.54 103.469 1608 103.139C1608.46 102.81 1608.69 102.368 1608.71 101.814C1608.72 101.472 1608.63 101.193 1608.44 100.974C1608.28 100.735 1608.04 100.537 1607.72 100.379C1607.43 100.201 1607.1 100.054 1606.74 99.9374L1603.91 99.0631C1602.45 98.5981 1601.35 97.9183 1600.61 97.0238C1599.88 96.1299 1599.54 95.0858 1599.57 93.8916C1599.6 92.8253 1599.89 91.9046 1600.44 91.1295C1601.02 90.3336 1601.79 89.7243 1602.76 89.3016C1603.75 88.8794 1604.88 88.6848 1606.14 88.7178C1607.78 88.7608 1609.22 89.1933 1610.46 90.0153C1611.7 90.8373 1612.56 91.9697 1613.06 93.4125L1609.82 94.8322C1609.54 94.0353 1609.06 93.3931 1608.37 92.9055C1607.67 92.4179 1606.89 92.1627 1606.02 92.1398C1605.31 92.1213 1604.75 92.2668 1604.34 92.576C1603.93 92.8853 1603.71 93.2959 1603.7 93.8077C1603.69 94.1276 1603.77 94.4071 1603.93 94.6461C1604.1 94.8852 1604.33 95.0832 1604.62 95.2403C1604.94 95.398 1605.3 95.5461 1605.7 95.6847L1608.46 96.5893C1609.88 97.0532 1610.96 97.7217 1611.71 98.5949C1612.47 99.4686 1612.84 100.524 1612.81 101.761C1612.78 102.806 1612.48 103.726 1611.9 104.522C1611.33 105.297 1610.54 105.895 1609.55 106.317C1608.56 106.739 1607.4 106.933 1606.08 106.898Z" fill="black"/>
</svg>
