<svg width="1440" height="238" viewBox="0 0 1440 238" fill="none" xmlns="http://www.w3.org/2000/svg">
<rect width="1634.85" height="95.7957" transform="matrix(0.996211 -0.0869703 0.0873416 0.996178 -98.5119 142.262)" fill="#9232FF"/>
<path d="M-92.9297 201.901L-86.819 177.436L-81.2084 176.947L-70.9333 199.98L-75.6514 200.392L-77.7881 195.439L-86.9692 196.241L-88.2435 201.492L-92.9297 201.901ZM-86.0613 192.307L-79.3668 191.722L-84.3567 180.241L-83.1453 180.135L-86.0613 192.307ZM-68.2901 199.75L-70.3723 176.001L-66.0368 175.622L-63.9546 199.371L-68.2901 199.75ZM-49.5125 198.11L-51.2594 178.187L-57.412 178.724L-57.7474 174.898L-41.1704 173.451L-40.835 177.277L-46.892 177.805L-45.1452 197.729L-49.5125 198.11ZM-31.8515 196.954C-33.1905 197.071 -34.3854 196.875 -35.4365 196.367C-36.4663 195.858 -37.2934 195.095 -37.9179 194.079C-38.5211 193.061 -38.8851 191.84 -39.01 190.416L-39.9407 179.8L-35.7646 179.436L-34.8646 189.7C-34.8012 190.423 -34.6072 191.049 -34.2825 191.577C-33.9384 192.082 -33.4867 192.471 -32.9274 192.744C-32.3488 192.993 -31.7194 193.088 -31.0393 193.028C-30.3592 192.969 -29.7666 192.767 -29.2613 192.423C-28.758 192.058 -28.3818 191.586 -28.1327 191.008C-27.8836 190.429 -27.7926 189.758 -27.8597 188.993L-28.7512 178.824L-24.5751 178.459L-23.0547 195.8L-27.0076 196.146L-27.3067 192.735L-26.9029 193.31C-27.2136 194.408 -27.8131 195.263 -28.7017 195.876C-29.5689 196.487 -30.6189 196.846 -31.8515 196.954ZM-11.25 194.963C-13.2052 195.133 -14.7714 194.735 -15.9484 193.767C-17.1061 192.776 -17.7706 191.303 -17.942 189.347L-18.6128 181.697L-21.6094 181.958L-21.9364 178.229L-21.6176 178.201C-20.7675 178.127 -20.1283 177.846 -19.6998 177.359C-19.2714 176.872 -19.0945 176.203 -19.169 175.353L-19.2864 174.014L-15.1103 173.65L-14.7637 177.602L-10.7788 177.255L-10.4518 180.984L-14.4367 181.332L-13.7855 188.76C-13.7352 189.333 -13.5967 189.814 -13.37 190.201C-13.1221 190.586 -12.7763 190.867 -12.3326 191.042C-11.8676 191.215 -11.2951 191.273 -10.615 191.213C-10.4663 191.2 -10.2972 191.175 -10.1078 191.137C-9.89712 191.097 -9.69708 191.058 -9.50768 191.02L-9.19464 194.59C-9.48845 194.659 -9.82477 194.731 -10.2036 194.807C-10.5824 194.883 -10.9312 194.935 -11.25 194.963ZM2.3536 193.968C0.653399 194.116 -0.932504 193.858 -2.40411 193.195C-3.85446 192.529 -5.05369 191.552 -6.00179 190.264C-6.92863 188.975 -7.46845 187.459 -7.62124 185.716C-7.77403 183.973 -7.50625 182.387 -6.81791 180.956C-6.10831 179.524 -5.09728 178.354 -3.78481 177.447C-2.47234 176.54 -0.955374 176.011 0.766079 175.861C2.46628 175.713 4.04156 175.971 5.49191 176.637C6.94226 177.303 8.13086 178.281 9.05771 179.57C10.0039 180.837 10.5544 182.352 10.709 184.116C10.8618 185.858 10.5834 187.446 9.87383 188.878C9.16423 190.311 8.1532 191.481 6.84073 192.388C5.52826 193.294 4.03255 193.821 2.3536 193.968ZM2.01821 190.142C2.95332 190.061 3.75197 189.766 4.41418 189.259C5.09763 188.749 5.60679 188.084 5.94165 187.262C6.29589 186.418 6.42923 185.496 6.34165 184.497C6.25221 183.477 5.96143 182.603 5.4693 181.875C4.99656 181.124 4.37934 180.557 3.61762 180.174C2.8753 179.767 2.03658 179.605 1.10147 179.687C0.145108 179.77 -0.67387 180.077 -1.35546 180.608C-2.03892 181.117 -2.5587 181.783 -2.91481 182.607C-3.25153 183.407 -3.37517 184.317 -3.28573 185.337C-3.19816 186.336 -2.91707 187.222 -2.44247 187.994C-1.94847 188.743 -1.32062 189.31 -0.558907 189.693C0.202807 190.076 1.06185 190.226 2.01821 190.142ZM14.6362 192.51L13.1158 175.169L17.0369 174.826L17.375 178.683L17.0059 178.137C17.2961 176.806 17.8438 175.848 18.6492 175.264C19.4759 174.678 20.4949 174.332 21.7063 174.226L22.7264 174.137L23.0506 177.835L21.5523 177.965C20.3622 178.069 19.4384 178.525 18.781 179.332C18.1218 180.117 17.8499 181.169 17.9655 182.486L18.8123 192.145L14.6362 192.51Z" fill="white"/>
<rect x="83.9933" y="174.409" width="11.9978" height="12.0022" rx="4" transform="rotate(-50 83.9933 174.409)" fill="#BC80FF"/>
<path d="M172.529 179.111C171.02 179.243 169.593 179.089 168.248 178.65C166.925 178.209 165.752 177.54 164.732 176.644C163.73 175.725 162.959 174.625 162.419 173.345L165.884 171.468C166.577 172.778 167.5 173.779 168.653 174.471C169.804 175.141 171.059 175.417 172.419 175.298C173.185 175.232 173.833 175.057 174.365 174.775C174.917 174.47 175.323 174.092 175.583 173.641C175.864 173.188 175.979 172.664 175.927 172.069C175.865 171.368 175.602 170.813 175.138 170.403C174.694 169.971 174.046 169.664 173.194 169.481L168.507 168.413C166.608 168 165.14 167.261 164.105 166.195C163.069 165.129 162.483 163.82 162.347 162.269C162.228 160.909 162.452 159.679 163.019 158.581C163.608 157.48 164.472 156.591 165.612 155.913C166.772 155.212 168.127 154.794 169.678 154.659C171.102 154.534 172.432 154.675 173.666 155.081C174.899 155.466 175.98 156.068 176.908 156.886C177.856 157.682 178.595 158.656 179.124 159.809L175.693 161.714C175.122 160.565 174.34 159.712 173.349 159.156C172.356 158.579 171.244 158.344 170.011 158.452C169.288 158.515 168.662 158.698 168.132 159.002C167.6 159.284 167.194 159.662 166.914 160.136C166.654 160.587 166.55 161.11 166.602 161.705C166.66 162.364 166.923 162.93 167.393 163.403C167.861 163.854 168.543 164.18 169.438 164.38L173.926 165.37C175.872 165.821 177.359 166.548 178.389 167.55C179.441 168.55 180.036 169.847 180.176 171.441C180.295 172.801 180.05 174.033 179.44 175.135C178.83 176.238 177.935 177.14 176.754 177.843C175.574 178.546 174.165 178.969 172.529 179.111ZM192.228 177.199C190.273 177.37 188.707 176.971 187.529 176.003C186.372 175.012 185.707 173.539 185.536 171.584L184.865 163.933L181.868 164.195L181.541 160.465L181.86 160.437C182.71 160.363 183.35 160.082 183.778 159.595C184.206 159.108 184.383 158.439 184.309 157.589L184.192 156.25L188.368 155.886L188.714 159.839L192.699 159.491L193.026 163.221L189.041 163.568L189.692 170.996C189.743 171.57 189.881 172.05 190.108 172.437C190.356 172.822 190.702 173.103 191.145 173.278C191.61 173.452 192.183 173.509 192.863 173.449C193.012 173.436 193.181 173.411 193.37 173.373C193.581 173.333 193.781 173.294 193.97 173.256L194.283 176.827C193.989 176.895 193.653 176.967 193.274 177.043C192.895 177.119 192.547 177.171 192.228 177.199ZM203.692 176.391C202.353 176.508 201.158 176.312 200.107 175.804C199.077 175.295 198.25 174.532 197.626 173.516C197.022 172.497 196.658 171.276 196.533 169.853L195.603 159.237L199.779 158.873L200.679 169.137C200.742 169.86 200.936 170.485 201.261 171.014C201.605 171.519 202.057 171.908 202.616 172.18C203.195 172.43 203.824 172.525 204.504 172.465C205.184 172.406 205.777 172.204 206.282 171.86C206.785 171.495 207.162 171.023 207.411 170.445C207.66 169.866 207.751 169.195 207.684 168.429L206.792 158.26L210.968 157.896L212.489 175.237L208.536 175.582L208.237 172.172L208.64 172.747C208.33 173.844 207.73 174.7 206.842 175.313C205.974 175.924 204.925 176.283 203.692 176.391ZM224.47 174.577C222.791 174.723 221.258 174.461 219.871 173.79C218.483 173.097 217.345 172.094 216.459 170.779C215.573 169.465 215.056 167.968 214.909 166.289C214.76 164.589 215.009 163.025 215.654 161.598C216.3 160.171 217.247 158.997 218.493 158.074C219.761 157.15 221.214 156.616 222.85 156.473C224.168 156.358 225.36 156.522 226.427 156.964C227.513 157.383 228.394 158.034 229.071 158.917L228.509 159.834L227.612 149.601L231.788 149.236L233.904 173.368L229.951 173.713L229.658 170.366L230.177 171.156C229.663 172.143 228.898 172.938 227.88 173.54C226.86 174.122 225.723 174.467 224.47 174.577ZM224.581 170.713C225.537 170.629 226.357 170.333 227.04 169.823C227.724 169.314 228.233 168.648 228.568 167.827C228.924 167.003 229.057 166.082 228.968 165.062C228.88 164.063 228.589 163.189 228.095 162.44C227.621 161.667 227.003 161.089 226.241 160.706C225.479 160.323 224.62 160.173 223.664 160.257C222.729 160.338 221.91 160.645 221.207 161.178C220.502 161.689 219.972 162.356 219.616 163.18C219.279 163.98 219.155 164.89 219.245 165.91C219.334 166.931 219.615 167.816 220.088 168.567C220.582 169.316 221.22 169.882 222.003 170.263C222.786 170.644 223.645 170.794 224.581 170.713ZM240.508 179.858C240.041 179.899 239.58 179.896 239.126 179.85C238.674 179.825 238.259 179.733 237.881 179.573L237.577 176.099C237.858 176.138 238.193 176.173 238.582 176.204C238.991 176.232 239.366 176.232 239.706 176.202C240.662 176.118 241.333 175.835 241.719 175.352C242.128 174.888 242.471 174.28 242.748 173.527L243.661 170.749L243.904 174.261L234.675 155.826L239.17 155.434L245.697 169.062L244.103 169.201L248.128 154.652L252.654 154.257L246.773 174.011C246.424 175.155 245.965 176.148 245.396 176.99C244.828 177.832 244.136 178.492 243.321 178.97C242.53 179.467 241.592 179.763 240.508 179.858ZM262.485 170.873L260.403 147.124L270.413 146.25C271.985 146.113 273.348 146.272 274.502 146.728C275.675 147.161 276.603 147.851 277.285 148.798C277.987 149.722 278.4 150.885 278.523 152.287C278.618 153.371 278.41 154.417 277.899 155.426C277.407 156.411 276.55 157.267 275.329 157.995L275.153 155.986C276.361 156.331 277.334 156.803 278.072 157.402C278.81 158.001 279.352 158.693 279.699 159.476C280.046 160.26 280.259 161.098 280.337 161.99C280.537 164.264 279.939 166.115 278.543 167.543C277.168 168.948 275.151 169.767 272.495 169.999L262.485 170.873ZM266.485 166.669L272.606 166.134C273.732 166.036 274.598 165.65 275.202 164.976C275.827 164.279 276.093 163.41 276.002 162.369C275.91 161.328 275.497 160.518 274.761 159.94C274.046 159.36 273.126 159.119 271.999 159.217L265.878 159.751L266.485 166.669ZM265.546 155.958L271.443 155.443C272.336 155.365 273.026 155.048 273.512 154.492C273.997 153.914 274.203 153.211 274.13 152.382C274.058 151.553 273.734 150.917 273.16 150.475C272.586 150.033 271.853 149.85 270.96 149.928L265.062 150.443L265.546 155.958ZM290.393 168.822C289.054 168.939 287.859 168.743 286.808 168.235C285.779 167.726 284.952 166.963 284.327 165.946C283.724 164.928 283.36 163.707 283.235 162.283L282.304 151.668L286.48 151.304L287.38 161.568C287.444 162.291 287.638 162.916 287.962 163.445C288.307 163.95 288.758 164.339 289.317 164.611C289.896 164.861 290.526 164.956 291.206 164.896C291.886 164.837 292.478 164.635 292.984 164.291C293.487 163.926 293.863 163.454 294.112 162.876C294.361 162.297 294.452 161.625 294.385 160.86L293.494 150.691L297.67 150.327L299.19 167.668L295.237 168.013L294.938 164.602L295.342 165.177C295.031 166.275 294.432 167.131 293.543 167.744C292.676 168.355 291.626 168.714 290.393 168.822ZM311.171 167.008C309.492 167.154 307.959 166.892 306.573 166.221C305.184 165.528 304.047 164.525 303.161 163.21C302.275 161.895 301.758 160.399 301.611 158.72C301.462 157.02 301.71 155.456 302.356 154.029C303.002 152.602 303.948 151.428 305.195 150.505C306.463 149.581 307.915 149.047 309.552 148.904C310.869 148.789 312.062 148.953 313.128 149.395C314.214 149.814 315.096 150.465 315.773 151.348L315.211 152.265L314.314 142.032L318.49 141.667L320.606 165.799L316.653 166.144L316.359 162.797L316.878 163.586C316.365 164.573 315.599 165.368 314.582 165.971C313.562 166.553 312.425 166.898 311.171 167.008ZM311.282 163.143C312.238 163.06 313.058 162.764 313.742 162.254C314.425 161.745 314.934 161.079 315.269 160.258C315.625 159.434 315.759 158.513 315.669 157.493C315.582 156.494 315.291 155.62 314.797 154.87C314.322 154.098 313.704 153.52 312.942 153.137C312.181 152.754 311.322 152.604 310.365 152.688C309.43 152.769 308.611 153.076 307.908 153.609C307.204 154.12 306.673 154.787 306.317 155.611C305.98 156.411 305.857 157.321 305.946 158.341C306.036 159.361 306.317 160.247 306.789 160.998C307.283 161.747 307.922 162.313 308.705 162.694C309.488 163.075 310.347 163.225 311.282 163.143ZM332.59 165.138C330.911 165.284 329.378 165.022 327.991 164.351C326.603 163.658 325.465 162.655 324.579 161.34C323.693 160.026 323.176 158.529 323.029 156.85C322.88 155.15 323.129 153.586 323.774 152.159C324.42 150.732 325.367 149.558 326.613 148.635C327.881 147.711 329.334 147.177 330.97 147.034C332.288 146.919 333.48 147.083 334.547 147.525C335.633 147.944 336.514 148.595 337.191 149.478L336.629 150.395L335.732 140.162L339.908 139.797L342.024 163.929L338.071 164.274L337.778 160.927L338.297 161.717C337.784 162.704 337.018 163.499 336 164.101C334.98 164.683 333.844 165.028 332.59 165.138ZM332.701 161.274C333.657 161.19 334.477 160.894 335.16 160.384C335.844 159.875 336.353 159.209 336.688 158.388C337.044 157.564 337.177 156.643 337.088 155.623C337 154.624 336.709 153.75 336.215 153.001C335.741 152.228 335.123 151.65 334.361 151.267C333.599 150.884 332.74 150.734 331.784 150.818C330.849 150.899 330.03 151.206 329.327 151.739C328.622 152.25 328.092 152.917 327.736 153.741C327.399 154.541 327.275 155.451 327.365 156.471C327.454 157.492 327.735 158.377 328.208 159.128C328.702 159.877 329.34 160.443 330.123 160.824C330.906 161.205 331.765 161.355 332.701 161.274ZM348.628 170.419C348.161 170.46 347.7 170.457 347.246 170.411C346.794 170.386 346.379 170.294 346.001 170.134L345.697 166.66C345.978 166.699 346.313 166.734 346.702 166.765C347.111 166.793 347.486 166.793 347.826 166.763C348.782 166.679 349.453 166.396 349.839 165.913C350.248 165.449 350.591 164.841 350.868 164.088L351.781 161.31L352.024 164.822L342.795 146.387L347.29 145.995L353.817 159.623L352.223 159.762L356.248 145.213L360.775 144.818L354.893 164.572C354.544 165.716 354.085 166.709 353.516 167.551C352.948 168.393 352.256 169.053 351.441 169.531C350.65 170.028 349.712 170.324 348.628 170.419Z" fill="white"/>
<rect x="421.68" y="144.929" width="11.9978" height="12.0022" rx="4" transform="rotate(-50 421.68 144.929)" fill="#BC80FF"/>
<path d="M501.702 149.989L499.62 126.24L515.4 124.862L515.735 128.687L504.29 129.687L504.824 135.775L515.631 134.832L515.967 138.657L505.16 139.601L505.702 145.785L517.146 144.786L517.482 148.611L501.702 149.989ZM518.748 148.5L524.042 139.269L517.196 131.162L522.105 130.733L527.47 137.332L525.27 137.524L529.405 130.096L534.283 129.67L528.983 138.838L535.771 147.014L530.894 147.44L525.596 140.868L527.732 140.682L523.658 148.072L518.748 148.5ZM543.069 146.763C541.857 146.869 540.788 146.758 539.86 146.433C538.932 146.107 538.191 145.593 537.636 144.892C537.081 144.17 536.759 143.309 536.671 142.31C536.587 141.354 536.725 140.485 537.085 139.704C537.443 138.902 538.046 138.207 538.894 137.619C539.742 137.031 540.837 136.572 542.178 136.24L547.772 134.82L548.051 138.008L543.246 139.263C542.43 139.484 541.837 139.803 541.467 140.221C541.097 140.639 540.939 141.156 540.993 141.772C541.045 142.367 541.31 142.826 541.788 143.148C542.285 143.448 542.874 143.568 543.554 143.508C544.426 143.432 545.175 143.185 545.802 142.766C546.449 142.324 546.924 141.758 547.227 141.068C547.552 140.375 547.68 139.636 547.611 138.85L547.22 134.387C547.154 133.643 546.803 133.053 546.165 132.616C545.546 132.156 544.759 131.968 543.803 132.051C542.91 132.129 542.134 132.443 541.476 132.993C540.837 133.52 540.392 134.191 540.142 135.005L536.586 133.645C536.846 132.701 537.308 131.869 537.973 131.147C538.657 130.402 539.482 129.794 540.448 129.325C541.413 128.855 542.48 128.569 543.649 128.467C545.073 128.343 546.35 128.499 547.48 128.936C548.609 129.351 549.512 130 550.189 130.883C550.885 131.743 551.288 132.79 551.396 134.022L552.407 145.562L548.454 145.907L548.195 142.942L549.082 142.801C548.7 143.584 548.224 144.257 547.653 144.821C547.079 145.363 546.411 145.807 545.649 146.152C544.885 146.476 544.025 146.679 543.069 146.763ZM556.267 145.225L554.747 127.884L558.668 127.541L559.02 131.558L558.515 130.927C558.724 129.646 559.28 128.655 560.182 127.955C561.084 127.255 562.184 126.849 563.48 126.736C564.904 126.611 566.19 126.874 567.339 127.523C568.489 128.172 569.276 129.089 569.701 130.272L568.529 130.471C568.94 129.043 569.646 127.943 570.649 127.17C571.65 126.376 572.842 125.918 574.223 125.798C575.456 125.69 576.574 125.871 577.579 126.34C578.605 126.807 579.438 127.516 580.079 128.467C580.717 129.396 581.093 130.509 581.206 131.805L582.185 142.962L578.009 143.327L577.117 133.158C577.05 132.393 576.854 131.746 576.529 131.218C576.205 130.689 575.785 130.298 575.27 130.043C574.753 129.767 574.144 129.659 573.443 129.721C572.784 129.778 572.213 129.988 571.731 130.352C571.247 130.694 570.891 131.153 570.664 131.73C570.436 132.307 570.355 132.977 570.422 133.742L571.314 143.911L567.138 144.276L566.246 134.107C566.179 133.342 565.983 132.695 565.659 132.167C565.334 131.638 564.903 131.248 564.367 130.995C563.851 130.719 563.252 130.61 562.572 130.67C561.913 130.727 561.343 130.937 560.861 131.301C560.377 131.643 560.021 132.102 559.793 132.679C559.565 133.256 559.485 133.926 559.552 134.691L560.443 144.86L556.267 145.225ZM595.942 141.761L594.196 121.838L588.043 122.375L587.708 118.55L604.284 117.102L604.62 120.928L598.563 121.457L600.31 141.38L595.942 141.761ZM608.662 140.651L607.141 123.309L611.317 122.945L612.838 140.286L608.662 140.651ZM606.971 121.365L606.58 116.902L610.756 116.537L611.147 121L606.971 121.365ZM617.253 146.325L615.173 122.608L619.094 122.266L619.396 125.709L618.938 124.881C619.451 123.894 620.195 123.101 621.171 122.502C622.144 121.882 623.301 121.513 624.64 121.396C626.276 121.254 627.788 121.528 629.177 122.221C630.565 122.913 631.702 123.906 632.586 125.2C633.492 126.491 634.019 127.987 634.168 129.687C634.315 131.366 634.067 132.93 633.423 134.378C632.779 135.826 631.834 137.011 630.587 137.934C629.338 138.835 627.874 139.359 626.195 139.506C624.941 139.615 623.762 139.472 622.656 139.076C621.57 138.657 620.678 138.007 619.98 137.125L620.576 136.238L621.429 145.961L617.253 146.325ZM625.382 135.722C626.338 135.639 627.169 135.341 627.873 134.83C628.578 134.319 629.098 133.652 629.433 132.831C629.789 132.007 629.922 131.086 629.833 130.066C629.743 129.046 629.452 128.171 628.96 127.444C628.488 126.692 627.86 126.126 627.077 125.745C626.292 125.342 625.421 125.183 624.465 125.266C623.551 125.346 622.742 125.642 622.037 126.153C621.354 126.662 620.835 127.339 620.48 128.184C620.146 129.005 620.022 129.916 620.11 130.914C620.199 131.935 620.48 132.82 620.953 133.571C621.447 134.32 622.075 134.887 622.836 135.27C623.619 135.651 624.468 135.802 625.382 135.722ZM644.745 137.886C642.896 138.048 641.242 137.753 639.784 137.002C638.346 136.229 637.306 135.109 636.663 133.645L639.656 131.874C640.188 132.813 640.871 133.524 641.706 134.008C642.562 134.49 643.479 134.688 644.457 134.603C645.222 134.536 645.813 134.313 646.229 133.934C646.646 133.555 646.83 133.089 646.781 132.537C646.751 132.197 646.632 131.929 646.422 131.733C646.231 131.514 645.97 131.344 645.638 131.223C645.326 131.079 644.984 130.97 644.614 130.895L641.706 130.346C640.203 130.049 639.03 129.498 638.189 128.694C637.368 127.887 636.906 126.889 636.802 125.699C636.709 124.636 636.893 123.689 637.356 122.856C637.837 122 638.537 121.307 639.454 120.778C640.393 120.246 641.489 119.925 642.743 119.816C644.379 119.673 645.859 119.94 647.182 120.617C648.504 121.294 649.494 122.321 650.15 123.698L647.094 125.475C646.727 124.715 646.173 124.131 645.43 123.725C644.688 123.319 643.881 123.154 643.01 123.23C642.309 123.291 641.77 123.499 641.394 123.853C641.018 124.207 640.853 124.639 640.897 125.149C640.925 125.467 641.035 125.736 641.225 125.955C641.416 126.174 641.666 126.345 641.977 126.468C642.309 126.589 642.682 126.695 643.097 126.788L645.943 127.374C647.404 127.675 648.555 128.217 649.394 129C650.255 129.782 650.74 130.789 650.848 132.021C650.939 133.063 650.744 134.011 650.262 134.867C649.778 135.702 649.067 136.385 648.129 136.916C647.19 137.448 646.062 137.771 644.745 137.886Z" fill="white"/>
<rect x="711.548" y="119.623" width="11.9978" height="12.0022" rx="4" transform="rotate(-50 711.548 119.623)" fill="#BC80FF"/>
<path d="M789.625 124.853L795.736 100.389L801.347 99.8988L811.622 122.932L806.904 123.344L804.767 118.391L795.586 119.193L794.311 124.444L789.625 124.853ZM796.494 115.259L803.188 114.675L798.198 103.193L799.41 103.087L796.494 115.259ZM814.265 122.702L812.183 98.9528L816.518 98.5743L818.6 122.323L814.265 122.702ZM833.042 121.062L831.296 101.139L825.143 101.676L824.808 97.8506L841.385 96.4035L841.72 100.229L835.663 100.758L837.41 120.681L833.042 121.062ZM850.703 119.906C849.364 120.023 848.169 119.827 847.118 119.32C846.089 118.81 845.262 118.047 844.637 117.031C844.034 116.013 843.67 114.792 843.545 113.368L842.614 102.753L846.79 102.388L847.69 112.653C847.754 113.375 847.948 114.001 848.272 114.529C848.617 115.034 849.068 115.423 849.628 115.696C850.206 115.945 850.836 116.04 851.516 115.981C852.196 115.921 852.788 115.72 853.294 115.376C853.797 115.01 854.173 114.539 854.422 113.96C854.671 113.382 854.762 112.71 854.695 111.945L853.804 101.776L857.98 101.411L859.5 118.753L855.547 119.098L855.248 115.687L855.652 116.262C855.341 117.36 854.742 118.215 853.853 118.828C852.986 119.439 851.936 119.798 850.703 119.906ZM871.305 117.915C869.35 118.085 867.784 117.687 866.607 116.719C865.449 115.728 864.784 114.255 864.613 112.3L863.942 104.649L860.946 104.91L860.619 101.181L860.937 101.153C861.787 101.079 862.427 100.798 862.855 100.311C863.284 99.8238 863.46 99.1553 863.386 98.3052L863.269 96.9663L867.445 96.6017L867.791 100.555L871.776 100.207L872.103 103.936L868.118 104.284L868.769 111.712C868.82 112.286 868.958 112.766 869.185 113.153C869.433 113.538 869.779 113.819 870.222 113.994C870.687 114.168 871.26 114.225 871.94 114.165C872.089 114.152 872.258 114.127 872.447 114.089C872.658 114.049 872.858 114.01 873.047 113.972L873.36 117.543C873.066 117.611 872.73 117.683 872.351 117.759C871.973 117.835 871.624 117.887 871.305 117.915ZM884.909 116.92C883.208 117.068 881.622 116.811 880.151 116.147C878.7 115.481 877.501 114.504 876.553 113.217C875.626 111.927 875.086 110.411 874.934 108.668C874.781 106.925 875.049 105.339 875.737 103.908C876.447 102.476 877.458 101.306 878.77 100.399C880.083 99.4922 881.6 98.9636 883.321 98.8134C885.021 98.6649 886.596 98.9236 888.047 99.5893C889.497 100.255 890.686 101.233 891.613 102.522C892.559 103.789 893.109 105.304 893.264 107.068C893.417 108.811 893.138 110.398 892.429 111.831C891.719 113.263 890.708 114.433 889.396 115.34C888.083 116.247 886.587 116.773 884.909 116.92ZM884.573 113.095C885.508 113.013 886.307 112.718 886.969 112.211C887.653 111.701 888.162 111.036 888.497 110.214C888.851 109.37 888.984 108.448 888.897 107.449C888.807 106.429 888.516 105.555 888.024 104.827C887.551 104.076 886.934 103.509 886.173 103.126C885.43 102.719 884.592 102.557 883.656 102.639C882.7 102.722 881.881 103.029 881.199 103.56C880.516 104.069 879.996 104.736 879.64 105.559C879.303 106.359 879.18 107.27 879.269 108.29C879.357 109.288 879.638 110.174 880.112 110.946C880.606 111.696 881.234 112.262 881.996 112.645C882.758 113.028 883.617 113.178 884.573 113.095ZM897.191 115.462L895.671 98.1207L899.592 97.7784L899.93 101.636L899.561 101.09C899.851 99.758 900.399 98.8 901.204 98.2158C902.031 97.6297 903.05 97.2837 904.261 97.178L905.281 97.0889L905.606 100.787L904.107 100.918C902.917 101.021 901.993 101.477 901.336 102.284C900.677 103.069 900.405 104.121 900.52 105.439L901.367 115.098L897.191 115.462Z" fill="white"/>
<rect x="966.548" y="97.3613" width="11.9978" height="12.0022" rx="4" transform="rotate(-50 966.548 97.3613)" fill="#BC80FF"/>
<path d="M1055.08 102.063C1053.57 102.195 1052.15 102.041 1050.8 101.602C1049.48 101.16 1048.31 100.492 1047.29 99.5958C1046.29 98.6768 1045.51 97.577 1044.97 96.2965L1048.44 94.42C1049.13 95.73 1050.05 96.7309 1051.21 97.4226C1052.36 98.093 1053.61 98.3688 1054.97 98.2501C1055.74 98.1833 1056.39 98.0089 1056.92 97.7269C1057.47 97.4218 1057.88 97.0437 1058.14 96.5927C1058.42 96.1398 1058.53 95.6159 1058.48 95.0208C1058.42 94.3195 1058.16 93.7643 1057.69 93.3551C1057.25 92.9228 1056.6 92.6153 1055.75 92.4327L1051.06 91.3643C1049.16 90.9519 1047.7 90.2127 1046.66 89.1468C1045.62 88.0808 1045.04 86.7721 1044.9 85.2207C1044.78 83.8606 1045.01 82.6311 1045.57 81.5323C1046.16 80.4316 1047.03 79.5424 1048.17 78.8647C1049.33 78.1639 1050.68 77.7457 1052.23 77.6103C1053.66 77.486 1054.99 77.6269 1056.22 78.0331C1057.45 78.4179 1058.54 79.0196 1059.46 79.8379C1060.41 80.6332 1061.15 81.6073 1061.68 82.7603L1058.25 84.6659C1057.68 83.5166 1056.9 82.664 1055.9 82.1081C1054.91 81.5309 1053.8 81.2961 1052.57 81.4037C1051.84 81.4668 1051.22 81.65 1050.69 81.9533C1050.15 82.2353 1049.75 82.6133 1049.47 83.0875C1049.21 83.5385 1049.1 84.0615 1049.16 84.6566C1049.21 85.3154 1049.48 85.8812 1049.95 86.3542C1050.42 86.8058 1051.1 87.1318 1051.99 87.332L1056.48 88.3215C1058.43 88.7726 1059.91 89.4993 1060.94 90.5015C1062 91.5019 1062.59 92.799 1062.73 94.3929C1062.85 95.753 1062.6 96.9843 1061.99 98.0869C1061.38 99.1895 1060.49 100.092 1059.31 100.795C1058.13 101.497 1056.72 101.92 1055.08 102.063ZM1074.78 100.151C1072.83 100.321 1071.26 99.9226 1070.08 98.9547C1068.93 97.9636 1068.26 96.4905 1068.09 94.5353L1067.42 86.8846L1064.42 87.1462L1064.1 83.4166L1064.42 83.3887C1065.27 83.3145 1065.9 83.0338 1066.33 82.5467C1066.76 82.0596 1066.94 81.391 1066.86 80.541L1066.75 79.2021L1070.92 78.8375L1071.27 82.7904L1075.25 82.4425L1075.58 86.1722L1071.6 86.5201L1072.25 93.9476C1072.3 94.5214 1072.44 95.0018 1072.66 95.3889C1072.91 95.7741 1073.26 96.0544 1073.7 96.2299C1074.17 96.4034 1074.74 96.4605 1075.42 96.4011C1075.57 96.3881 1075.74 96.3627 1075.93 96.3247C1076.14 96.2849 1076.34 96.246 1076.53 96.2081L1076.84 99.7784C1076.54 99.8469 1076.21 99.9191 1075.83 99.995C1075.45 100.071 1075.1 100.123 1074.78 100.151ZM1086.25 99.3425C1084.91 99.4594 1083.71 99.2639 1082.66 98.756C1081.63 98.2463 1080.8 97.4834 1080.18 96.4672C1079.58 95.4491 1079.21 94.2281 1079.09 92.8043L1078.16 82.189L1082.33 81.8244L1083.23 92.089C1083.3 92.8116 1083.49 93.4371 1083.82 93.9655C1084.16 94.4708 1084.61 94.8597 1085.17 95.1321C1085.75 95.3814 1086.38 95.4763 1087.06 95.417C1087.74 95.3576 1088.33 95.1559 1088.84 94.812C1089.34 94.4469 1089.72 93.975 1089.97 93.3965C1090.21 92.818 1090.31 92.1462 1090.24 91.3811L1089.35 81.2121L1093.52 80.8476L1095.04 98.189L1091.09 98.5341L1090.79 95.1232L1091.2 95.6983C1090.88 96.7961 1090.29 97.6515 1089.4 98.2644C1088.53 98.8755 1087.48 99.2349 1086.25 99.3425ZM1107.02 97.5286C1105.35 97.6751 1103.81 97.4128 1102.43 96.7415C1101.04 96.049 1099.9 95.0454 1099.01 93.7308C1098.13 92.4162 1097.61 90.9195 1097.46 89.2406C1097.32 87.5405 1097.56 85.977 1098.21 84.55C1098.86 83.1231 1099.8 81.9484 1101.05 81.0258C1102.32 80.1013 1103.77 79.5677 1105.41 79.4248C1106.72 79.3098 1107.91 79.4734 1108.98 79.9156C1110.07 80.3347 1110.95 80.9859 1111.63 81.869L1111.06 82.7854L1110.17 72.5526L1114.34 72.188L1116.46 96.3195L1112.51 96.6646L1112.21 93.3174L1112.73 94.1073C1112.22 95.0943 1111.45 95.8892 1110.44 96.492C1109.42 97.0736 1108.28 97.4191 1107.02 97.5286ZM1107.14 93.6643C1108.09 93.5808 1108.91 93.2843 1109.6 92.775C1110.28 92.2656 1110.79 91.6001 1111.12 90.7786C1111.48 89.9551 1111.61 89.0334 1111.52 88.0133C1111.44 87.0145 1111.14 86.1404 1110.65 85.3912C1110.18 84.6189 1109.56 84.0412 1108.8 83.6579C1108.03 83.2747 1107.18 83.1249 1106.22 83.2084C1105.28 83.29 1104.46 83.5971 1103.76 84.1295C1103.06 84.6408 1102.53 85.3081 1102.17 86.1315C1101.83 86.9318 1101.71 87.842 1101.8 88.8621C1101.89 89.8822 1102.17 90.7678 1102.64 91.5189C1103.14 92.2681 1103.78 92.8333 1104.56 93.2147C1105.34 93.596 1106.2 93.7459 1107.14 93.6643ZM1123.06 102.81C1122.6 102.851 1122.13 102.848 1121.68 102.802C1121.23 102.777 1120.81 102.685 1120.44 102.525L1120.13 99.0504C1120.41 99.09 1120.75 99.125 1121.14 99.1554C1121.55 99.1839 1121.92 99.1833 1122.26 99.1536C1123.22 99.0701 1123.89 98.7867 1124.27 98.3033C1124.68 97.8393 1125.03 97.2312 1125.3 96.4789L1126.22 93.701L1126.46 97.2131L1117.23 78.778L1121.72 78.3855L1128.25 92.0135L1126.66 92.1527L1130.68 77.6035L1135.21 77.2083L1129.33 96.9626C1128.98 98.1067 1128.52 99.0997 1127.95 99.9417C1127.38 100.784 1126.69 101.444 1125.88 101.922C1125.08 102.419 1124.15 102.715 1123.06 102.81ZM1145.04 93.8243L1142.96 70.0754L1152.97 69.2015C1154.54 69.0643 1155.9 69.2236 1157.06 69.6797C1158.23 70.1127 1159.16 70.8026 1159.84 71.7495C1160.54 72.6733 1160.95 73.8365 1161.08 75.2391C1161.17 76.3229 1160.96 77.369 1160.45 78.3773C1159.96 79.3624 1159.11 80.2188 1157.88 80.9465L1157.71 78.9382C1158.92 79.2824 1159.89 79.7542 1160.63 80.3537C1161.36 80.9531 1161.91 81.6445 1162.25 82.428C1162.6 83.2114 1162.81 84.0495 1162.89 84.942C1163.09 87.216 1162.49 89.067 1161.1 90.4951C1159.72 91.9001 1157.71 92.7185 1155.05 92.9504L1145.04 93.8243ZM1149.04 89.6205L1155.16 89.0862C1156.29 88.9878 1157.15 88.6017 1157.76 87.9279C1158.38 87.231 1158.65 86.3619 1158.56 85.3205C1158.47 84.2792 1158.05 83.4694 1157.32 82.8912C1156.6 82.3112 1155.68 82.0704 1154.55 82.1687L1148.43 82.703L1149.04 89.6205ZM1148.1 78.9096L1154 78.3947C1154.89 78.3168 1155.58 77.9996 1156.07 77.4432C1156.55 76.8655 1156.76 76.1623 1156.69 75.3334C1156.61 74.5046 1156.29 73.869 1155.71 73.4266C1155.14 72.9842 1154.41 72.802 1153.51 72.8799L1147.62 73.3947L1148.1 78.9096ZM1172.95 91.7733C1171.61 91.8902 1170.41 91.6947 1169.36 91.1869C1168.33 90.6772 1167.51 89.9142 1166.88 88.898C1166.28 87.88 1165.91 86.659 1165.79 85.2351L1164.86 74.6199L1169.04 74.2553L1169.94 84.5199C1170 85.2425 1170.19 85.868 1170.52 86.3964C1170.86 86.9017 1171.31 87.2906 1171.87 87.563C1172.45 87.8122 1173.08 87.9072 1173.76 87.8478C1174.44 87.7885 1175.03 87.5868 1175.54 87.2429C1176.04 86.8777 1176.42 86.4059 1176.67 85.8274C1176.92 85.2489 1177.01 84.5771 1176.94 83.812L1176.05 73.643L1180.22 73.2784L1181.75 90.6199L1177.79 90.965L1177.49 87.5541L1177.9 88.1291C1177.59 89.227 1176.99 90.0824 1176.1 90.6953C1175.23 91.3064 1174.18 91.6657 1172.95 91.7733ZM1193.73 89.9594C1192.05 90.106 1190.51 89.8436 1189.13 89.1724C1187.74 88.4798 1186.6 87.4763 1185.72 86.1617C1184.83 84.8471 1184.31 83.3504 1184.17 81.6715C1184.02 79.9713 1184.26 78.4078 1184.91 76.9809C1185.56 75.554 1186.5 74.3792 1187.75 73.4566C1189.02 72.5322 1190.47 71.9985 1192.11 71.8557C1193.42 71.7406 1194.62 71.9042 1195.68 72.3465C1196.77 72.7656 1197.65 73.4167 1198.33 74.2999L1197.77 75.2162L1196.87 64.9835L1201.04 64.6189L1203.16 88.7503L1199.21 89.0954L1198.91 85.7483L1199.43 86.5381C1198.92 87.5251 1198.15 88.3201 1197.14 88.9229C1196.12 89.5044 1194.98 89.85 1193.73 89.9594ZM1193.84 86.0951C1194.79 86.0116 1195.61 85.7152 1196.3 85.2058C1196.98 84.6965 1197.49 84.031 1197.82 83.2094C1198.18 82.386 1198.31 81.4643 1198.22 80.4442C1198.14 79.4453 1197.85 78.5713 1197.35 77.8221C1196.88 77.0498 1196.26 76.472 1195.5 76.0888C1194.74 75.7056 1193.88 75.5558 1192.92 75.6392C1191.99 75.7209 1191.17 76.0279 1190.46 76.5604C1189.76 77.0716 1189.23 77.739 1188.87 78.5624C1188.54 79.3627 1188.41 80.2729 1188.5 81.293C1188.59 82.3131 1188.87 83.1987 1189.34 83.9497C1189.84 84.6989 1190.48 85.2642 1191.26 85.6456C1192.04 86.0269 1192.9 86.1768 1193.84 86.0951ZM1215.14 88.0896C1213.47 88.2361 1211.93 87.9738 1210.55 87.3025C1209.16 86.61 1208.02 85.6064 1207.13 84.2918C1206.25 82.9773 1205.73 81.4805 1205.58 79.8016C1205.44 78.1015 1205.68 76.538 1206.33 75.111C1206.98 73.6841 1207.92 72.5094 1209.17 71.5868C1210.44 70.6623 1211.89 70.1287 1213.53 69.9858C1214.84 69.8708 1216.03 70.0344 1217.1 70.4766C1218.19 70.8957 1219.07 71.5469 1219.75 72.43L1219.18 73.3464L1218.29 63.1136L1222.46 62.749L1224.58 86.8805L1220.63 87.2256L1220.33 83.8784L1220.85 84.6683C1220.34 85.6553 1219.57 86.4502 1218.56 87.053C1217.54 87.6346 1216.4 87.9801 1215.14 88.0896ZM1215.26 84.2253C1216.21 84.1418 1217.03 83.8453 1217.72 83.336C1218.4 82.8266 1218.91 82.1611 1219.24 81.3396C1219.6 80.5161 1219.73 79.5944 1219.64 78.5743C1219.56 77.5755 1219.26 76.7014 1218.77 75.9522C1218.3 75.1799 1217.68 74.6022 1216.92 74.219C1216.15 73.8357 1215.3 73.6859 1214.34 73.7694C1213.4 73.851 1212.58 74.1581 1211.88 74.6906C1211.18 75.2018 1210.65 75.8691 1210.29 76.6925C1209.95 77.4928 1209.83 78.403 1209.92 79.4231C1210.01 80.4432 1210.29 81.3288 1210.76 82.0799C1211.26 82.8291 1211.9 83.3944 1212.68 83.7757C1213.46 84.1571 1214.32 84.3069 1215.26 84.2253ZM1231.18 93.3707C1230.72 93.4115 1230.25 93.4089 1229.8 93.3629C1229.35 93.3381 1228.93 93.2458 1228.56 93.0861L1228.25 89.6114C1228.53 89.651 1228.87 89.686 1229.26 89.7164C1229.67 89.7449 1230.04 89.7443 1230.38 89.7146C1231.34 89.6311 1232.01 89.3477 1232.39 88.8643C1232.8 88.4003 1233.15 87.7922 1233.42 87.0399L1234.34 84.262L1234.58 87.7741L1225.35 69.339L1229.84 68.9465L1236.37 82.5745L1234.78 82.7137L1238.8 68.1645L1243.33 67.7693L1237.45 87.5236C1237.1 88.6677 1236.64 89.6607 1236.07 90.5027C1235.5 91.3447 1234.81 92.0047 1234 92.4827C1233.2 92.9801 1232.27 93.2761 1231.18 93.3707Z" fill="white"/>
<rect x="1304.23" y="67.8809" width="11.9978" height="12.0022" rx="4" transform="rotate(-50 1304.23 67.8809)" fill="#BC80FF"/>
<path d="M1384.26 72.9408L1382.17 49.1919L1397.95 47.8143L1398.29 51.6396L1386.85 52.6387L1387.38 58.7274L1398.19 57.7839L1398.52 61.6093L1387.71 62.5527L1388.26 68.737L1399.7 67.7379L1400.04 71.5632L1384.26 72.9408ZM1401.3 71.4526L1406.6 62.2212L1399.75 54.114L1404.66 53.6854L1410.02 60.2838L1407.83 60.4758L1411.96 53.048L1416.84 52.6222L1411.54 61.7899L1418.33 69.9665L1413.45 70.3923L1408.15 63.8202L1410.29 63.6337L1406.21 71.0241L1401.3 71.4526ZM1425.62 69.7149C1424.41 69.8207 1423.34 69.7106 1422.41 69.3847C1421.49 69.0589 1420.75 68.5454 1420.19 67.8443C1419.64 67.1219 1419.31 66.2612 1419.23 65.2624C1419.14 64.3061 1419.28 63.4375 1419.64 62.6565C1420 61.8544 1420.6 61.1593 1421.45 60.5713C1422.3 59.9834 1423.39 59.5237 1424.73 59.1925L1430.33 57.7726L1430.61 60.9604L1425.8 62.215C1424.99 62.4362 1424.39 62.7556 1424.02 63.1734C1423.65 63.5912 1423.49 64.1082 1423.55 64.7245C1423.6 65.3196 1423.86 65.7783 1424.34 66.1006C1424.84 66.3998 1425.43 66.5197 1426.11 66.4603C1426.98 66.3843 1427.73 66.1368 1428.36 65.718C1429 65.2761 1429.48 64.71 1429.78 64.0197C1430.11 63.3275 1430.23 62.5882 1430.17 61.8019L1429.77 57.339C1429.71 56.5952 1429.36 56.0049 1428.72 55.568C1428.1 55.1081 1427.31 54.9198 1426.36 55.0033C1425.46 55.0813 1424.69 55.3952 1424.03 55.9453C1423.39 56.4722 1422.95 57.1427 1422.7 57.9568L1419.14 56.597C1419.4 55.6535 1419.86 54.8208 1420.53 54.0989C1421.21 53.3539 1422.04 52.7465 1423 52.2768C1423.97 51.8071 1425.03 51.5212 1426.2 51.4191C1427.63 51.2948 1428.9 51.451 1430.04 51.8877C1431.16 52.3031 1432.07 52.9524 1432.74 53.8355C1433.44 54.6955 1433.84 55.7418 1433.95 56.9744L1434.96 68.5142L1431.01 68.8593L1430.75 65.8946L1431.64 65.7529C1431.26 66.5357 1430.78 67.209 1430.21 67.7729C1429.63 68.3155 1428.97 68.7592 1428.2 69.1042C1427.44 69.4278 1426.58 69.6314 1425.62 69.7149ZM1438.82 68.1772L1437.3 50.8357L1441.22 50.4934L1441.57 54.51L1441.07 53.8795C1441.28 52.5978 1441.83 51.6071 1442.74 50.9073C1443.64 50.2075 1444.74 49.801 1446.03 49.6878C1447.46 49.5635 1448.75 49.826 1449.89 50.4752C1451.04 51.1244 1451.83 52.0407 1452.26 53.2242L1451.08 53.4228C1451.49 51.9951 1452.2 50.8948 1453.2 50.122C1454.21 49.3279 1455.4 48.8706 1456.78 48.75C1458.01 48.6423 1459.13 48.8231 1460.13 49.2921C1461.16 49.7593 1461.99 50.4682 1462.63 51.4188C1463.27 52.3482 1463.65 53.461 1463.76 54.7574L1464.74 65.9146L1460.56 66.2791L1459.67 56.1102C1459.6 55.3451 1459.41 54.6983 1459.08 54.1699C1458.76 53.6415 1458.34 53.2499 1457.82 52.995C1457.31 52.7189 1456.7 52.6115 1456 52.6727C1455.34 52.7302 1454.77 52.9406 1454.29 53.3039C1453.8 53.646 1453.45 54.1053 1453.22 54.682C1452.99 55.2587 1452.91 55.9295 1452.98 56.6946L1453.87 66.8636L1449.69 67.2282L1448.8 57.0592C1448.73 56.2941 1448.54 55.6474 1448.21 55.1189C1447.89 54.5905 1447.46 54.1998 1446.92 53.9468C1446.41 53.6707 1445.81 53.5623 1445.13 53.6217C1444.47 53.6792 1443.9 53.8896 1443.42 54.2529C1442.93 54.595 1442.58 55.0544 1442.35 55.631C1442.12 56.2077 1442.04 56.8786 1442.11 57.6436L1443 67.8126L1438.82 68.1772ZM1478.5 64.7135L1476.75 44.7899L1470.6 45.3271L1470.26 41.5017L1486.84 40.0546L1487.17 43.8799L1481.12 44.4087L1482.86 64.3322L1478.5 64.7135ZM1491.22 63.6031L1489.7 46.2616L1493.87 45.897L1495.39 63.2385L1491.22 63.6031ZM1489.53 44.3171L1489.13 39.8542L1493.31 39.4896L1493.7 43.9525L1489.53 44.3171ZM1499.81 69.2774L1497.73 45.5604L1501.65 45.2181L1501.95 48.6609L1501.49 47.8336C1502.01 46.8466 1502.75 46.0535 1503.73 45.4544C1504.7 44.834 1505.86 44.4654 1507.19 44.3485C1508.83 44.2057 1510.34 44.4805 1511.73 45.173C1513.12 45.8656 1514.26 46.8585 1515.14 48.1518C1516.05 49.4433 1516.57 50.9391 1516.72 52.6393C1516.87 54.3181 1516.62 55.8817 1515.98 57.3298C1515.33 58.778 1514.39 59.9634 1513.14 60.886C1511.89 61.7873 1510.43 62.3113 1508.75 62.4579C1507.5 62.5673 1506.32 62.4241 1505.21 62.028C1504.12 61.6089 1503.23 60.9587 1502.53 60.0774L1503.13 59.1902L1503.98 68.9129L1499.81 69.2774ZM1507.94 58.6743C1508.89 58.5908 1509.72 58.2934 1510.43 57.7822C1511.13 57.271 1511.65 56.6046 1511.99 55.783C1512.34 54.9596 1512.48 54.0378 1512.39 53.0177C1512.3 51.9977 1512.01 51.1236 1511.52 50.3957C1511.04 49.6446 1510.41 49.0784 1509.63 48.6971C1508.85 48.2945 1507.98 48.1349 1507.02 48.2184C1506.11 48.2982 1505.3 48.5937 1504.59 49.1049C1503.91 49.6143 1503.39 50.2913 1503.04 51.136C1502.7 51.9575 1502.58 52.8677 1502.66 53.8666C1502.75 54.8867 1503.03 55.7722 1503.51 56.5233C1504 57.2725 1504.63 57.8387 1505.39 58.2219C1506.17 58.6033 1507.02 58.7541 1507.94 58.6743ZM1527.3 60.8385C1525.45 60.9999 1523.8 60.7052 1522.34 59.9545C1520.9 59.1807 1519.86 58.0616 1519.22 56.5972L1522.21 54.8262C1522.74 55.7649 1523.43 56.4761 1524.26 56.96C1525.12 57.4421 1526.03 57.6404 1527.01 57.5551C1527.78 57.4883 1528.37 57.2654 1528.78 56.8864C1529.2 56.5074 1529.38 56.0416 1529.34 55.4891C1529.31 55.1491 1529.19 54.8811 1528.98 54.6853C1528.79 54.4664 1528.52 54.2965 1528.19 54.1755C1527.88 54.0315 1527.54 53.9221 1527.17 53.8474L1524.26 53.2981C1522.76 53.0011 1521.59 52.4503 1520.74 51.6458C1519.92 50.8394 1519.46 49.8412 1519.36 48.6511C1519.26 47.5885 1519.45 46.6409 1519.91 45.8081C1520.39 44.9523 1521.09 44.2595 1522.01 43.7298C1522.95 43.1981 1524.04 42.8776 1525.3 42.7681C1526.93 42.6253 1528.41 42.8922 1529.74 43.5691C1531.06 44.2459 1532.05 45.2731 1532.71 46.6506L1529.65 48.4272C1529.28 47.6668 1528.73 47.0835 1527.99 46.6772C1527.24 46.2709 1526.44 46.1057 1525.56 46.1818C1524.86 46.243 1524.32 46.4507 1523.95 46.8047C1523.57 47.1587 1523.41 47.5908 1523.45 48.1008C1523.48 48.4196 1523.59 48.6884 1523.78 48.9074C1523.97 49.1263 1524.22 49.2971 1524.53 49.4199C1524.86 49.5409 1525.24 49.6475 1525.65 49.7397L1528.5 50.3264C1529.96 50.6271 1531.11 51.1691 1531.95 51.9524C1532.81 52.7338 1533.29 53.7409 1533.4 54.9735C1533.49 56.0148 1533.3 56.9634 1532.82 57.8192C1532.33 58.6537 1531.62 59.3368 1530.68 59.8685C1529.75 60.4001 1528.62 60.7234 1527.3 60.8385Z" fill="white"/>
</svg>
