<svg width="188" height="66" viewBox="0 0 188 66" fill="none" xmlns="http://www.w3.org/2000/svg">
<path d="M182.152 21.4631C180.953 24.3054 179.209 26.1151 176.554 27.675C176.273 28.0511 176.991 27.9256 177.187 27.913C178.929 27.7403 180.556 26.207 181.761 24.915C180.411 29.6723 177.972 34.9855 174.026 38.0344C169.524 41.6577 162.384 42.835 157.753 38.8874C159.438 35.5002 160.506 31.4076 159.443 27.6646C157.621 22.9776 152.539 24.6253 151.693 29.3503C151.008 33.1827 152.545 37.1495 155.131 40.0075C146.47 52.5633 130.438 49.9925 122.906 37.6887C122.897 37.6732 122.885 37.6597 122.871 37.6489C122.857 37.6381 122.841 37.6302 122.824 37.6259C122.806 37.6215 122.789 37.6207 122.771 37.6235C122.753 37.6263 122.737 37.6327 122.722 37.6422C122.706 37.6505 122.693 37.6618 122.682 37.6753C122.671 37.6889 122.663 37.7045 122.659 37.7212C122.654 37.7379 122.652 37.7553 122.654 37.7726C122.657 37.7898 122.662 37.8065 122.671 37.8215C130.009 51.0596 146.938 53.8308 156.362 41.1457C159.844 44.0194 164.804 44.562 169.012 43.2059C176.584 40.8692 181.565 32.6731 182.529 25.0995C182.98 25.7849 183.156 26.6196 183.603 27.3049C184.126 28.1068 185.578 29.0972 185.516 28.4173C185.029 27.6403 184.603 26.8271 184.241 25.9848C183.86 25.1397 183.456 24.1733 183.115 23.3119L183.054 23.1465L182.417 21.4791C182.407 21.4524 182.39 21.429 182.368 21.4119C182.345 21.3949 182.318 21.3848 182.29 21.3831C182.261 21.3814 182.233 21.3881 182.209 21.4023C182.184 21.4166 182.165 21.4377 182.152 21.4631ZM154.134 32.693C152.654 27.6982 157.146 24.434 157.892 29.7617C158.068 32.4436 157.579 35.1275 156.468 37.5748C155.326 36.1482 154.527 34.4778 154.134 32.693Z" fill="#231F20"/>
<path d="M10.333 20.8168C10.6199 20.8419 10.7869 21.0673 10.834 21.493C10.7233 23.4468 10.567 25.5773 10.3651 27.8844C10.1643 30.1797 10.0363 31.5056 9.981 31.8621C9.92572 32.2186 9.82605 32.4629 9.682 32.5948C9.53796 32.7268 9.29259 32.7776 8.94592 32.7473C8.63511 32.7201 8.49643 32.5152 8.5299 32.1327L8.88445 28.0801C8.94197 27.4227 8.98911 26.7462 9.02586 26.0507C9.06261 25.3553 9.08883 24.9179 9.10452 24.7386C8.63741 25.3964 8.04927 25.9231 7.34008 26.3188C6.63194 26.7026 5.86545 26.8584 5.0406 26.7862C4.21575 26.714 3.5522 26.3127 3.04996 25.5821C2.96226 26.3092 2.87448 27.1749 2.78663 28.1791C2.69982 29.1713 2.61428 30.2178 2.53002 31.3186C2.50387 31.6175 2.38291 31.8298 2.16714 31.9554C1.96436 32.0702 1.73745 32.1166 1.48641 32.0946C1.16365 32.0664 1.01952 31.855 1.05403 31.4605C1.16012 30.3857 1.31513 28.6827 1.51907 26.3516L1.96461 21.2591C1.98239 21.0559 2.0654 20.8644 2.21363 20.6846C2.37382 20.5059 2.54357 20.4244 2.72288 20.4401C2.91415 20.4568 3.08278 20.5257 3.22878 20.6469C3.37582 20.7562 3.44642 20.9129 3.4406 21.1172C3.37232 22.4483 3.50122 23.4534 3.82728 24.1324C4.15334 24.8114 4.57937 25.1739 5.10536 25.2199C5.63135 25.2659 6.08696 25.2214 6.47218 25.0865C6.87041 24.9407 7.199 24.7646 7.45796 24.5584C7.72887 24.3532 7.9962 24.0514 8.25994 23.6529C8.635 23.0834 9.01013 22.3754 9.38534 21.5289C9.61067 21.0186 9.92656 20.7812 10.333 20.8168ZM15.34 24.8686C16.2007 24.9439 16.8699 25.418 17.3477 26.2909C17.8374 27.165 18.0315 28.1817 17.93 29.3413C17.8296 30.4889 17.457 31.4441 16.812 32.2068C16.1791 32.9705 15.3904 33.3111 14.446 33.2284C13.5135 33.1469 12.7965 32.6686 12.2949 31.7935C11.7943 30.9065 11.5884 29.9549 11.6773 28.9388C11.7913 27.6358 12.1453 26.6188 12.7393 25.8878C13.3733 25.1121 14.2402 24.7723 15.34 24.8686ZM14.9962 26.3201C14.4941 26.2762 14.0587 26.5031 13.6899 27.0009C13.3211 27.4986 13.1111 28.0404 13.0598 28.6261C12.9803 29.5347 13.099 30.2437 13.4158 30.7532C13.7326 31.2628 14.1181 31.5374 14.5724 31.5772C15.3853 31.6483 15.9361 31.3411 16.225 30.6557C16.3499 30.3294 16.4343 29.9151 16.4783 29.4131C16.6498 27.4525 16.1558 26.4216 14.9962 26.3201ZM18.7833 29.3618C18.8533 28.5608 19.1263 27.8499 19.6023 27.229C20.0901 26.6092 20.6769 26.1666 21.3627 25.9014C22.0494 25.6242 22.7036 25.5128 23.3253 25.5672C23.9469 25.6216 24.4362 25.7427 24.7932 25.9305C25.1632 26.1074 25.3372 26.3214 25.3152 26.5724C25.2943 26.8115 25.2011 27.0503 25.0357 27.2888C24.8833 27.5164 24.6935 27.6202 24.4664 27.6004C24.3827 27.593 24.1554 27.5069 23.7843 27.3419C23.4263 27.1661 23.1935 27.0734 23.0859 27.064C22.3925 27.0033 21.7783 27.2086 21.2432 27.6798C20.7092 28.139 20.4055 28.787 20.3323 29.6238C20.2591 30.4606 20.3357 31.0997 20.5621 31.5411C20.8015 31.9716 21.2499 32.2156 21.9074 32.2731C22.1704 32.2961 22.6318 32.1859 23.2915 31.9425C23.9642 31.6882 24.3783 31.5678 24.5337 31.5814C24.6891 31.595 24.8104 31.6538 24.8977 31.7578C24.985 31.8618 25.0223 31.9855 25.0098 32.129C24.9847 32.4159 24.7727 32.7045 24.3739 32.9948C23.9881 33.2743 23.5168 33.498 22.96 33.6662C22.4043 33.8223 21.9112 33.8816 21.4809 33.8439C20.5245 33.7603 19.8044 33.3178 19.3203 32.5166C18.8483 31.7164 18.6693 30.6648 18.7833 29.3618ZM32.0913 33.9411C32.0421 34.5029 31.7606 34.7613 31.2465 34.7164C31.0313 34.6975 30.7845 34.1459 30.5059 33.0615C30.2284 31.9652 29.804 31.1029 29.2325 30.4747C29.1654 30.5532 28.8875 30.7698 28.3987 31.1245C27.923 31.4683 27.6396 31.6784 27.5486 31.7548L27.3917 33.548C27.3521 33.7252 27.3102 33.86 27.2659 33.9525C27.2217 34.045 27.1302 34.1274 26.9914 34.1995C26.8645 34.2728 26.6935 34.3 26.4783 34.2811C26.1555 34.2529 26.0114 34.0415 26.0459 33.647C26.1432 32.5353 26.246 30.8097 26.3543 28.4702C26.4636 26.1188 26.5994 24.0166 26.7615 22.1637C26.7814 21.9366 26.8867 21.7651 27.0775 21.6493C27.2803 21.5345 27.4833 21.486 27.6865 21.5038C27.9615 21.5279 28.1137 21.7159 28.1431 22.0678L27.8654 25.2416C27.832 25.6242 27.8128 25.9116 27.8081 26.1039C27.8033 26.2962 27.7901 26.5842 27.7686 26.9678C27.7235 27.7588 27.6874 28.6531 27.6604 29.6505C28.0301 29.4179 28.5085 29.0442 29.0956 28.5294C29.6957 28.0037 30.151 27.5496 30.4615 27.1672C30.9515 26.5235 31.3758 26.2173 31.7344 26.2487C31.83 26.257 31.9236 26.2893 32.015 26.3455C32.2535 26.5109 32.3644 26.6893 32.3476 26.8805C32.3309 27.0718 32.2253 27.3155 32.0307 27.6117C31.5355 28.3152 30.9803 28.9472 30.3651 29.5077C30.8508 30.1525 31.3139 31.0543 31.7546 32.2131C32.0146 32.9586 32.1269 33.5346 32.0913 33.9411ZM38.3198 23.5724L45.5915 24.1002C45.9288 24.2381 46.0869 24.4266 46.066 24.6657C46.0137 25.2635 45.7425 25.5409 45.2524 25.498C44.3558 25.4195 43.4034 25.3603 42.395 25.3203C42.2453 26.3431 42.1474 27.1175 42.1014 27.6435C42.0564 28.1576 42.0277 28.4863 42.0151 28.6298L41.5362 34.93C41.5038 35.3006 41.3893 35.5074 41.1928 35.5504C41.0452 35.5857 40.8638 35.5939 40.6486 35.5751C40.3019 35.5448 40.1279 35.3308 40.1266 34.9331C40.1354 34.0064 40.2496 32.2878 40.4692 29.7774C40.6899 27.255 40.8586 25.74 40.9753 25.2322C40.7232 25.2222 40.3521 25.1957 39.862 25.1529C39.3718 25.11 38.7627 25.0507 38.0345 24.9749C37.8432 24.9582 37.699 24.8853 37.6019 24.7564C37.5048 24.6274 37.4635 24.4793 37.4782 24.3119C37.4939 24.1326 37.5808 23.9655 37.7389 23.8107C37.9089 23.657 38.1026 23.5775 38.3198 23.5724ZM48.8905 27.858C49.524 27.9135 50.1115 28.1516 50.6529 28.5724C51.1943 28.9932 51.4409 29.4785 51.3928 30.0284C51.3458 30.5663 51.0666 31.0719 50.5554 31.5452C50.0453 32.0065 49.397 32.2569 48.6106 32.2965C48.2717 32.3151 47.7675 32.2951 47.098 32.2365C47.1406 33.2641 47.3391 33.956 47.6934 34.3123C47.8014 34.4542 47.9571 34.5341 48.1603 34.5519C48.9014 34.6167 49.5435 34.438 50.0863 34.0157C50.6303 33.5815 51.0098 33.3737 51.225 33.3926C51.3206 33.4009 51.4562 33.5031 51.6318 33.6992C51.8074 33.8952 51.8884 34.071 51.8748 34.2264C51.8476 34.5372 51.4318 34.9525 50.6274 35.4724C50.2687 35.7181 49.8418 35.9156 49.3469 36.0651C48.865 36.2036 48.4208 36.2551 48.0144 36.2195C46.9744 36.1285 46.2678 35.3921 45.8949 34.0104C45.6562 33.1583 45.5803 32.2362 45.6671 31.244C45.7539 30.2518 46.0618 29.4174 46.5908 28.741C47.1197 28.0645 47.8863 27.7702 48.8905 27.858ZM48.8719 29.1032C48.4176 29.0634 48.0066 29.2864 47.6389 29.7722C47.5036 29.9411 47.3545 30.3376 47.1915 30.9618C48.8651 31.1082 49.738 30.769 49.8101 29.9441C49.8541 29.4421 49.5413 29.1617 48.8719 29.1032ZM53.5648 30.4895C53.6265 29.7841 53.9267 29.2443 54.4654 28.8698C55.0041 28.4953 55.6021 28.3368 56.2596 28.3944C56.9291 28.4529 57.5582 28.6284 58.1469 28.9208C58.7357 29.2133 59.0128 29.5567 58.9783 29.9512C58.9605 30.1544 58.8687 30.309 58.7028 30.415C58.537 30.5209 58.3943 30.5687 58.2747 30.5582C58.1671 30.5488 58.0775 30.541 58.0057 30.5347C57.947 30.5175 57.7179 30.383 57.3183 30.1312C56.9307 29.8805 56.5635 29.74 56.2168 29.7096C55.8702 29.6793 55.5635 29.7428 55.2967 29.9002C55.043 30.0466 54.9015 30.2872 54.8722 30.6219C54.8429 30.9566 54.9574 31.2317 55.2156 31.447C55.4858 31.6633 55.9672 31.8741 56.66 32.0793C57.3538 32.2725 57.875 32.5108 58.2236 32.7943C58.5842 33.0788 58.7347 33.5617 58.6751 34.2431C58.5883 35.2353 58.2636 35.9176 57.701 36.29C57.1514 36.6515 56.506 36.7998 55.7648 36.735C55.0237 36.6701 54.399 36.5131 53.8908 36.2638C53.3945 36.0156 53.1641 35.6883 53.1997 35.2819C53.2405 34.8157 53.494 34.6029 53.9602 34.6437C54.0798 34.6542 54.3354 34.7609 54.7272 34.9638C55.119 35.1667 55.5122 35.2854 55.9067 35.3199C56.3131 35.3555 56.629 35.2567 56.8541 35.0234C57.0923 34.7792 57.2261 34.4898 57.2553 34.1551C57.2846 33.8203 57.1681 33.5692 56.9057 33.4017C56.6443 33.2223 56.2369 33.0601 55.6834 32.9153C55.1299 32.7705 54.7264 32.6329 54.4728 32.5023C53.7807 32.1526 53.478 31.4817 53.5648 30.4895ZM60.8069 28.8283L61.7019 28.9247C61.9051 28.9425 62.0192 28.9464 62.0442 28.9366L62.3658 25.2606C62.3955 25.0584 62.5123 24.894 62.7161 24.7673C62.9199 24.6406 63.1055 24.5845 63.2729 24.5992C63.4402 24.6138 63.567 24.6791 63.6533 24.7951C63.7514 24.9121 63.7846 25.0836 63.7528 25.3097C63.721 25.5358 63.6062 26.7785 63.4085 29.0379L65.5128 29.1497C65.8714 29.1811 66.0324 29.406 65.9958 29.8244C65.9686 30.1352 65.8526 30.3599 65.6477 30.4986C65.4548 30.6383 65.2503 30.7047 65.034 30.6979C64.8298 30.692 64.626 30.6802 64.4228 30.6625L63.3306 30.5488C63.2877 31.039 63.2508 32.0114 63.2199 33.4663C63.2009 34.9222 63.2025 35.8679 63.2246 36.3035C63.2478 36.7271 63.2357 37.0031 63.1883 37.1315C63.142 37.2479 63.0689 37.3258 62.9691 37.3653C62.8074 37.4234 62.5951 37.4409 62.3321 37.4179C62.0691 37.3949 61.9262 37.2379 61.9035 36.9468C61.8014 35.3599 61.8283 33.194 61.9841 30.4491C61.8755 30.4516 61.4625 30.4215 60.7453 30.3588C60.028 30.296 59.6877 30.0554 59.7243 29.637C59.7766 29.0393 60.1375 28.7698 60.8069 28.8283ZM75.0495 26.551C75.8265 26.619 76.4725 26.808 76.9875 27.118C77.5144 27.4292 77.76 27.7879 77.7245 28.1944C77.7088 28.3737 77.6474 28.5249 77.5402 28.648C77.445 28.7722 77.3078 28.8265 77.1285 28.8108C76.9611 28.7961 76.602 28.6322 76.0512 28.319C75.5015 27.9939 74.9875 27.8104 74.5093 27.7685C74.0431 27.7278 73.5459 27.8348 73.0177 28.0898C72.4894 28.3447 72.2065 28.6873 72.1689 29.1177C72.1176 29.7034 72.3848 30.1605 72.9704 30.4888C73.4069 30.7317 74.0422 30.974 74.8763 31.2156C75.7115 31.4453 76.3761 31.8347 76.8701 32.3839C77.3651 32.921 77.5687 33.6917 77.4809 34.6959C77.347 36.226 76.7879 37.3155 75.8037 37.9641C75.2541 38.3256 74.5071 38.465 73.5627 38.3824C72.6302 38.3008 71.7203 37.9622 70.8328 37.3666C70.2514 36.9905 69.9748 36.6411 70.003 36.3183C70.0135 36.1988 70.0728 36.0715 70.181 35.9364C70.3011 35.8023 70.455 35.6953 70.6427 35.6154C70.8304 35.5355 70.9928 35.5376 71.13 35.6219C71.2802 35.6953 71.5153 35.8303 71.8354 36.0269C72.1555 36.2236 72.3906 36.3586 72.5408 36.4319C73.0261 36.6671 73.49 36.8041 73.9323 36.8428C74.3746 36.8815 74.8178 36.7034 75.2619 36.3086C75.719 35.9029 75.9753 35.3833 76.0307 34.7497C76.1039 33.9129 75.7367 33.2905 74.9292 32.8826C74.5374 32.6797 74.0882 32.5139 73.5814 32.3852C72.5342 32.1009 71.761 31.714 71.2618 31.2246C70.7636 30.7233 70.5542 30.0184 70.6337 29.1099C70.7132 28.2013 71.1639 27.524 71.9859 27.078C72.809 26.62 73.8302 26.4443 75.0495 26.551ZM78.2689 34.5661C78.339 33.7651 78.612 33.0542 79.0879 32.4333C79.5758 31.8135 80.1626 31.371 80.8483 31.1057C81.5351 30.8285 82.1893 30.7171 82.8109 30.7715C83.4326 30.8259 83.9219 30.947 84.2788 31.1348C84.6488 31.3117 84.8228 31.5257 84.8009 31.7768C84.78 32.0158 84.6868 32.2546 84.5214 32.4931C84.369 32.7207 84.1792 32.8246 83.9521 32.8047C83.8684 32.7974 83.641 32.7112 83.27 32.5463C82.912 32.3704 82.6791 32.2777 82.5716 32.2683C81.8782 32.2077 81.264 32.4129 80.7289 32.8841C80.1948 33.3433 79.8912 33.9913 79.818 34.8281C79.7448 35.6649 79.8214 36.304 80.0478 36.7454C80.2871 37.1759 80.7356 37.4199 81.3931 37.4774C81.6561 37.5005 82.1174 37.3902 82.7772 37.1468C83.4499 36.8925 83.8639 36.7721 84.0194 36.7857C84.1748 36.7993 84.2961 36.8581 84.3834 36.9621C84.4706 37.0661 84.508 37.1898 84.4954 37.3333C84.4703 37.6202 84.2584 37.9088 83.8596 38.1992C83.4737 38.4786 83.0024 38.7024 82.4457 38.8705C81.8899 39.0266 81.3969 39.0859 80.9665 39.0482C80.0102 38.9646 79.29 38.5221 78.806 37.7209C78.334 36.9207 78.1549 35.8691 78.2689 34.5661ZM89.0098 31.3138C89.8705 31.3891 90.5397 31.8633 91.0174 32.7362C91.5071 33.6102 91.7012 34.627 91.5998 35.7866C91.4994 36.9342 91.1267 37.8894 90.4818 38.652C89.8488 39.4158 89.0601 39.7563 88.1157 39.6737C87.1833 39.5921 86.4663 39.1138 85.9646 38.2388C85.464 37.3518 85.2582 36.4002 85.3471 35.3841C85.4611 34.0811 85.8151 33.064 86.409 32.333C87.0431 31.5573 87.91 31.2176 89.0098 31.3138ZM88.6659 32.7654C88.1639 32.7215 87.7284 32.9484 87.3596 33.4461C86.9909 33.9439 86.7808 34.4856 86.7296 35.0714C86.6501 35.9799 86.7688 36.689 87.0856 37.1985C87.4024 37.7081 87.7879 37.9827 88.2421 38.0225C89.055 38.0936 89.6059 37.7864 89.8947 37.101C90.0197 36.7746 90.1041 36.3604 90.148 35.8583C90.3195 33.8978 89.8255 32.8668 88.6659 32.7654ZM94.8792 37.6093L94.7355 39.4578C94.7167 39.673 94.5978 39.8614 94.3789 40.0229C94.172 40.1855 93.9728 40.2584 93.7816 40.2417C93.5066 40.2176 93.3521 39.9873 93.318 39.5507C93.3144 39.454 93.343 38.5771 93.4036 36.9201C93.4653 35.2511 93.4179 33.934 93.2615 32.9687C93.1936 32.505 93.1634 32.2313 93.1707 32.1476C93.2052 31.7532 93.4615 31.5768 93.9397 31.6187C94.1429 31.6364 94.2975 31.7283 94.4035 31.8941C94.5094 32.06 94.567 32.2277 94.5763 32.3971C94.5986 32.5556 94.6096 32.7734 94.6095 33.0505C94.6093 33.3275 94.6121 33.5024 94.6178 33.5752C94.9211 32.9994 95.3369 32.5841 95.8651 32.3292C96.3934 32.0742 96.9563 31.9729 97.554 32.0252C98.5343 32.111 99.0025 32.4049 98.9585 32.907C98.9366 33.158 98.8291 33.3534 98.6362 33.4931C98.4563 33.6219 98.2528 33.6764 98.0257 33.6565C97.0095 33.5676 96.264 33.8276 95.7892 34.4366C95.3143 35.0455 95.011 36.1031 94.8792 37.6093ZM102.545 32.5522C103.178 32.6076 103.766 32.8457 104.307 33.2665C104.849 33.6873 105.095 34.1727 105.047 34.7226C105 35.2605 104.721 35.7661 104.21 36.2393C103.7 36.7006 103.051 36.9511 102.265 36.9907C101.926 37.0092 101.422 36.9892 100.752 36.9306C100.795 37.9583 100.994 38.6502 101.348 39.0064C101.456 39.1484 101.611 39.2283 101.815 39.246C102.556 39.3109 103.198 39.1322 103.741 38.7099C104.285 38.2756 104.664 38.0679 104.879 38.0867C104.975 38.0951 105.111 38.1973 105.286 38.3934C105.462 38.5894 105.543 38.7651 105.529 38.9205C105.502 39.2313 105.086 39.6467 104.282 40.1666C103.923 40.4122 103.496 40.6098 103.001 40.7592C102.519 40.8977 102.075 40.9492 101.669 40.9137C100.629 40.8227 99.9223 40.0863 99.5493 38.7045C99.3106 37.8525 99.2347 36.9304 99.3215 35.9382C99.4083 34.9459 99.7162 34.1116 100.245 33.4351C100.774 32.7587 101.541 32.4643 102.545 32.5522ZM102.526 33.7973C102.072 33.7576 101.661 33.9806 101.293 34.4664C101.158 34.6353 101.009 35.0318 100.846 35.6559C102.52 35.8024 103.392 35.4631 103.465 34.6383C103.508 34.1362 103.196 33.8559 102.526 33.7973ZM107.219 35.1836C107.281 34.4783 107.581 33.9384 108.12 33.5639C108.658 33.1895 109.257 33.031 109.914 33.0885C110.584 33.1471 111.213 33.3226 111.801 33.615C112.39 33.9074 112.667 34.2509 112.633 34.6454C112.615 34.8486 112.523 35.0032 112.357 35.1091C112.191 35.2151 112.049 35.2628 111.929 35.2524C111.822 35.243 111.732 35.2351 111.66 35.2288C111.601 35.2117 111.372 35.0772 110.973 34.8254C110.585 34.5746 110.218 34.4341 109.871 34.4038C109.525 34.3735 109.218 34.437 108.951 34.5943C108.697 34.7408 108.556 34.9813 108.527 35.3161C108.497 35.6508 108.612 35.9258 108.87 36.1411C109.14 36.3575 109.622 36.5683 110.314 36.7734C111.008 36.9666 111.529 37.205 111.878 37.4884C112.239 37.7729 112.389 38.2559 112.329 38.9373C112.243 39.9295 111.918 40.6118 111.355 40.9842C110.806 41.3456 110.16 41.494 109.419 41.4291C108.678 41.3643 108.053 41.2072 107.545 40.958C107.049 40.7098 106.819 40.3825 106.854 39.976C106.895 39.5098 107.148 39.2971 107.615 39.3379C107.734 39.3483 107.99 39.455 108.382 39.6579C108.773 39.8609 109.167 39.9796 109.561 40.0141C109.968 40.0497 110.283 39.9508 110.509 39.7175C110.747 39.4734 110.88 39.1839 110.91 38.8492C110.939 38.5145 110.822 38.2634 110.56 38.0959C110.299 37.9164 109.891 37.7543 109.338 37.6095C108.784 37.4647 108.381 37.327 108.127 37.1964C107.435 36.8468 107.132 36.1758 107.219 35.1836Z" fill="black"/>
</svg>
