<svg width="165" height="67" viewBox="0 0 165 67" fill="none" xmlns="http://www.w3.org/2000/svg">
<path d="M159.152 44.7428C157.953 41.9005 156.209 40.0908 153.554 38.5309C153.273 38.1548 153.991 38.2803 154.187 38.2929C155.929 38.4656 157.556 39.9989 158.761 41.2909C157.411 36.5337 154.972 31.2204 151.026 28.1715C146.524 24.5482 139.384 23.3709 134.753 27.3186C136.438 30.7057 137.506 34.7983 136.443 38.5413C134.621 43.2283 129.539 41.5806 128.693 36.8556C128.008 33.0232 129.545 29.0564 132.131 26.1984C123.47 13.6426 107.438 16.2134 99.9057 28.5172C99.897 28.5327 99.8852 28.5462 99.8711 28.5571C99.8571 28.5679 99.8409 28.5757 99.8237 28.58C99.8065 28.5844 99.7885 28.5852 99.771 28.5824C99.7535 28.5796 99.7367 28.5732 99.7217 28.5637C99.7064 28.5554 99.693 28.5442 99.6822 28.5306C99.6713 28.517 99.6633 28.5015 99.6585 28.4848C99.6538 28.4681 99.6524 28.4506 99.6545 28.4333C99.6566 28.4161 99.6621 28.3995 99.6706 28.3844C107.009 15.1463 123.938 12.3751 133.362 25.0602C136.844 22.1866 141.804 21.6439 146.012 23C153.584 25.3367 158.565 33.5329 159.529 41.1065C159.98 40.421 160.156 39.5864 160.603 38.901C161.126 38.0991 162.578 37.1088 162.516 37.7886C162.029 38.5656 161.603 39.3788 161.241 40.2211C160.86 41.0662 160.456 42.0326 160.115 42.8941L160.054 43.0594L159.417 44.7268C159.407 44.7535 159.39 44.7769 159.368 44.794C159.345 44.811 159.318 44.8211 159.29 44.8228C159.261 44.8245 159.233 44.8178 159.209 44.8036C159.184 44.7894 159.165 44.7682 159.152 44.7428ZM131.134 33.513C129.654 38.5077 134.146 41.7719 134.892 36.4442C135.068 33.7623 134.579 31.0784 133.468 28.6311C132.326 30.0577 131.527 31.7282 131.134 33.513Z" fill="#231F20"/>
<path d="M5.20564 23.7706C5.5377 23.7415 5.82942 23.8632 6.08079 24.1357C6.33216 24.4082 6.67725 24.987 7.11606 25.8721C8.14228 27.9639 9.25607 31.2862 10.4574 35.8388C10.4754 35.8908 10.489 35.9699 10.4983 36.0761C10.5064 36.1691 10.4493 36.2812 10.3269 36.4123C10.2167 36.5291 10.042 36.5979 9.80293 36.6188C9.57712 36.6386 9.37988 36.6023 9.21119 36.51C9.04134 36.4044 8.91881 36.2277 8.8436 35.98C8.76723 35.719 8.62287 35.2163 8.41052 34.472C7.94415 32.813 7.65493 31.9549 7.54286 31.8978C7.37534 31.8188 6.83532 31.7656 5.92281 31.7384C5.02357 31.71 4.42785 31.7086 4.13563 31.7341C3.84342 31.7597 3.67307 31.8014 3.62459 31.8592C3.40409 32.0926 3.21986 33.7349 3.07189 36.7861C3.04084 37.0431 2.79951 37.1914 2.3479 37.2309C1.89629 37.2704 1.65364 37.0975 1.61994 36.7123C1.53627 35.756 1.72847 33.8988 2.19655 31.1409C2.66463 28.3829 3.09276 26.5453 3.48095 25.628C3.96661 24.4478 4.54151 23.8287 5.20564 23.7706ZM5.31943 25.9891C5.12019 26.0065 4.82655 26.6278 4.43852 27.853C4.04933 29.0648 3.86693 29.8102 3.89134 30.0892C3.89715 30.1556 3.9145 30.2009 3.94339 30.2252C4.05894 30.3221 4.48548 30.3785 5.22299 30.3943C5.96051 30.4101 6.44881 30.4075 6.6879 30.3866C6.92698 30.3657 7.05865 30.3408 7.08289 30.3119C7.10597 30.2697 7.10995 30.1623 7.09485 29.9896C7.07858 29.8036 6.83535 29.0888 6.36516 27.845C5.89381 26.588 5.54523 25.9694 5.31943 25.9891ZM11.7864 23.6566C11.9873 23.5052 12.2205 23.4179 12.4862 23.3946C12.7518 23.3714 12.9312 23.5096 13.0244 23.8093C13.1725 25.3489 13.4007 27.6511 13.7089 30.7159C13.8728 32.5887 13.9585 34.1807 13.9662 35.4917C13.957 35.6932 13.8465 35.8836 13.6347 36.0627C13.4349 36.2274 13.2222 36.3197 12.9964 36.3394C12.6244 36.3719 12.4216 36.1956 12.3879 35.8104C12.4046 34.4705 12.3269 32.8177 12.1549 30.8519L11.4496 24.1679C11.4865 23.9773 11.5987 23.8069 11.7864 23.6566ZM24.2151 22.1075C24.5471 22.0784 24.8388 22.2001 25.0902 22.4726C25.3416 22.7451 25.6867 23.3238 26.1255 24.209C27.1517 26.3008 28.2655 29.6231 29.4669 34.1757C29.4848 34.2276 29.4984 34.3068 29.5077 34.413C29.5158 34.506 29.4587 34.6181 29.3363 34.7492C29.2261 34.866 29.0514 34.9348 28.8123 34.9557C28.5865 34.9754 28.3893 34.9392 28.2206 34.8468C28.0508 34.7412 27.9282 34.5646 27.853 34.3169C27.7766 34.0559 27.6323 33.5532 27.4199 32.8089C26.9536 31.1499 26.6644 30.2918 26.5523 30.2347C26.3848 30.1557 25.8447 30.1025 24.9322 30.0753C24.033 30.0469 23.4373 30.0455 23.1451 30.071C22.8528 30.0966 22.6825 30.1383 22.634 30.1961C22.4135 30.4295 22.2293 32.0718 22.0813 35.123C22.0503 35.38 21.8089 35.5283 21.3573 35.5678C20.9057 35.6073 20.6631 35.4344 20.6294 35.0492C20.5457 34.0929 20.7379 32.2357 21.206 29.4778C21.674 26.7198 22.1022 24.8822 22.4904 23.9649C22.976 22.7847 23.5509 22.1656 24.2151 22.1075ZM24.3288 24.326C24.1296 24.3434 23.836 24.9647 23.4479 26.1899C23.0587 27.4017 22.8764 28.1471 22.9008 28.4261C22.9066 28.4925 22.9239 28.5378 22.9528 28.562C23.0684 28.659 23.4949 28.7154 24.2324 28.7312C24.9699 28.7469 25.4582 28.7444 25.6973 28.7235C25.9364 28.7025 26.0681 28.6776 26.0923 28.6488C26.1154 28.6066 26.1194 28.4992 26.1043 28.3265C26.088 28.1405 25.8448 27.4257 25.3746 26.1819C24.9032 24.9249 24.5546 24.3062 24.3288 24.326ZM30.4351 27.9677C30.3665 27.184 30.5909 26.5353 31.108 26.0216C31.6252 25.5079 32.2491 25.2191 32.9797 25.1552C33.7235 25.0901 34.4457 25.1608 35.1464 25.3672C35.847 25.5735 36.2165 25.8959 36.2549 26.3342C36.2746 26.56 36.204 26.7469 36.0429 26.8948C35.8819 27.0428 35.7349 27.1225 35.6021 27.1342C35.4826 27.1446 35.383 27.1533 35.3033 27.1603C35.2357 27.1528 34.959 27.0499 34.4732 26.8515C34.0007 26.6519 33.5718 26.569 33.1866 26.6027C32.8014 26.6364 32.4781 26.765 32.2166 26.9887C31.9672 27.1979 31.8587 27.4884 31.8913 27.8603C31.9238 28.2323 32.1021 28.5111 32.4262 28.6969C32.7636 28.8815 33.3311 29.0193 34.1287 29.1101C34.9252 29.1876 35.5415 29.3479 35.9777 29.5908C36.4271 29.8325 36.6849 30.332 36.7512 31.0891C36.8476 32.1915 36.624 33.0008 36.0802 33.5168C35.5486 34.0184 34.871 34.3052 34.0475 34.3772C33.224 34.4493 32.5101 34.398 31.9059 34.2233C31.315 34.0474 30.9998 33.7337 30.9603 33.2821C30.915 32.7641 31.1513 32.4824 31.6693 32.4371C31.8022 32.4255 32.1025 32.4929 32.5704 32.6393C33.0383 32.7858 33.4914 32.8398 33.9297 32.8015C34.3813 32.762 34.7078 32.5929 34.9092 32.2942C35.1227 31.981 35.2132 31.6385 35.1807 31.2666C35.1481 30.8947 34.9721 30.6424 34.6527 30.5097C34.3321 30.3638 33.855 30.265 33.2214 30.2134C32.5878 30.1617 32.1197 30.0889 31.817 29.9949C30.9922 29.7459 30.5315 29.0701 30.4351 27.9677ZM38.1011 27.297C38.0326 26.5133 38.2569 25.8646 38.7741 25.3509C39.2913 24.8372 39.9151 24.5484 40.6457 24.4845C41.3895 24.4194 42.1117 24.4901 42.8124 24.6965C43.5131 24.9028 43.8826 25.2252 43.9209 25.6635C43.9407 25.8893 43.87 26.0762 43.709 26.2241C43.5479 26.3721 43.401 26.4518 43.2681 26.4635C43.1486 26.4739 43.049 26.4826 42.9693 26.4896C42.9017 26.4821 42.625 26.3792 42.1392 26.1808C41.6667 25.9812 41.2378 25.8983 40.8526 25.932C40.4674 25.9657 40.1441 26.0943 39.8826 26.318C39.6332 26.5272 39.5248 26.8177 39.5573 27.1896C39.5899 27.5616 39.7682 27.8404 40.0923 28.0262C40.4296 28.2108 40.9971 28.3486 41.7947 28.4394C42.5912 28.5169 43.2075 28.6772 43.6437 28.9201C44.0931 29.1618 44.351 29.6613 44.4172 30.4184C44.5137 31.5208 44.29 32.3301 43.7462 32.8461C43.2146 33.3477 42.537 33.6345 41.7135 33.7065C40.89 33.7786 40.1761 33.7273 39.5719 33.5526C38.981 33.3768 38.6658 33.063 38.6263 32.6114C38.581 32.0934 38.8173 31.8117 39.3354 31.7664C39.4682 31.7548 39.7685 31.8222 40.2364 31.9686C40.7043 32.1151 41.1574 32.1691 41.5957 32.1308C42.0473 32.0913 42.3738 31.9222 42.5752 31.6235C42.7888 31.3104 42.8792 30.9678 42.8467 30.5959C42.8142 30.224 42.6382 29.9717 42.3187 29.8391C41.9981 29.6931 41.521 29.5943 40.8875 29.5427C40.2539 29.491 39.7857 29.4182 39.4831 29.3242C38.6582 29.0752 38.1976 28.3994 38.1011 27.297ZM46.2344 20.7231C46.4735 20.7022 46.7092 20.7953 46.9415 21.0025C47.1738 21.2097 47.3009 21.4395 47.323 21.6919C47.3439 21.931 47.2459 22.1872 47.0289 22.4605C46.8252 22.7326 46.5971 22.8797 46.3447 22.9018C46.0924 22.9238 45.8506 22.8379 45.6195 22.644C45.4017 22.4489 45.2782 22.1853 45.2492 21.8533C45.1934 21.2157 45.5085 20.8401 46.1946 20.7266C46.2079 20.7254 46.2212 20.7243 46.2344 20.7231ZM47.9846 31.09L48.1266 32.4829C48.1487 32.7353 48.0676 32.9565 47.8835 33.1466C47.6982 33.3235 47.4927 33.4218 47.2668 33.4415C46.9348 33.4706 46.7476 33.3196 46.7052 32.9887C46.1619 28.7667 45.8704 26.4299 45.8309 25.9783C45.7914 25.5267 45.7631 24.9737 45.746 24.3193C45.7517 24.0779 45.894 23.945 46.1729 23.9206C46.8769 23.859 47.3003 24.1097 47.4433 24.6728C47.5087 24.9615 47.5489 25.1922 47.5641 25.3649L47.5942 26.627L47.9846 31.09ZM50.2228 26.2365C50.1542 25.4528 50.3785 24.8041 50.8957 24.2904C51.4129 23.7767 52.0368 23.4879 52.7674 23.424C53.5112 23.3589 54.2334 23.4296 54.9341 23.636C55.6347 23.8423 56.0042 24.1647 56.0426 24.603C56.0623 24.8288 55.9917 25.0157 55.8306 25.1636C55.6696 25.3116 55.5226 25.3913 55.3898 25.403C55.2703 25.4134 55.1706 25.4221 55.0909 25.4291C55.0234 25.4216 54.7467 25.3187 54.2609 25.1203C53.7883 24.9207 53.3595 24.8378 52.9743 24.8715C52.5891 24.9052 52.2657 25.0338 52.0042 25.2575C51.7549 25.4667 51.6464 25.7572 51.679 26.1291C51.7115 26.5011 51.8898 26.7799 52.2139 26.9657C52.5513 27.1503 53.1188 27.2881 53.9164 27.3789C54.7129 27.4564 55.3292 27.6167 55.7653 27.8596C56.2148 28.1013 56.4726 28.6008 56.5389 29.3579C56.6353 30.4603 56.4117 31.2696 55.8679 31.7856C55.3363 32.2872 54.6587 32.574 53.8352 32.646C53.0116 32.7181 52.2978 32.6668 51.6936 32.4921C51.1027 32.3162 50.7875 32.0025 50.748 31.5509C50.7027 31.0329 50.939 30.7512 51.457 30.7059C51.5899 30.6943 51.8902 30.7617 52.3581 30.9081C52.826 31.0546 53.2791 31.1086 53.7174 31.0703C54.169 31.0308 54.4955 30.8617 54.6969 30.563C54.9104 30.2498 55.0009 29.9073 54.9684 29.5354C54.9358 29.1635 54.7598 28.9112 54.4404 28.7785C54.1198 28.6326 53.6427 28.5338 53.0091 28.4822C52.3755 28.4305 51.9074 28.3577 51.6047 28.2637C50.7799 28.0147 50.3192 27.3389 50.2228 26.2365ZM57.8268 23.0215L58.8248 22.9543C59.0506 22.9345 59.1762 22.9168 59.2016 22.9012L58.8442 18.8168C58.8378 18.5899 58.9338 18.3874 59.1324 18.2094C59.331 18.0314 59.5232 17.9343 59.7092 17.918C59.8952 17.9017 60.0465 17.9487 60.1632 18.059C60.2932 18.1681 60.3626 18.3494 60.3714 18.6029C60.3802 18.8564 60.4944 20.2384 60.7141 22.7488L63.0382 22.4652C63.4367 22.4303 63.6562 22.6453 63.6969 23.1102C63.7271 23.4556 63.6435 23.7239 63.4461 23.9151C63.262 24.1052 63.0509 24.2174 62.813 24.2516C62.5884 24.2846 62.3632 24.311 62.1374 24.3308L60.9203 24.4172C60.9679 24.9618 61.1152 26.033 61.362 27.6309C61.6222 29.2277 61.8064 30.2622 61.9146 30.7346C62.0217 31.1937 62.0617 31.498 62.0347 31.6476C62.0064 31.7839 61.9415 31.8833 61.8399 31.9457C61.6742 32.0405 61.4452 32.1007 61.153 32.1262C60.8608 32.1518 60.6742 32.0075 60.5932 31.6934C60.1753 29.9766 59.7868 27.6014 59.4277 24.5679C59.3093 24.5916 58.8517 24.6383 58.0547 24.7081C57.2577 24.7778 56.8389 24.5802 56.7983 24.1153C56.7401 23.4512 57.083 23.0866 57.8268 23.0215ZM69.7363 21.9795C70.3208 21.9284 70.6566 22.4009 70.7437 23.3971C70.753 23.5034 70.7629 23.6163 70.7734 23.7358L70.8555 25.134C70.8806 25.5735 70.9117 26.0058 70.9489 26.4308L71.6417 30.9075C71.6708 31.2395 71.3466 31.4352 70.6692 31.4945C70.6293 31.4979 70.5297 31.5067 70.3703 31.5206C70.2242 31.5334 70.1127 31.4829 70.0358 31.3692C69.9723 31.2543 69.9528 31.1088 69.9776 30.9326C70.0156 30.7553 69.9855 30.5638 69.8872 30.3583C69.3331 31.0626 68.5513 31.4589 67.5419 31.5472C65.669 31.7111 64.6059 30.3452 64.3526 27.4496C64.212 25.8424 64.4045 24.6009 64.9302 23.7251C65.4691 22.8481 66.3031 22.3602 67.4321 22.2614C67.9634 22.215 68.5029 22.2615 69.0505 22.4009C69.2022 22.1467 69.4308 22.0063 69.7363 21.9795ZM67.8229 23.9739C67.0658 24.0401 66.5204 24.3087 66.1869 24.7796C65.8533 25.2504 65.7377 26.0703 65.8399 27.2392C66.0119 29.205 66.6292 30.1414 67.6918 30.0484C67.9707 30.024 68.2652 29.8711 68.5752 29.5897C68.8985 29.3071 69.1126 29.0006 69.2175 28.6702C69.4071 27.9309 69.4647 27.1362 69.3904 26.2861C69.316 25.436 69.1557 24.8277 68.9095 24.4611C68.6765 24.0933 68.3143 23.9309 67.8229 23.9739ZM73.4969 30.4038L72.57 22.3339C72.548 22.0816 72.6163 21.8681 72.775 21.6936C72.9337 21.5191 73.0994 21.4243 73.2721 21.4092C73.6972 21.372 73.9586 21.5298 74.0564 21.8827C74.1409 22.2366 74.2 22.6062 74.2337 22.9914C74.8684 21.9856 75.7238 21.4356 76.7996 21.3415C78.4467 21.1974 79.4346 23.0049 79.7635 26.7638C79.7937 27.1092 79.8396 27.6338 79.9012 28.3378C79.9616 29.0285 79.966 29.5367 79.9141 29.8625C79.856 30.2691 79.5879 30.4933 79.1097 30.5352C78.7909 30.5631 78.6129 30.3645 78.5758 29.9394L78.4981 28.8219C78.3633 27.2812 78.2183 26.2365 78.0633 25.6879C77.9203 25.1249 77.7878 24.6814 77.6658 24.3575C77.3772 23.66 76.9806 23.3333 76.4759 23.3775C75.8117 23.4356 75.3678 23.7153 75.1439 24.2168C74.897 24.7603 74.7778 25.3865 74.7863 26.0951C74.8014 27.3385 74.8694 28.6509 74.9902 30.0323C75.0135 30.2979 74.9324 30.5192 74.7471 30.696C74.5618 30.8728 74.3297 30.9734 74.0508 30.9978C73.7187 31.0269 73.5341 30.8289 73.4969 30.4038ZM81.4865 20.9515L82.4844 20.8843C82.7102 20.8646 82.8358 20.8469 82.8612 20.8313L82.5039 16.7469C82.4974 16.5199 82.5934 16.3174 82.792 16.1394C82.9906 15.9615 83.1829 15.8643 83.3688 15.8481C83.5548 15.8318 83.7061 15.8788 83.8228 15.989C83.9528 16.0981 84.0222 16.2794 84.031 16.533C84.0398 16.7865 84.154 18.1685 84.3737 20.6789L86.6978 20.3952C87.0963 20.3604 87.3159 20.5754 87.3565 21.0403C87.3867 21.3856 87.3031 21.6539 87.1057 21.8452C86.9216 22.0353 86.7106 22.1475 86.4726 22.1817C86.248 22.2147 86.0228 22.2411 85.797 22.2608L84.5799 22.3472C84.6275 22.8918 84.7748 23.9631 85.0216 25.561C85.2818 27.1577 85.466 28.1923 85.5743 28.6646C85.6813 29.1237 85.7213 29.428 85.6943 29.5776C85.6661 29.7139 85.6011 29.8133 85.4995 29.8757C85.3338 29.9705 85.1049 30.0307 84.8126 30.0563C84.5204 30.0819 84.3338 29.9376 84.2528 29.6234C83.8349 27.9067 83.4464 25.5315 83.0873 22.4979C82.9689 22.5216 82.5113 22.5684 81.7143 22.6381C80.9174 22.7078 80.4985 22.5102 80.4579 22.0454C80.3998 21.3812 80.7426 21.0166 81.4865 20.9515Z" fill="black"/>
</svg>
