<svg width="188" height="81" viewBox="0 0 188 81" fill="none" xmlns="http://www.w3.org/2000/svg">
<rect x="70" y="47.0228" width="115" height="34" rx="4" transform="rotate(-5 70 47.0228)" fill="#9232FF"/>
<path d="M81.957 72.076L80.3986 54.264L87.0452 53.6825C88.2566 53.5766 89.3441 53.7063 90.3076 54.0717C91.2856 54.4198 92.0746 54.9932 92.6745 55.7919C93.273 56.5748 93.6246 57.5639 93.7291 58.7593C93.8323 59.9388 93.6499 60.9747 93.1819 61.8668C92.7284 62.7417 92.059 63.4427 91.1736 63.9699C90.2881 64.4971 89.2397 64.8136 88.0284 64.9196L84.6333 65.2166L85.2086 71.7915L81.957 72.076ZM84.3823 62.3476L87.8252 62.0464C88.4149 61.9948 88.9152 61.8386 89.326 61.5778C89.7355 61.3011 90.0416 60.945 90.2444 60.5097C90.4473 60.0744 90.525 59.5857 90.4776 59.0438C90.4288 58.4859 90.2674 58.0182 89.9934 57.6406C89.7181 57.2471 89.3555 56.9577 88.9056 56.7722C88.4543 56.5707 87.9338 56.4958 87.3441 56.5474L83.9012 56.8486L84.3823 62.3476ZM97.1973 70.7427L96.0594 57.7363L99.0001 57.479L99.2532 60.372L98.9765 59.9626C99.1943 58.9638 99.6052 58.2452 100.209 57.8069C100.829 57.3672 101.594 57.1076 102.502 57.0281L103.267 56.9612L103.51 59.7346L102.386 59.8329C101.494 59.911 100.801 60.2527 100.308 60.858C99.8131 61.4473 99.609 62.2361 99.6955 63.2243L100.329 70.4686L97.1973 70.7427ZM110.11 69.9021C109.201 69.9815 108.399 69.8992 107.703 69.6549C107.007 69.4106 106.451 69.0256 106.036 68.4998C105.619 67.958 105.378 67.3126 105.312 66.5635C105.25 65.8462 105.353 65.1947 105.623 64.6089C105.892 64.0072 106.344 63.4858 106.98 63.0447C107.616 62.6036 108.437 62.2587 109.443 62.0101L113.638 60.9444L113.848 63.3353L110.244 64.277C109.632 64.4429 109.187 64.6826 108.91 64.996C108.632 65.3094 108.513 65.6972 108.554 66.1594C108.593 66.6057 108.791 66.9497 109.15 67.1914C109.523 67.4158 109.964 67.5056 110.474 67.461C111.128 67.4038 111.69 67.2181 112.16 66.9039C112.645 66.5724 113.001 66.1477 113.229 65.6299C113.473 65.1107 113.569 64.5562 113.517 63.9665L113.224 60.6193C113.176 60.0614 112.912 59.6187 112.434 59.2911C111.97 58.9462 111.379 58.8052 110.662 58.8679C109.993 58.9265 109.411 59.1621 108.917 59.5747C108.438 59.97 108.104 60.473 107.917 61.0836L105.25 60.0642C105.445 59.3565 105.792 58.7319 106.29 58.1904C106.804 57.6315 107.422 57.1759 108.146 56.8234C108.87 56.471 109.671 56.2564 110.547 56.1797C111.615 56.0863 112.573 56.2032 113.421 56.5306C114.267 56.842 114.944 57.3289 115.452 57.9911C115.974 58.6361 116.276 59.4208 116.357 60.3452L117.114 69.0002L114.149 69.2596L113.955 67.0361L114.62 66.9297C114.334 67.5168 113.977 68.0219 113.548 68.4449C113.118 68.8519 112.617 69.1848 112.045 69.4436C111.472 69.6865 110.827 69.8393 110.11 69.9021ZM126.298 68.4858C125.007 68.5987 123.817 68.4057 122.73 67.9066C121.657 67.3901 120.781 66.6477 120.102 65.6791C119.421 64.6947 119.024 63.5569 118.912 62.2659C118.799 60.9748 118.992 59.7934 119.493 58.7217C119.993 57.65 120.728 56.7747 121.696 56.0957C122.681 55.4153 123.819 55.0186 125.11 54.9057C126.034 54.8248 126.909 54.9168 127.736 55.1818C128.561 55.4309 129.285 55.8172 129.909 56.3408C130.548 56.8471 131.028 57.4796 131.352 58.2383L128.707 59.6743C128.411 59.0417 127.958 58.5513 127.35 58.203C126.757 57.8533 126.094 57.7106 125.361 57.7747C124.675 57.8347 124.076 58.0557 123.564 58.4379C123.067 58.8186 122.693 59.3171 122.442 59.9333C122.19 60.5496 122.098 61.2402 122.165 62.0053C122.232 62.7704 122.443 63.4345 122.797 63.9978C123.152 64.5611 123.607 64.987 124.162 65.2757C124.733 65.563 125.361 65.6767 126.047 65.6167C126.796 65.5512 127.432 65.2948 127.955 64.8475C128.478 64.4002 128.83 63.8314 129.01 63.141L131.868 64.1437C131.678 64.8993 131.321 65.597 130.799 66.2369C130.275 66.8609 129.63 67.3752 128.862 67.7796C128.093 68.1681 127.238 68.4035 126.298 68.4858ZM140.496 67.099C139.03 67.2273 137.856 66.9285 136.973 66.2027C136.105 65.4595 135.607 64.3547 135.478 62.8883L134.976 57.1503L132.729 57.3469L132.484 54.5496L132.723 54.5287C133.361 54.4729 133.84 54.2623 134.162 53.8969C134.483 53.5315 134.616 53.03 134.56 52.3924L134.472 51.3883L137.604 51.1143L137.864 54.0789L140.852 53.8175L141.097 56.6148L138.108 56.8762L138.596 62.447C138.633 62.8773 138.737 63.2376 138.907 63.5279C139.093 63.8168 139.352 64.027 139.685 64.1585C140.034 64.2886 140.463 64.3314 140.973 64.2868C141.085 64.277 141.212 64.2579 141.354 64.2294C141.512 64.1995 141.662 64.1703 141.804 64.1418L142.038 66.8196C141.818 66.871 141.565 66.9252 141.281 66.9822C140.997 67.0391 140.736 67.0781 140.496 67.099ZM144.431 66.6102L143.293 53.6039L146.425 53.3299L147.563 66.3362L144.431 66.6102ZM143.165 52.1455L142.873 48.7983L146.005 48.5243L146.297 51.8715L143.165 52.1455ZM156.744 65.8221C155.453 65.935 154.264 65.742 153.176 65.2429C152.103 64.7264 151.227 63.984 150.548 63.0154C149.867 62.031 149.471 60.8932 149.358 59.6022C149.245 58.3111 149.439 57.1297 149.939 56.058C150.44 54.9863 151.174 54.111 152.143 53.432C153.127 52.7516 154.265 52.3549 155.556 52.242C156.48 52.1611 157.356 52.2531 158.182 52.5181C159.007 52.7672 159.731 53.1535 160.355 53.6771C160.994 54.1834 161.475 54.8159 161.798 55.5746L159.153 57.0106C158.857 56.378 158.404 55.8876 157.796 55.5393C157.203 55.1896 156.54 55.0469 155.807 55.111C155.121 55.171 154.522 55.392 154.01 55.7742C153.513 56.1549 153.139 56.6534 152.888 57.2696C152.637 57.8859 152.544 58.5765 152.611 59.3416C152.678 60.1067 152.889 60.7708 153.243 61.3341C153.598 61.8974 154.053 62.3233 154.608 62.612C155.179 62.8993 155.808 63.013 156.493 62.9531C157.242 62.8875 157.878 62.6311 158.401 62.1838C158.924 61.7365 159.276 61.1677 159.456 60.4773L162.315 61.48C162.124 62.2356 161.767 62.9333 161.245 63.5732C160.721 64.1972 160.076 64.7115 159.308 65.1159C158.539 65.5044 157.684 65.7398 156.744 65.8221ZM171.194 64.5579C169.855 64.675 168.657 64.4746 167.6 63.9568C166.543 63.439 165.69 62.6864 165.042 61.6992C164.393 60.712 164.014 59.5888 163.904 58.3296C163.789 57.0226 163.967 55.8426 164.437 54.7896C164.922 53.7193 165.624 52.8467 166.545 52.1719C167.482 51.4957 168.556 51.1046 169.767 50.9986C170.787 50.9094 171.694 50.9987 172.489 51.2664C173.299 51.5328 174.001 51.9372 174.595 52.4795C175.188 53.0219 175.662 53.663 176.016 54.403C176.368 55.127 176.583 55.9274 176.659 56.804C176.679 57.0272 176.683 57.2597 176.672 57.5016C176.677 57.7421 176.655 57.9527 176.607 58.1337L166.565 59.0122L166.356 56.6213L174.629 55.8976L173.245 57.151C173.324 56.4052 173.227 55.7552 172.953 55.2009C172.696 54.6452 172.306 54.2217 171.782 53.9302C171.275 53.6373 170.678 53.5208 169.993 53.5808C169.34 53.638 168.772 53.8562 168.292 54.2356C167.809 54.599 167.461 55.1113 167.246 55.7726C167.045 56.4165 167.016 57.182 167.157 58.069C167.163 58.8715 167.329 59.5718 167.654 60.1697C167.994 60.7503 168.45 61.1842 169.021 61.4715C169.608 61.7574 170.26 61.869 170.978 61.8063C171.695 61.7435 172.287 61.5391 172.755 61.193C173.239 60.8456 173.601 60.4042 173.844 59.8691L176.487 60.8906C176.286 61.5346 175.936 62.1193 175.436 62.6449C174.936 63.1705 174.323 63.6015 173.597 63.938C172.888 64.2732 172.087 64.4798 171.194 64.5579Z" fill="white"/>
<mask id="path-3-outside-1_9400_878" maskUnits="userSpaceOnUse" x="-4.6049" y="-6.2435" width="112.208" height="62.1427" fill="black">
<rect fill="white" x="-4.6049" y="-6.2435" width="112.208" height="62.1427"/>
<path d="M3.50634 27.4059L9.08253 1.172L13.8715 2.18994L9.19353 24.1983L20.4266 26.5859L19.5284 30.8115L3.50634 27.4059ZM31.2339 33.7413C29.262 33.3221 27.6313 32.5093 26.342 31.3029C25.0527 30.0964 24.1593 28.643 23.662 26.9424C23.1647 25.2418 23.1132 23.4643 23.5074 21.6097C23.9166 19.6847 24.6891 18.0701 25.8251 16.7658C26.9896 15.443 28.3802 14.4994 29.9968 13.9352C31.6369 13.376 33.349 13.286 35.1332 13.6652C36.6356 13.9846 37.8979 14.5105 38.9199 15.243C39.9654 15.9805 40.7949 16.8684 41.4085 17.9066C42.022 18.9449 42.4203 20.0723 42.6034 21.289C42.7914 22.4821 42.7482 23.7243 42.4737 25.0155C42.4039 25.3441 42.3081 25.6795 42.1863 26.0217C42.0879 26.3688 41.9644 26.6615 41.8156 26.8998L27.026 23.7562L27.7745 20.2348L39.9583 22.8246L37.4233 24.0156C37.8641 22.9806 38.01 22.0056 37.861 21.0906C37.7354 20.1807 37.3612 19.4018 36.7382 18.7542C36.1387 18.1115 35.3343 17.6828 34.3248 17.4683C33.3623 17.2637 32.4531 17.3281 31.5971 17.6614C30.7461 17.9712 30.0212 18.5532 29.4225 19.4074C28.8523 20.2431 28.4744 21.3283 28.2889 22.6629C27.9455 23.8167 27.8761 24.8938 28.0805 25.8941C28.3135 26.876 28.7766 27.6983 29.47 28.3609C30.1869 29.0286 31.0735 29.4747 32.1299 29.6992C33.1863 29.9238 34.1258 29.8904 34.9483 29.599C35.7944 29.3126 36.5085 28.8388 37.0907 28.1774L40.4341 30.8018C39.8639 31.6376 39.1049 32.3227 38.157 32.8573C37.2091 33.3919 36.1411 33.7415 34.9529 33.9061C33.7882 34.0756 32.5486 34.0207 31.2339 33.7413ZM49.4516 37.6135C48.1135 37.3291 46.9989 36.8591 46.1077 36.2035C45.2165 35.5479 44.5883 34.7519 44.223 33.8155C43.8627 32.8556 43.7998 31.824 44.0343 30.7206C44.2589 29.6642 44.6932 28.7751 45.3374 28.0532C45.9865 27.3079 46.864 26.7583 47.9697 26.4045C49.0754 26.0507 50.4045 25.916 51.9568 26.0006L58.4418 26.3117L57.6934 29.8331L52.1111 29.6034C51.1606 29.5732 50.4175 29.7219 49.8816 30.0497C49.3458 30.3774 49.0055 30.8817 48.8608 31.5625C48.7211 32.2198 48.8553 32.8004 49.2634 33.3043C49.7001 33.7896 50.294 34.1122 51.0452 34.2718C52.0077 34.4764 52.8952 34.4565 53.7078 34.2121C54.5488 33.9492 55.2462 33.4963 55.8 32.8534C56.3773 32.2155 56.7582 31.4622 56.9428 30.5937L57.9907 25.6638C58.1653 24.8421 57.9814 24.0915 57.4388 23.4118C56.9248 22.7137 56.1395 22.2524 55.0831 22.0278C54.0971 21.8182 53.1594 21.9011 52.27 22.2764C51.409 22.6331 50.7101 23.2084 50.1733 24.0022L46.7947 21.3702C47.3849 20.4406 48.1564 19.6967 49.1093 19.1386C50.0906 18.5621 51.1778 18.1798 52.371 17.9917C53.5642 17.8037 54.8063 17.8469 56.0975 18.1213C57.6703 18.4557 58.993 19.0435 60.0655 19.8849C61.143 20.7028 61.9007 21.6981 62.3384 22.8707C62.8046 24.0248 62.893 25.2827 62.6036 26.6443L59.8941 39.3915L55.5277 38.4634L56.2238 35.1886L57.2247 35.3277C56.5571 36.0446 55.823 36.6123 55.0224 37.0311C54.2269 37.4263 53.3624 37.6842 52.4289 37.8047C51.5004 37.9018 50.508 37.8381 49.4516 37.6135ZM64.1577 40.2978L68.2294 21.1417L72.5607 22.0624L71.655 26.3232L71.4376 25.6145C72.188 24.2773 73.0926 23.4268 74.1514 23.063C75.2337 22.7041 76.4438 22.6669 77.7819 22.9513L78.9088 23.1909L78.0405 27.2756L76.3855 26.9238C75.0709 26.6444 73.9271 26.8307 72.9543 27.4826C71.9865 28.1112 71.3479 29.1532 71.0385 30.6086L68.7706 41.2783L64.1577 40.2978ZM77.3283 43.0973L81.4 23.9412L85.7313 24.8619L84.9304 28.6297L84.7205 27.8858C85.411 26.8303 86.3234 26.1164 87.4576 25.7441C88.6202 25.3532 89.8824 25.3025 91.2439 25.592C92.6525 25.8913 93.8318 26.461 94.782 27.3009C95.7556 28.1458 96.4303 29.1848 96.8061 30.4179C97.187 31.6275 97.2252 32.9483 96.9208 34.3803L94.3011 46.7049L89.6882 45.7244L92.0758 34.4914C92.2555 33.6463 92.2458 32.8836 92.0469 32.2034C91.848 31.5232 91.49 30.9563 90.973 30.5029C90.4844 30.031 89.8528 29.7128 89.0781 29.5481C88.3269 29.3884 87.6204 29.4223 86.9587 29.6497C86.3019 29.8536 85.7443 30.2258 85.2859 30.7663C84.8275 31.3068 84.5085 31.9996 84.3289 32.8447L81.9412 44.0778L77.3283 43.0973Z"/>
</mask>
<path d="M3.50634 27.4059L9.08253 1.172L13.8715 2.18994L9.19353 24.1983L20.4266 26.5859L19.5284 30.8115L3.50634 27.4059ZM31.2339 33.7413C29.262 33.3221 27.6313 32.5093 26.342 31.3029C25.0527 30.0964 24.1593 28.643 23.662 26.9424C23.1647 25.2418 23.1132 23.4643 23.5074 21.6097C23.9166 19.6847 24.6891 18.0701 25.8251 16.7658C26.9896 15.443 28.3802 14.4994 29.9968 13.9352C31.6369 13.376 33.349 13.286 35.1332 13.6652C36.6356 13.9846 37.8979 14.5105 38.9199 15.243C39.9654 15.9805 40.7949 16.8684 41.4085 17.9066C42.022 18.9449 42.4203 20.0723 42.6034 21.289C42.7914 22.4821 42.7482 23.7243 42.4737 25.0155C42.4039 25.3441 42.3081 25.6795 42.1863 26.0217C42.0879 26.3688 41.9644 26.6615 41.8156 26.8998L27.026 23.7562L27.7745 20.2348L39.9583 22.8246L37.4233 24.0156C37.8641 22.9806 38.01 22.0056 37.861 21.0906C37.7354 20.1807 37.3612 19.4018 36.7382 18.7542C36.1387 18.1115 35.3343 17.6828 34.3248 17.4683C33.3623 17.2637 32.4531 17.3281 31.5971 17.6614C30.7461 17.9712 30.0212 18.5532 29.4225 19.4074C28.8523 20.2431 28.4744 21.3283 28.2889 22.6629C27.9455 23.8167 27.8761 24.8938 28.0805 25.8941C28.3135 26.876 28.7766 27.6983 29.47 28.3609C30.1869 29.0286 31.0735 29.4747 32.1299 29.6992C33.1863 29.9238 34.1258 29.8904 34.9483 29.599C35.7944 29.3126 36.5085 28.8388 37.0907 28.1774L40.4341 30.8018C39.8639 31.6376 39.1049 32.3227 38.157 32.8573C37.2091 33.3919 36.1411 33.7415 34.9529 33.9061C33.7882 34.0756 32.5486 34.0207 31.2339 33.7413ZM49.4516 37.6135C48.1135 37.3291 46.9989 36.8591 46.1077 36.2035C45.2165 35.5479 44.5883 34.7519 44.223 33.8155C43.8627 32.8556 43.7998 31.824 44.0343 30.7206C44.2589 29.6642 44.6932 28.7751 45.3374 28.0532C45.9865 27.3079 46.864 26.7583 47.9697 26.4045C49.0754 26.0507 50.4045 25.916 51.9568 26.0006L58.4418 26.3117L57.6934 29.8331L52.1111 29.6034C51.1606 29.5732 50.4175 29.7219 49.8816 30.0497C49.3458 30.3774 49.0055 30.8817 48.8608 31.5625C48.7211 32.2198 48.8553 32.8004 49.2634 33.3043C49.7001 33.7896 50.294 34.1122 51.0452 34.2718C52.0077 34.4764 52.8952 34.4565 53.7078 34.2121C54.5488 33.9492 55.2462 33.4963 55.8 32.8534C56.3773 32.2155 56.7582 31.4622 56.9428 30.5937L57.9907 25.6638C58.1653 24.8421 57.9814 24.0915 57.4388 23.4118C56.9248 22.7137 56.1395 22.2524 55.0831 22.0278C54.0971 21.8182 53.1594 21.9011 52.27 22.2764C51.409 22.6331 50.7101 23.2084 50.1733 24.0022L46.7947 21.3702C47.3849 20.4406 48.1564 19.6967 49.1093 19.1386C50.0906 18.5621 51.1778 18.1798 52.371 17.9917C53.5642 17.8037 54.8063 17.8469 56.0975 18.1213C57.6703 18.4557 58.993 19.0435 60.0655 19.8849C61.143 20.7028 61.9007 21.6981 62.3384 22.8707C62.8046 24.0248 62.893 25.2827 62.6036 26.6443L59.8941 39.3915L55.5277 38.4634L56.2238 35.1886L57.2247 35.3277C56.5571 36.0446 55.823 36.6123 55.0224 37.0311C54.2269 37.4263 53.3624 37.6842 52.4289 37.8047C51.5004 37.9018 50.508 37.8381 49.4516 37.6135ZM64.1577 40.2978L68.2294 21.1417L72.5607 22.0624L71.655 26.3232L71.4376 25.6145C72.188 24.2773 73.0926 23.4268 74.1514 23.063C75.2337 22.7041 76.4438 22.6669 77.7819 22.9513L78.9088 23.1909L78.0405 27.2756L76.3855 26.9238C75.0709 26.6444 73.9271 26.8307 72.9543 27.4826C71.9865 28.1112 71.3479 29.1532 71.0385 30.6086L68.7706 41.2783L64.1577 40.2978ZM77.3283 43.0973L81.4 23.9412L85.7313 24.8619L84.9304 28.6297L84.7205 27.8858C85.411 26.8303 86.3234 26.1164 87.4576 25.7441C88.6202 25.3532 89.8824 25.3025 91.2439 25.592C92.6525 25.8913 93.8318 26.461 94.782 27.3009C95.7556 28.1458 96.4303 29.1848 96.8061 30.4179C97.187 31.6275 97.2252 32.9483 96.9208 34.3803L94.3011 46.7049L89.6882 45.7244L92.0758 34.4914C92.2555 33.6463 92.2458 32.8836 92.0469 32.2034C91.848 31.5232 91.49 30.9563 90.973 30.5029C90.4844 30.031 89.8528 29.7128 89.0781 29.5481C88.3269 29.3884 87.6204 29.4223 86.9587 29.6497C86.3019 29.8536 85.7443 30.2258 85.2859 30.7663C84.8275 31.3068 84.5085 31.9996 84.3289 32.8447L81.9412 44.0778L77.3283 43.0973Z" fill="#FFB500"/>
<path d="M3.50634 27.4059L-2.36255 26.1585L-3.61002 32.0273L2.25887 33.2748L3.50634 27.4059ZM9.08253 1.172L10.33 -4.69688L4.46111 -5.94435L3.21364 -0.0754674L9.08253 1.172ZM13.8715 2.18994L19.7404 3.43741L20.9879 -2.43148L15.119 -3.67895L13.8715 2.18994ZM9.19353 24.1983L3.32464 22.9508L2.07717 28.8197L7.94606 30.0671L9.19353 24.1983ZM20.4266 26.5859L26.2955 27.8334L27.5429 21.9645L21.674 20.717L20.4266 26.5859ZM19.5284 30.8115L18.2809 36.6804L24.1498 37.9279L25.3973 32.059L19.5284 30.8115ZM9.37522 28.6534L14.9514 2.41947L3.21364 -0.0754674L-2.36255 26.1585L9.37522 28.6534ZM7.83506 7.04089L12.6241 8.05882L15.119 -3.67895L10.33 -4.69688L7.83506 7.04089ZM8.00265 0.942468L3.32464 22.9508L15.0624 25.4457L19.7404 3.43741L8.00265 0.942468ZM7.94606 30.0671L19.1791 32.4548L21.674 20.717L10.441 18.3294L7.94606 30.0671ZM14.5577 25.3384L13.6595 29.564L25.3973 32.059L26.2955 27.8334L14.5577 25.3384ZM20.7759 24.9426L4.75381 21.537L2.25887 33.2748L18.2809 36.6804L20.7759 24.9426ZM26.342 31.3029L22.2426 35.684L22.2426 35.684L26.342 31.3029ZM23.662 26.9424L29.4208 25.2583L23.662 26.9424ZM25.8251 16.7658L21.3216 12.8012L21.3111 12.8131L21.3006 12.8251L25.8251 16.7658ZM29.9968 13.9352L28.0605 8.25627L28.0401 8.26323L28.0197 8.27033L29.9968 13.9352ZM38.9199 15.243L35.4247 20.1198L35.443 20.133L35.4614 20.146L38.9199 15.243ZM41.4085 17.9066L36.243 20.9591L36.243 20.9591L41.4085 17.9066ZM42.6034 21.289L36.6701 22.1816L36.6733 22.2023L36.6765 22.223L42.6034 21.289ZM42.1863 26.0217L36.5337 24.0095L36.4673 24.1961L36.4134 24.3866L42.1863 26.0217ZM41.8156 26.8998L40.5681 32.7687L44.6788 33.6424L46.9048 30.0778L41.8156 26.8998ZM27.026 23.7562L21.1571 22.5087L19.9096 28.3776L25.7785 29.6251L27.026 23.7562ZM27.7745 20.2348L29.0219 14.366L23.1531 13.1185L21.9056 18.9874L27.7745 20.2348ZM39.9583 22.8246L42.5096 28.2551L58.6627 20.6663L41.2058 16.9557L39.9583 22.8246ZM37.4233 24.0156L31.9031 21.6644L25.7405 36.1334L39.9746 29.4461L37.4233 24.0156ZM37.861 21.0906L31.9173 21.9107L31.9272 21.983L31.939 22.0552L37.861 21.0906ZM36.7382 18.7542L32.3507 22.8468L32.382 22.8804L32.4139 22.9135L36.7382 18.7542ZM31.5971 17.6614L33.6497 23.2993L33.7122 23.2766L33.7741 23.2525L31.5971 17.6614ZM29.4225 19.4074L24.5091 15.9638L24.4875 15.9946L24.4663 16.0257L29.4225 19.4074ZM28.2889 22.6629L34.0396 24.3744L34.1692 23.939L34.2318 23.489L28.2889 22.6629ZM28.0805 25.8941L22.2021 27.0957L22.2209 27.1878L22.2426 27.2792L28.0805 25.8941ZM29.47 28.3609L25.3246 32.6986L25.3525 32.7253L25.3808 32.7517L29.47 28.3609ZM34.9483 29.599L33.0247 23.9157L32.9848 23.9292L32.9451 23.9433L34.9483 29.599ZM37.0907 28.1774L40.7955 23.4578L36.3345 19.956L32.5871 24.2128L37.0907 28.1774ZM40.4341 30.8018L45.3903 34.1835L48.5535 29.5476L44.1389 26.0822L40.4341 30.8018ZM38.157 32.8573L41.1046 38.0834L41.1046 38.0834L38.157 32.8573ZM34.9529 33.9061L34.1298 27.9628L34.1092 27.9657L34.0886 27.9687L34.9529 33.9061ZM32.4814 27.8724C31.4233 27.6475 30.8253 27.2809 30.4414 26.9217L22.2426 35.684C24.4374 37.7377 27.1006 38.9967 29.9865 39.6101L32.4814 27.8724ZM30.4414 26.9217C29.9396 26.4521 29.6176 25.9312 29.4208 25.2583L17.9032 28.6265C18.7011 31.3547 20.1657 33.7408 22.2426 35.684L30.4414 26.9217ZM29.4208 25.2583C29.2217 24.5773 29.1736 23.8106 29.3763 22.8572L17.6385 20.3622C17.0527 23.118 17.1078 25.9064 17.9032 28.6265L29.4208 25.2583ZM29.3763 22.8572C29.6031 21.7902 29.9711 21.1411 30.3497 20.7064L21.3006 12.8251C19.4072 14.999 18.23 17.5792 17.6385 20.3622L29.3763 22.8572ZM30.3287 20.7303C30.8321 20.1585 31.361 19.8141 31.9739 19.6001L28.0197 8.27033C25.3994 9.18484 23.1471 10.7274 21.3216 12.8012L30.3287 20.7303ZM31.9331 19.6142C32.4938 19.423 33.1024 19.3676 33.8857 19.5341L36.3807 7.79636C33.5956 7.20439 30.7801 7.32898 28.0605 8.25627L31.9331 19.6142ZM33.8857 19.5341C34.7535 19.7186 35.2071 19.9639 35.4247 20.1198L42.4151 10.3662C40.5887 9.05716 38.5177 8.25061 36.3807 7.79636L33.8857 19.5341ZM35.4614 20.146C35.8565 20.4247 36.0872 20.6955 36.243 20.9591L46.574 14.8541C45.5027 13.0413 44.0743 11.5364 42.3784 10.3401L35.4614 20.146ZM36.243 20.9591C36.4562 21.3199 36.5995 21.7118 36.6701 22.1816L48.5366 20.3963C48.2412 18.4328 47.5879 16.5699 46.574 14.8541L36.243 20.9591ZM36.6765 22.223C36.7402 22.6271 36.741 23.1276 36.6049 23.768L48.3426 26.2629C48.7554 24.321 48.8426 22.3372 48.5302 20.355L36.6765 22.223ZM36.6049 23.768C36.5944 23.8174 36.5737 23.8973 36.5337 24.0095L47.8388 28.0339C48.0425 27.4617 48.2134 26.8708 48.3426 26.2629L36.6049 23.768ZM36.4134 24.3866C36.4277 24.3358 36.5047 24.0767 36.7264 23.7218L46.9048 30.0778C47.424 29.2464 47.7481 28.4019 47.9592 27.6568L36.4134 24.3866ZM43.0631 21.0309L28.2735 17.8873L25.7785 29.6251L40.5681 32.7687L43.0631 21.0309ZM32.8949 25.0036L33.6434 21.4823L21.9056 18.9874L21.1571 22.5087L32.8949 25.0036ZM26.527 26.1037L38.7108 28.6935L41.2058 16.9557L29.0219 14.366L26.527 26.1037ZM37.407 17.3941L34.872 18.585L39.9746 29.4461L42.5096 28.2551L37.407 17.3941ZM42.9434 26.3667C43.7337 24.5112 44.1501 22.3807 43.7829 20.1261L31.939 22.0552C31.9075 21.8617 31.9162 21.708 31.9294 21.6201C31.9415 21.5394 31.9516 21.5506 31.9031 21.6644L42.9434 26.3667ZM43.8047 20.2706C43.5099 18.1343 42.5854 16.1781 41.0626 14.5948L32.4139 22.9135C32.3013 22.7965 32.1779 22.6305 32.0781 22.4227C31.9789 22.2162 31.9342 22.0338 31.9173 21.9107L43.8047 20.2706ZM41.1258 14.6616C39.5479 12.97 37.5704 12.0241 35.5723 11.5994L33.0774 23.3372C33.1044 23.3429 33.0173 23.3277 32.8639 23.2459C32.7032 23.1603 32.5197 23.0279 32.3507 22.8468L41.1258 14.6616ZM35.5723 11.5994C33.5509 11.1697 31.4446 11.2819 29.42 12.0703L33.7741 23.2525C33.6452 23.3027 33.4957 23.3375 33.3447 23.3481C33.197 23.3586 33.1016 23.3423 33.0774 23.3372L35.5723 11.5994ZM29.5444 12.0234C27.3685 12.8156 25.7032 14.2601 24.5091 15.9638L34.3359 22.8511C34.349 22.8324 34.3015 22.9046 34.1717 23.0087C34.0362 23.1176 33.8571 23.2238 33.6497 23.2993L29.5444 12.0234ZM24.4663 16.0257C23.2311 17.836 22.6186 19.8763 22.3461 21.8367L34.2318 23.489C34.3303 22.7802 34.4735 22.6502 34.3788 22.7891L24.4663 16.0257ZM22.5382 20.9513C21.9637 22.8816 21.7674 24.9692 22.2021 27.0957L33.959 24.6926C33.9694 24.7434 33.9644 24.7593 33.9668 24.7222C33.9695 24.681 33.9818 24.5686 34.0396 24.3744L22.5382 20.9513ZM22.2426 27.2792C22.7282 29.3262 23.7491 31.193 25.3246 32.6986L33.6154 24.0232C33.6891 24.0937 33.767 24.1902 33.8303 24.3026C33.8925 24.413 33.9144 24.492 33.9185 24.5091L22.2426 27.2792ZM25.3808 32.7517C26.9735 34.235 28.8746 35.1413 30.8824 35.5681L33.3774 23.8303C33.3082 23.8156 33.3149 23.809 33.3693 23.8364C33.427 23.8654 33.4962 23.9115 33.5592 23.9702L25.3808 32.7517ZM30.8824 35.5681C32.765 35.9682 34.8637 35.9942 36.9516 35.2547L32.9451 23.9433C33.1525 23.8698 33.3199 23.8497 33.4136 23.8464C33.5005 23.8433 33.4953 23.8554 33.3774 23.8303L30.8824 35.5681ZM36.872 35.2823C38.6994 34.6637 40.3076 33.6035 41.5943 32.1419L32.5871 24.2128C32.6344 24.1592 32.7067 24.092 32.8009 24.0294C32.8948 23.9671 32.9762 23.9321 33.0247 23.9157L36.872 35.2823ZM33.386 32.897L36.7294 35.5215L44.1389 26.0822L40.7955 23.4578L33.386 32.897ZM35.4779 27.4202C35.4654 27.4384 35.417 27.5142 35.2094 27.6313L41.1046 38.0834C42.7927 37.1313 44.2624 35.8367 45.3903 34.1835L35.4779 27.4202ZM35.2094 27.6313C34.9824 27.7593 34.6475 27.8911 34.1298 27.9628L35.7761 39.8494C37.6347 39.5919 39.4359 39.0246 41.1046 38.0834L35.2094 27.6313ZM34.0886 27.9687C33.7185 28.0225 33.199 28.0249 32.4814 27.8724L29.9865 39.6101C31.8981 40.0165 33.858 40.1287 35.8173 39.8435L34.0886 27.9687ZM46.1077 36.2035L42.5521 41.0365L42.5521 41.0365L46.1077 36.2035ZM44.223 33.8155L38.6057 35.924L38.6192 35.9601L38.6333 35.996L44.223 33.8155ZM45.3374 28.0532L49.8141 32.0481L49.8382 32.0212L49.8619 31.9939L45.3374 28.0532ZM47.9697 26.4045L49.7984 32.119L49.7984 32.119L47.9697 26.4045ZM51.9568 26.0006L51.6303 31.9917L51.6498 31.9928L51.6693 31.9937L51.9568 26.0006ZM58.4418 26.3117L64.3107 27.5592L65.7779 20.6568L58.7293 20.3186L58.4418 26.3117ZM57.6934 29.8331L57.4467 35.828L62.5089 36.0362L63.5622 31.0805L57.6934 29.8331ZM52.1111 29.6034L52.3577 23.6085L52.3299 23.6074L52.3021 23.6065L52.1111 29.6034ZM49.8816 30.0497L46.7509 24.9312L46.7509 24.9312L49.8816 30.0497ZM49.2634 33.3043L44.6012 37.0809L44.6989 37.2015L44.8027 37.3169L49.2634 33.3043ZM53.7078 34.2121L55.436 39.9579L55.4669 39.9485L55.4978 39.9389L53.7078 34.2121ZM55.8 32.8534L51.3511 28.8277L51.3018 28.8821L51.2539 28.9377L55.8 32.8534ZM57.4388 23.4118L52.6074 26.9695L52.6767 27.0637L52.7497 27.1551L57.4388 23.4118ZM52.27 22.2764L54.5669 27.8193L54.5846 27.8119L54.6023 27.8045L52.27 22.2764ZM50.1733 24.0022L46.4861 28.7354L51.5487 32.6793L55.1436 27.3632L50.1733 24.0022ZM46.7947 21.3702L41.7293 18.1544L38.8087 22.7547L43.1075 26.1035L46.7947 21.3702ZM49.1093 19.1386L52.1416 24.316L52.1487 24.3118L49.1093 19.1386ZM52.371 17.9917L51.437 12.0649L51.437 12.0649L52.371 17.9917ZM60.0655 19.8849L56.3622 24.6056L56.3998 24.6351L56.4378 24.664L60.0655 19.8849ZM62.3384 22.8707L56.7173 24.9691L56.7453 25.0439L56.7752 25.118L62.3384 22.8707ZM59.8941 39.3915L58.6467 45.2604L64.5155 46.5079L65.763 40.639L59.8941 39.3915ZM55.5277 38.4634L49.6588 37.2159L48.4113 43.0848L54.2802 44.3323L55.5277 38.4634ZM56.2238 35.1886L57.0499 29.2457L51.5164 28.4765L50.3549 33.9411L56.2238 35.1886ZM57.2247 35.3277L61.6154 39.4169L69.479 30.9736L58.0509 29.3849L57.2247 35.3277ZM55.0224 37.0311L57.6919 42.4045L57.7479 42.3767L57.8032 42.3478L55.0224 37.0311ZM52.4289 37.8047L53.0529 43.7722L53.1252 43.7646L53.1974 43.7553L52.4289 37.8047ZM50.6991 31.7447C50.003 31.5967 49.7251 31.4159 49.6632 31.3705L42.5521 41.0365C44.2727 42.3023 46.224 43.0615 48.2041 43.4824L50.6991 31.7447ZM49.6632 31.3705C49.6116 31.3325 49.6303 31.3372 49.678 31.3976C49.7283 31.4613 49.7778 31.5453 49.8128 31.6349L38.6333 35.996C39.4527 38.0967 40.8408 39.7775 42.5521 41.0365L49.6632 31.3705ZM49.8403 31.707C49.8719 31.791 49.8899 31.881 49.8945 31.9567C49.8989 32.0282 49.8883 32.0381 49.9032 31.9681L38.1655 29.4731C37.7176 31.5799 37.8033 33.7862 38.6057 35.924L49.8403 31.707ZM49.9032 31.9681C49.9227 31.8764 49.9364 31.8608 49.9196 31.8951C49.9117 31.9114 49.8986 31.9353 49.8794 31.9639C49.8602 31.9926 49.8381 32.0212 49.8141 32.0481L40.8607 24.0583C39.4431 25.6469 38.5813 27.5168 38.1655 29.4731L49.9032 31.9681ZM49.8619 31.9939C49.8235 32.038 49.7846 32.0757 49.7483 32.1066C49.7121 32.1372 49.6835 32.1568 49.6672 32.167C49.6342 32.1876 49.6653 32.1616 49.7984 32.119L46.141 20.69C44.176 21.3188 42.2992 22.4061 40.8129 24.1126L49.8619 31.9939ZM49.7984 32.119C50.0168 32.0491 50.5748 31.9342 51.6303 31.9917L52.2833 20.0095C50.2341 19.8978 48.1341 20.0522 46.141 20.69L49.7984 32.119ZM51.6693 31.9937L58.1543 32.3049L58.7293 20.3186L52.2443 20.0075L51.6693 31.9937ZM52.5729 25.0643L51.8245 28.5856L63.5622 31.0805L64.3107 27.5592L52.5729 25.0643ZM57.94 23.8381L52.3577 23.6085L51.8645 35.5984L57.4467 35.828L57.94 23.8381ZM52.3021 23.6065C50.7433 23.5568 48.6747 23.7545 46.7509 24.9312L53.0123 35.1681C52.5693 35.4391 52.1991 35.5394 52.0184 35.5756C51.8427 35.6108 51.7932 35.5964 51.9201 35.6004L52.3021 23.6065ZM46.7509 24.9312C44.65 26.2162 43.4382 28.2152 42.9919 30.315L54.7297 32.8099C54.6647 33.1157 54.5166 33.5578 54.1981 34.0298C53.8715 34.5138 53.4533 34.8984 53.0123 35.1681L46.7509 24.9312ZM42.9919 30.315C42.4916 32.6689 43.0063 35.1121 44.6012 37.0809L53.9257 29.5276C54.2438 29.9202 54.5467 30.4657 54.7025 31.1395C54.8567 31.8065 54.8187 32.3909 54.7297 32.8099L42.9919 30.315ZM44.8027 37.3169C46.2295 38.9031 48.0317 39.7653 49.7977 40.1407L52.2927 28.403C52.406 28.4271 52.6259 28.4888 52.8997 28.6375C53.1817 28.7906 53.4697 29.0086 53.7242 29.2916L44.8027 37.3169ZM49.7977 40.1407C51.5881 40.5213 53.5134 40.5361 55.436 39.9579L51.9797 28.4664C52.1142 28.4259 52.2268 28.4135 52.2982 28.4119C52.3655 28.4104 52.3682 28.419 52.2927 28.403L49.7977 40.1407ZM55.4978 39.9389C57.3654 39.3551 59.0318 38.295 60.3461 36.7692L51.2539 28.9377C51.3404 28.8372 51.4559 28.7328 51.5938 28.6433C51.7303 28.5546 51.8474 28.5073 51.9178 28.4854L55.4978 39.9389ZM60.249 36.8792C61.5598 35.4306 62.4145 33.71 62.8117 31.8411L51.0739 29.3462C51.0838 29.2999 51.1091 29.2116 51.1644 29.1023C51.2202 28.992 51.2874 28.898 51.3511 28.8277L60.249 36.8792ZM62.8117 31.8411L63.8596 26.9113L52.1218 24.4163L51.0739 29.3462L62.8117 31.8411ZM63.8596 26.9113C64.4225 24.263 63.7451 21.6943 62.128 19.6686L52.7497 27.1551C52.5463 26.9003 52.2958 26.4826 52.1561 25.9126C52.0149 25.3363 52.0379 24.8111 52.1218 24.4163L63.8596 26.9113ZM62.2703 19.8542C60.6855 17.702 58.4574 16.611 56.3306 16.1589L53.8356 27.8967C53.8471 27.8991 53.6807 27.8657 53.425 27.7155C53.153 27.5557 52.8563 27.3076 52.6074 26.9695L62.2703 19.8542ZM56.3306 16.1589C54.2008 15.7062 52.0093 15.8742 49.9376 16.7482L54.6023 27.8045C54.4874 27.853 54.3365 27.8946 54.1684 27.9095C54.0028 27.9241 53.8846 27.9071 53.8356 27.8967L56.3306 16.1589ZM49.973 16.7334C47.9946 17.5533 46.3785 18.903 45.2031 20.6411L55.1436 27.3632C55.1082 27.4155 55.0338 27.5086 54.9132 27.6079C54.7915 27.7081 54.6676 27.7775 54.5669 27.8193L49.973 16.7334ZM53.8606 19.2689L50.482 16.6369L43.1075 26.1035L46.4861 28.7354L53.8606 19.2689ZM51.8601 24.586C51.9369 24.4651 52.0105 24.3928 52.1416 24.316L46.0769 13.9613C44.3024 15.0007 42.8329 16.416 41.7293 18.1544L51.8601 24.586ZM52.1487 24.3118C52.4427 24.1391 52.8087 23.9968 53.305 23.9186L51.437 12.0649C49.547 12.3627 47.7385 12.9851 46.0698 13.9655L52.1487 24.3118ZM53.305 23.9186C53.7092 23.8549 54.2097 23.8541 54.85 23.9902L57.345 12.2525C55.403 11.8397 53.4192 11.7525 51.437 12.0649L53.305 23.9186ZM54.85 23.9902C55.6872 24.1682 56.1284 24.4222 56.3622 24.6056L63.7689 15.1642C61.8577 13.6649 59.6535 12.7432 57.345 12.2525L54.85 23.9902ZM56.4378 24.664C56.6866 24.8528 56.709 24.9468 56.7173 24.9691L67.9595 20.7723C67.0923 18.4493 65.5995 16.5528 63.6932 15.1058L56.4378 24.664ZM56.7752 25.118C56.7741 25.1153 56.7717 25.1086 56.7698 25.1003C56.768 25.0922 56.7685 25.0911 56.7692 25.1004C56.7703 25.1159 56.775 25.2076 56.7348 25.3968L68.4725 27.8918C68.98 25.5044 68.8676 23.0147 67.9017 20.6234L56.7752 25.118ZM56.7348 25.3968L54.0252 38.144L65.763 40.639L68.4725 27.8918L56.7348 25.3968ZM61.1416 33.5226L56.7751 32.5945L54.2802 44.3323L58.6467 45.2604L61.1416 33.5226ZM61.3966 39.7109L62.0927 36.436L50.3549 33.9411L49.6588 37.2159L61.3966 39.7109ZM55.3976 41.1314L56.3986 41.2706L58.0509 29.3849L57.0499 29.2457L55.3976 41.1314ZM52.834 31.2385C52.5905 31.4999 52.3911 31.6362 52.2417 31.7144L57.8032 42.3478C59.2548 41.5885 60.5236 40.5892 61.6154 39.4169L52.834 31.2385ZM52.3529 31.6576C52.1893 31.7389 51.9721 31.8139 51.6604 31.8542L53.1974 43.7553C54.7526 43.5545 56.2645 43.1137 57.6919 42.4045L52.3529 31.6576ZM51.805 31.8373C51.5909 31.8597 51.2351 31.8586 50.6991 31.7447L48.2041 43.4824C49.7809 43.8176 51.41 43.944 53.0529 43.7722L51.805 31.8373ZM64.1577 40.2978L58.2888 39.0503L57.0413 44.9192L62.9102 46.1667L64.1577 40.2978ZM68.2294 21.1417L69.4769 15.2728L63.608 14.0254L62.3605 19.8943L68.2294 21.1417ZM72.5607 22.0624L78.4296 23.3098L79.677 17.4409L73.8081 16.1935L72.5607 22.0624ZM71.655 26.3232L65.9189 28.0829L72.7098 50.2194L77.5239 27.5706L71.655 26.3232ZM71.4376 25.6145L66.2052 22.6781L64.9481 24.9183L65.7015 27.3742L71.4376 25.6145ZM74.1514 23.063L72.2631 17.3678L72.2323 17.378L72.2016 17.3886L74.1514 23.063ZM78.9088 23.1909L84.7776 24.4383L86.0251 18.5694L80.1562 17.322L78.9088 23.1909ZM78.0405 27.2756L76.7931 33.1445L82.6619 34.392L83.9094 28.5231L78.0405 27.2756ZM72.9543 27.4826L76.2222 32.5147L76.2586 32.491L76.2947 32.4668L72.9543 27.4826ZM68.7706 41.2783L67.5232 47.1472L73.3921 48.3946L74.6395 42.5257L68.7706 41.2783ZM70.0266 41.5452L74.0983 22.3892L62.3605 19.8943L58.2888 39.0503L70.0266 41.5452ZM66.982 27.0106L71.3132 27.9312L73.8081 16.1935L69.4769 15.2728L66.982 27.0106ZM66.6918 20.8149L65.7861 25.0757L77.5239 27.5706L78.4296 23.3098L66.6918 20.8149ZM77.3912 24.5635L77.1738 23.8548L65.7015 27.3742L65.9189 28.0829L77.3912 24.5635ZM76.67 28.5508C76.8136 28.2949 76.8717 28.2671 76.7888 28.345C76.6895 28.4383 76.4599 28.6141 76.1012 28.7373L72.2016 17.3886C69.3064 18.3834 67.4085 20.534 66.2052 22.6781L76.67 28.5508ZM76.0397 28.7581C75.9973 28.7721 75.9937 28.765 76.0551 28.7631C76.122 28.761 76.2761 28.7653 76.5345 28.8202L79.0294 17.0825C76.8579 16.6209 74.5416 16.6124 72.2631 17.3678L76.0397 28.7581ZM76.5345 28.8202L77.6613 29.0597L80.1562 17.322L79.0294 17.0825L76.5345 28.8202ZM73.0399 21.9434L72.1716 26.0281L83.9094 28.5231L84.7776 24.4383L73.0399 21.9434ZM79.288 21.4067L77.633 21.0549L75.138 32.7927L76.7931 33.1445L79.288 21.4067ZM77.633 21.0549C74.9876 20.4926 72.136 20.8082 69.6139 22.4985L76.2947 32.4668C76.0735 32.6151 75.7937 32.7291 75.5062 32.7759C75.2365 32.8199 75.0938 32.7833 75.138 32.7927L77.633 21.0549ZM69.6865 22.4506C67.0283 24.1769 65.7098 26.8201 65.1697 29.3612L76.9074 31.8561C76.9501 31.6555 76.9705 31.699 76.8652 31.8707C76.7457 32.0657 76.5318 32.3136 76.2222 32.5147L69.6865 22.4506ZM65.1697 29.3612L62.9017 40.0308L74.6395 42.5257L76.9074 31.8561L65.1697 29.3612ZM70.0181 35.4094L65.4052 34.4289L62.9102 46.1667L67.5232 47.1472L70.0181 35.4094ZM77.3283 43.0973L71.4594 41.8498L70.2119 47.7187L76.0808 48.9661L77.3283 43.0973ZM81.4 23.9412L82.6475 18.0723L76.7786 16.8249L75.5312 22.6938L81.4 23.9412ZM85.7313 24.8619L91.6002 26.1093L92.8476 20.2404L86.9787 18.993L85.7313 24.8619ZM84.9304 28.6297L79.1559 30.2592L90.7993 29.8771L84.9304 28.6297ZM84.7205 27.8858L79.6996 24.6009L78.2042 26.8866L78.946 29.5153L84.7205 27.8858ZM87.4576 25.7441L89.329 31.4447L89.3491 31.4381L89.3693 31.4314L87.4576 25.7441ZM94.782 27.3009L90.8081 31.7963L90.8287 31.8145L90.8495 31.8325L94.782 27.3009ZM96.8061 30.4179L91.0668 32.1672L91.0748 32.1935L91.0831 32.2197L96.8061 30.4179ZM94.3011 46.7049L93.0536 52.5738L98.9225 53.8213L100.17 47.9524L94.3011 46.7049ZM89.6882 45.7244L83.8193 44.477L82.5718 50.3459L88.4407 51.5933L89.6882 45.7244ZM92.0469 32.2034L97.8057 30.5193L97.8057 30.5193L92.0469 32.2034ZM90.973 30.5029L86.8046 34.8186L86.9085 34.9189L87.017 35.014L90.973 30.5029ZM86.9587 29.6497L88.7378 35.3798L88.8235 35.3532L88.9085 35.324L86.9587 29.6497ZM85.2859 30.7663L89.8619 34.6471L89.8619 34.6471L85.2859 30.7663ZM81.9412 44.0778L80.6938 49.9467L86.5627 51.1941L87.8101 45.3252L81.9412 44.0778ZM83.1972 44.3447L87.2689 25.1887L75.5312 22.6938L71.4594 41.8498L83.1972 44.3447ZM80.1526 29.8101L84.4838 30.7307L86.9787 18.993L82.6475 18.0723L80.1526 29.8101ZM79.8624 23.6144L79.0615 27.3822L90.7993 29.8771L91.6002 26.1093L79.8624 23.6144ZM90.7049 27.0002L90.495 26.2563L78.946 29.5153L79.1559 30.2592L90.7049 27.0002ZM89.7414 31.1706C89.7591 31.1436 89.7248 31.2021 89.6201 31.2841C89.5121 31.3686 89.4021 31.4207 89.329 31.4447L85.5862 20.0434C83.0819 20.8655 81.0901 22.4755 79.6996 24.6009L89.7414 31.1706ZM89.3693 31.4314C89.3827 31.4269 89.5407 31.364 89.9965 31.4608L92.4914 19.7231C90.224 19.2411 87.8578 19.2796 85.5459 20.0567L89.3693 31.4314ZM89.9965 31.4608C90.5323 31.5747 90.7333 31.7302 90.8081 31.7963L98.7558 22.8055C96.9303 21.1918 94.7726 20.208 92.4914 19.7231L89.9965 31.4608ZM90.8495 31.8325C90.9713 31.9382 91.0198 32.0129 91.0668 32.1672L102.545 28.6685C101.841 26.3566 100.54 24.3533 98.7144 22.7693L90.8495 31.8325ZM91.0831 32.2197C91.108 32.299 91.1748 32.5548 91.0519 33.1328L102.79 35.6278C103.276 33.3418 103.266 30.9559 102.529 28.616L91.0831 32.2197ZM91.0519 33.1328L88.4322 45.4575L100.17 47.9524L102.79 35.6278L91.0519 33.1328ZM95.5486 40.8361L90.9356 39.8556L88.4407 51.5933L93.0536 52.5738L95.5486 40.8361ZM95.5571 46.9719L97.9447 35.7389L86.2069 33.2439L83.8193 44.477L95.5571 46.9719ZM97.9447 35.7389C98.286 34.1332 98.3381 32.3399 97.8057 30.5193L86.2881 33.8875C86.1535 33.4273 86.2249 33.1593 86.2069 33.2439L97.9447 35.7389ZM97.8057 30.5193C97.297 28.7799 96.3306 27.221 94.929 25.9918L87.017 35.014C86.8536 34.8708 86.6928 34.6882 86.5562 34.472C86.4204 34.2569 86.3364 34.0527 86.2881 33.8875L97.8057 30.5193ZM95.1413 26.1873C93.7174 24.812 92.0145 24.0382 90.3256 23.6792L87.8306 35.417C87.6911 35.3873 87.2514 35.2501 86.8046 34.8186L95.1413 26.1873ZM90.3256 23.6792C88.6177 23.3162 86.7978 23.3606 85.0088 23.9753L88.9085 35.324C88.6971 35.3966 88.4791 35.4369 88.272 35.4469C88.0685 35.4566 87.9162 35.4352 87.8306 35.417L90.3256 23.6792ZM85.1795 23.9195C83.3991 24.4723 81.8822 25.5033 80.71 26.8855L89.8619 34.6471C89.7505 34.7784 89.5907 34.9308 89.3792 35.072C89.1665 35.214 88.9453 35.3154 88.7378 35.3798L85.1795 23.9195ZM80.71 26.8855C79.4831 28.3321 78.8013 29.9916 78.46 31.5973L90.1978 34.0922C90.2158 34.0076 90.172 34.2815 89.8619 34.6471L80.71 26.8855ZM78.46 31.5973L76.0724 42.8303L87.8101 45.3252L90.1978 34.0922L78.46 31.5973ZM83.1887 38.2089L78.5758 37.2284L76.0808 48.9661L80.6938 49.9467L83.1887 38.2089Z" fill="white" mask="url(#path-3-outside-1_9400_878)"/>
</svg>
