<svg width="98" height="66" viewBox="0 0 98 66" fill="none" xmlns="http://www.w3.org/2000/svg">
<mask id="path-1-outside-1_9400_844" maskUnits="userSpaceOnUse" x="-6.76559" y="-6.45501" width="113.69" height="79.1465" fill="black">
<rect fill="white" x="-6.76559" y="-6.45501" width="113.69" height="79.1465"/>
<path d="M9.28379 25.5338L11.0269 5.60989L4.8744 5.07162L5.20908 1.24623L21.7858 2.6965L21.4511 6.52189L15.3942 5.99198L13.6511 25.9159L9.28379 25.5338ZM32.4168 27.9431C30.6742 27.7907 29.0753 27.3403 27.6203 26.5919C26.1654 25.8436 24.923 24.8676 23.8933 23.664C22.8637 22.4603 22.0951 21.0868 21.5877 19.5433C21.1034 17.9805 20.9375 16.3278 21.09 14.5851C21.2443 12.8212 21.6947 11.2223 22.4411 9.78861C23.1876 8.35488 24.1724 7.13473 25.3954 6.12816C26.6185 5.12159 28.0105 4.38679 29.5714 3.92374C31.1343 3.43944 32.7976 3.27445 34.5616 3.42877C36.3255 3.5831 37.9349 4.03442 39.3899 4.78274C40.8449 5.53107 42.0872 6.50706 43.1169 7.71072C44.1485 8.89312 44.9073 10.2551 45.3935 11.7967C45.9009 13.3401 46.0774 14.9938 45.9231 16.7577C45.7706 18.5004 45.3096 20.0983 44.54 21.5514C43.7723 22.9833 42.7769 24.2025 41.5539 25.2091C40.3308 26.2156 38.9379 26.9611 37.3751 27.4454C35.8335 27.9315 34.1808 28.0975 32.4168 27.9431ZM32.7627 23.9902C33.9315 24.0925 35.0224 23.9845 36.0354 23.6662C37.0501 23.3267 37.9514 22.8167 38.739 22.136C39.5479 21.4573 40.1883 20.6246 40.66 19.638C41.1531 18.6532 41.4517 17.5657 41.5558 16.3756C41.6599 15.1855 41.5538 14.0734 41.2374 13.0392C40.9441 11.9856 40.458 11.0544 39.7793 10.2455C39.1237 9.41717 38.3247 8.75837 37.3824 8.26905C36.4402 7.77973 35.3846 7.48394 34.2157 7.38167C33.0681 7.28127 31.9878 7.3902 30.9749 7.70846C29.962 8.02672 29.0501 8.53585 28.2394 9.23586C27.4517 9.91646 26.8114 10.7492 26.3183 11.7339C25.8272 12.6975 25.5295 13.7743 25.4254 14.9644C25.3213 16.1545 25.4265 17.2773 25.741 18.3327C26.0556 19.3882 26.5416 20.3194 27.1991 21.1264C27.8778 21.9353 28.6874 22.5951 29.6278 23.1056C30.5701 23.595 31.615 23.8898 32.7627 23.9902ZM48.1003 28.9298L50.1781 5.1805L65.9578 6.56105L65.6231 10.3864L54.1788 9.3852L53.6461 15.4739L64.4528 16.4194L64.1182 20.2448L53.3114 19.2993L52.7704 25.4837L64.2147 26.4849L63.88 30.3103L48.1003 28.9298ZM66.4215 30.5327L68.4993 6.78341L72.8348 7.16271L70.757 30.912L66.4215 30.5327ZM85.8114 32.6146C84.1112 32.4658 82.5655 32.0201 81.1743 31.2773C79.8043 30.5364 78.6257 29.566 77.6386 28.3661C76.6726 27.168 75.9572 25.7991 75.4923 24.2594C75.0274 22.7197 74.8721 21.0679 75.0264 19.3039C75.1808 17.54 75.6099 15.9393 76.3139 14.5019C77.0409 13.045 77.9832 11.8212 79.1406 10.8303C80.3212 9.81997 81.66 9.08051 83.1572 8.61189C84.6563 8.12201 86.2559 7.95144 87.9561 8.10019C89.6563 8.24894 91.1507 8.66878 92.4394 9.35973C93.7493 10.0525 94.83 10.918 95.6814 11.9562C96.5347 12.9731 97.114 14.0624 97.4192 15.2241L93.3711 16.7009C93.0289 15.4717 92.36 14.4281 91.3643 13.5701C90.3705 12.6908 89.1192 12.1851 87.6103 12.0531C86.1226 11.9229 84.7743 12.1583 83.5653 12.7592C82.3776 13.362 81.411 14.2518 80.6656 15.4287C79.9415 16.6074 79.5069 18.0256 79.3619 19.6832C79.2168 21.3409 79.3976 22.8236 79.9042 24.1314C80.434 25.4198 81.2313 26.464 82.2963 27.2638C83.3826 28.0656 84.6696 28.5315 86.1572 28.6616C87.6661 28.7937 88.9853 28.5236 90.1149 27.8515C91.2463 27.1581 92.0872 26.2359 92.6376 25.0848L96.3678 27.2422C95.8654 28.3332 95.1049 29.316 94.0861 30.1905C93.0692 31.0438 91.8556 31.6979 90.4453 32.1527C89.0562 32.6093 87.5115 32.7633 85.8114 32.6146ZM26.6563 59.5614C24.9349 59.4108 23.4645 58.9609 22.2452 58.2118C21.0489 57.4433 20.1485 56.4758 19.5438 55.3093C18.9605 54.1447 18.7264 52.9036 18.8417 51.5859C18.9774 50.0345 19.5062 48.7638 20.428 47.7737C21.3516 46.7624 22.6221 46.0704 24.2394 45.698L23.8923 46.7277C22.7976 46.2678 21.9663 45.4884 21.3986 44.3894C20.8522 43.2923 20.6338 42.1168 20.7435 40.8629C20.8532 39.609 21.2696 38.5212 21.9927 37.5994C22.7158 36.6775 23.6647 35.9896 24.8394 35.5356C26.0141 35.0816 27.3347 34.9187 28.8011 35.047C30.2462 35.1735 31.4972 35.5613 32.5539 36.2105C33.6319 36.8616 34.447 37.7039 34.999 38.7373C35.5723 39.7725 35.8041 40.9171 35.6944 42.1709C35.5828 43.4461 35.1521 44.5755 34.4022 45.5592C33.6754 46.5235 32.732 47.1477 31.5722 47.4317L31.4467 46.2964C32.971 46.9866 34.1001 47.9098 34.8342 49.0662C35.57 50.2013 35.8701 51.5446 35.7344 53.096C35.6191 54.4136 35.1624 55.5943 34.3644 56.6381C33.5895 57.6624 32.5357 58.4482 31.2029 58.9955C29.8933 59.5234 28.3777 59.712 26.6563 59.5614ZM26.9771 55.8954C27.8059 55.9679 28.5415 55.8824 29.1838 55.6387C29.828 55.3739 30.3443 54.9801 30.7327 54.4572C31.1229 53.9132 31.3497 53.2799 31.4129 52.5573C31.4779 51.8135 31.3637 51.161 31.0702 50.6C30.7785 50.0177 30.3375 49.5508 29.7472 49.1993C29.1588 48.8266 28.4501 48.604 27.6213 48.5315C26.7925 48.459 26.056 48.5552 25.4118 48.82C24.7907 49.0655 24.2859 49.4497 23.8976 49.9725C23.511 50.474 23.2852 51.0967 23.2202 51.8405C23.1569 52.5631 23.2703 53.2262 23.5601 53.8297C23.8518 54.412 24.2812 54.8886 24.8484 55.2594C25.4387 55.6109 26.1482 55.8229 26.9771 55.8954ZM27.942 44.8655C28.5584 44.9194 29.1124 44.8287 29.6041 44.5933C30.0958 44.358 30.4887 44.0283 30.7828 43.6043C31.1 43.1609 31.2846 42.6417 31.3366 42.0467C31.3887 41.4516 31.2961 40.9188 31.0589 40.4484C30.8448 39.9585 30.5151 39.5656 30.0699 39.2697C29.6265 38.9525 29.0966 38.7669 28.4803 38.713C27.864 38.6591 27.2994 38.7489 26.7864 38.9824C26.2965 39.1965 25.893 39.5253 25.5758 39.9687C25.2818 40.3926 25.1087 40.9022 25.0566 41.4972C25.0046 42.0923 25.0856 42.6347 25.2997 43.1246C25.537 43.5951 25.8773 43.9889 26.3206 44.3061C26.7853 44.6251 27.3257 44.8116 27.942 44.8655ZM45.5549 61.2148C44.301 61.1051 43.1207 60.7663 42.014 60.1983C40.9285 59.6322 40.0086 58.8879 39.2541 57.9653C38.5228 57.0233 38.0604 55.9442 37.867 54.7281L41.7458 53.7183C42.0122 54.8338 42.526 55.6925 43.2871 56.2944C44.0501 56.8751 44.9203 57.2082 45.8979 57.2938C46.7055 57.3644 47.4323 57.2567 48.0784 56.9706C48.7476 56.6651 49.2791 56.219 49.6731 55.6325C50.0689 55.0247 50.3031 54.3063 50.3756 53.4775C50.4481 52.6487 50.3307 51.9103 50.0233 51.2624C49.7372 50.6163 49.3008 50.0963 48.7143 49.7023C48.1296 49.2871 47.4334 49.0442 46.6259 48.9736C45.797 48.901 45.0268 49.0157 44.3151 49.3175C43.6247 49.6211 43.1009 50.1 42.7439 50.754L39.2751 49.6475L42.3106 36.6144L55.2532 37.7468L54.9324 41.4128L43.7113 40.431L45.5016 38.6925L43.2926 48.5213L42.1386 47.3924C42.8099 46.5732 43.5882 45.9988 44.4736 45.6694C45.3803 45.3418 46.4499 45.232 47.6826 45.3398C49.2552 45.4774 50.5856 45.9365 51.6737 46.7169C52.7831 47.4993 53.6054 48.5027 54.1407 49.7274C54.6761 50.952 54.8768 52.3294 54.7429 53.8596C54.609 55.3898 54.1163 56.7386 53.2646 57.9062C52.4129 59.0737 51.3188 59.9524 49.9824 60.5421C48.6459 61.1319 47.17 61.3561 45.5549 61.2148ZM66.347 63.0339C64.4555 62.8684 62.8425 62.2133 61.5078 61.0686C60.1732 59.924 59.1829 58.3918 58.5371 56.4722C57.9126 54.5545 57.7072 52.3736 57.921 49.9296C58.1367 47.4644 58.7176 45.3523 59.6639 43.5934C60.6101 41.8345 61.8398 40.5073 63.3529 39.6118C64.8661 38.7163 66.5684 38.3512 68.4598 38.5167C70.3938 38.6859 72.0174 39.3419 73.3308 40.4847C74.6655 41.6294 75.6557 43.1616 76.3015 45.0812C76.9492 46.9795 77.1661 49.1507 76.9523 51.5947C76.7385 54.0387 76.1469 56.1498 75.1776 57.9281C74.2313 59.687 73.0007 61.0248 71.4857 61.9416C69.9726 62.8371 68.2597 63.2012 66.347 63.0339ZM66.7247 59.0838C67.8085 59.1786 68.7618 58.9301 69.5845 58.3382C70.4091 57.725 71.0772 56.8198 71.5888 55.6225C72.1236 54.4058 72.4663 52.9368 72.6169 51.2154C72.7675 49.4939 72.6842 47.9983 72.367 46.7285C72.0729 45.4393 71.5615 44.4309 70.8328 43.7033C70.1254 42.9775 69.2191 42.5663 68.114 42.4696C67.0514 42.3767 66.1087 42.6261 65.286 43.218C64.4633 43.8099 63.7845 44.7142 63.2498 45.9309C62.7382 47.1281 62.4071 48.5875 62.2564 50.3089C62.1077 52.0091 62.1804 53.5038 62.4745 54.793C62.7917 56.0628 63.3031 57.0712 64.0086 57.8182C64.7355 58.5671 65.6408 58.9889 66.7247 59.0838Z"/>
</mask>
<path d="M9.28379 25.5338L11.0269 5.60989L4.8744 5.07162L5.20908 1.24623L21.7858 2.6965L21.4511 6.52189L15.3942 5.99198L13.6511 25.9159L9.28379 25.5338ZM32.4168 27.9431C30.6742 27.7907 29.0753 27.3403 27.6203 26.5919C26.1654 25.8436 24.923 24.8676 23.8933 23.664C22.8637 22.4603 22.0951 21.0868 21.5877 19.5433C21.1034 17.9805 20.9375 16.3278 21.09 14.5851C21.2443 12.8212 21.6947 11.2223 22.4411 9.78861C23.1876 8.35488 24.1724 7.13473 25.3954 6.12816C26.6185 5.12159 28.0105 4.38679 29.5714 3.92374C31.1343 3.43944 32.7976 3.27445 34.5616 3.42877C36.3255 3.5831 37.9349 4.03442 39.3899 4.78274C40.8449 5.53107 42.0872 6.50706 43.1169 7.71072C44.1485 8.89312 44.9073 10.2551 45.3935 11.7967C45.9009 13.3401 46.0774 14.9938 45.9231 16.7577C45.7706 18.5004 45.3096 20.0983 44.54 21.5514C43.7723 22.9833 42.7769 24.2025 41.5539 25.2091C40.3308 26.2156 38.9379 26.9611 37.3751 27.4454C35.8335 27.9315 34.1808 28.0975 32.4168 27.9431ZM32.7627 23.9902C33.9315 24.0925 35.0224 23.9845 36.0354 23.6662C37.0501 23.3267 37.9514 22.8167 38.739 22.136C39.5479 21.4573 40.1883 20.6246 40.66 19.638C41.1531 18.6532 41.4517 17.5657 41.5558 16.3756C41.6599 15.1855 41.5538 14.0734 41.2374 13.0392C40.9441 11.9856 40.458 11.0544 39.7793 10.2455C39.1237 9.41717 38.3247 8.75837 37.3824 8.26905C36.4402 7.77973 35.3846 7.48394 34.2157 7.38167C33.0681 7.28127 31.9878 7.3902 30.9749 7.70846C29.962 8.02672 29.0501 8.53585 28.2394 9.23586C27.4517 9.91646 26.8114 10.7492 26.3183 11.7339C25.8272 12.6975 25.5295 13.7743 25.4254 14.9644C25.3213 16.1545 25.4265 17.2773 25.741 18.3327C26.0556 19.3882 26.5416 20.3194 27.1991 21.1264C27.8778 21.9353 28.6874 22.5951 29.6278 23.1056C30.5701 23.595 31.615 23.8898 32.7627 23.9902ZM48.1003 28.9298L50.1781 5.1805L65.9578 6.56105L65.6231 10.3864L54.1788 9.3852L53.6461 15.4739L64.4528 16.4194L64.1182 20.2448L53.3114 19.2993L52.7704 25.4837L64.2147 26.4849L63.88 30.3103L48.1003 28.9298ZM66.4215 30.5327L68.4993 6.78341L72.8348 7.16271L70.757 30.912L66.4215 30.5327ZM85.8114 32.6146C84.1112 32.4658 82.5655 32.0201 81.1743 31.2773C79.8043 30.5364 78.6257 29.566 77.6386 28.3661C76.6726 27.168 75.9572 25.7991 75.4923 24.2594C75.0274 22.7197 74.8721 21.0679 75.0264 19.3039C75.1808 17.54 75.6099 15.9393 76.3139 14.5019C77.0409 13.045 77.9832 11.8212 79.1406 10.8303C80.3212 9.81997 81.66 9.08051 83.1572 8.61189C84.6563 8.12201 86.2559 7.95144 87.9561 8.10019C89.6563 8.24894 91.1507 8.66878 92.4394 9.35973C93.7493 10.0525 94.83 10.918 95.6814 11.9562C96.5347 12.9731 97.114 14.0624 97.4192 15.2241L93.3711 16.7009C93.0289 15.4717 92.36 14.4281 91.3643 13.5701C90.3705 12.6908 89.1192 12.1851 87.6103 12.0531C86.1226 11.9229 84.7743 12.1583 83.5653 12.7592C82.3776 13.362 81.411 14.2518 80.6656 15.4287C79.9415 16.6074 79.5069 18.0256 79.3619 19.6832C79.2168 21.3409 79.3976 22.8236 79.9042 24.1314C80.434 25.4198 81.2313 26.464 82.2963 27.2638C83.3826 28.0656 84.6696 28.5315 86.1572 28.6616C87.6661 28.7937 88.9853 28.5236 90.1149 27.8515C91.2463 27.1581 92.0872 26.2359 92.6376 25.0848L96.3678 27.2422C95.8654 28.3332 95.1049 29.316 94.0861 30.1905C93.0692 31.0438 91.8556 31.6979 90.4453 32.1527C89.0562 32.6093 87.5115 32.7633 85.8114 32.6146ZM26.6563 59.5614C24.9349 59.4108 23.4645 58.9609 22.2452 58.2118C21.0489 57.4433 20.1485 56.4758 19.5438 55.3093C18.9605 54.1447 18.7264 52.9036 18.8417 51.5859C18.9774 50.0345 19.5062 48.7638 20.428 47.7737C21.3516 46.7624 22.6221 46.0704 24.2394 45.698L23.8923 46.7277C22.7976 46.2678 21.9663 45.4884 21.3986 44.3894C20.8522 43.2923 20.6338 42.1168 20.7435 40.8629C20.8532 39.609 21.2696 38.5212 21.9927 37.5994C22.7158 36.6775 23.6647 35.9896 24.8394 35.5356C26.0141 35.0816 27.3347 34.9187 28.8011 35.047C30.2462 35.1735 31.4972 35.5613 32.5539 36.2105C33.6319 36.8616 34.447 37.7039 34.999 38.7373C35.5723 39.7725 35.8041 40.9171 35.6944 42.1709C35.5828 43.4461 35.1521 44.5755 34.4022 45.5592C33.6754 46.5235 32.732 47.1477 31.5722 47.4317L31.4467 46.2964C32.971 46.9866 34.1001 47.9098 34.8342 49.0662C35.57 50.2013 35.8701 51.5446 35.7344 53.096C35.6191 54.4136 35.1624 55.5943 34.3644 56.6381C33.5895 57.6624 32.5357 58.4482 31.2029 58.9955C29.8933 59.5234 28.3777 59.712 26.6563 59.5614ZM26.9771 55.8954C27.8059 55.9679 28.5415 55.8824 29.1838 55.6387C29.828 55.3739 30.3443 54.9801 30.7327 54.4572C31.1229 53.9132 31.3497 53.2799 31.4129 52.5573C31.4779 51.8135 31.3637 51.161 31.0702 50.6C30.7785 50.0177 30.3375 49.5508 29.7472 49.1993C29.1588 48.8266 28.4501 48.604 27.6213 48.5315C26.7925 48.459 26.056 48.5552 25.4118 48.82C24.7907 49.0655 24.2859 49.4497 23.8976 49.9725C23.511 50.474 23.2852 51.0967 23.2202 51.8405C23.1569 52.5631 23.2703 53.2262 23.5601 53.8297C23.8518 54.412 24.2812 54.8886 24.8484 55.2594C25.4387 55.6109 26.1482 55.8229 26.9771 55.8954ZM27.942 44.8655C28.5584 44.9194 29.1124 44.8287 29.6041 44.5933C30.0958 44.358 30.4887 44.0283 30.7828 43.6043C31.1 43.1609 31.2846 42.6417 31.3366 42.0467C31.3887 41.4516 31.2961 40.9188 31.0589 40.4484C30.8448 39.9585 30.5151 39.5656 30.0699 39.2697C29.6265 38.9525 29.0966 38.7669 28.4803 38.713C27.864 38.6591 27.2994 38.7489 26.7864 38.9824C26.2965 39.1965 25.893 39.5253 25.5758 39.9687C25.2818 40.3926 25.1087 40.9022 25.0566 41.4972C25.0046 42.0923 25.0856 42.6347 25.2997 43.1246C25.537 43.5951 25.8773 43.9889 26.3206 44.3061C26.7853 44.6251 27.3257 44.8116 27.942 44.8655ZM45.5549 61.2148C44.301 61.1051 43.1207 60.7663 42.014 60.1983C40.9285 59.6322 40.0086 58.8879 39.2541 57.9653C38.5228 57.0233 38.0604 55.9442 37.867 54.7281L41.7458 53.7183C42.0122 54.8338 42.526 55.6925 43.2871 56.2944C44.0501 56.8751 44.9203 57.2082 45.8979 57.2938C46.7055 57.3644 47.4323 57.2567 48.0784 56.9706C48.7476 56.6651 49.2791 56.219 49.6731 55.6325C50.0689 55.0247 50.3031 54.3063 50.3756 53.4775C50.4481 52.6487 50.3307 51.9103 50.0233 51.2624C49.7372 50.6163 49.3008 50.0963 48.7143 49.7023C48.1296 49.2871 47.4334 49.0442 46.6259 48.9736C45.797 48.901 45.0268 49.0157 44.3151 49.3175C43.6247 49.6211 43.1009 50.1 42.7439 50.754L39.2751 49.6475L42.3106 36.6144L55.2532 37.7468L54.9324 41.4128L43.7113 40.431L45.5016 38.6925L43.2926 48.5213L42.1386 47.3924C42.8099 46.5732 43.5882 45.9988 44.4736 45.6694C45.3803 45.3418 46.4499 45.232 47.6826 45.3398C49.2552 45.4774 50.5856 45.9365 51.6737 46.7169C52.7831 47.4993 53.6054 48.5027 54.1407 49.7274C54.6761 50.952 54.8768 52.3294 54.7429 53.8596C54.609 55.3898 54.1163 56.7386 53.2646 57.9062C52.4129 59.0737 51.3188 59.9524 49.9824 60.5421C48.6459 61.1319 47.17 61.3561 45.5549 61.2148ZM66.347 63.0339C64.4555 62.8684 62.8425 62.2133 61.5078 61.0686C60.1732 59.924 59.1829 58.3918 58.5371 56.4722C57.9126 54.5545 57.7072 52.3736 57.921 49.9296C58.1367 47.4644 58.7176 45.3523 59.6639 43.5934C60.6101 41.8345 61.8398 40.5073 63.3529 39.6118C64.8661 38.7163 66.5684 38.3512 68.4598 38.5167C70.3938 38.6859 72.0174 39.3419 73.3308 40.4847C74.6655 41.6294 75.6557 43.1616 76.3015 45.0812C76.9492 46.9795 77.1661 49.1507 76.9523 51.5947C76.7385 54.0387 76.1469 56.1498 75.1776 57.9281C74.2313 59.687 73.0007 61.0248 71.4857 61.9416C69.9726 62.8371 68.2597 63.2012 66.347 63.0339ZM66.7247 59.0838C67.8085 59.1786 68.7618 58.9301 69.5845 58.3382C70.4091 57.725 71.0772 56.8198 71.5888 55.6225C72.1236 54.4058 72.4663 52.9368 72.6169 51.2154C72.7675 49.4939 72.6842 47.9983 72.367 46.7285C72.0729 45.4393 71.5615 44.4309 70.8328 43.7033C70.1254 42.9775 69.2191 42.5663 68.114 42.4696C67.0514 42.3767 66.1087 42.6261 65.286 43.218C64.4633 43.8099 63.7845 44.7142 63.2498 45.9309C62.7382 47.1281 62.4071 48.5875 62.2564 50.3089C62.1077 52.0091 62.1804 53.5038 62.4745 54.793C62.7917 56.0628 63.3031 57.0712 64.0086 57.8182C64.7355 58.5671 65.6408 58.9889 66.7247 59.0838Z" fill="#9232FF"/>
<path d="M9.28379 25.5338L3.30662 25.0109L2.78369 30.988L8.76085 31.511L9.28379 25.5338ZM11.0269 5.60989L17.0041 6.13283L17.527 0.155659L11.5498 -0.367276L11.0269 5.60989ZM4.8744 5.07162L-1.10276 4.54868L-1.6257 10.5259L4.35147 11.0488L4.8744 5.07162ZM5.20908 1.24623L5.73202 -4.73094L-0.245151 -5.25387L-0.768085 0.723295L5.20908 1.24623ZM21.7858 2.6965L27.7629 3.21944L28.2859 -2.75773L22.3087 -3.28067L21.7858 2.6965ZM21.4511 6.52189L20.9282 12.4991L26.9053 13.022L27.4283 7.04482L21.4511 6.52189ZM15.3942 5.99198L15.9172 0.0148152L9.93999 -0.508119L9.41705 5.46905L15.3942 5.99198ZM13.6511 25.9159L13.1282 31.893L19.1053 32.416L19.6283 26.4388L13.6511 25.9159ZM15.261 26.0567L17.0041 6.13283L5.04974 5.08696L3.30662 25.0109L15.261 26.0567ZM11.5498 -0.367276L5.39734 -0.905549L4.35147 11.0488L10.504 11.5871L11.5498 -0.367276ZM10.8516 5.59455L11.1863 1.76916L-0.768085 0.723295L-1.10276 4.54868L10.8516 5.59455ZM4.68615 7.2234L21.2628 8.67367L22.3087 -3.28067L5.73202 -4.73094L4.68615 7.2234ZM15.8086 2.17357L15.4739 5.99896L27.4283 7.04482L27.7629 3.21944L15.8086 2.17357ZM21.974 0.544722L15.9172 0.0148152L14.8713 11.9692L20.9282 12.4991L21.974 0.544722ZM9.41705 5.46905L7.67394 25.3929L19.6283 26.4388L21.3714 6.51492L9.41705 5.46905ZM14.174 19.9387L9.80672 19.5566L8.76085 31.511L13.1282 31.893L14.174 19.9387ZM27.6203 26.5919L24.8761 31.9276L27.6203 26.5919ZM23.8933 23.664L19.334 27.5643L23.8933 23.664ZM21.5877 19.5433L15.8566 21.3194L15.8718 21.3684L15.8878 21.4172L21.5877 19.5433ZM22.4411 9.78861L27.763 12.5594L22.4411 9.78861ZM25.3954 6.12816L29.2082 10.761L29.2082 10.7609L25.3954 6.12816ZM29.5714 3.92374L31.2778 9.67598L31.3127 9.66563L31.3474 9.65486L29.5714 3.92374ZM39.3899 4.78274L42.1342 -0.552912L42.1342 -0.552913L39.3899 4.78274ZM43.1169 7.71072L38.5576 11.611L38.5765 11.6332L38.5957 11.6551L43.1169 7.71072ZM45.3935 11.7967L39.6713 13.6013L39.6822 13.636L39.6936 13.6705L45.3935 11.7967ZM44.54 21.5514L49.8279 24.3866L49.8352 24.3731L49.8423 24.3595L44.54 21.5514ZM41.5539 25.2091L37.7411 20.5763L37.7411 20.5763L41.5539 25.2091ZM37.3751 27.4454L35.5991 21.7143L35.5848 21.7187L35.5705 21.7232L37.3751 27.4454ZM36.0354 23.6662L37.8339 29.3903L37.8866 29.3738L37.939 29.3562L36.0354 23.6662ZM38.739 22.136L34.8823 17.5398L34.849 17.5677L34.8161 17.5962L38.739 22.136ZM40.66 19.638L35.2949 16.9519L35.2705 17.0005L35.2471 17.0496L40.66 19.638ZM41.2374 13.0392L35.4571 14.6483L35.4776 14.7217L35.4999 14.7945L41.2374 13.0392ZM39.7793 10.2455L35.0748 13.9694L35.1279 14.0365L35.183 14.1022L39.7793 10.2455ZM28.2394 9.23586L24.3183 4.69436L24.3165 4.69596L28.2394 9.23586ZM26.3183 11.7339L31.6638 14.4589L31.6737 14.4395L31.6835 14.42L26.3183 11.7339ZM25.741 18.3327L31.4911 16.6191L31.4911 16.6191L25.741 18.3327ZM27.1991 21.1264L22.5474 24.9162L22.5749 24.9499L22.6028 24.9832L27.1991 21.1264ZM29.6278 23.1056L26.765 28.3786L26.8136 28.405L26.8627 28.4305L29.6278 23.1056ZM32.9398 21.966C31.9179 21.8766 31.0809 21.6247 30.3646 21.2563L24.8761 31.9276C27.0697 33.0558 29.4304 33.7048 31.8939 33.9203L32.9398 21.966ZM30.3646 21.2563C29.5788 20.8521 28.9595 20.3561 28.4527 19.7637L19.334 27.5643C20.8866 29.3792 22.752 30.8351 24.8761 31.9276L30.3646 21.2563ZM28.4527 19.7637C27.9449 19.1701 27.557 18.489 27.2876 17.6695L15.8878 21.4172C16.6332 23.6845 17.7824 25.7506 19.334 27.5643L28.4527 19.7637ZM27.3188 17.7673C27.0804 16.9979 26.9777 16.1299 27.0671 15.108L15.1128 14.0622C14.8973 16.5257 15.1264 18.9631 15.8566 21.3194L27.3188 17.7673ZM27.0671 15.108C27.1594 14.0539 27.4138 13.2301 27.763 12.5594L17.1192 7.01779C15.9755 9.21457 15.3292 11.5885 15.1128 14.0622L27.0671 15.108ZM27.763 12.5594C28.1446 11.8265 28.6212 11.244 29.2082 10.761L21.5826 1.49537C19.7235 3.02545 18.2306 4.88326 17.1192 7.01779L27.763 12.5594ZM29.2082 10.7609C29.7936 10.2791 30.4648 9.91714 31.2778 9.67598L27.8651 -1.82851C25.5561 -1.14357 23.4433 -0.035945 21.5826 1.49538L29.2082 10.7609ZM31.3474 9.65486C32.108 9.41919 32.9855 9.3138 34.0386 9.40594L35.0845 -2.5484C32.6098 -2.76491 30.1605 -2.54031 27.7954 -1.80739L31.3474 9.65486ZM34.0386 9.40594C35.0917 9.49808 35.9377 9.75424 36.6457 10.1184L42.1342 -0.552913C39.9322 -1.6854 37.5592 -2.33188 35.0845 -2.5484L34.0386 9.40594ZM36.6457 10.1184C37.4315 10.5226 38.0508 11.0186 38.5576 11.611L47.6762 3.8104C46.1237 1.99549 44.2583 0.539582 42.1342 -0.552912L36.6457 10.1184ZM38.5957 11.6551C39.0672 12.1956 39.4261 12.8237 39.6713 13.6013L51.1157 9.99209C50.3885 7.68649 49.2297 5.59061 47.6382 3.76633L38.5957 11.6551ZM39.6936 13.6705C39.9252 14.3751 40.0358 15.207 39.9459 16.2348L51.9003 17.2807C52.119 14.7806 51.8765 12.3051 51.0933 9.92281L39.6936 13.6705ZM39.9459 16.2348C39.8589 17.23 39.6083 18.0436 39.2377 18.7433L49.8423 24.3595C51.011 22.1529 51.6824 19.7708 51.9003 17.2807L39.9459 16.2348ZM39.2521 18.7162C38.8445 19.4766 38.3443 20.0799 37.7411 20.5763L45.3667 29.8419C47.2096 28.3251 48.7002 26.49 49.8279 24.3866L39.2521 18.7162ZM37.7411 20.5763C37.1392 21.0717 36.4431 21.4527 35.5991 21.7143L39.1511 33.1765C41.4327 32.4695 43.5225 31.3596 45.3667 29.8419L37.7411 20.5763ZM35.5705 21.7232C34.8494 21.9506 33.9939 22.0582 32.9398 21.966L31.8939 33.9203C34.3676 34.1367 36.8177 33.9125 39.1797 33.1676L35.5705 21.7232ZM32.2397 29.9674C34.109 30.1309 35.996 29.9678 37.8339 29.3903L34.2368 17.9421C34.0488 18.0012 33.754 18.054 33.2856 18.0131L32.2397 29.9674ZM37.939 29.3562C39.6742 28.7757 41.2659 27.8823 42.6619 26.6759L34.8161 17.5962C34.6368 17.7511 34.426 17.8778 34.1317 17.9762L37.939 29.3562ZM42.5957 26.7323C44.0844 25.4832 45.2453 23.9574 46.073 22.2263L35.2471 17.0496C35.1312 17.2918 35.0115 17.4314 34.8823 17.5398L42.5957 26.7323ZM46.0252 22.3241C46.8844 20.6079 47.3685 18.7777 47.5329 16.8986L35.5786 15.8527C35.5348 16.3538 35.4218 16.6985 35.2949 16.9519L46.0252 22.3241ZM47.5329 16.8986C47.6972 15.0211 47.5392 13.1285 46.9748 11.2838L35.4999 14.7945C35.5683 15.0182 35.6226 15.3499 35.5786 15.8527L47.5329 16.8986ZM47.0176 11.4301C46.503 9.5816 45.6247 7.87737 44.3756 6.38874L35.183 14.1022C35.2914 14.2314 35.3851 14.3896 35.4571 14.6483L47.0176 11.4301ZM44.4838 6.52159C43.2993 5.02515 41.8382 3.82215 40.1476 2.94422L34.6173 13.5939C34.8112 13.6946 34.948 13.8092 35.0748 13.9694L44.4838 6.52159ZM40.1476 2.94422C38.438 2.0564 36.608 1.56805 34.7387 1.4045L33.6928 13.3588C34.1612 13.3998 34.4424 13.5031 34.6173 13.5939L40.1476 2.94422ZM34.7387 1.4045C32.8752 1.24147 31.0007 1.41115 29.1764 1.98436L32.7734 13.4326C32.9749 13.3693 33.261 13.3211 33.6928 13.3588L34.7387 1.4045ZM29.1764 1.98436C27.3756 2.55016 25.7429 3.46439 24.3183 4.69436L32.1605 13.7774C32.3574 13.6073 32.5483 13.5033 32.7734 13.4326L29.1764 1.98436ZM24.3165 4.69596C22.8964 5.92301 21.7793 7.39772 20.9532 9.04782L31.6835 14.42C31.8434 14.1006 32.007 13.9099 32.1623 13.7758L24.3165 4.69596ZM20.9728 9.00894C20.0967 10.7276 19.6125 12.564 19.4482 14.4415L31.4026 15.4873C31.4466 14.9845 31.5576 14.6674 31.6638 14.4589L20.9728 9.00894ZM19.4482 14.4415C19.2838 16.3206 19.4428 18.2071 19.991 20.0464L31.4911 16.6191C31.4102 16.3475 31.3587 15.9885 31.4026 15.4873L19.4482 14.4415ZM19.991 20.0464C20.518 21.8149 21.362 23.4612 22.5474 24.9162L31.8508 17.3367C31.7211 17.1776 31.5931 16.9614 31.4911 16.6191L19.991 20.0464ZM22.6028 24.9832C23.772 26.3766 25.1721 27.5138 26.765 28.3786L32.4907 17.8327C32.2027 17.6763 31.9837 17.4941 31.7954 17.2697L22.6028 24.9832ZM26.8627 28.4305C28.5598 29.3118 30.3762 29.8044 32.2397 29.9674L33.2856 18.0131C32.8539 17.9753 32.5805 17.8782 32.393 17.7808L26.8627 28.4305ZM48.1003 28.9298L42.1231 28.4069L41.6002 34.384L47.5773 34.907L48.1003 28.9298ZM50.1781 5.1805L50.701 -0.796663L44.7238 -1.3196L44.2009 4.65757L50.1781 5.1805ZM65.9578 6.56105L71.935 7.08399L72.4579 1.10682L66.4807 0.583884L65.9578 6.56105ZM65.6231 10.3864L65.1002 16.3636L71.0773 16.8865L71.6003 10.9094L65.6231 10.3864ZM54.1788 9.3852L54.7018 3.40803L48.7246 2.88509L48.2017 8.86226L54.1788 9.3852ZM53.6461 15.4739L47.669 14.951L47.146 20.9282L53.1232 21.4511L53.6461 15.4739ZM64.4528 16.4194L70.43 16.9423L70.9529 10.9652L64.9758 10.4422L64.4528 16.4194ZM64.1182 20.2448L63.5952 26.222L69.5724 26.7449L70.0953 20.7677L64.1182 20.2448ZM53.3114 19.2993L53.8344 13.3222L47.8572 12.7992L47.3343 18.7764L53.3114 19.2993ZM52.7704 25.4837L46.7932 24.9608L46.2703 30.9379L52.2474 31.4609L52.7704 25.4837ZM64.2147 26.4849L70.1918 27.0079L70.7148 21.0307L64.7376 20.5078L64.2147 26.4849ZM63.88 30.3103L63.3571 36.2875L69.3342 36.8104L69.8572 30.8333L63.88 30.3103ZM54.0774 29.4527L56.1552 5.70344L44.2009 4.65757L42.1231 28.4069L54.0774 29.4527ZM49.6551 11.1577L65.4349 12.5382L66.4807 0.583884L50.701 -0.796663L49.6551 11.1577ZM59.9806 6.03812L59.6459 9.86351L71.6003 10.9094L71.935 7.08399L59.9806 6.03812ZM66.146 4.40927L54.7018 3.40803L53.6559 15.3624L65.1002 16.3636L66.146 4.40927ZM48.2017 8.86226L47.669 14.951L59.6233 15.9969L60.156 9.90813L48.2017 8.86226ZM53.1232 21.4511L63.9299 22.3966L64.9758 10.4422L54.1691 9.49677L53.1232 21.4511ZM58.4757 15.8965L58.141 19.7219L70.0953 20.7677L70.43 16.9423L58.4757 15.8965ZM64.6411 14.2676L53.8344 13.3222L52.7885 25.2765L63.5952 26.222L64.6411 14.2676ZM47.3343 18.7764L46.7932 24.9608L58.7476 26.0066L59.2886 19.8223L47.3343 18.7764ZM52.2474 31.4609L63.6917 32.4621L64.7376 20.5078L53.2933 19.5065L52.2474 31.4609ZM58.2375 25.962L57.9028 29.7874L69.8572 30.8333L70.1918 27.0079L58.2375 25.962ZM64.4029 24.3332L48.6232 22.9526L47.5773 34.907L63.3571 36.2875L64.4029 24.3332ZM66.4215 30.5327L60.4444 30.0098L59.9214 35.9869L65.8986 36.5099L66.4215 30.5327ZM68.4993 6.78341L69.0223 0.80624L63.0451 0.283305L62.5222 6.26047L68.4993 6.78341ZM72.8348 7.16271L78.8119 7.68564L79.3349 1.70848L73.3577 1.18554L72.8348 7.16271ZM70.757 30.912L70.234 36.8892L76.2112 37.4121L76.7341 31.4349L70.757 30.912ZM72.3987 31.0556L74.4765 7.30634L62.5222 6.26047L60.4444 30.0098L72.3987 31.0556ZM67.9764 12.7606L72.3118 13.1399L73.3577 1.18554L69.0223 0.80624L67.9764 12.7606ZM66.8576 6.63978L64.7798 30.3891L76.7341 31.4349L78.8119 7.68564L66.8576 6.63978ZM71.2799 24.9348L66.9445 24.5555L65.8986 36.5099L70.234 36.8892L71.2799 24.9348ZM81.1743 31.2773L78.3201 36.555L78.3343 36.5626L78.3485 36.5702L81.1743 31.2773ZM77.6385 28.3661L72.9676 32.132L72.9862 32.1551L73.0051 32.178L77.6385 28.3661ZM75.4923 24.2594L69.7484 25.9937L75.4923 24.2594ZM76.3139 14.5019L70.9453 11.8226L70.9352 11.8427L70.9253 11.8629L76.3139 14.5019ZM79.1406 10.8303L75.2394 6.27165L75.2386 6.2724L79.1406 10.8303ZM83.1572 8.61189L84.9495 14.338L84.9853 14.3267L85.021 14.3151L83.1572 8.61189ZM92.4394 9.35973L89.6042 14.6476L89.6192 14.6557L89.6342 14.6636L92.4394 9.35973ZM95.6814 11.9562L91.0421 15.761L91.0635 15.7871L91.0852 15.8129L95.6814 11.9562ZM97.4192 15.2241L99.4755 20.8607L104.612 18.987L103.222 13.6993L97.4192 15.2241ZM93.3711 16.7009L87.5909 18.3099L89.3312 24.5615L95.4274 22.3375L93.3711 16.7009ZM91.3643 13.5701L87.3885 18.0637L87.4178 18.0896L87.4475 18.1152L91.3643 13.5701ZM83.5653 12.7592L80.8948 7.38634L80.8723 7.3975L80.85 7.40884L83.5653 12.7592ZM80.6656 15.4287L75.5969 12.2181L75.5749 12.2529L75.5534 12.2879L80.6656 15.4287ZM79.9042 24.1314L74.3094 26.2988L74.3316 26.3561L74.355 26.413L79.9042 24.1314ZM82.2963 27.2638L78.6931 32.0614L78.7132 32.0765L78.7333 32.0914L82.2963 27.2638ZM90.1149 27.8515L93.183 33.0077L93.2166 32.9877L93.25 32.9673L90.1149 27.8515ZM92.6376 25.0848L95.6415 19.8909L90.024 16.6421L87.2246 22.4965L92.6376 25.0848ZM96.3678 27.2422L101.818 29.7515L104.104 24.7854L99.3716 22.0482L96.3678 27.2422ZM94.0861 30.1905L97.9429 34.7868L97.9687 34.7651L97.9943 34.7432L94.0861 30.1905ZM90.4453 32.1527L88.6037 26.4422L88.5876 26.4475L88.5714 26.4528L90.4453 32.1527ZM86.3343 26.6374C85.3731 26.5533 84.6207 26.3157 84.0001 25.9844L78.3485 36.5702C80.5103 37.7244 82.8493 38.3783 85.2884 38.5917L86.3343 26.6374ZM84.0285 25.9997C83.3391 25.6268 82.7652 25.1536 82.272 24.5542L73.0051 32.178C74.4862 33.9784 76.2695 35.446 78.3201 36.555L84.0285 25.9997ZM82.3095 24.6002C81.8505 24.0309 81.4879 23.3587 81.2362 22.5251L69.7484 25.9937C70.4265 28.2395 71.4947 30.3051 72.9676 32.132L82.3095 24.6002ZM81.2362 22.5251C81.0132 21.7865 80.9091 20.9073 81.0036 19.8269L69.0493 18.781C68.8351 21.2285 69.0416 23.6529 69.7484 25.9937L81.2362 22.5251ZM81.0036 19.8269C81.1004 18.7204 81.3559 17.8482 81.7024 17.1408L70.9253 11.8629C69.8639 14.0304 69.2611 16.3596 69.0493 18.781L81.0036 19.8269ZM81.6824 17.1812C82.0761 16.3924 82.5357 15.8221 83.0427 15.3881L75.2386 6.2724C73.4306 7.82021 72.0058 9.69767 70.9453 11.8226L81.6824 17.1812ZM83.0418 15.3889C83.5995 14.9116 84.2193 14.5665 84.9495 14.338L81.365 2.88582C79.1008 3.59452 77.0429 4.72834 75.2394 6.27165L83.0418 15.3889ZM85.021 14.3151C85.6898 14.0965 86.472 13.9933 87.4332 14.0774L88.479 2.12302C86.0399 1.90962 83.6229 2.14748 81.2935 2.90869L85.021 14.3151ZM87.4332 14.0774C88.4576 14.167 89.1412 14.3994 89.6042 14.6476L95.2746 4.07184C93.1602 2.9382 90.8549 2.33088 88.479 2.12302L87.4332 14.0774ZM89.6342 14.6636C90.3126 15.0224 90.7465 15.4005 91.0421 15.761L100.321 8.15132C98.9135 6.43549 97.186 5.08268 95.2445 4.05584L89.6342 14.6636ZM91.0852 15.8129C91.4295 16.2232 91.5589 16.5307 91.6162 16.7489L103.222 13.6993C102.669 11.5941 101.64 9.7229 100.278 8.09945L91.0852 15.8129ZM95.3629 9.58744L91.3148 11.0642L95.4274 22.3375L99.4755 20.8607L95.3629 9.58744ZM99.1513 15.0918C98.4815 12.6855 97.1455 10.6315 95.2812 9.02493L87.4475 18.1152C87.5325 18.1884 87.5583 18.2292 87.5614 18.2341C87.5646 18.2391 87.5676 18.2444 87.5712 18.2526C87.5749 18.2609 87.5822 18.2789 87.5909 18.3099L99.1513 15.0918ZM95.3402 9.07642C93.2511 7.22807 90.7335 6.30341 88.1332 6.07592L87.0873 18.0303C87.3208 18.0507 87.4209 18.0896 87.4325 18.0943C87.4396 18.0972 87.4339 18.0954 87.4207 18.0872C87.4072 18.0789 87.3957 18.0701 87.3885 18.0637L95.3402 9.07642ZM88.1332 6.07592C85.666 5.86007 83.1952 6.24292 80.8948 7.38634L86.2359 18.1321C86.3534 18.0737 86.5792 17.9858 87.0873 18.0303L88.1332 6.07592ZM80.85 7.40884C78.6544 8.52308 76.8923 10.173 75.5969 12.2181L85.7344 18.6392C85.9298 18.3307 86.1008 18.2009 86.2807 18.1096L80.85 7.40884ZM75.5534 12.2879C74.2524 14.4054 73.5946 16.7609 73.3847 19.1603L85.339 20.2062C85.4192 19.2903 85.6306 18.8093 85.7779 18.5695L75.5534 12.2879ZM73.3847 19.1603C73.1745 21.5631 73.415 23.9899 74.3094 26.2988L85.4991 21.9641C85.3803 21.6574 85.2592 21.1187 85.339 20.2062L73.3847 19.1603ZM74.355 26.413C75.2755 28.652 76.7245 30.5829 78.6931 32.0614L85.8995 22.4662C85.7382 22.3451 85.5924 22.1876 85.4535 21.8499L74.355 26.413ZM78.7333 32.0914C80.8003 33.6169 83.1671 34.423 85.6343 34.6388L86.6801 22.6845C86.172 22.64 85.9649 22.5142 85.8594 22.4363L78.7333 32.0914ZM85.6343 34.6388C88.1987 34.8632 90.813 34.4179 93.183 33.0077L87.0468 22.6953C87.073 22.6796 87.0934 22.6763 87.075 22.68C87.0488 22.6854 86.9283 22.7062 86.6801 22.6845L85.6343 34.6388ZM93.25 32.9673C95.327 31.6944 96.98 29.9121 98.0506 27.6732L87.2246 22.4965C87.1944 22.5597 87.1656 22.6219 86.9798 22.7357L93.25 32.9673ZM89.6337 30.2788L93.3639 32.4361L99.3716 22.0482L95.6415 19.8909L89.6337 30.2788ZM90.9177 24.7328C90.8168 24.9519 90.6194 25.259 90.178 25.6379L97.9943 34.7432C99.5904 33.373 100.914 31.7144 101.818 29.7515L90.9177 24.7328ZM90.2294 25.5943C89.8713 25.8948 89.3624 26.1976 88.6037 26.4422L92.2868 37.8631C94.3488 37.1981 96.2672 36.1928 97.9429 34.7868L90.2294 25.5943ZM88.5714 26.4528C88.0723 26.6169 87.3588 26.727 86.3343 26.6374L85.2884 38.5917C87.6643 38.7996 90.04 38.6018 92.3191 37.8525L88.5714 26.4528ZM22.2452 58.2118L19.0021 63.2598L19.0529 63.2925L19.1044 63.3241L22.2452 58.2118ZM19.5438 55.3093L14.1793 57.9966L14.1979 58.0337L14.2169 58.0705L19.5438 55.3093ZM20.428 47.7737L24.8194 51.8622L24.839 51.8411L24.8583 51.8199L20.428 47.7737ZM24.2394 45.698L29.9251 47.6144L33.3539 37.4418L22.8928 39.851L24.2394 45.698ZM23.8923 46.7277L21.5688 52.2595L27.5173 54.758L29.578 48.6441L23.8923 46.7277ZM21.3986 44.3894L16.0279 47.0644L16.0476 47.1039L16.0679 47.1431L21.3986 44.3894ZM21.9927 37.5994L26.7136 41.3025L21.9927 37.5994ZM24.8394 35.5356L27.0024 41.1322L27.0024 41.1322L24.8394 35.5356ZM32.5539 36.2105L29.4131 41.3228L29.4325 41.3347L29.4519 41.3465L32.5539 36.2105ZM34.999 38.7373L29.7068 41.5644L29.7282 41.6043L29.7501 41.644L34.999 38.7373ZM34.4022 45.5592L29.6306 41.9216L29.6206 41.9347L29.6107 41.9479L34.4022 45.5592ZM31.5722 47.4317L25.6086 48.0911L26.3598 54.8852L32.9992 53.2595L31.5722 47.4317ZM31.4467 46.2964L33.9214 40.8305L24.3253 36.4858L25.483 46.9559L31.4467 46.2964ZM34.8342 49.0662L29.7685 52.2816L29.7839 52.3059L29.7995 52.33L34.8342 49.0662ZM34.3644 56.6381L29.5979 52.9938L29.5886 53.006L29.5793 53.0183L34.3644 56.6381ZM31.2029 58.9955L33.4459 64.5605L33.464 64.5532L33.482 64.5458L31.2029 58.9955ZM29.1838 55.6387L31.3115 61.2488L31.3888 61.2195L31.4654 61.188L29.1838 55.6387ZM30.7327 54.4572L35.5491 58.0352L35.579 57.995L35.6082 57.9543L30.7327 54.4572ZM31.0702 50.6L25.7056 53.2872L25.7293 53.3346L25.7539 53.3815L31.0702 50.6ZM29.7472 49.1993L26.5367 54.2681L26.6066 54.3124L26.6777 54.3547L29.7472 49.1993ZM25.4118 48.82L27.6171 54.4L27.6553 54.3849L27.6933 54.3693L25.4118 48.82ZM23.8976 49.9725L28.6501 53.6349L28.6824 53.593L28.714 53.5504L23.8976 49.9725ZM23.5601 53.8297L18.1514 56.427L18.1731 56.4722L18.1955 56.517L23.5601 53.8297ZM24.8484 55.2594L21.5649 60.2813L21.6705 60.3503L21.7789 60.4148L24.8484 55.2594ZM29.6041 44.5933L32.1946 50.0053L32.1946 50.0053L29.6041 44.5933ZM30.7828 43.6043L25.9029 40.1133L25.8775 40.1489L25.8526 40.1848L30.7828 43.6043ZM31.0589 40.4484L25.5611 42.8515L25.6272 43.0026L25.7015 43.1498L31.0589 40.4484ZM30.0698 39.2697L26.5789 44.1495L26.6627 44.2095L26.7486 44.2666L30.0698 39.2697ZM26.7864 38.9824L29.1895 44.4802L29.231 44.462L29.2723 44.4432L26.7864 38.9824ZM25.5758 39.9687L20.696 36.4777L20.6705 36.5132L20.6456 36.5491L25.5758 39.9687ZM25.2997 43.1246L19.802 45.5277L19.868 45.6788L19.9423 45.8261L25.2997 43.1246ZM26.3206 44.3061L22.8297 49.1859L22.8766 49.2196L22.9243 49.2523L26.3206 44.3061ZM27.1793 53.5842C26.1956 53.4982 25.6636 53.2701 25.386 53.0995L19.1044 63.3241C21.2654 64.6518 23.6742 65.3234 26.1334 65.5386L27.1793 53.5842ZM25.4882 53.1638C25.0998 52.9142 24.9533 52.7074 24.8707 52.5481L14.2169 58.0705C15.3437 60.2442 16.9981 61.9723 19.0021 63.2598L25.4882 53.1638ZM24.9084 52.6221C24.8304 52.4663 24.7988 52.3384 24.8189 52.1089L12.8645 51.063C12.654 53.4688 13.0905 55.8231 14.1793 57.9966L24.9084 52.6221ZM24.8189 52.1089C24.8295 51.987 24.8451 51.9027 24.8575 51.8502C24.8697 51.7982 24.8792 51.7753 24.8796 51.7744C24.8798 51.7741 24.874 51.7876 24.8603 51.809C24.8465 51.8305 24.8316 51.8491 24.8194 51.8622L16.0366 43.6852C14.0693 45.7983 13.0983 48.3904 12.8645 51.063L24.8189 52.1089ZM24.8583 51.8199C24.8467 51.8327 24.8594 51.8112 24.9432 51.7655C25.0351 51.7155 25.2325 51.6263 25.586 51.5449L22.8928 39.851C20.3439 40.4381 17.9031 41.6411 15.9976 43.7275L24.8583 51.8199ZM18.5537 43.7816L18.2066 44.8112L29.578 48.6441L29.9251 47.6144L18.5537 43.7816ZM26.2159 41.1958C26.2979 41.2303 26.4256 41.303 26.5519 41.4213C26.6102 41.476 26.6546 41.5278 26.6859 41.5699C26.7169 41.6115 26.7297 41.6363 26.7294 41.6357L16.0679 47.1431C17.252 49.4354 19.1193 51.2306 21.5688 52.2595L26.2159 41.1958ZM26.7693 41.7144C26.7296 41.6346 26.7046 41.5694 26.7207 41.3858L14.7663 40.34C14.563 42.6642 14.9748 44.9499 16.0279 47.0644L26.7693 41.7144ZM26.7207 41.3858C26.7259 41.326 26.733 41.2881 26.7374 41.2688C26.7416 41.2498 26.744 41.2453 26.7416 41.2515C26.7391 41.2579 26.7343 41.2688 26.7273 41.2813C26.7202 41.2937 26.7146 41.3012 26.7136 41.3025L17.2718 33.8962C15.7765 35.8025 14.9696 38.0167 14.7663 40.34L26.7207 41.3858ZM26.7136 41.3025C26.7201 41.2942 26.7569 41.227 27.0024 41.1322L22.6764 29.9391C20.5724 30.7522 18.7115 32.0608 17.2718 33.8962L26.7136 41.3025ZM27.0024 41.1322C27.1896 41.0598 27.5708 40.9623 28.2781 41.0242L29.324 29.0699C27.0985 28.8752 24.8386 29.1034 22.6764 29.9391L27.0024 41.1322ZM28.2781 41.0242C28.9524 41.0832 29.2742 41.2375 29.4131 41.3228L35.6947 31.0983C33.7201 29.8851 31.54 29.2637 29.324 29.0699L28.2781 41.0242ZM29.4519 41.3465C29.6772 41.4825 29.7019 41.5551 29.7068 41.5644L40.2912 35.9101C39.1921 33.8527 37.5867 32.2408 35.6559 31.0746L29.4519 41.3465ZM29.7501 41.644C29.7489 41.6417 29.7432 41.6309 29.7366 41.613C29.7334 41.6044 29.7305 41.5955 29.728 41.5866C29.7254 41.5777 29.7235 41.5697 29.7222 41.563C29.7193 41.5489 29.7199 41.5455 29.7204 41.5561C29.721 41.567 29.7217 41.5967 29.7172 41.648L41.6716 42.6939C41.8784 40.3295 41.4376 37.9789 40.2479 35.8306L29.7501 41.644ZM29.7172 41.648C29.707 41.7652 29.6878 41.8199 29.6815 41.8363C29.6758 41.8512 29.6652 41.8763 29.6306 41.9216L39.1738 49.1968C40.637 47.2773 41.4646 45.0589 41.6716 42.6939L29.7172 41.648ZM29.6107 41.9479C29.6302 41.922 29.7038 41.836 29.8387 41.7467C29.9744 41.657 30.0921 41.6168 30.1452 41.6038L32.9992 53.2595C35.5189 52.6425 37.6446 51.2258 39.1936 49.1705L29.6107 41.9479ZM37.5359 46.7722L37.4103 45.637L25.483 46.9559L25.6086 48.0911L37.5359 46.7722ZM28.972 51.7623C29.3274 51.9232 29.5319 52.064 29.6388 52.1514C29.7395 52.2337 29.7667 52.2787 29.7685 52.2816L39.8998 45.8508C38.4132 43.5086 36.2724 41.895 33.9214 40.8305L28.972 51.7623ZM29.7995 52.33C29.7898 52.315 29.7783 52.2941 29.7685 52.2705C29.7587 52.2471 29.7554 52.2328 29.7554 52.2331C29.7557 52.234 29.7611 52.2583 29.7641 52.3115C29.7672 52.3655 29.7679 52.4512 29.7572 52.5731L41.7115 53.6189C41.9454 50.9463 41.4393 48.225 39.8688 45.8024L29.7995 52.33ZM29.7572 52.5731C29.7404 52.7645 29.6995 52.861 29.5979 52.9938L39.1309 60.2823C40.6254 58.3277 41.4977 56.0627 41.7115 53.6189L29.7572 52.5731ZM29.5793 53.0183C29.5282 53.0859 29.3873 53.2549 28.9239 53.4452L33.482 64.5458C35.6841 63.6416 37.6509 62.239 39.1495 60.2578L29.5793 53.0183ZM28.9599 53.4305C28.7016 53.5346 28.1666 53.6706 27.1793 53.5842L26.1334 65.5386C28.5889 65.7534 31.085 65.5121 33.4459 64.5605L28.9599 53.4305ZM26.4541 61.8726C27.9958 62.0074 29.665 61.8733 31.3115 61.2488L27.0562 50.0287C27.418 49.8914 27.6159 49.9284 27.5 49.9182L26.4541 61.8726ZM31.4654 61.188C33.0452 60.5385 34.4652 59.4943 35.5491 58.0352L25.9163 50.8793C26.0558 50.6914 26.2257 50.5188 26.4152 50.3742C26.6026 50.2312 26.7748 50.1419 26.9023 50.0895L31.4654 61.188ZM35.6082 57.9543C36.6777 56.4632 37.2411 54.7827 37.39 53.0802L25.4357 52.0344C25.4454 51.9236 25.4737 51.7551 25.5465 51.5519C25.6202 51.3459 25.7257 51.1436 25.8572 50.9602L35.6082 57.9543ZM37.39 53.0802C37.5368 51.4023 37.3006 49.5656 36.3864 47.8184L25.7539 53.3815C25.4268 52.7565 25.4191 52.2246 25.4357 52.0344L37.39 53.0802ZM36.4347 47.9127C35.6008 46.2479 34.3354 44.9482 32.8167 44.0439L26.6777 54.3547C26.5294 54.2664 26.3447 54.1299 26.1588 53.9331C25.9712 53.7344 25.8185 53.5126 25.7056 53.2872L36.4347 47.9127ZM32.9577 44.1306C31.4156 43.1538 29.744 42.6943 28.1442 42.5544L27.0984 54.5087C27.1563 54.5138 26.9019 54.4995 26.5367 54.2681L32.9577 44.1306ZM28.1442 42.5544C26.5445 42.4144 24.8185 42.5766 23.1302 43.2708L27.6933 54.3693C27.2934 54.5337 27.0405 54.5036 27.0984 54.5087L28.1442 42.5544ZM23.2064 43.24C21.5733 43.8855 20.1539 44.9503 19.0811 46.3945L28.714 53.5504C28.5812 53.7292 28.4092 53.9084 28.2011 54.0668C27.9939 54.2245 27.7903 54.3316 27.6171 54.4L23.2064 43.24ZM19.145 46.31C17.9414 47.8718 17.3898 49.6397 17.243 51.3176L29.1973 52.3635C29.1807 52.5537 29.0807 53.0762 28.6501 53.6349L19.145 46.31ZM17.243 51.3176C17.0941 53.02 17.3571 54.7729 18.1514 56.427L28.9688 51.2324C29.0665 51.4358 29.1351 51.6534 29.172 51.8691C29.2084 52.0819 29.207 52.2527 29.1973 52.3635L17.243 51.3176ZM18.1955 56.517C18.982 58.0871 20.1474 59.3544 21.5649 60.2813L28.1319 50.2376C28.2569 50.3194 28.4078 50.4404 28.5583 50.6074C28.7098 50.7756 28.8329 50.9592 28.9247 51.1425L18.1955 56.517ZM21.7789 60.4148C23.2919 61.3157 24.9124 61.7377 26.4541 61.8726L27.5 49.9182C27.384 49.9081 27.5854 49.9061 27.9179 50.104L21.7789 60.4148ZM27.4191 50.8427C28.958 50.9773 30.6093 50.7642 32.1946 50.0053L27.0135 39.1814C27.6155 38.8933 28.1587 38.8616 28.465 38.8884L27.4191 50.8427ZM32.1946 50.0053C33.5709 49.3465 34.7913 48.3526 35.713 47.0238L25.8526 40.1848C26.1861 39.7039 26.6207 39.3694 27.0135 39.1814L32.1946 50.0053ZM35.6626 47.0953C36.6635 45.6963 37.1774 44.1289 37.3138 42.5696L25.3595 41.5237C25.3918 41.1546 25.5365 40.6256 25.9029 40.1133L35.6626 47.0953ZM37.3138 42.5696C37.4498 41.0153 37.2206 39.3418 36.4163 37.7469L25.7015 43.1498C25.3717 42.4958 25.3276 41.8879 25.3595 41.5237L37.3138 42.5696ZM36.5566 38.0453C35.8811 36.4998 34.7958 35.2064 33.3911 34.2728L26.7486 44.2666C26.2344 43.9248 25.8085 43.4172 25.5611 42.8515L36.5566 38.0453ZM33.5608 34.3898C32.1313 33.3672 30.5421 32.8705 29.0033 32.7359L27.9574 44.6902C27.6511 44.6634 27.1216 44.5378 26.5789 44.1495L33.5608 34.3898ZM29.0033 32.7359C27.4595 32.6008 25.8452 32.8184 24.3005 33.5216L29.2723 44.4432C28.7535 44.6794 28.2685 44.7174 27.9574 44.6902L29.0033 32.7359ZM24.3833 33.4847C22.8817 34.1411 21.6296 35.1725 20.696 36.4777L30.4557 43.4596C30.1564 43.878 29.7114 44.252 29.1895 44.4802L24.3833 33.4847ZM20.6456 36.5491C19.6683 37.9582 19.208 39.5049 19.0795 40.9743L31.0338 42.0202C31.0094 42.2995 30.8952 42.8271 30.506 43.3882L20.6456 36.5491ZM19.0795 40.9743C18.9504 42.45 19.1404 44.0141 19.802 45.5277L30.7975 40.7215C31.0308 41.2554 31.0588 41.7345 31.0338 42.0202L19.0795 40.9743ZM19.9423 45.8261C20.6318 47.1935 21.6255 48.3245 22.8297 49.1859L29.8116 39.4262C30.129 39.6533 30.4421 39.9967 30.6571 40.4231L19.9423 45.8261ZM22.9243 49.2523C24.3234 50.213 25.8754 50.7076 27.4191 50.8427L28.465 38.8884C28.7761 38.9156 29.2471 39.0373 29.717 39.3599L22.9243 49.2523ZM42.014 60.1983L39.2395 65.5183L39.257 65.5274L39.2745 65.5364L42.014 60.1983ZM39.2541 57.9653L34.5148 61.6448L34.5614 61.7048L34.6094 61.7635L39.2541 57.9653ZM37.867 54.7281L36.3553 48.9216L31.0863 50.2933L31.9414 55.6704L37.867 54.7281ZM41.7458 53.7183L47.5816 52.3242L46.1591 46.3693L40.2341 47.9118L41.7458 53.7183ZM43.2871 56.2944L39.5651 61.0004L39.6088 61.035L39.6532 61.0688L43.2871 56.2944ZM48.0784 56.9706L50.508 62.4567L50.5392 62.4429L50.5702 62.4287L48.0784 56.9706ZM49.6731 55.6325L54.6539 58.9778L54.6777 58.9424L54.701 58.9067L49.6731 55.6325ZM50.0233 51.2624L44.5372 53.6919L44.5689 53.7634L44.6024 53.834L50.0233 51.2624ZM48.7143 49.7023L45.2404 54.5944L45.3041 54.6396L45.369 54.6832L48.7143 49.7023ZM44.3151 49.3175L41.9727 43.7936L41.936 43.8091L41.8996 43.8252L44.3151 49.3175ZM42.7439 50.754L40.9204 56.4702L45.6378 57.975L48.0103 53.6288L42.7439 50.754ZM39.2751 49.6475L33.4315 48.2865L32.1753 53.6805L37.4517 55.3637L39.2751 49.6475ZM42.3106 36.6144L42.8335 30.6373L37.6478 30.1836L36.467 35.2534L42.3106 36.6144ZM55.2532 37.7468L61.2303 38.2697L61.7533 32.2925L55.7761 31.7696L55.2532 37.7468ZM54.9324 41.4127L54.4095 47.3899L60.3867 47.9129L60.9096 41.9357L54.9324 41.4127ZM43.7113 40.431L39.5313 36.1266L30.1209 45.2649L43.1884 46.4082L43.7113 40.431ZM45.5016 38.6925L51.3556 40.0081L55.7727 20.3548L41.3217 34.388L45.5016 38.6925ZM43.2926 48.5213L39.0969 52.8104L46.7875 60.3335L49.1466 49.837L43.2926 48.5213ZM42.1386 47.3924L37.4975 43.5897L34.0154 47.8395L37.9429 51.6815L42.1386 47.3924ZM44.4736 45.6694L42.4349 40.0264L42.4081 40.0361L42.3815 40.046L44.4736 45.6694ZM51.6737 46.7169L48.1767 51.5924L48.1962 51.6064L48.2159 51.6203L51.6737 46.7169ZM54.1407 49.7274L59.6385 47.3243L59.6385 47.3243L54.1407 49.7274ZM53.2646 57.9062L48.4172 54.3702L48.4172 54.3702L53.2646 57.9062ZM49.9824 60.5421L47.5601 55.0528L49.9824 60.5421ZM46.0778 55.2376C45.5878 55.1948 45.1613 55.0695 44.7535 54.8602L39.2745 65.5364C41.0801 66.463 43.0142 67.0154 45.032 67.192L46.0778 55.2376ZM44.7885 54.8783C44.4029 54.6773 44.1252 54.4438 43.8988 54.167L34.6094 61.7635C35.892 63.332 37.4541 64.5872 39.2395 65.5183L44.7885 54.8783ZM43.9934 54.2858C43.9023 54.1684 43.8326 54.038 43.7925 53.7857L31.9414 55.6704C32.2881 57.8504 33.1432 59.8782 34.5148 61.6448L43.9934 54.2858ZM39.3786 60.5345L43.2574 59.5247L40.2341 47.9118L36.3553 48.9216L39.3786 60.5345ZM35.9099 55.1123C36.4302 57.2901 37.5639 59.4177 39.5651 61.0004L47.0091 51.5884C47.2165 51.7524 47.3753 51.9437 47.4797 52.1183C47.5783 52.283 47.5932 52.3732 47.5816 52.3242L35.9099 55.1123ZM39.6532 61.0688C41.3407 62.3533 43.2956 63.089 45.375 63.2709L46.4209 51.3166C46.4579 51.3198 46.5444 51.3332 46.6569 51.3763C46.7703 51.4197 46.8614 51.4746 46.921 51.52L39.6532 61.0688ZM45.375 63.2709C47.0421 63.4168 48.8061 63.2103 50.508 62.4567L45.6488 51.4845C45.8392 51.4002 46.0193 51.353 46.169 51.3308C46.3149 51.3092 46.4046 51.3152 46.4209 51.3166L45.375 63.2709ZM50.5702 62.4287C52.205 61.6824 53.6154 60.524 54.6539 58.9778L44.6922 52.2872C44.8036 52.1214 44.9485 51.9564 45.1222 51.8107C45.2946 51.666 45.4589 51.5708 45.5865 51.5125L50.5702 62.4287ZM54.701 58.9067C55.7086 57.3593 56.2071 55.6649 56.3527 54.0004L44.3984 52.9546C44.398 52.9598 44.4033 52.894 44.441 52.7783C44.4799 52.6592 44.5449 52.5123 44.6452 52.3583L54.701 58.9067ZM56.3527 54.0004C56.5031 52.2814 56.2777 50.4476 55.4442 48.6907L44.6024 53.834C44.5009 53.6201 44.4436 53.4155 44.4164 53.2445C44.3899 53.0782 44.3966 52.9747 44.3984 52.9546L56.3527 54.0004ZM55.5094 48.8328C54.7647 47.1513 53.5862 45.7468 52.0596 44.7215L45.369 54.6832C45.2138 54.579 45.0437 54.4335 44.8852 54.2445C44.7266 54.0556 44.6129 53.8629 44.5372 53.6919L55.5094 48.8328ZM52.1882 44.8103C50.6249 43.7002 48.8775 43.1476 47.1488 42.9964L46.1029 54.9507C46.0596 54.9469 45.9425 54.9316 45.7768 54.8737C45.6071 54.8145 45.4211 54.7227 45.2404 54.5944L52.1882 44.8103ZM47.1488 42.9964C45.4187 42.845 43.6562 43.0797 41.9727 43.7936L46.6575 54.8413C46.5428 54.89 46.4227 54.923 46.3098 54.9398C46.1989 54.9563 46.1254 54.9527 46.1029 54.9507L47.1488 42.9964ZM41.8996 43.8252C40.0119 44.6554 38.478 46.0464 37.4775 47.8791L48.0103 53.6288C47.8875 53.8539 47.7042 54.1029 47.4531 54.3325C47.2027 54.5615 46.9463 54.7149 46.7306 54.8098L41.8996 43.8252ZM44.5674 45.0378L41.0986 43.9313L37.4517 55.3637L40.9204 56.4702L44.5674 45.0378ZM45.1187 51.0085L48.1542 37.9754L36.467 35.2534L33.4315 48.2865L45.1187 51.0085ZM41.7877 42.5916L54.7302 43.7239L55.7761 31.7696L42.8335 30.6373L41.7877 42.5916ZM49.276 37.2238L48.9553 40.8898L60.9096 41.9357L61.2303 38.2697L49.276 37.2238ZM55.4554 35.4356L44.2342 34.4539L43.1884 46.4082L54.4095 47.3899L55.4554 35.4356ZM47.8913 44.7354L49.6816 42.9969L41.3217 34.388L39.5313 36.1266L47.8913 44.7354ZM39.6477 37.3768L37.4386 47.2056L49.1466 49.837L51.3556 40.0081L39.6477 37.3768ZM47.4883 44.2322L46.3343 43.1034L37.9429 51.6815L39.0969 52.8104L47.4883 44.2322ZM46.7796 51.1952C46.8293 51.1346 46.8357 51.1402 46.7883 51.1751C46.7378 51.2124 46.6605 51.2576 46.5658 51.2928L42.3815 40.046C40.3837 40.7893 38.7588 42.0504 37.4975 43.5897L46.7796 51.1952ZM46.5123 51.3124C46.4018 51.3524 46.5579 51.2644 47.1596 51.317L48.2055 39.3627C46.342 39.1996 44.3588 39.3313 42.4349 40.0264L46.5123 51.3124ZM47.1596 51.317C47.8536 51.3777 48.1086 51.5436 48.1767 51.5924L55.1708 41.8414C53.0626 40.3293 50.6569 39.5771 48.2055 39.3627L47.1596 51.317ZM48.2159 51.6203C48.4445 51.7815 48.5538 51.9264 48.643 52.1305L59.6385 47.3243C58.6571 45.0791 57.1217 43.217 55.1316 41.8135L48.2159 51.6203ZM48.643 52.1305C48.7197 52.306 48.8253 52.6559 48.7657 53.3367L60.7201 54.3825C60.9282 52.003 60.6324 49.5981 59.6385 47.3243L48.643 52.1305ZM48.7657 53.3367C48.7209 53.8496 48.5841 54.1414 48.4172 54.3702L58.112 61.4421C59.6484 59.3358 60.4972 56.9299 60.7201 54.3825L48.7657 53.3367ZM48.4172 54.3702C48.1949 54.6749 47.9414 54.8846 47.5601 55.0528L52.4047 66.0314C54.6963 65.0202 56.6309 63.4725 58.112 61.4421L48.4172 54.3702ZM47.5601 55.0528C47.247 55.191 46.7987 55.3007 46.0778 55.2376L45.032 67.192C47.5414 67.4115 50.0448 67.0728 52.4047 66.0314L47.5601 55.0528ZM61.5078 61.0686L57.6017 65.623L61.5078 61.0686ZM58.5371 56.4722L52.8321 58.3303L52.8411 58.3579L52.8503 58.3855L58.5371 56.4722ZM59.6639 43.5934L54.38 40.7508L54.38 40.7508L59.6639 43.5934ZM63.3529 39.6118L60.297 34.4483L60.297 34.4483L63.3529 39.6118ZM73.3308 40.4847L69.3923 45.0111L69.4085 45.0252L69.4247 45.0391L73.3308 40.4847ZM76.3015 45.0812L70.6147 46.9944L70.6188 47.0065L70.6229 47.0186L76.3015 45.0812ZM75.1776 57.9281L69.9094 55.0564L69.9015 55.0709L69.8937 55.0855L75.1776 57.9281ZM71.4857 61.9416L74.5416 67.1051L74.5669 67.0901L74.5921 67.0749L71.4857 61.9416ZM69.5845 58.3382L73.0885 63.2087L73.1268 63.1811L73.1647 63.153L69.5845 58.3382ZM71.5888 55.6225L66.096 53.2084L66.0836 53.2365L66.0715 53.2648L71.5888 55.6225ZM72.367 46.7285L66.5172 48.0629L66.5309 48.1229L66.5459 48.1826L72.367 46.7285ZM70.8328 43.7033L66.5363 47.8914L66.5646 47.9204L66.5933 47.9491L70.8328 43.7033ZM65.286 43.218L61.782 38.3475L61.782 38.3475L65.286 43.218ZM63.2498 45.9308L57.7569 43.5167L57.7445 43.5449L57.7324 43.5732L63.2498 45.9308ZM62.4745 54.793L56.6247 56.1274L56.6384 56.1874L56.6533 56.2471L62.4745 54.793ZM64.0086 57.8182L59.6468 61.9382L59.6748 61.9678L59.7031 61.9971L64.0086 57.8182ZM66.8699 57.0567C66.1219 56.9913 65.72 56.7768 65.4139 56.5143L57.6017 65.623C59.9649 67.6498 62.7891 68.7455 65.824 69.011L66.8699 57.0567ZM65.4139 56.5143C65.018 56.1747 64.5782 55.612 64.2239 54.559L52.8503 58.3855C53.7877 61.1716 55.3283 63.6732 57.6017 65.623L65.4139 56.5143ZM64.2422 54.6142C63.9154 53.6107 63.7398 52.2624 63.8982 50.4526L51.9438 49.4067C51.6745 52.4849 51.9098 55.4983 52.8321 58.3303L64.2422 54.6142ZM63.8982 50.4526C64.0593 48.6112 64.4684 47.3271 64.9478 46.436L54.38 40.7508C52.9669 43.3775 52.2141 46.3176 51.9438 49.4067L63.8982 50.4526ZM64.9478 46.436C65.4483 45.5055 65.9583 45.0419 66.4089 44.7753L60.297 34.4483C57.7213 35.9727 55.7719 38.1635 54.38 40.7508L64.9478 46.436ZM66.4088 44.7753C66.7559 44.5699 67.1889 44.4285 67.9369 44.4939L68.9827 32.5396C65.9478 32.274 62.9763 32.8626 60.297 34.4483L66.4088 44.7753ZM67.9369 44.4939C68.7599 44.5659 69.1447 44.7957 69.3923 45.0111L77.2693 35.9584C74.8901 33.8881 72.0276 32.8059 68.9827 32.5396L67.9369 44.4939ZM69.4247 45.0391C69.8206 45.3787 70.2605 45.9413 70.6147 46.9944L81.9883 43.1679C81.0509 40.3818 79.5103 37.8802 77.2369 35.9304L69.4247 45.0391ZM70.6229 47.0186C70.9478 47.9708 71.132 49.2785 70.9751 51.0717L82.9295 52.1176C83.2002 49.0228 82.9506 45.9881 81.9801 43.1437L70.6229 47.0186ZM70.9751 51.0717C70.8185 52.8626 70.4088 54.1402 69.9094 55.0564L80.4457 60.7998C81.885 58.1594 82.6585 55.2147 82.9295 52.1176L70.9751 51.0717ZM69.8937 55.0855C69.3891 56.0233 68.8639 56.5151 68.3794 56.8083L74.5921 67.0749C77.1375 65.5345 79.0735 63.3506 80.4615 60.7707L69.8937 55.0855ZM68.4298 56.7781C68.0952 56.9761 67.6547 57.1254 66.8699 57.0567L65.824 69.011C68.8646 69.2771 71.8499 68.6981 74.5416 67.1051L68.4298 56.7781ZM66.2017 65.0609C68.6033 65.271 71.0098 64.7042 73.0885 63.2087L66.0806 53.4676C66.2518 53.3445 66.4795 53.2302 66.7389 53.1625C66.992 53.0966 67.1769 53.1004 67.2476 53.1066L66.2017 65.0609ZM73.1647 63.153C75.04 61.7586 76.2872 59.8968 77.1062 57.9802L66.0715 53.2648C65.9703 53.5016 65.8956 53.6106 65.8765 53.6364C65.8611 53.6574 65.8986 53.602 66.0044 53.5234L73.1647 63.153ZM77.0817 58.0367C77.9457 56.071 78.4025 53.9272 78.594 51.7383L66.6397 50.6924C66.53 51.9463 66.3015 52.7407 66.096 53.2084L77.0817 58.0367ZM78.594 51.7383C78.7852 49.5535 78.7089 47.3594 78.1881 45.2744L66.5459 48.1826C66.6594 48.6372 66.7498 49.4344 66.6397 50.6924L78.594 51.7383ZM78.2167 45.3941C77.7416 43.3113 76.7996 41.1823 75.0723 39.4575L66.5933 47.9491C66.5324 47.8882 66.4873 47.8326 66.4563 47.7892C66.4256 47.7463 66.4123 47.7203 66.4116 47.719C66.4112 47.7182 66.4237 47.7427 66.4435 47.7992C66.4634 47.856 66.4897 47.9422 66.5172 48.0629L78.2167 45.3941ZM75.1293 39.5152C73.3213 37.6604 71.0279 36.7016 68.6369 36.4925L67.591 48.4468C67.5442 48.4427 67.3752 48.4196 67.1433 48.3144C66.9039 48.2058 66.6939 48.0531 66.5363 47.8914L75.1293 39.5152ZM68.6369 36.4925C66.2245 36.2814 63.8361 36.8697 61.782 38.3475L68.79 48.0885C68.6309 48.2029 68.4089 48.3175 68.145 48.3873C67.8856 48.456 67.686 48.4551 67.591 48.4468L68.6369 36.4925ZM61.782 38.3475C59.858 39.7317 58.5923 41.6159 57.7569 43.5167L68.7427 48.345C68.8563 48.0865 68.9386 47.9686 68.9586 47.9419C68.9748 47.9203 68.9253 47.9912 68.79 48.0885L61.782 38.3475ZM57.7324 43.5732C56.9051 45.5093 56.4682 47.6263 56.2793 49.786L68.2336 50.8319C68.3459 49.5487 68.5712 48.747 68.7672 48.2885L57.7324 43.5732ZM56.2793 49.786C56.0911 51.9372 56.1582 54.0822 56.6247 56.1274L68.3242 53.4586C68.2026 52.9254 68.1243 52.081 68.2336 50.8319L56.2793 49.786ZM56.6533 56.2471C57.1532 58.2481 58.0659 60.2645 59.6468 61.9382L68.3705 53.6983C68.5402 53.8779 68.4301 53.8775 68.2956 53.3389L56.6533 56.2471ZM59.7031 61.9971C61.4795 63.8273 63.7486 64.8463 66.2017 65.0609L67.2476 53.1066C67.3401 53.1147 67.5314 53.1479 67.7669 53.2577C68.0059 53.369 68.1919 53.5134 68.3141 53.6394L59.7031 61.9971Z" fill="white" mask="url(#path-1-outside-1_9400_844)"/>
</svg>
