<svg width="140" height="180" viewBox="0 0 140 180" fill="none" xmlns="http://www.w3.org/2000/svg">
<rect x="0.5" y="0.5" width="139" height="179" rx="9.5" fill="white" stroke="#BBBBBB"/>
<path d="M17.54 31V16.1H22.42C23.9667 16.1 25.3067 16.4133 26.44 17.04C27.5867 17.6533 28.4733 18.52 29.1 19.64C29.7267 20.76 30.04 22.06 30.04 23.54C30.04 25.0067 29.7267 26.3067 29.1 27.44C28.4733 28.56 27.5867 29.4333 26.44 30.06C25.3067 30.6867 23.9667 31 22.42 31H17.54ZM19.9 28.9H22.46C23.5133 28.9 24.4267 28.68 25.2 28.24C25.9867 27.8 26.5933 27.18 27.02 26.38C27.4467 25.58 27.66 24.6333 27.66 23.54C27.66 22.4467 27.44 21.5067 27 20.72C26.5733 19.92 25.9733 19.3 25.2 18.86C24.4267 18.42 23.5133 18.2 22.46 18.2H19.9V28.9ZM32.1642 31V16.1H41.9842V18.2H34.5242V22.48H41.5842V24.58H34.5242V28.9H41.9842V31H32.1642ZM46.6159 31V18.2H42.6559V16.1H52.8559V18.2H48.9559V31H46.6159Z" fill="black"/>
<circle cx="24" cy="88" r="8" fill="#EEEEEE"/>
<rect x="40" y="82" width="43" height="5" rx="2.5" fill="#EEEEEE"/>
<rect x="40" y="92" width="84" height="3" rx="1.5" fill="#EEEEEE"/>
<circle cx="24" cy="120" r="8" fill="#EEEEEE"/>
<rect x="40" y="114" width="43" height="5" rx="2.5" fill="#EEEEEE"/>
<rect x="40" y="124" width="84" height="3" rx="1.5" fill="#EEEEEE"/>
<circle cx="24" cy="152" r="8" fill="#EEEEEE"/>
<rect x="40" y="146" width="43" height="5" rx="2.5" fill="#EEEEEE"/>
<rect x="40" y="156" width="84" height="3" rx="1.5" fill="#EEEEEE"/>
</svg>
