<svg width="140" height="180" viewBox="0 0 140 180" fill="none" xmlns="http://www.w3.org/2000/svg">
<rect x="0.5" y="0.5" width="139" height="179" rx="9.5" fill="white" stroke="#BBBBBB"/>
<path d="M24.52 31.24C23.4667 31.24 22.4867 31.0467 21.58 30.66C20.6867 30.2733 19.9 29.74 19.22 29.06C18.5533 28.3667 18.0333 27.5533 17.66 26.62C17.2867 25.6867 17.1 24.66 17.1 23.54C17.1 22.4333 17.28 21.4133 17.64 20.48C18.0133 19.5333 18.5333 18.72 19.2 18.04C19.8667 17.3467 20.6467 16.8133 21.54 16.44C22.4333 16.0533 23.4133 15.86 24.48 15.86C25.5333 15.86 26.4733 16.04 27.3 16.4C28.14 16.76 28.8467 17.2333 29.42 17.82C29.9933 18.3933 30.4067 19.02 30.66 19.7L28.56 20.72C28.2533 19.9067 27.7467 19.2533 27.04 18.76C26.3333 18.2533 25.48 18 24.48 18C23.4933 18 22.62 18.2333 21.86 18.7C21.1 19.1667 20.5067 19.8133 20.08 20.64C19.6667 21.4667 19.46 22.4333 19.46 23.54C19.46 24.6467 19.6733 25.62 20.1 26.46C20.54 27.2867 21.14 27.9333 21.9 28.4C22.66 28.8533 23.5333 29.08 24.52 29.08C25.3467 29.08 26.1 28.9133 26.78 28.58C27.4733 28.2333 28.0267 27.7533 28.44 27.14C28.8533 26.5133 29.06 25.7867 29.06 24.96V23.94L30.12 24.9H24.48V22.9H31.4V24.3C31.4 25.3933 31.2133 26.3733 30.84 27.24C30.4667 28.0933 29.96 28.82 29.32 29.42C28.68 30.02 27.9467 30.4733 27.12 30.78C26.2933 31.0867 25.4267 31.24 24.52 31.24ZM33.6095 31V16.1H35.8095L41.4095 23.86H40.3095L45.8095 16.1H48.0095V31H45.6695V18.88L46.5495 19.12L40.9295 26.8H40.6895L35.1895 19.12L35.9695 18.88V31H33.6095ZM49.57 31L54.81 16.1H57.73L62.97 31H60.45L59.31 27.66H53.25L52.09 31H49.57ZM53.93 25.56H58.59L55.95 17.76H56.61L53.93 25.56ZM66.1816 31V18.2H62.2216V16.1H72.4216V18.2H68.5216V31H66.1816Z" fill="black"/>
<circle cx="24" cy="88" r="8" fill="#EEEEEE"/>
<rect x="40" y="82" width="43" height="5" rx="2.5" fill="#EEEEEE"/>
<rect x="40" y="92" width="84" height="3" rx="1.5" fill="#EEEEEE"/>
<circle cx="24" cy="120" r="8" fill="#EEEEEE"/>
<rect x="40" y="114" width="43" height="5" rx="2.5" fill="#EEEEEE"/>
<rect x="40" y="124" width="84" height="3" rx="1.5" fill="#EEEEEE"/>
<circle cx="24" cy="152" r="8" fill="#EEEEEE"/>
<rect x="40" y="146" width="43" height="5" rx="2.5" fill="#EEEEEE"/>
<rect x="40" y="156" width="84" height="3" rx="1.5" fill="#EEEEEE"/>
</svg>
