<svg width="140" height="180" viewBox="0 0 140 180" fill="none" xmlns="http://www.w3.org/2000/svg">
<rect x="0.5" y="0.5" width="139" height="179" rx="9.5" fill="white" stroke="#BBBBBB"/>
<path d="M17.54 31V16.1H19.9V31H17.54ZM22.7892 31V16.1H32.6092V18.2H25.1492V22.48H32.2092V24.58H25.1492V28.9H32.6092V31H22.7892ZM34.6009 31V16.1H36.9609V28.9H43.4009V31H34.6009ZM46.6308 31V18.2H42.6708V16.1H52.8708V18.2H48.9708V31H46.6308ZM59.6553 31.24C58.722 31.24 57.8553 31.0667 57.0553 30.72C56.2553 30.36 55.5753 29.8733 55.0153 29.26C54.4553 28.6467 54.042 27.94 53.7753 27.14L55.7753 26.3C56.1353 27.22 56.662 27.9267 57.3553 28.42C58.0486 28.9133 58.8486 29.16 59.7553 29.16C60.2886 29.16 60.7553 29.08 61.1553 28.92C61.5553 28.7467 61.862 28.5067 62.0753 28.2C62.302 27.8933 62.4153 27.54 62.4153 27.14C62.4153 26.5933 62.262 26.16 61.9553 25.84C61.6486 25.52 61.1953 25.2667 60.5953 25.08L57.7953 24.2C56.6753 23.8533 55.822 23.3267 55.2353 22.62C54.6486 21.9 54.3553 21.06 54.3553 20.1C54.3553 19.26 54.562 18.5267 54.9753 17.9C55.3886 17.26 55.9553 16.76 56.6753 16.4C57.4086 16.04 58.242 15.86 59.1753 15.86C60.0686 15.86 60.882 16.02 61.6153 16.34C62.3486 16.6467 62.9753 17.0733 63.4953 17.62C64.0286 18.1667 64.4153 18.8 64.6553 19.52L62.6953 20.38C62.402 19.5933 61.942 18.9867 61.3153 18.56C60.702 18.1333 59.9886 17.92 59.1753 17.92C58.682 17.92 58.2486 18.0067 57.8753 18.18C57.502 18.34 57.2086 18.58 56.9953 18.9C56.7953 19.2067 56.6953 19.5667 56.6953 19.98C56.6953 20.46 56.8486 20.8867 57.1553 21.26C57.462 21.6333 57.9286 21.9133 58.5553 22.1L61.1553 22.92C62.342 23.28 63.2353 23.8 63.8353 24.48C64.4353 25.1467 64.7353 25.98 64.7353 26.98C64.7353 27.8067 64.5153 28.54 64.0753 29.18C63.6486 29.82 63.0553 30.3267 62.2953 30.7C61.5353 31.06 60.6553 31.24 59.6553 31.24ZM24.52 51.24C23.4667 51.24 22.4867 51.0467 21.58 50.66C20.6867 50.2733 19.9 49.74 19.22 49.06C18.5533 48.3667 18.0333 47.5533 17.66 46.62C17.2867 45.6867 17.1 44.66 17.1 43.54C17.1 42.4333 17.28 41.4133 17.64 40.48C18.0133 39.5333 18.5333 38.72 19.2 38.04C19.8667 37.3467 20.6467 36.8133 21.54 36.44C22.4333 36.0533 23.4133 35.86 24.48 35.86C25.5333 35.86 26.4733 36.04 27.3 36.4C28.14 36.76 28.8467 37.2333 29.42 37.82C29.9933 38.3933 30.4067 39.02 30.66 39.7L28.56 40.72C28.2533 39.9067 27.7467 39.2533 27.04 38.76C26.3333 38.2533 25.48 38 24.48 38C23.4933 38 22.62 38.2333 21.86 38.7C21.1 39.1667 20.5067 39.8133 20.08 40.64C19.6667 41.4667 19.46 42.4333 19.46 43.54C19.46 44.6467 19.6733 45.62 20.1 46.46C20.54 47.2867 21.14 47.9333 21.9 48.4C22.66 48.8533 23.5333 49.08 24.52 49.08C25.3467 49.08 26.1 48.9133 26.78 48.58C27.4733 48.2333 28.0267 47.7533 28.44 47.14C28.8533 46.5133 29.06 45.7867 29.06 44.96V43.94L30.12 44.9H24.48V42.9H31.4V44.3C31.4 45.3933 31.2133 46.3733 30.84 47.24C30.4667 48.0933 29.96 48.82 29.32 49.42C28.68 50.02 27.9467 50.4733 27.12 50.78C26.2933 51.0867 25.4267 51.24 24.52 51.24ZM38.4695 51.24C37.3895 51.24 36.4295 50.9933 35.5895 50.5C34.7629 49.9933 34.1162 49.3133 33.6495 48.46C33.1829 47.5933 32.9495 46.6267 32.9495 45.56C32.9495 44.4667 33.1829 43.5 33.6495 42.66C34.1295 41.82 34.7695 41.16 35.5695 40.68C36.3695 40.1867 37.2762 39.94 38.2895 39.94C39.1029 39.94 39.8295 40.08 40.4695 40.36C41.1095 40.64 41.6495 41.0267 42.0895 41.52C42.5295 42 42.8629 42.5533 43.0895 43.18C43.3295 43.8067 43.4495 44.4733 43.4495 45.18C43.4495 45.3533 43.4429 45.5333 43.4295 45.72C43.4162 45.9067 43.3895 46.08 43.3495 46.24H34.7295V44.44H42.0695L40.9895 45.26C41.1229 44.6067 41.0762 44.0267 40.8495 43.52C40.6362 43 40.3029 42.5933 39.8495 42.3C39.4095 41.9933 38.8895 41.84 38.2895 41.84C37.6895 41.84 37.1562 41.9933 36.6895 42.3C36.2229 42.5933 35.8629 43.02 35.6095 43.58C35.3562 44.1267 35.2562 44.7933 35.3095 45.58C35.2429 46.3133 35.3429 46.9533 35.6095 47.5C35.8895 48.0467 36.2762 48.4733 36.7695 48.78C37.2762 49.0867 37.8495 49.24 38.4895 49.24C39.1429 49.24 39.6962 49.0933 40.1495 48.8C40.6162 48.5067 40.9829 48.1267 41.2495 47.66L43.0895 48.56C42.8762 49.0667 42.5429 49.5267 42.0895 49.94C41.6495 50.34 41.1162 50.66 40.4895 50.9C39.8762 51.1267 39.2029 51.24 38.4695 51.24ZM45.4552 51V40.18H47.6152V42.3L47.3552 42.02C47.6218 41.34 48.0485 40.8267 48.6352 40.48C49.2218 40.12 49.9018 39.94 50.6752 39.94C51.4752 39.94 52.1818 40.1133 52.7952 40.46C53.4085 40.8067 53.8885 41.2867 54.2352 41.9C54.5818 42.5133 54.7552 43.22 54.7552 44.02V51H52.5152V44.62C52.5152 44.0733 52.4152 43.6133 52.2152 43.24C52.0152 42.8533 51.7285 42.56 51.3552 42.36C50.9952 42.1467 50.5818 42.04 50.1152 42.04C49.6485 42.04 49.2285 42.1467 48.8552 42.36C48.4952 42.56 48.2152 42.8533 48.0152 43.24C47.8152 43.6267 47.7152 44.0867 47.7152 44.62V51H45.4552ZM62.0539 51.24C60.9739 51.24 60.0139 50.9933 59.1739 50.5C58.3472 49.9933 57.7006 49.3133 57.2339 48.46C56.7672 47.5933 56.5339 46.6267 56.5339 45.56C56.5339 44.4667 56.7672 43.5 57.2339 42.66C57.7139 41.82 58.3539 41.16 59.1539 40.68C59.9539 40.1867 60.8606 39.94 61.8739 39.94C62.6872 39.94 63.4139 40.08 64.0539 40.36C64.6939 40.64 65.2339 41.0267 65.6739 41.52C66.1139 42 66.4472 42.5533 66.6739 43.18C66.9139 43.8067 67.0339 44.4733 67.0339 45.18C67.0339 45.3533 67.0272 45.5333 67.0139 45.72C67.0006 45.9067 66.9739 46.08 66.9339 46.24H58.3139V44.44H65.6539L64.5739 45.26C64.7072 44.6067 64.6606 44.0267 64.4339 43.52C64.2206 43 63.8872 42.5933 63.4339 42.3C62.9939 41.9933 62.4739 41.84 61.8739 41.84C61.2739 41.84 60.7406 41.9933 60.2739 42.3C59.8072 42.5933 59.4472 43.02 59.1939 43.58C58.9406 44.1267 58.8406 44.7933 58.8939 45.58C58.8272 46.3133 58.9272 46.9533 59.1939 47.5C59.4739 48.0467 59.8606 48.4733 60.3539 48.78C60.8606 49.0867 61.4339 49.24 62.0739 49.24C62.7272 49.24 63.2806 49.0933 63.7339 48.8C64.2006 48.5067 64.5672 48.1267 64.8339 47.66L66.6739 48.56C66.4606 49.0667 66.1272 49.5267 65.6739 49.94C65.2339 50.34 64.7006 50.66 64.0739 50.9C63.4606 51.1267 62.7872 51.24 62.0539 51.24ZM69.0395 51V40.18H71.1995V42.36L70.9995 42.04C71.2395 41.3333 71.6262 40.8267 72.1595 40.52C72.6929 40.2 73.3329 40.04 74.0795 40.04H74.7395V42.1H73.7995C73.0529 42.1 72.4462 42.3333 71.9795 42.8C71.5262 43.2533 71.2995 43.9067 71.2995 44.76V51H69.0395ZM79.3256 51.24C78.5923 51.24 77.9456 51.1133 77.3856 50.86C76.839 50.5933 76.4123 50.2333 76.1056 49.78C75.799 49.3133 75.6456 48.7667 75.6456 48.14C75.6456 47.5533 75.7723 47.0267 76.0256 46.56C76.2923 46.0933 76.699 45.7 77.2456 45.38C77.7923 45.06 78.479 44.8333 79.3056 44.7L83.0656 44.08V45.86L79.7456 46.44C79.1456 46.5467 78.7056 46.74 78.4256 47.02C78.1456 47.2867 78.0056 47.6333 78.0056 48.06C78.0056 48.4733 78.159 48.8133 78.4656 49.08C78.7856 49.3333 79.1923 49.46 79.6856 49.46C80.299 49.46 80.8323 49.3267 81.2856 49.06C81.7523 48.7933 82.1123 48.44 82.3656 48C82.619 47.5467 82.7456 47.0467 82.7456 46.5V43.72C82.7456 43.1867 82.5456 42.7533 82.1456 42.42C81.759 42.0733 81.239 41.9 80.5856 41.9C79.9856 41.9 79.459 42.06 79.0056 42.38C78.5656 42.6867 78.239 43.0867 78.0256 43.58L76.1456 42.64C76.3456 42.1067 76.6723 41.64 77.1256 41.24C77.579 40.8267 78.1056 40.5067 78.7056 40.28C79.319 40.0533 79.9656 39.94 80.6456 39.94C81.499 39.94 82.2523 40.1 82.9056 40.42C83.5723 40.74 84.0856 41.1867 84.4456 41.76C84.819 42.32 85.0056 42.9733 85.0056 43.72V51H82.8456V49.04L83.3056 49.1C83.0523 49.54 82.7256 49.92 82.3256 50.24C81.939 50.56 81.4923 50.8067 80.9856 50.98C80.4923 51.1533 79.939 51.24 79.3256 51.24ZM87.4481 51V35.86H89.7081V51H87.4481Z" fill="black"/>
<circle cx="24" cy="88" r="8" fill="#EEEEEE"/>
<rect x="40" y="82" width="43" height="5" rx="2.5" fill="#EEEEEE"/>
<rect x="40" y="92" width="84" height="3" rx="1.5" fill="#EEEEEE"/>
<circle cx="24" cy="120" r="8" fill="#EEEEEE"/>
<rect x="40" y="114" width="43" height="5" rx="2.5" fill="#EEEEEE"/>
<rect x="40" y="124" width="84" height="3" rx="1.5" fill="#EEEEEE"/>
<circle cx="24" cy="152" r="8" fill="#EEEEEE"/>
<rect x="40" y="146" width="43" height="5" rx="2.5" fill="#EEEEEE"/>
<rect x="40" y="156" width="84" height="3" rx="1.5" fill="#EEEEEE"/>
</svg>
