<svg width="140" height="180" viewBox="0 0 140 180" fill="none" xmlns="http://www.w3.org/2000/svg">
<rect x="0.5" y="0.5" width="139" height="179" rx="9.5" fill="white" stroke="#BBBBBB"/>
<path d="M17.54 31V16.1H19.9V31H17.54ZM22.7892 31V16.1H32.6092V18.2H25.1492V22.48H32.2092V24.58H25.1492V28.9H32.6092V31H22.7892ZM34.6009 31V16.1H36.9609V28.9H43.4009V31H34.6009ZM46.6308 31V18.2H42.6708V16.1H52.8708V18.2H48.9708V31H46.6308ZM59.6553 31.24C58.722 31.24 57.8553 31.0667 57.0553 30.72C56.2553 30.36 55.5753 29.8733 55.0153 29.26C54.4553 28.6467 54.042 27.94 53.7753 27.14L55.7753 26.3C56.1353 27.22 56.662 27.9267 57.3553 28.42C58.0486 28.9133 58.8486 29.16 59.7553 29.16C60.2886 29.16 60.7553 29.08 61.1553 28.92C61.5553 28.7467 61.862 28.5067 62.0753 28.2C62.302 27.8933 62.4153 27.54 62.4153 27.14C62.4153 26.5933 62.262 26.16 61.9553 25.84C61.6486 25.52 61.1953 25.2667 60.5953 25.08L57.7953 24.2C56.6753 23.8533 55.822 23.3267 55.2353 22.62C54.6486 21.9 54.3553 21.06 54.3553 20.1C54.3553 19.26 54.562 18.5267 54.9753 17.9C55.3886 17.26 55.9553 16.76 56.6753 16.4C57.4086 16.04 58.242 15.86 59.1753 15.86C60.0686 15.86 60.882 16.02 61.6153 16.34C62.3486 16.6467 62.9753 17.0733 63.4953 17.62C64.0286 18.1667 64.4153 18.8 64.6553 19.52L62.6953 20.38C62.402 19.5933 61.942 18.9867 61.3153 18.56C60.702 18.1333 59.9886 17.92 59.1753 17.92C58.682 17.92 58.2486 18.0067 57.8753 18.18C57.502 18.34 57.2086 18.58 56.9953 18.9C56.7953 19.2067 56.6953 19.5667 56.6953 19.98C56.6953 20.46 56.8486 20.8867 57.1553 21.26C57.462 21.6333 57.9286 21.9133 58.5553 22.1L61.1553 22.92C62.342 23.28 63.2353 23.8 63.8353 24.48C64.4353 25.1467 64.7353 25.98 64.7353 26.98C64.7353 27.8067 64.5153 28.54 64.0753 29.18C63.6486 29.82 63.0553 30.3267 62.2953 30.7C61.5353 31.06 60.6553 31.24 59.6553 31.24ZM16.22 51L21.46 36.1H24.38L29.62 51H27.1L25.96 47.66H19.9L18.74 51H16.22ZM20.58 45.56H25.24L22.6 37.76H23.26L20.58 45.56ZM35.717 51.24C34.637 51.24 33.677 50.9933 32.837 50.5C32.0104 49.9933 31.3504 49.3133 30.857 48.46C30.377 47.6067 30.137 46.64 30.137 45.56C30.137 44.4933 30.377 43.5333 30.857 42.68C31.337 41.8267 31.997 41.16 32.837 40.68C33.677 40.1867 34.637 39.94 35.717 39.94C36.4504 39.94 37.137 40.0733 37.777 40.34C38.417 40.5933 38.9704 40.9467 39.437 41.4C39.917 41.8533 40.2704 42.38 40.497 42.98L38.517 43.9C38.2904 43.34 37.9237 42.8933 37.417 42.56C36.9237 42.2133 36.357 42.04 35.717 42.04C35.1037 42.04 34.5504 42.1933 34.057 42.5C33.577 42.7933 33.197 43.2133 32.917 43.76C32.637 44.2933 32.497 44.9 32.497 45.58C32.497 46.26 32.637 46.8733 32.917 47.42C33.197 47.9533 33.577 48.3733 34.057 48.68C34.5504 48.9867 35.1037 49.14 35.717 49.14C36.3704 49.14 36.937 48.9733 37.417 48.64C37.9104 48.2933 38.277 47.8333 38.517 47.26L40.497 48.2C40.2837 48.7733 39.937 49.2933 39.457 49.76C38.9904 50.2133 38.437 50.5733 37.797 50.84C37.157 51.1067 36.4637 51.24 35.717 51.24ZM45.6483 51.24C44.9149 51.24 44.2683 51.1133 43.7083 50.86C43.1616 50.5933 42.7349 50.2333 42.4283 49.78C42.1216 49.3133 41.9683 48.7667 41.9683 48.14C41.9683 47.5533 42.0949 47.0267 42.3483 46.56C42.6149 46.0933 43.0216 45.7 43.5683 45.38C44.1149 45.06 44.8016 44.8333 45.6283 44.7L49.3883 44.08V45.86L46.0683 46.44C45.4683 46.5467 45.0283 46.74 44.7483 47.02C44.4683 47.2867 44.3283 47.6333 44.3283 48.06C44.3283 48.4733 44.4816 48.8133 44.7883 49.08C45.1083 49.3333 45.5149 49.46 46.0083 49.46C46.6216 49.46 47.1549 49.3267 47.6083 49.06C48.0749 48.7933 48.4349 48.44 48.6883 48C48.9416 47.5467 49.0683 47.0467 49.0683 46.5V43.72C49.0683 43.1867 48.8683 42.7533 48.4683 42.42C48.0816 42.0733 47.5616 41.9 46.9083 41.9C46.3083 41.9 45.7816 42.06 45.3283 42.38C44.8883 42.6867 44.5616 43.0867 44.3483 43.58L42.4683 42.64C42.6683 42.1067 42.9949 41.64 43.4483 41.24C43.9016 40.8267 44.4283 40.5067 45.0283 40.28C45.6416 40.0533 46.2883 39.94 46.9683 39.94C47.8216 39.94 48.5749 40.1 49.2283 40.42C49.8949 40.74 50.4083 41.1867 50.7683 41.76C51.1416 42.32 51.3283 42.9733 51.3283 43.72V51H49.1683V49.04L49.6283 49.1C49.3749 49.54 49.0483 49.92 48.6483 50.24C48.2616 50.56 47.8149 50.8067 47.3083 50.98C46.8149 51.1533 46.2616 51.24 45.6483 51.24ZM58.7708 51.24C57.7308 51.24 56.7974 50.9933 55.9708 50.5C55.1574 49.9933 54.5108 49.3133 54.0308 48.46C53.5641 47.6067 53.3308 46.6467 53.3308 45.58C53.3308 44.5133 53.5708 43.5533 54.0508 42.7C54.5308 41.8467 55.1774 41.1733 55.9908 40.68C56.8041 40.1867 57.7241 39.94 58.7508 39.94C59.6174 39.94 60.3841 40.1133 61.0508 40.46C61.7174 40.8067 62.2441 41.2867 62.6308 41.9L62.2908 42.42V35.86H64.5308V51H62.3908V48.8L62.6508 49.22C62.2775 49.8733 61.7441 50.3733 61.0508 50.72C60.3574 51.0667 59.5974 51.24 58.7708 51.24ZM58.9908 49.14C59.6174 49.14 60.1774 48.9867 60.6708 48.68C61.1774 48.3733 61.5708 47.9533 61.8508 47.42C62.1441 46.8733 62.2908 46.26 62.2908 45.58C62.2908 44.9 62.1441 44.2933 61.8508 43.76C61.5708 43.2267 61.1774 42.8067 60.6708 42.5C60.1774 42.1933 59.6174 42.04 58.9908 42.04C58.3641 42.04 57.7974 42.1933 57.2908 42.5C56.7841 42.8067 56.3908 43.2267 56.1108 43.76C55.8308 44.2933 55.6908 44.9 55.6908 45.58C55.6908 46.26 55.8308 46.8733 56.1108 47.42C56.3908 47.9533 56.7774 48.3733 57.2708 48.68C57.7774 48.9867 58.3508 49.14 58.9908 49.14ZM72.0492 51.24C70.9692 51.24 70.0092 50.9933 69.1692 50.5C68.3426 49.9933 67.6959 49.3133 67.2292 48.46C66.7626 47.5933 66.5292 46.6267 66.5292 45.56C66.5292 44.4667 66.7626 43.5 67.2292 42.66C67.7092 41.82 68.3492 41.16 69.1492 40.68C69.9492 40.1867 70.8559 39.94 71.8692 39.94C72.6826 39.94 73.4092 40.08 74.0492 40.36C74.6892 40.64 75.2292 41.0267 75.6692 41.52C76.1092 42 76.4426 42.5533 76.6692 43.18C76.9092 43.8067 77.0292 44.4733 77.0292 45.18C77.0292 45.3533 77.0226 45.5333 77.0092 45.72C76.9959 45.9067 76.9692 46.08 76.9292 46.24H68.3092V44.44H75.6492L74.5692 45.26C74.7026 44.6067 74.6559 44.0267 74.4292 43.52C74.2159 43 73.8826 42.5933 73.4292 42.3C72.9892 41.9933 72.4692 41.84 71.8692 41.84C71.2692 41.84 70.7359 41.9933 70.2692 42.3C69.8026 42.5933 69.4426 43.02 69.1892 43.58C68.9359 44.1267 68.8359 44.7933 68.8892 45.58C68.8226 46.3133 68.9226 46.9533 69.1892 47.5C69.4692 48.0467 69.8559 48.4733 70.3492 48.78C70.8559 49.0867 71.4292 49.24 72.0692 49.24C72.7226 49.24 73.2759 49.0933 73.7292 48.8C74.1959 48.5067 74.5626 48.1267 74.8292 47.66L76.6692 48.56C76.4559 49.0667 76.1226 49.5267 75.6692 49.94C75.2292 50.34 74.6959 50.66 74.0692 50.9C73.4559 51.1267 72.7826 51.24 72.0492 51.24ZM79.0348 51V40.18H81.1948V42.52L80.9148 42.16C81.1415 41.4267 81.5548 40.8733 82.1548 40.5C82.7548 40.1267 83.4415 39.94 84.2148 39.94C85.0815 39.94 85.8482 40.1733 86.5148 40.64C87.1948 41.0933 87.6482 41.7 87.8748 42.46L87.2348 42.52C87.5548 41.6533 88.0415 41.0067 88.6948 40.58C89.3615 40.1533 90.1215 39.94 90.9748 39.94C91.7215 39.94 92.3948 40.1133 92.9948 40.46C93.6082 40.8067 94.0948 41.2867 94.4548 41.9C94.8148 42.5133 94.9948 43.2133 94.9948 44V51H92.7348V44.62C92.7348 44.0733 92.6348 43.6133 92.4348 43.24C92.2482 42.8533 91.9815 42.56 91.6348 42.36C91.3015 42.1467 90.9082 42.04 90.4548 42.04C90.0015 42.04 89.6015 42.1467 89.2548 42.36C88.9082 42.56 88.6348 42.8533 88.4348 43.24C88.2348 43.6267 88.1348 44.0867 88.1348 44.62V51H85.8948V44.62C85.8948 44.0733 85.7948 43.6133 85.5948 43.24C85.4082 42.8533 85.1415 42.56 84.7948 42.36C84.4615 42.1467 84.0615 42.04 83.5948 42.04C83.1415 42.04 82.7415 42.1467 82.3948 42.36C82.0482 42.56 81.7748 42.8533 81.5748 43.24C81.3882 43.6267 81.2948 44.0867 81.2948 44.62V51H79.0348ZM97.2138 51V40.18H99.4738V51H97.2138ZM97.2138 38.7V36.1H99.4738V38.7H97.2138ZM107.056 51.24C105.976 51.24 105.016 50.9933 104.176 50.5C103.349 49.9933 102.689 49.3133 102.196 48.46C101.716 47.6067 101.476 46.64 101.476 45.56C101.476 44.4933 101.716 43.5333 102.196 42.68C102.676 41.8267 103.336 41.16 104.176 40.68C105.016 40.1867 105.976 39.94 107.056 39.94C107.789 39.94 108.476 40.0733 109.116 40.34C109.756 40.5933 110.309 40.9467 110.776 41.4C111.256 41.8533 111.609 42.38 111.836 42.98L109.856 43.9C109.629 43.34 109.263 42.8933 108.756 42.56C108.263 42.2133 107.696 42.04 107.056 42.04C106.443 42.04 105.889 42.1933 105.396 42.5C104.916 42.7933 104.536 43.2133 104.256 43.76C103.976 44.2933 103.836 44.9 103.836 45.58C103.836 46.26 103.976 46.8733 104.256 47.42C104.536 47.9533 104.916 48.3733 105.396 48.68C105.889 48.9867 106.443 49.14 107.056 49.14C107.709 49.14 108.276 48.9733 108.756 48.64C109.249 48.2933 109.616 47.8333 109.856 47.26L111.836 48.2C111.623 48.7733 111.276 49.2933 110.796 49.76C110.329 50.2133 109.776 50.5733 109.136 50.84C108.496 51.1067 107.803 51.24 107.056 51.24Z" fill="black"/>
<circle cx="24" cy="88" r="8" fill="#EEEEEE"/>
<rect x="40" y="82" width="43" height="5" rx="2.5" fill="#EEEEEE"/>
<rect x="40" y="92" width="84" height="3" rx="1.5" fill="#EEEEEE"/>
<circle cx="24" cy="120" r="8" fill="#EEEEEE"/>
<rect x="40" y="114" width="43" height="5" rx="2.5" fill="#EEEEEE"/>
<rect x="40" y="124" width="84" height="3" rx="1.5" fill="#EEEEEE"/>
<circle cx="24" cy="152" r="8" fill="#EEEEEE"/>
<rect x="40" y="146" width="43" height="5" rx="2.5" fill="#EEEEEE"/>
<rect x="40" y="156" width="84" height="3" rx="1.5" fill="#EEEEEE"/>
</svg>
