<svg width="169" height="52" viewBox="0 0 169 52" fill="none" xmlns="http://www.w3.org/2000/svg">
    <path d="M51.442 22.3258V29.2979C51.442 29.896 50.9581 30.3799 50.36 30.3799L36.7054 30.3761C35.7072 30.3761 35.2805 31.6409 36.0768 32.2429L46.192 39.9198C46.7139 40.3122 46.7673 41.0818 46.3025 41.5428L41.3916 46.4537C40.9687 46.8766 40.2867 46.8766 39.8638 46.4537L4.99588 11.5858C4.57299 11.1629 4.57299 10.4809 4.99588 10.058L9.90298 5.14714C10.3678 4.68233 11.1336 4.73566 11.5298 5.25761L19.2029 15.369C19.8086 16.1615 21.0735 15.7348 21.0735 14.7404V1.08962C21.0735 0.491467 21.5574 0.00761555 22.1555 0.00761555L29.1123 0C29.7676 0 30.2744 0.579104 30.1829 1.23059L28.457 13.7955C28.3237 14.7785 29.5162 15.3728 30.221 14.668L39.8638 5.03665C40.2867 4.61375 40.9687 4.61375 41.3916 5.03665L46.4015 10.0466C46.8244 10.4695 46.8244 11.1515 46.4015 11.5782L36.7664 21.2095C36.0615 21.9144 36.6559 23.1107 37.6426 22.9735L50.2076 21.2438C50.8591 21.1638 51.442 21.6667 51.442 22.3258Z" fill="#FFB500"/>
    <path d="M25.7062 43.242C25.7062 42.6705 25.2566 42.2057 24.6813 42.1715C20.8143 41.9352 17.0159 40.3389 14.0671 37.3863C11.1106 34.4298 9.51045 30.6314 9.27805 26.7644C9.24376 26.1929 8.77896 25.7395 8.20748 25.7395H1.09065C0.473451 25.7395 -0.0256478 26.2538 0.00102132 26.871C0.271522 33.0735 2.77461 39.1998 7.51408 43.9392C12.2497 48.6749 18.3722 51.1742 24.5747 51.4447C25.1919 51.4713 25.7062 50.9723 25.7062 50.3551V43.242Z" fill="#9232FF"/>
    <path d="M71.7597 37.3177C71.154 37.3177 70.6663 36.83 70.6663 36.2243V10.8658C70.6663 9.67709 69.7024 8.7132 68.5137 8.7132H64.502V37.1348C64.502 40.9675 66.285 42.7467 70.0682 42.7467H74.5409V37.3177H71.7597Z" fill="white"/>
    <path d="M93.4262 18.337V32.3878C93.1062 35.0776 91.1022 36.632 88.7287 36.632C86.0389 36.632 84.2559 34.6204 84.2559 31.6601V18.337H78.0991V34.2089C78.0991 39.3637 81.4328 42.743 86.3589 42.743C89.3649 42.743 92.0128 41.1924 93.2891 38.636H93.4262V39.9047C93.4262 41.0934 94.3901 42.0572 95.5788 42.0572H99.5906V20.4858C99.5906 19.2971 98.6267 18.3332 97.438 18.3332H93.4262V18.337Z" fill="white"/>
    <path d="M132.565 17.6548C129.513 17.6548 126.866 19.2512 125.589 21.7162H125.086C123.761 19.1597 121.208 17.6548 118.011 17.6548C115.135 17.6548 112.628 19.2512 111.352 21.7162H111.215V20.4894C111.215 19.3007 110.251 18.3368 109.062 18.3368H105.05V39.9083C105.05 41.097 106.014 42.0609 107.203 42.0609H111.215V29.4235C111.215 26.0518 112.99 23.7697 115.687 23.7697C118.24 23.7697 119.878 25.728 119.878 28.7416V42.0647H126.088V28.9244C126.088 25.8194 127.864 23.7697 130.47 23.7697C133.068 23.7697 134.76 25.728 134.76 28.7416V42.0647H140.962V26.1851C140.962 21.0266 137.583 17.6548 132.565 17.6548Z" fill="white"/>
    <path d="M156.655 17.6548C149.671 17.6548 144.974 22.6724 144.974 30.1969C144.974 30.5017 144.981 30.8027 145 31.0999C145.019 31.4961 145.358 31.7971 145.747 31.7971H167.574C167.989 31.7971 168.328 31.458 168.328 31.0427V30.1969C168.328 22.6724 163.631 17.6548 156.655 17.6548ZM161.47 28.2387H151.786C151.298 28.2387 150.928 27.7777 151.058 27.3014C151.812 24.4555 153.767 22.8553 156.655 22.8553C159.501 22.8553 161.451 24.4555 162.206 27.3014C162.328 27.7739 161.958 28.2387 161.47 28.2387Z" fill="white"/>
    <path d="M157.108 37.5423C154.773 37.5423 152.982 36.6203 151.9 34.9249C151.748 34.6849 151.496 34.5287 151.211 34.5287H146.62C146.094 34.5287 145.725 35.0583 145.915 35.5459C147.637 40.0111 151.611 42.739 156.838 42.739C162.244 42.739 166.458 39.8778 167.776 35.4926C167.921 35.0126 167.551 34.5287 167.052 34.5287H162.778C162.492 34.5287 162.217 34.6735 162.088 34.9287C161.219 36.6013 159.436 37.5423 157.108 37.5423Z" fill="#9232FF"/>
</svg>
