<svg width="140" height="180" viewBox="0 0 140 180" fill="none" xmlns="http://www.w3.org/2000/svg">
<rect x="0.5" y="0.5" width="139" height="179" rx="9.5" fill="white" stroke="#BBBBBB"/>
<path d="M17.54 31V16.1H22.96C23.96 16.1 24.84 16.2867 25.6 16.66C26.3733 17.02 26.9733 17.5533 27.4 18.26C27.8267 18.9533 28.04 19.7867 28.04 20.76C28.04 21.72 27.82 22.5467 27.38 23.24C26.9533 23.9333 26.36 24.4667 25.6 24.84C24.84 25.2133 23.96 25.4 22.96 25.4H19.9V31H17.54ZM19.9 23.3H23.02C23.5533 23.3 24.02 23.1933 24.42 22.98C24.82 22.7667 25.1333 22.4733 25.36 22.1C25.5867 21.7133 25.7 21.26 25.7 20.74C25.7 20.22 25.5867 19.7733 25.36 19.4C25.1333 19.0133 24.82 18.72 24.42 18.52C24.02 18.3067 23.5533 18.2 23.02 18.2H19.9V23.3ZM30.2697 31V16.1H40.0897V18.2H32.6297V22.48H39.6897V24.58H32.6297V28.9H40.0897V31H30.2697ZM42.0814 31V16.1H44.4414V31H42.0814ZM54.2706 31.24C53.2173 31.24 52.2373 31.0467 51.3306 30.66C50.4373 30.2733 49.6573 29.74 48.9906 29.06C48.3373 28.3667 47.824 27.5533 47.4506 26.62C47.0773 25.6867 46.8906 24.66 46.8906 23.54C46.8906 22.4333 47.0706 21.4133 47.4306 20.48C47.804 19.5333 48.324 18.72 48.9906 18.04C49.6573 17.3467 50.4373 16.8133 51.3306 16.44C52.224 16.0533 53.204 15.86 54.2706 15.86C55.324 15.86 56.264 16.04 57.0906 16.4C57.9306 16.76 58.6373 17.2333 59.2106 17.82C59.784 18.3933 60.1973 19.02 60.4506 19.7L58.3306 20.7C58.0106 19.9 57.4973 19.2533 56.7906 18.76C56.0973 18.2533 55.2573 18 54.2706 18C53.284 18 52.4106 18.2333 51.6506 18.7C50.8906 19.1667 50.2973 19.8133 49.8706 20.64C49.4573 21.4667 49.2506 22.4333 49.2506 23.54C49.2506 24.6467 49.4573 25.62 49.8706 26.46C50.2973 27.2867 50.8906 27.9333 51.6506 28.4C52.4106 28.8533 53.284 29.08 54.2706 29.08C55.2573 29.08 56.0973 28.8333 56.7906 28.34C57.4973 27.8467 58.0106 27.2 58.3306 26.4L60.4506 27.4C60.1973 28.0667 59.784 28.6933 59.2106 29.28C58.6373 29.8667 57.9306 30.34 57.0906 30.7C56.264 31.06 55.324 31.24 54.2706 31.24Z" fill="black"/>
<circle cx="24" cy="88" r="8" fill="#EEEEEE"/>
<rect x="40" y="82" width="43" height="5" rx="2.5" fill="#EEEEEE"/>
<rect x="40" y="92" width="84" height="3" rx="1.5" fill="#EEEEEE"/>
<circle cx="24" cy="120" r="8" fill="#EEEEEE"/>
<rect x="40" y="114" width="43" height="5" rx="2.5" fill="#EEEEEE"/>
<rect x="40" y="124" width="84" height="3" rx="1.5" fill="#EEEEEE"/>
<circle cx="24" cy="152" r="8" fill="#EEEEEE"/>
<rect x="40" y="146" width="43" height="5" rx="2.5" fill="#EEEEEE"/>
<rect x="40" y="156" width="84" height="3" rx="1.5" fill="#EEEEEE"/>
</svg>
