<?xml version="1.0" encoding="UTF-8"?>
<svg xmlns="http://www.w3.org/2000/svg" xmlns:xlink="http://www.w3.org/1999/xlink" width="140px" height="180px" viewBox="0 0 140 180" version="1.1">
<g id="surface1">
<path style="fillRule:nonzero;fill:rgb(100%,100%,100%);fill-opacity:1;stroke-width:1;stroke-linecap:butt;stroke-linejoin:miter;stroke:rgb(73.333333%,73.333333%,73.333333%);stroke-opacity:1;stroke-miterlimit:4;" d="M 9.999442 0.5 L 170.000558 0.5 C 175.248884 0.5 179.497768 4.755208 179.497768 10 L 179.497768 230 C 179.497768 235.244792 175.248884 239.5 170.000558 239.5 L 9.999442 239.5 C 4.751116 239.5 0.502232 235.244792 0.502232 230 L 0.502232 10 C 0.502232 4.755208 4.751116 0.5 9.999442 0.5 Z M 9.999442 0.5 " transform="matrix(0.777778,0,0,0.75,0,0)"/>
<path style=" stroke:none;fillRule:nonzero;fill:rgb(0%,0%,0%);fill-opacity:1;" d="M 20.105469 34.5 L 20.105469 21.089844 L 25.164062 21.089844 C 26.097656 21.089844 26.917969 21.257812 27.625 21.59375 C 28.347656 21.917969 28.910156 22.398438 29.308594 23.035156 C 29.703125 23.65625 29.902344 24.40625 29.902344 25.285156 C 29.902344 26.148438 29.699219 26.890625 29.289062 27.515625 C 28.890625 28.140625 28.335938 28.621094 27.625 28.957031 C 26.917969 29.292969 26.097656 29.460938 25.164062 29.460938 L 22.308594 29.460938 L 22.308594 34.5 Z M 22.308594 27.570312 L 25.21875 27.570312 C 25.714844 27.570312 26.152344 27.472656 26.523438 27.28125 C 26.898438 27.089844 27.191406 26.824219 27.402344 26.488281 C 27.613281 26.140625 27.71875 25.734375 27.71875 25.265625 C 27.71875 24.796875 27.613281 24.394531 27.402344 24.058594 C 27.191406 23.710938 26.898438 23.449219 26.523438 23.269531 C 26.152344 23.074219 25.714844 22.980469 25.21875 22.980469 L 22.308594 22.980469 Z M 34.449219 34.5 L 34.449219 22.980469 L 30.753906 22.980469 L 30.753906 21.089844 L 40.273438 21.089844 L 40.273438 22.980469 L 36.632812 22.980469 L 36.632812 34.5 Z M 41.734375 34.5 L 41.734375 21.089844 L 50.898438 21.089844 L 50.898438 22.980469 L 43.9375 22.980469 L 43.9375 26.832031 L 50.523438 26.832031 L 50.523438 28.722656 L 43.9375 28.722656 L 43.9375 32.609375 L 50.898438 32.609375 L 50.898438 34.5 Z M 26.582031 52.714844 C 25.597656 52.714844 24.683594 52.542969 23.835938 52.195312 C 23.003906 51.847656 22.277344 51.367188 21.652344 50.753906 C 21.042969 50.128906 20.5625 49.398438 20.214844 48.558594 C 19.867188 47.71875 19.691406 46.792969 19.691406 45.785156 C 19.691406 44.789062 19.863281 43.871094 20.199219 43.03125 C 20.546875 42.179688 21.03125 41.449219 21.652344 40.835938 C 22.277344 40.210938 23.003906 39.730469 23.835938 39.394531 C 24.671875 39.046875 25.585938 38.875 26.582031 38.875 C 27.5625 38.875 28.441406 39.035156 29.214844 39.359375 C 29.996094 39.683594 30.65625 40.109375 31.191406 40.636719 C 31.726562 41.152344 32.113281 41.71875 32.347656 42.328125 L 30.371094 43.230469 C 30.070312 42.511719 29.59375 41.929688 28.933594 41.484375 C 28.285156 41.027344 27.503906 40.800781 26.582031 40.800781 C 25.660156 40.800781 24.84375 41.011719 24.136719 41.429688 C 23.425781 41.851562 22.871094 42.433594 22.476562 43.175781 C 22.089844 43.921875 21.894531 44.789062 21.894531 45.785156 C 21.894531 46.78125 22.089844 47.65625 22.476562 48.414062 C 22.871094 49.15625 23.425781 49.738281 24.136719 50.160156 C 24.84375 50.566406 25.660156 50.773438 26.582031 50.773438 C 27.503906 50.773438 28.285156 50.550781 28.933594 50.105469 C 29.59375 49.660156 30.070312 49.078125 30.371094 48.359375 L 32.347656 49.261719 C 32.113281 49.859375 31.726562 50.425781 31.191406 50.953125 C 30.65625 51.480469 29.996094 51.90625 29.214844 52.230469 C 28.441406 52.554688 27.5625 52.714844 26.582031 52.714844 Z M 38.914062 52.714844 C 37.941406 52.714844 37.050781 52.492188 36.242188 52.050781 C 35.445312 51.605469 34.8125 51 34.339844 50.230469 C 33.867188 49.464844 33.628906 48.59375 33.628906 47.621094 C 33.628906 46.636719 33.867188 45.769531 34.339844 45.011719 C 34.8125 44.242188 35.445312 43.644531 36.242188 43.210938 C 37.039062 42.769531 37.929688 42.546875 38.914062 42.546875 C 39.90625 42.546875 40.796875 42.769531 41.582031 43.210938 C 42.378906 43.644531 43.007812 44.242188 43.46875 45.011719 C 43.941406 45.769531 44.175781 46.636719 44.175781 47.621094 C 44.175781 48.605469 43.941406 49.480469 43.46875 50.25 C 42.992188 51.019531 42.359375 51.625 41.5625 52.066406 C 40.765625 52.5 39.882812 52.714844 38.914062 52.714844 Z M 38.914062 50.824219 C 39.507812 50.824219 40.039062 50.6875 40.5 50.410156 C 40.960938 50.136719 41.320312 49.757812 41.582031 49.277344 C 41.855469 48.785156 41.992188 48.234375 41.992188 47.621094 C 41.992188 47.011719 41.855469 46.464844 41.582031 45.984375 C 41.320312 45.503906 40.960938 45.125 40.5 44.851562 C 40.039062 44.574219 39.507812 44.4375 38.914062 44.4375 C 38.328125 44.4375 37.796875 44.574219 37.324219 44.851562 C 36.863281 45.125 36.496094 45.503906 36.222656 45.984375 C 35.960938 46.464844 35.832031 47.011719 35.832031 47.621094 C 35.832031 48.234375 35.960938 48.785156 36.222656 49.277344 C 36.496094 49.757812 36.863281 50.136719 37.324219 50.410156 C 37.796875 50.6875 38.328125 50.824219 38.914062 50.824219 Z M 46.046875 52.5 L 46.046875 42.761719 L 48.066406 42.761719 L 48.066406 44.722656 L 47.878906 44.4375 C 48.101562 43.800781 48.464844 43.34375 48.960938 43.066406 C 49.457031 42.78125 50.054688 42.636719 50.753906 42.636719 L 51.367188 42.636719 L 51.367188 44.488281 L 50.492188 44.488281 C 49.792969 44.488281 49.226562 44.699219 48.792969 45.121094 C 48.371094 45.527344 48.15625 46.117188 48.15625 46.882812 L 48.15625 52.5 Z M 57.367188 52.714844 C 56.359375 52.714844 55.460938 52.492188 54.679688 52.050781 C 53.90625 51.59375 53.304688 50.980469 52.867188 50.214844 C 52.433594 49.433594 52.214844 48.5625 52.214844 47.605469 C 52.214844 46.621094 52.433594 45.75 52.867188 44.992188 C 53.316406 44.238281 53.914062 43.644531 54.660156 43.210938 C 55.40625 42.769531 56.253906 42.546875 57.199219 42.546875 C 57.957031 42.546875 58.636719 42.671875 59.234375 42.925781 C 59.832031 43.175781 60.335938 43.523438 60.746094 43.96875 C 61.15625 44.398438 61.46875 44.898438 61.679688 45.460938 C 61.902344 46.027344 62.015625 46.625 62.015625 47.261719 C 62.015625 47.417969 62.007812 47.578125 61.996094 47.746094 C 61.984375 47.914062 61.957031 48.070312 61.921875 48.214844 L 53.875 48.214844 L 53.875 46.597656 L 60.726562 46.597656 L 59.71875 47.335938 C 59.84375 46.746094 59.800781 46.222656 59.585938 45.769531 C 59.390625 45.300781 59.078125 44.933594 58.65625 44.671875 C 58.242188 44.394531 57.757812 44.257812 57.199219 44.257812 C 56.636719 44.257812 56.140625 44.394531 55.707031 44.671875 C 55.269531 44.933594 54.933594 45.316406 54.695312 45.820312 C 54.460938 46.3125 54.367188 46.914062 54.417969 47.621094 C 54.355469 48.28125 54.449219 48.859375 54.695312 49.351562 C 54.957031 49.84375 55.320312 50.226562 55.78125 50.503906 C 56.253906 50.777344 56.789062 50.914062 57.386719 50.914062 C 57.996094 50.914062 58.511719 50.785156 58.933594 50.519531 C 59.371094 50.257812 59.710938 49.914062 59.960938 49.492188 L 61.679688 50.304688 C 61.480469 50.761719 61.167969 51.175781 60.746094 51.546875 C 60.335938 51.90625 59.835938 52.195312 59.25 52.410156 C 58.679688 52.613281 58.050781 52.714844 57.367188 52.714844 Z M 57.367188 52.714844 "/>
<path style=" stroke:none;fillRule:nonzero;fill:rgb(93.333333%,93.333333%,93.333333%);fill-opacity:1;" d="M 34.222656 88.5 C 34.222656 92.640625 30.738281 96 26.445312 96 C 22.148438 96 18.667969 92.640625 18.667969 88.5 C 18.667969 84.359375 22.148438 81 26.445312 81 C 30.738281 81 34.222656 84.359375 34.222656 88.5 Z M 34.222656 88.5 "/>
<path style=" stroke:none;fillRule:nonzero;fill:rgb(93.333333%,93.333333%,93.333333%);fill-opacity:1;" d="M 46.277344 82.5 L 74.277344 82.5 C 75.78125 82.5 77 83.675781 77 85.125 C 77 86.574219 75.78125 87.75 74.277344 87.75 L 46.277344 87.75 C 44.773438 87.75 43.554688 86.574219 43.554688 85.125 C 43.554688 83.675781 44.773438 82.5 46.277344 82.5 Z M 46.277344 82.5 "/>
<path style=" stroke:none;fillRule:nonzero;fill:rgb(93.333333%,93.333333%,93.333333%);fill-opacity:1;" d="M 45.109375 93 L 119.777344 93 C 120.636719 93 121.332031 93.671875 121.332031 94.5 C 121.332031 95.328125 120.636719 96 119.777344 96 L 45.109375 96 C 44.253906 96 43.554688 95.328125 43.554688 94.5 C 43.554688 93.671875 44.253906 93 45.109375 93 Z M 45.109375 93 "/>
<path style=" stroke:none;fillRule:nonzero;fill:rgb(93.333333%,93.333333%,93.333333%);fill-opacity:1;" d="M 34.222656 118.5 C 34.222656 122.640625 30.738281 126 26.445312 126 C 22.148438 126 18.667969 122.640625 18.667969 118.5 C 18.667969 114.359375 22.148438 111 26.445312 111 C 30.738281 111 34.222656 114.359375 34.222656 118.5 Z M 34.222656 118.5 "/>
<path style=" stroke:none;fillRule:nonzero;fill:rgb(93.333333%,93.333333%,93.333333%);fill-opacity:1;" d="M 46.277344 112.5 L 74.277344 112.5 C 75.78125 112.5 77 113.675781 77 115.125 C 77 116.574219 75.78125 117.75 74.277344 117.75 L 46.277344 117.75 C 44.773438 117.75 43.554688 116.574219 43.554688 115.125 C 43.554688 113.675781 44.773438 112.5 46.277344 112.5 Z M 46.277344 112.5 "/>
<path style=" stroke:none;fillRule:nonzero;fill:rgb(93.333333%,93.333333%,93.333333%);fill-opacity:1;" d="M 45.109375 123 L 119.777344 123 C 120.636719 123 121.332031 123.671875 121.332031 124.5 C 121.332031 125.328125 120.636719 126 119.777344 126 L 45.109375 126 C 44.253906 126 43.554688 125.328125 43.554688 124.5 C 43.554688 123.671875 44.253906 123 45.109375 123 Z M 45.109375 123 "/>
<path style=" stroke:none;fillRule:nonzero;fill:rgb(93.333333%,93.333333%,93.333333%);fill-opacity:1;" d="M 34.222656 148.5 C 34.222656 152.640625 30.738281 156 26.445312 156 C 22.148438 156 18.667969 152.640625 18.667969 148.5 C 18.667969 144.359375 22.148438 141 26.445312 141 C 30.738281 141 34.222656 144.359375 34.222656 148.5 Z M 34.222656 148.5 "/>
<path style=" stroke:none;fillRule:nonzero;fill:rgb(93.333333%,93.333333%,93.333333%);fill-opacity:1;" d="M 46.277344 142.5 L 74.277344 142.5 C 75.78125 142.5 77 143.675781 77 145.125 C 77 146.574219 75.78125 147.75 74.277344 147.75 L 46.277344 147.75 C 44.773438 147.75 43.554688 146.574219 43.554688 145.125 C 43.554688 143.675781 44.773438 142.5 46.277344 142.5 Z M 46.277344 142.5 "/>
<path style=" stroke:none;fillRule:nonzero;fill:rgb(93.333333%,93.333333%,93.333333%);fill-opacity:1;" d="M 45.109375 153 L 119.777344 153 C 120.636719 153 121.332031 153.671875 121.332031 154.5 C 121.332031 155.328125 120.636719 156 119.777344 156 L 45.109375 156 C 44.253906 156 43.554688 155.328125 43.554688 154.5 C 43.554688 153.671875 44.253906 153 45.109375 153 Z M 45.109375 153 "/>
</g>
</svg>
