<svg width="140" height="180" viewBox="0 0 140 180" fill="none" xmlns="http://www.w3.org/2000/svg">
<rect x="0.5" y="0.5" width="139" height="179" rx="9.5" fill="white" stroke="#BBBBBB"/>
<path d="M20.18 31V18.2H16.22V16.1H26.42V18.2H22.52V31H20.18ZM34.6191 31.24C33.5391 31.24 32.5324 31.0467 31.5991 30.66C30.6791 30.2733 29.8657 29.7333 29.1591 29.04C28.4657 28.3467 27.9191 27.5333 27.5191 26.6C27.1324 25.6667 26.9391 24.6467 26.9391 23.54C26.9391 22.4333 27.1324 21.4133 27.5191 20.48C27.9191 19.5333 28.4657 18.72 29.1591 18.04C29.8524 17.3467 30.6657 16.8133 31.5991 16.44C32.5324 16.0533 33.5391 15.86 34.6191 15.86C35.7124 15.86 36.7191 16.0533 37.6391 16.44C38.5724 16.8133 39.3857 17.3467 40.0791 18.04C40.7857 18.7333 41.3324 19.5467 41.7191 20.48C42.1057 21.4133 42.2991 22.4333 42.2991 23.54C42.2991 24.6467 42.0991 25.6667 41.6991 26.6C41.3124 27.5333 40.7724 28.3467 40.0791 29.04C39.3857 29.7333 38.5724 30.2733 37.6391 30.66C36.7057 31.0467 35.6991 31.24 34.6191 31.24ZM34.6191 29.08C35.3924 29.08 36.0991 28.94 36.7391 28.66C37.3924 28.38 37.9591 27.9933 38.4391 27.5C38.9191 26.9933 39.2924 26.4067 39.5591 25.74C39.8257 25.06 39.9591 24.3267 39.9591 23.54C39.9591 22.7533 39.8257 22.0267 39.5591 21.36C39.2924 20.6933 38.9191 20.1067 38.4391 19.6C37.9591 19.0933 37.3924 18.7 36.7391 18.42C36.0991 18.14 35.3924 18 34.6191 18C33.8457 18 33.1324 18.14 32.4791 18.42C31.8391 18.7 31.2791 19.0933 30.7991 19.6C30.3191 20.1067 29.9457 20.6933 29.6791 21.36C29.4257 22.0267 29.2991 22.7533 29.2991 23.54C29.2991 24.3267 29.4257 25.06 29.6791 25.74C29.9457 26.4067 30.3191 26.9933 30.7991 27.5C31.2791 27.9933 31.8457 28.38 32.4991 28.66C33.1524 28.94 33.8591 29.08 34.6191 29.08ZM44.7377 31V16.1H54.5577V18.2H47.0977V22.48H54.1577V24.58H47.0977V28.9H54.5577V31H44.7377ZM56.5494 31V16.1H66.2494V18.2H58.9094V22.68H65.4494V24.78H58.9094V31H56.5494ZM68.0291 31V16.1H70.3891V28.9H76.8291V31H68.0291ZM17.32 51V40.18H19.58V51H17.32ZM17.32 38.7V36.1H19.58V38.7H17.32ZM22.2423 51V36.1H28.5223C29.4557 36.1 30.2623 36.2667 30.9423 36.6C31.6223 36.92 32.1423 37.3867 32.5023 38C32.8623 38.6 33.0423 39.3133 33.0423 40.14C33.0423 40.86 32.8557 41.52 32.4823 42.12C32.1223 42.7067 31.5557 43.1733 30.7823 43.52V42.52C31.4623 42.7867 32.0157 43.1267 32.4423 43.54C32.869 43.94 33.1757 44.3933 33.3623 44.9C33.5623 45.4067 33.6623 45.94 33.6623 46.5C33.6623 47.9 33.2023 49 32.2823 49.8C31.3757 50.6 30.129 51 28.5423 51H22.2423ZM24.6023 48.9H28.7223C29.509 48.9 30.1357 48.6867 30.6023 48.26C31.069 47.82 31.3023 47.24 31.3023 46.52C31.3023 45.7867 31.069 45.2067 30.6023 44.78C30.1357 44.34 29.509 44.12 28.7223 44.12H24.6023V48.9ZM24.6023 42.04H28.5823C29.2223 42.04 29.7357 41.86 30.1223 41.5C30.509 41.1267 30.7023 40.64 30.7023 40.04C30.7023 39.44 30.509 38.9733 30.1223 38.64C29.7357 38.3067 29.2223 38.14 28.5823 38.14H24.6023V42.04ZM38.1394 51V38.2H34.1794V36.1H44.3794V38.2H40.4794V51H38.1394Z" fill="black"/>
<circle cx="24" cy="88" r="8" fill="#EEEEEE"/>
<rect x="40" y="82" width="43" height="5" rx="2.5" fill="#EEEEEE"/>
<rect x="40" y="92" width="84" height="3" rx="1.5" fill="#EEEEEE"/>
<circle cx="24" cy="120" r="8" fill="#EEEEEE"/>
<rect x="40" y="114" width="43" height="5" rx="2.5" fill="#EEEEEE"/>
<rect x="40" y="124" width="84" height="3" rx="1.5" fill="#EEEEEE"/>
<circle cx="24" cy="152" r="8" fill="#EEEEEE"/>
<rect x="40" y="146" width="43" height="5" rx="2.5" fill="#EEEEEE"/>
<rect x="40" y="156" width="84" height="3" rx="1.5" fill="#EEEEEE"/>
</svg>
