<svg width="140" height="180" viewBox="0 0 140 180" fill="none" xmlns="http://www.w3.org/2000/svg">
<rect x="0.5" y="0.5" width="139" height="179" rx="9.5" fill="white" stroke="#BBBBBB"/>
<path d="M20.18 31V18.2H16.22V16.1H26.42V18.2H22.52V31H20.18ZM34.6191 31.24C33.5391 31.24 32.5324 31.0467 31.5991 30.66C30.6791 30.2733 29.8657 29.7333 29.1591 29.04C28.4657 28.3467 27.9191 27.5333 27.5191 26.6C27.1324 25.6667 26.9391 24.6467 26.9391 23.54C26.9391 22.4333 27.1324 21.4133 27.5191 20.48C27.9191 19.5333 28.4657 18.72 29.1591 18.04C29.8524 17.3467 30.6657 16.8133 31.5991 16.44C32.5324 16.0533 33.5391 15.86 34.6191 15.86C35.7124 15.86 36.7191 16.0533 37.6391 16.44C38.5724 16.8133 39.3857 17.3467 40.0791 18.04C40.7857 18.7333 41.3324 19.5467 41.7191 20.48C42.1057 21.4133 42.2991 22.4333 42.2991 23.54C42.2991 24.6467 42.0991 25.6667 41.6991 26.6C41.3124 27.5333 40.7724 28.3467 40.0791 29.04C39.3857 29.7333 38.5724 30.2733 37.6391 30.66C36.7057 31.0467 35.6991 31.24 34.6191 31.24ZM34.6191 29.08C35.3924 29.08 36.0991 28.94 36.7391 28.66C37.3924 28.38 37.9591 27.9933 38.4391 27.5C38.9191 26.9933 39.2924 26.4067 39.5591 25.74C39.8257 25.06 39.9591 24.3267 39.9591 23.54C39.9591 22.7533 39.8257 22.0267 39.5591 21.36C39.2924 20.6933 38.9191 20.1067 38.4391 19.6C37.9591 19.0933 37.3924 18.7 36.7391 18.42C36.0991 18.14 35.3924 18 34.6191 18C33.8457 18 33.1324 18.14 32.4791 18.42C31.8391 18.7 31.2791 19.0933 30.7991 19.6C30.3191 20.1067 29.9457 20.6933 29.6791 21.36C29.4257 22.0267 29.2991 22.7533 29.2991 23.54C29.2991 24.3267 29.4257 25.06 29.6791 25.74C29.9457 26.4067 30.3191 26.9933 30.7991 27.5C31.2791 27.9933 31.8457 28.38 32.4991 28.66C33.1524 28.94 33.8591 29.08 34.6191 29.08ZM44.7377 31V16.1H54.5577V18.2H47.0977V22.48H54.1577V24.58H47.0977V28.9H54.5577V31H44.7377ZM56.5494 31V16.1H58.9094V31H56.5494ZM68.7386 31.24C67.6853 31.24 66.7053 31.0467 65.7986 30.66C64.9053 30.2733 64.1253 29.74 63.4586 29.06C62.8053 28.3667 62.2919 27.5533 61.9186 26.62C61.5453 25.6867 61.3586 24.66 61.3586 23.54C61.3586 22.4333 61.5386 21.4133 61.8986 20.48C62.2719 19.5333 62.7919 18.72 63.4586 18.04C64.1253 17.3467 64.9053 16.8133 65.7986 16.44C66.6919 16.0533 67.6719 15.86 68.7386 15.86C69.7919 15.86 70.7319 16.04 71.5586 16.4C72.3986 16.76 73.1053 17.2333 73.6786 17.82C74.2519 18.3933 74.6653 19.02 74.9186 19.7L72.7986 20.7C72.4786 19.9 71.9653 19.2533 71.2586 18.76C70.5653 18.2533 69.7253 18 68.7386 18C67.7519 18 66.8786 18.2333 66.1186 18.7C65.3586 19.1667 64.7653 19.8133 64.3386 20.64C63.9253 21.4667 63.7186 22.4333 63.7186 23.54C63.7186 24.6467 63.9253 25.62 64.3386 26.46C64.7653 27.2867 65.3586 27.9333 66.1186 28.4C66.8786 28.8533 67.7519 29.08 68.7386 29.08C69.7253 29.08 70.5653 28.8333 71.2586 28.34C71.9653 27.8467 72.4786 27.2 72.7986 26.4L74.9186 27.4C74.6653 28.0667 74.2519 28.6933 73.6786 29.28C73.1053 29.8667 72.3986 30.34 71.5586 30.7C70.7319 31.06 69.7919 31.24 68.7386 31.24Z" fill="black"/>
<circle cx="24" cy="88" r="8" fill="#EEEEEE"/>
<rect x="40" y="82" width="43" height="5" rx="2.5" fill="#EEEEEE"/>
<rect x="40" y="92" width="84" height="3" rx="1.5" fill="#EEEEEE"/>
<circle cx="24" cy="120" r="8" fill="#EEEEEE"/>
<rect x="40" y="114" width="43" height="5" rx="2.5" fill="#EEEEEE"/>
<rect x="40" y="124" width="84" height="3" rx="1.5" fill="#EEEEEE"/>
<circle cx="24" cy="152" r="8" fill="#EEEEEE"/>
<rect x="40" y="146" width="43" height="5" rx="2.5" fill="#EEEEEE"/>
<rect x="40" y="156" width="84" height="3" rx="1.5" fill="#EEEEEE"/>
</svg>
